G04*
G04 #@! TF.GenerationSoftware,Altium Limited,Altium Designer,22.11.1 (43)*
G04*
G04 Layer_Physical_Order=1*
G04 Layer_Color=255*
%FSLAX25Y25*%
%MOIN*%
G70*
G04*
G04 #@! TF.SameCoordinates,B9669DE6-A21E-4E6A-9EE2-FAEABAE17C55*
G04*
G04*
G04 #@! TF.FilePolarity,Positive*
G04*
G01*
G75*
%ADD14C,0.01000*%
%ADD20C,0.00600*%
%ADD23R,0.03197X0.02985*%
%ADD24R,0.03937X0.03543*%
G04:AMPARAMS|DCode=25|XSize=49.21mil|YSize=31.5mil|CornerRadius=0mil|HoleSize=0mil|Usage=FLASHONLY|Rotation=45.000|XOffset=0mil|YOffset=0mil|HoleType=Round|Shape=Rectangle|*
%AMROTATEDRECTD25*
4,1,4,-0.00626,-0.02854,-0.02854,-0.00626,0.00626,0.02854,0.02854,0.00626,-0.00626,-0.02854,0.0*
%
%ADD25ROTATEDRECTD25*%

%ADD26R,0.04921X0.03150*%
%ADD27R,0.03150X0.04921*%
%ADD28R,0.03400X0.03100*%
%ADD29R,0.05512X0.04134*%
%ADD30R,0.03591X0.03772*%
%ADD31R,0.04724X0.04724*%
%ADD32R,0.04724X0.04724*%
%ADD33R,0.03150X0.03740*%
%ADD34R,0.03937X0.06299*%
%ADD35R,0.03394X0.02894*%
%ADD36O,0.07087X0.01181*%
%ADD37O,0.01181X0.07087*%
%ADD38R,0.04331X0.04921*%
%ADD39R,0.07480X0.09449*%
%ADD40R,0.02559X0.02362*%
%ADD41R,0.03150X0.03937*%
%ADD42R,0.03963X0.05544*%
%ADD43R,0.02985X0.03197*%
%ADD44R,0.03543X0.03937*%
%ADD45R,0.01575X0.01968*%
%ADD46R,0.03937X0.02953*%
%ADD47R,0.05591X0.08386*%
%ADD48R,0.05709X0.05315*%
%ADD49R,0.04134X0.03543*%
%ADD50R,0.03543X0.02953*%
%ADD51R,0.02362X0.04528*%
%ADD52R,0.07087X0.04528*%
%ADD53R,0.20866X0.06693*%
%ADD54R,0.12598X0.04724*%
%ADD55R,0.05118X0.06102*%
%ADD56R,0.03150X0.04724*%
%ADD57R,0.05906X0.07874*%
%ADD58R,0.14961X0.07677*%
%ADD59R,0.03150X0.02362*%
%ADD76R,0.03150X0.02165*%
%ADD84C,0.10433*%
%ADD85C,0.11221*%
%ADD86R,0.10433X0.10433*%
%ADD94C,0.00400*%
%ADD95C,0.01968*%
%ADD96C,0.00598*%
%ADD97C,0.08268*%
%ADD98C,0.11957*%
%ADD99C,0.05512*%
%ADD100C,0.06614*%
%ADD101C,0.09449*%
%ADD102C,0.19193*%
%ADD103C,0.04724*%
%ADD104C,0.02000*%
%ADD105C,0.01772*%
D14*
X292907Y428393D02*
G03*
X292905Y428328I998J-65D01*
G01*
Y425345D02*
G03*
X292671Y424768I764J-646D01*
G01*
X293139Y431824D02*
G03*
X293105Y431432I6074J-722D01*
G01*
X293098Y289228D02*
G03*
X293099Y289188I6115J142D01*
G01*
X447204Y321260D02*
X454850D01*
X351399Y484433D02*
X351580Y484252D01*
X347399Y484433D02*
X351399D01*
X386221Y393307D02*
X448032D01*
X379528Y400000D02*
X386221Y393307D01*
X342683Y401400D02*
X397025D01*
X343263Y402800D02*
X410586D01*
X330709Y415354D02*
X343263Y402800D01*
X336603Y407480D02*
X342683Y401400D01*
X358661Y400000D02*
X379528D01*
X350394Y391732D02*
X358661Y400000D01*
X397025Y401400D02*
X402756Y395669D01*
X410586Y402800D02*
X418110Y395276D01*
X329134Y391732D02*
X350394D01*
X321260Y399606D02*
X329134Y391732D01*
X299213Y399606D02*
X321260D01*
X328688Y459006D02*
Y470322D01*
X306693Y437011D02*
X328688Y459006D01*
X311417Y438378D02*
X341445Y468406D01*
X306693Y434252D02*
Y437011D01*
X311417Y438189D02*
Y438378D01*
X341445Y468406D02*
Y470874D01*
X341823Y471252D01*
X342913D01*
Y472146D01*
X293139Y431824D02*
X293389Y433929D01*
X308279Y448819D01*
X314961Y407480D02*
X336603D01*
X338189Y428748D02*
X340967Y425970D01*
X335827Y438189D02*
X338189Y435827D01*
X319743Y438189D02*
X335827D01*
X338189Y428748D02*
Y435827D01*
X341840Y424598D02*
X343111Y423327D01*
X340967Y425970D02*
X340967D01*
X306540Y424986D02*
X319743Y438189D01*
X341840Y424598D02*
Y425097D01*
X340967Y425970D02*
X341840Y425097D01*
X330709Y424386D02*
X341840Y413255D01*
Y412787D02*
Y413255D01*
Y412787D02*
X343111Y411516D01*
X330709Y424386D02*
Y431102D01*
X343111Y411516D02*
X343308D01*
X343111Y423327D02*
X343308D01*
X291120Y374223D02*
Y417891D01*
X292033Y418805D01*
X292324Y419447D02*
X292670Y424764D01*
X292520Y374803D02*
Y417311D01*
X292033Y418805D02*
X292324Y419447D01*
X292520Y417311D02*
X300194Y424986D01*
X292905Y425345D02*
Y428328D01*
X292907Y428393D02*
X293105Y431432D01*
X292670Y424764D02*
X292671Y424768D01*
X300194Y424986D02*
X306540D01*
X291120Y374223D02*
X293098Y289228D01*
X292520Y374803D02*
X292813Y374510D01*
X299213Y368110D01*
X293099Y289188D02*
X293389Y279446D01*
X299213Y273622D01*
X328688Y470322D02*
X342717Y484350D01*
X342913D01*
X346560Y471154D02*
X350001D01*
X343119D02*
X346560D01*
X346415Y446457D02*
X349320D01*
X367717Y443701D02*
X367925D01*
X368825Y442801D01*
X408837D01*
X409673Y443636D01*
Y445228D01*
X410508Y446063D01*
X414370D01*
X350001Y471154D02*
X350288Y470866D01*
X364173D01*
X342914Y459154D02*
X343899Y458169D01*
X345965D02*
X346063Y458268D01*
X348316D01*
X350000Y459341D02*
X357194D01*
X348397Y458349D02*
X349008D01*
X343899Y458169D02*
X345965D01*
X348316Y458268D02*
X348397Y458349D01*
X349008D02*
X350000Y459341D01*
X364173Y470866D02*
X380316D01*
X364173Y470866D02*
X364173Y470866D01*
X380316D02*
X380316Y470866D01*
X342914Y471358D02*
X343119Y471154D01*
X346457Y483491D02*
X347399Y484433D01*
X345128Y483317D02*
X346309D01*
X346457Y483465D02*
Y483491D01*
X346309Y483317D02*
X346457Y483465D01*
X344882Y483071D02*
X345128Y483317D01*
X364173Y483571D02*
X379238D01*
X380132Y482677D01*
X380316D01*
X350000Y446456D02*
X352906D01*
X352907Y446457D02*
X358514D01*
X352906Y446456D02*
X352907Y446457D01*
X358514Y446457D02*
X380315D01*
X343801Y446456D02*
X346456D01*
X342914Y447342D02*
X343801Y446456D01*
X349320Y446457D02*
X350000Y447136D01*
X364173Y458268D02*
X364173Y458268D01*
X358268D02*
X364173D01*
X364173Y458268D02*
X380315D01*
X357194Y459341D02*
X358268Y458268D01*
X447547Y447925D02*
Y454029D01*
Y447925D02*
X449409Y446063D01*
X445472Y456104D02*
Y458071D01*
Y456104D02*
X447547Y454029D01*
X416005Y447698D02*
Y452787D01*
X414370Y446063D02*
X416005Y447698D01*
X410919Y457874D02*
X416005Y452787D01*
X410236Y457874D02*
X410919D01*
X447010Y321454D02*
X447204Y321260D01*
X443432Y322726D02*
Y322923D01*
X444704Y321454D02*
X447010D01*
X443432Y322726D02*
X444704Y321454D01*
X506228Y281743D02*
Y287598D01*
X503570Y279085D02*
X506228Y281743D01*
X503275Y279085D02*
X503570D01*
X443006Y343983D02*
Y344180D01*
Y339773D02*
Y343983D01*
X460869Y344873D02*
X460953Y344957D01*
Y347047D01*
X442312Y344873D02*
X460869D01*
X460953Y347047D02*
Y347939D01*
X460869Y348023D02*
X460953Y347939D01*
X444132Y331023D02*
X448875D01*
X443932Y330823D02*
X444132Y331023D01*
X454816Y331068D02*
X454850Y331102D01*
X448920Y331068D02*
X454816D01*
X448875Y331023D02*
X448920Y331068D01*
X454850Y305512D02*
X461447D01*
X463136Y303823D01*
X442312Y344873D02*
X443006Y344180D01*
X442312Y345070D02*
X443395Y346153D01*
X442312Y344676D02*
Y344873D01*
X449075Y301123D02*
X449198D01*
X449650Y301575D01*
X454850D01*
X514299Y340945D02*
X519597D01*
X531847Y344256D02*
Y351984D01*
X530575Y352961D02*
X530870D01*
X531847Y351984D01*
X450457Y299641D02*
X454816D01*
X448989Y301109D02*
X450457Y299641D01*
X454816D02*
X454850Y299606D01*
X514299Y337008D02*
X524598D01*
X531847Y344256D01*
X448989Y301109D02*
Y301123D01*
X524175Y345523D02*
X524175D01*
X519597Y340945D02*
X524175Y345523D01*
X501317Y244423D02*
X501517Y244223D01*
X491975Y244423D02*
X501317D01*
X501517Y238223D02*
Y244223D01*
X501560Y232223D02*
Y238180D01*
X501517Y238223D02*
X501560Y238180D01*
X442312Y344676D02*
X443006Y343983D01*
X443395Y346153D02*
Y350273D01*
X442312Y344873D02*
Y345070D01*
X524043Y345654D02*
X524175Y345523D01*
X524043Y345654D02*
Y351394D01*
X522575Y352665D02*
X522772D01*
X524043Y351394D01*
X561767Y349262D02*
X566875D01*
X546696Y334191D02*
X561767Y349262D01*
X566875D02*
X575162D01*
X578150Y346274D01*
X546302Y334191D02*
X546696D01*
X545227Y333117D02*
X546302Y334191D01*
X545227Y332723D02*
Y333117D01*
D20*
X446261Y310398D02*
X447210Y309449D01*
X454850D01*
X449382Y311333D02*
X449424Y311375D01*
X454808D02*
X454850Y311417D01*
X449424Y311375D02*
X454808D01*
X461417Y312598D02*
X466140D01*
X448425Y324803D02*
X450000Y323228D01*
X419292Y327165D02*
X454850D01*
X410361Y318234D02*
X419292Y327165D01*
X454850Y323228D02*
X454853Y323226D01*
X450000Y323228D02*
X454850D01*
X491475Y213423D02*
X493861D01*
X495866Y211417D01*
X481945Y207230D02*
X482239Y207524D01*
X482741D01*
X485236Y210020D01*
Y211417D01*
X481182Y207230D02*
X481945D01*
X479075Y205123D02*
X481182Y207230D01*
X485236Y211417D02*
X486260Y212441D01*
Y218958D01*
X486475Y219173D01*
X479375D02*
X486260D01*
X486475D01*
X452175Y277523D02*
Y281642D01*
X452362Y281829D01*
X450607Y288180D02*
Y294379D01*
Y288180D02*
X452112Y286675D01*
X452362D01*
X451898Y295669D02*
X454850D01*
X450607Y294379D02*
X451898Y295669D01*
X450625Y284226D02*
X454048D01*
X454850Y285029D02*
Y293701D01*
X449043Y277037D02*
Y282644D01*
X454048Y284226D02*
X454850Y285029D01*
X449043Y282644D02*
X450625Y284226D01*
X425394Y407677D02*
X437344D01*
X424409Y408661D02*
X425394Y407677D01*
X478669Y347047D02*
Y366352D01*
X437344Y407677D02*
X478669Y366352D01*
X407087Y408661D02*
X407874Y407874D01*
X409055D01*
X480638Y347047D02*
Y367117D01*
X431110Y416645D02*
X480638Y367117D01*
X413495Y416645D02*
X431110D01*
X409758Y412908D02*
X413495Y416645D01*
X409758Y408577D02*
Y412908D01*
X409055Y407874D02*
X409758Y408577D01*
X397329Y418898D02*
X431479D01*
X388224Y409793D02*
X397329Y418898D01*
X388224Y408697D02*
Y409793D01*
X482606Y347047D02*
Y367770D01*
X431479Y418898D02*
X482606Y367770D01*
X370472Y377559D02*
X381890Y388976D01*
X440945D01*
X326772Y377559D02*
X370472D01*
X347734Y380764D02*
X371709D01*
X381496Y390551D02*
X446457D01*
X371709Y380764D02*
X381496Y390551D01*
X440945Y388976D02*
X451316Y378605D01*
X451316D01*
X488512Y383839D02*
X490874Y386201D01*
Y398819D01*
X488512Y347047D02*
Y383839D01*
X483858Y455626D02*
X484020Y455787D01*
X483858Y417717D02*
Y455626D01*
X494417Y350157D02*
X494771Y350511D01*
Y357785D01*
X494417Y347047D02*
Y350157D01*
X500700Y359124D02*
Y427253D01*
X496457Y430217D02*
X497736D01*
X500700Y427253D01*
X495177Y430217D02*
X496461D01*
X502447Y356389D02*
Y425183D01*
X502291Y356234D02*
X502447Y356389D01*
Y425183D02*
X507087Y429823D01*
X500349Y358772D02*
X500700Y359124D01*
X495758Y358772D02*
X500349D01*
X502291Y347047D02*
Y356234D01*
X500761Y352290D02*
Y357088D01*
X504260Y387508D02*
X512598Y395847D01*
X504260Y347047D02*
Y387508D01*
X498354Y351950D02*
X499076Y352671D01*
X500323Y351851D02*
X500761Y352290D01*
X498354Y347047D02*
Y351950D01*
X494771Y357785D02*
X495758Y358772D01*
X500323Y347047D02*
Y351851D01*
X499076Y352671D02*
Y352988D01*
X415660Y281236D02*
X416048D01*
X418110Y283298D02*
Y283686D01*
X415660Y281236D02*
X417717D01*
X415048D02*
X415660D01*
X416048D02*
X418110Y283298D01*
X405976Y290108D02*
X414848Y281236D01*
X405976Y290108D02*
Y318377D01*
X424606Y337008D02*
X454850D01*
X405976Y318377D02*
X424606Y337008D01*
X423258Y288362D02*
X431777Y279842D01*
X406976Y292681D02*
X411295Y288362D01*
X423258D01*
X406976Y292681D02*
Y316263D01*
X425752Y335039D02*
X454850D01*
X406976Y316263D02*
X425752Y335039D01*
X431777Y279842D02*
X433071D01*
X434646Y281417D01*
X429514Y277579D02*
X431777Y279842D01*
X429514Y275968D02*
Y277579D01*
X429340Y275794D02*
X429514Y275968D01*
X338723Y389775D02*
X347734Y380764D01*
X321520Y397649D02*
X329394Y389775D01*
X338723D01*
X312510Y397649D02*
X321520D01*
X299213Y384351D02*
X312510Y397649D01*
X299213Y383858D02*
Y384351D01*
X320228Y384103D02*
X326772Y377559D01*
X320228Y384103D02*
X320228Y384103D01*
X314961Y389370D02*
Y391732D01*
Y389370D02*
X320228Y384103D01*
Y384103D02*
Y384103D01*
X392913Y383071D02*
X397747Y387905D01*
X436734D02*
X470575Y354064D01*
X397747Y387905D02*
X436734D01*
X470575Y353023D02*
Y354064D01*
Y353023D02*
X470685Y352913D01*
X343308Y423721D02*
X350190D01*
X363780Y434646D02*
X379922D01*
X346457D02*
X363780D01*
X331383Y289370D02*
X346457Y304443D01*
X330709Y289370D02*
X331383D01*
X330709Y273622D02*
X335039Y269291D01*
X348425D01*
X330709Y244837D02*
X347978Y227568D01*
X330709Y244837D02*
Y257874D01*
X470486Y394081D02*
X486543Y378024D01*
X470486Y394081D02*
Y394081D01*
X465748Y398819D02*
X470486Y394081D01*
X455770Y374151D02*
X474732Y355189D01*
X455770Y374151D02*
Y374151D01*
X474732Y347047D02*
Y355189D01*
X460953Y378875D02*
X461014Y378936D01*
X462816D01*
X476701Y365052D01*
X364961Y309449D02*
X376916D01*
X359449D02*
X364961D01*
Y299803D02*
Y309449D01*
X359449Y309449D02*
X359449Y309449D01*
X376916D02*
X379702Y306662D01*
X410361Y306962D02*
X413779Y303543D01*
X413891D01*
X410361Y306962D02*
Y318234D01*
X379702Y306662D02*
X380640D01*
X381890Y305412D01*
X350675Y308661D02*
X352362D01*
X353150Y309449D01*
X346457Y304443D02*
X350675Y308661D01*
X346457Y299213D02*
Y304443D01*
X384099Y258367D02*
X388135Y254331D01*
X397638D01*
X381102Y258367D02*
X384099D01*
X364173Y410630D02*
X364173Y410630D01*
X379921D01*
X346850Y410630D02*
X364173D01*
X344685Y410630D02*
X346850D01*
X343701Y411614D02*
X344685Y410630D01*
X362353Y246605D02*
Y251969D01*
X362205Y246457D02*
X362353Y246605D01*
Y251969D02*
X365748D01*
X358959D02*
X362353D01*
X359353Y252362D02*
X359842D01*
X358959Y251969D02*
X359353Y252362D01*
X359449Y208079D02*
Y208965D01*
X362598D01*
X365748D01*
X362205Y202922D02*
Y208571D01*
X358858Y293504D02*
X361417D01*
X364961D01*
X361417D02*
X361811Y293110D01*
Y288583D02*
Y293110D01*
X350000Y252362D02*
X353543D01*
X346457D02*
X350000D01*
X350394Y246457D02*
Y251969D01*
X350000Y252362D02*
X350394Y251969D01*
X346457Y208965D02*
X353150D01*
X350394Y202371D02*
Y208571D01*
X346457Y208965D02*
X346457Y208965D01*
X349606Y293701D02*
X352756D01*
X346457D02*
X349606D01*
Y289370D02*
X350394Y288583D01*
X349606Y289370D02*
Y293701D01*
X346457Y292913D02*
X346542Y292828D01*
X346457Y292913D02*
Y293701D01*
X350190Y423721D02*
X350682Y423228D01*
X363779D01*
X379211D02*
X379605Y422835D01*
X379922D01*
X363779Y423228D02*
X379211D01*
X344194Y434646D02*
X346457D01*
X343308Y435532D02*
X344194Y434646D01*
X550098Y199023D02*
X583076Y232000D01*
Y234552D01*
X584350Y235827D01*
X455710Y216916D02*
Y217233D01*
X453775Y214981D02*
X455710Y216916D01*
X453775Y212223D02*
Y214981D01*
Y212223D02*
X466975Y199023D01*
X550098D01*
X528937Y297638D02*
X529134Y297441D01*
X514299Y297638D02*
X528937D01*
X434252Y469685D02*
X439080Y464857D01*
Y448125D02*
Y464857D01*
Y448125D02*
X441142Y446063D01*
X366142Y228132D02*
X379651D01*
X359842D02*
X366142D01*
X359842Y227568D02*
Y228132D01*
X347978Y227568D02*
X353543D01*
X359842Y226682D02*
Y227568D01*
X346850Y226441D02*
X347978Y227568D01*
X358555Y226281D02*
X359842Y227568D01*
X379651Y228132D02*
X382283Y225500D01*
X358555Y225395D02*
X359842Y226682D01*
X358555Y225395D02*
Y226281D01*
X382283Y220776D02*
Y225500D01*
X366142Y215657D02*
Y228132D01*
X346850Y215657D02*
Y226441D01*
X346457Y215264D02*
X346850Y215657D01*
X365748Y215264D02*
X366142Y215657D01*
X382283Y206944D02*
Y214676D01*
X387205Y207489D02*
X396457D01*
X386221Y206505D02*
X387205Y207489D01*
X382283Y206944D02*
X382722Y206505D01*
X386221D01*
X379224D02*
X382722D01*
X378346Y205627D02*
X379224Y206505D01*
X486543Y347047D02*
Y378024D01*
X472869Y347153D02*
Y354317D01*
X472975Y354423D01*
X496421Y347083D02*
Y357051D01*
X496457Y357087D01*
X496386Y347047D02*
X496421Y347083D01*
X476701Y347047D02*
Y365052D01*
X463386Y340945D02*
X466142Y338189D01*
X454850Y340945D02*
X463386D01*
X454850Y315354D02*
X457803D01*
X444623Y310398D02*
X446261D01*
X443476Y311545D02*
X444623Y310398D01*
X460125Y315708D02*
Y319497D01*
X461888Y321260D01*
X546850Y373622D02*
Y373728D01*
X533486Y373622D02*
X546850D01*
X509940Y350076D02*
X533486Y373622D01*
X509940Y344012D02*
Y350076D01*
X499564Y333636D02*
X509940Y344012D01*
X469047Y333636D02*
X499564D01*
X459123Y323712D02*
X469047Y333636D01*
X459123Y316674D02*
Y323712D01*
X457803Y315354D02*
X459123Y316674D01*
X461024Y323228D02*
X468504D01*
X424016Y383071D02*
X436614D01*
X422835D02*
X424016D01*
X514299Y282070D02*
X515525Y280844D01*
X514299Y282070D02*
Y293701D01*
X515525Y280844D02*
X515776D01*
X521673Y287446D02*
Y293681D01*
X514299Y295669D02*
X519685D01*
X521673Y293681D01*
X381890Y299312D02*
X383140Y298062D01*
X383611D02*
X383641Y298031D01*
X396457D02*
X397638Y299213D01*
X383140Y298062D02*
X383611D01*
X383641Y298031D02*
X396457D01*
X378346Y291354D02*
X379842Y289859D01*
X382040Y291929D02*
Y299312D01*
X378346Y291354D02*
Y291445D01*
X382040Y291929D02*
X385827D01*
X378346Y291445D02*
X379096D01*
X379580Y291929D02*
X382040D01*
X379205Y292304D02*
X379580Y291929D01*
X378346Y291445D02*
X379205Y292304D01*
X379096Y291445D02*
X379580Y291929D01*
X348425Y269291D02*
X353150D01*
X346457Y258661D02*
Y267323D01*
X348425Y269291D01*
X365354D02*
X376128D01*
X359449D02*
X365354D01*
X365748Y268898D01*
Y258268D02*
Y268898D01*
X376128Y269291D02*
X380952Y264467D01*
X381102D01*
Y250591D02*
Y258367D01*
Y250591D02*
X381496Y250197D01*
X385039D01*
X378399D02*
X381496D01*
X377953Y249319D02*
X378399Y249765D01*
Y250197D01*
X512598Y419888D02*
X514473Y421762D01*
X512598Y395847D02*
Y419888D01*
X516868Y429823D02*
X517717D01*
X516437D02*
X516868D01*
X514473Y427859D02*
X516437Y429823D01*
X514473Y421762D02*
Y427859D01*
X505807Y429823D02*
X507087D01*
X503843Y431787D02*
X505807Y429823D01*
X503843Y431787D02*
Y448169D01*
X497012Y455000D02*
X503843Y448169D01*
X493956Y430217D02*
Y453725D01*
Y430217D02*
X495177D01*
X488181Y455618D02*
X488350Y455787D01*
X488181Y428360D02*
Y455618D01*
X497012Y455000D02*
Y455787D01*
X510361Y437179D02*
Y445982D01*
X514904Y431787D02*
X516868Y429823D01*
X514904Y431787D02*
Y432635D01*
X510361Y437179D02*
X514904Y432635D01*
X501342Y455000D02*
Y455787D01*
Y455000D02*
X510361Y445982D01*
X492681Y455000D02*
Y455787D01*
X470181Y431102D02*
X470575D01*
Y455335D02*
X471028Y455787D01*
X470575Y455335D02*
X471028Y455787D01*
X470575Y431102D02*
Y455335D01*
X475213Y455787D02*
X475358D01*
X475197Y455772D02*
X475213Y455787D01*
X470575Y455335D02*
X471028Y455787D01*
X475197Y431102D02*
Y455772D01*
X436614Y383071D02*
X468802Y350883D01*
Y347072D02*
X468827Y347047D01*
X468802Y347072D02*
Y350883D01*
X444980Y316929D02*
X445861Y317810D01*
X418499Y317747D02*
X420043Y319291D01*
X450133Y317323D02*
X454850D01*
X445861Y317810D02*
X449646D01*
X418344Y317747D02*
X418499D01*
X420043Y319291D02*
X454850D01*
X449646Y317810D02*
X450133Y317323D01*
X414904Y314307D02*
X418344Y317747D01*
X470472Y317323D02*
X492449Y295346D01*
X464567Y317323D02*
X470472D01*
X463588Y315917D02*
X463869Y315637D01*
X468221D01*
X462429Y315917D02*
X463588D01*
X462205Y316142D02*
X462429Y315917D01*
X457803Y313386D02*
X460125Y315708D01*
X468221Y315637D02*
X488512Y295346D01*
Y287598D02*
Y295346D01*
X468504Y323228D02*
X496386Y295346D01*
X461888Y321260D02*
X462205D01*
X466858Y287598D02*
Y308809D01*
X466140Y312598D02*
X470795Y307943D01*
X466142Y309525D02*
Y309842D01*
Y309525D02*
X466858Y308809D01*
X470795Y287598D02*
Y307943D01*
X535433Y269427D02*
Y277362D01*
Y269427D02*
X535579Y269280D01*
X535585Y282351D02*
Y282410D01*
X535474Y282521D02*
X535585Y282410D01*
X527165Y307677D02*
X529134Y305709D01*
X527165Y307677D02*
Y307874D01*
X472764Y283155D02*
Y287598D01*
X466776Y276844D02*
X467026D01*
X468173Y277991D02*
Y278564D01*
X470975Y279629D02*
X473764Y282418D01*
X467026Y276844D02*
X468173Y277991D01*
X474732Y284488D02*
Y287598D01*
X470975Y278252D02*
Y279629D01*
X473764Y283520D02*
X474732Y284488D01*
X473764Y282418D02*
Y283520D01*
X468173Y278564D02*
X472764Y283155D01*
X470975Y278252D02*
X471951Y277276D01*
X472375D01*
X457375Y272123D02*
X466122D01*
X466775Y271470D01*
X469033Y273646D02*
X469675Y273005D01*
X463943Y274454D02*
X464751Y273646D01*
X469033D01*
X463943Y278979D02*
X465250Y280286D01*
X463943Y274454D02*
Y278979D01*
X469675Y254564D02*
Y273005D01*
X492681Y455000D02*
X493956Y453725D01*
X470685Y347158D02*
X470795Y347047D01*
X470685Y347158D02*
Y352913D01*
X526075Y350323D02*
X527275Y349123D01*
X459772Y353150D02*
X462921Y350000D01*
X456299Y353150D02*
X459772D01*
X462921Y347047D02*
Y350000D01*
X438976Y344882D02*
X439153D01*
X439162Y344873D01*
X417975Y294776D02*
X418474Y295276D01*
X425976D01*
X492449Y287598D02*
Y295346D01*
X496386Y287598D02*
Y295346D01*
X506406Y272054D02*
Y273901D01*
X504575Y270223D02*
X506406Y272054D01*
X454850Y313386D02*
X457803D01*
X441775Y253900D02*
Y304470D01*
Y253900D02*
X462552Y233123D01*
X434246Y316523D02*
X441228D01*
X441634Y316929D01*
X431046Y313323D02*
X434246Y316523D01*
X529065Y333647D02*
X529751D01*
X527241Y335575D02*
X529167D01*
X529345Y335753D01*
X529751Y333647D02*
X529975Y333423D01*
X546835Y347683D02*
Y363902D01*
X514299Y329134D02*
X528286D01*
X546835Y347683D01*
X529038Y333675D02*
X529065Y333647D01*
X514333Y331137D02*
X525490D01*
X528028Y333675D01*
X514299Y333071D02*
X514333Y333037D01*
X524703D01*
X527241Y335575D01*
X528028Y333675D02*
X529038D01*
X514299Y331102D02*
X514333Y331137D01*
X546835Y373744D02*
X546850Y373728D01*
X535575Y345323D02*
Y361759D01*
X535511Y361823D02*
X535575Y361759D01*
X548433Y399673D02*
X550575Y397532D01*
X546433Y401673D02*
X548433Y399673D01*
X443328Y256270D02*
Y274066D01*
X443406Y294402D02*
Y294894D01*
X441775Y304470D02*
X441806Y304502D01*
X471072Y226572D02*
X475322Y230823D01*
X462552Y233123D02*
X488875D01*
X443336Y274074D02*
Y294331D01*
X475322Y230823D02*
X478775D01*
X470875Y226572D02*
X471072D01*
X473978Y235707D02*
X488875D01*
X441806Y304502D02*
Y304994D01*
X443328Y274066D02*
X443336Y274074D01*
Y294331D02*
X443406Y294402D01*
X443328Y256270D02*
X463891Y235707D01*
X444583Y296070D02*
X445075D01*
X443406Y294894D02*
X444583Y296070D01*
X470678Y226572D02*
X470875D01*
X425976Y295276D02*
X426475Y294776D01*
X472764Y347047D02*
X472869Y347153D01*
X414904Y313323D02*
X417975Y310252D01*
Y301469D02*
Y310252D01*
X414904Y313323D02*
Y314307D01*
X431046Y312339D02*
Y313323D01*
X542818Y440351D02*
X544704D01*
X541732Y441437D02*
X542818Y440351D01*
X544704D02*
X548433Y436622D01*
Y430972D02*
Y436622D01*
X462863Y281723D02*
X462892Y281752D01*
Y287569D01*
X462921Y287598D01*
X467861Y282143D02*
Y283522D01*
X467605Y281888D02*
X467861Y282143D01*
X467593Y281888D02*
X467605D01*
X465990Y280286D02*
X467593Y281888D01*
X465001Y282272D02*
X465135Y282138D01*
X464775Y235707D02*
X465678D01*
Y235698D02*
Y235707D01*
Y235698D02*
X467278D01*
Y237903D01*
X468878D01*
Y234207D02*
Y237903D01*
Y234207D02*
X470478D01*
Y237903D01*
X472078D01*
Y234207D02*
Y237903D01*
Y234207D02*
X473678D01*
Y235707D01*
X473978D01*
X521675Y278023D02*
Y280423D01*
X520364Y278023D02*
X521675D01*
X520364Y276423D02*
Y278023D01*
Y276423D02*
X523175D01*
Y274823D02*
Y276423D01*
X519239Y274823D02*
X523175D01*
X519239Y273223D02*
Y274823D01*
Y273223D02*
X523175D01*
Y271623D02*
Y273223D01*
X519239Y271623D02*
X523175D01*
X519239Y270023D02*
Y271623D01*
Y270023D02*
X523175D01*
Y268423D02*
Y270023D01*
X519239Y268423D02*
X523175D01*
X519239Y266823D02*
Y268423D01*
Y266823D02*
X523175D01*
Y265223D02*
Y266823D01*
X519239Y265223D02*
X523175D01*
X519239Y263623D02*
Y265223D01*
Y263623D02*
X523175D01*
Y262023D02*
Y263623D01*
X519239Y262023D02*
X523175D01*
X519239Y260423D02*
Y262023D01*
Y260423D02*
X521675D01*
Y260123D02*
Y260423D01*
X514106Y272875D02*
Y274001D01*
Y272875D02*
X514122D01*
Y271275D02*
Y272875D01*
X507041Y271275D02*
X514122D01*
X507041Y269675D02*
Y271275D01*
Y269675D02*
X514122D01*
Y268075D02*
Y269675D01*
X503771Y268075D02*
X514122D01*
X503771Y266475D02*
Y268075D01*
Y266475D02*
X514122D01*
Y264875D02*
Y266475D01*
X503771Y264875D02*
X514122D01*
X503771Y263275D02*
Y264875D01*
Y263275D02*
X514106D01*
Y262975D02*
Y263275D01*
X446375Y280158D02*
Y283054D01*
Y280158D02*
X447875D01*
Y278558D02*
Y280158D01*
X446072Y278558D02*
X447875D01*
X446072Y276958D02*
Y278558D01*
Y276958D02*
X447343D01*
Y275359D02*
Y276958D01*
X446072Y275359D02*
X447343D01*
X446072Y273759D02*
Y275359D01*
Y273759D02*
X447875D01*
Y272159D02*
Y273759D01*
X446072Y272159D02*
X447875D01*
X446072Y270559D02*
Y272159D01*
Y270559D02*
X446375D01*
Y270258D02*
Y270559D01*
X462554Y266496D02*
Y266888D01*
X460940Y266496D02*
X462554D01*
X460940Y264896D02*
Y266496D01*
Y264896D02*
X467392D01*
Y263296D02*
Y264896D01*
X458003Y263296D02*
X467392D01*
X458003Y261696D02*
Y263296D01*
Y261696D02*
X467392D01*
Y260096D02*
Y261696D01*
X458003Y260096D02*
X467392D01*
X458003Y258496D02*
Y260096D01*
Y258496D02*
X467392D01*
Y256896D02*
Y258496D01*
X458003Y256896D02*
X467392D01*
X458003Y255296D02*
Y256896D01*
Y255296D02*
X467392D01*
Y253696D02*
Y255296D01*
X458003Y253696D02*
X467392D01*
X458003Y252096D02*
Y253696D01*
Y252096D02*
X460307D01*
Y251796D02*
Y252096D01*
X446726Y269023D02*
X448459D01*
Y267327D02*
Y269023D01*
Y267327D02*
X450059D01*
Y275639D01*
X451659D01*
Y267327D02*
Y275639D01*
Y267327D02*
X453259D01*
Y275942D01*
X454859D01*
Y269023D02*
Y275942D01*
Y269023D02*
X456759D01*
X476701Y287598D02*
X476735Y287564D01*
Y281862D02*
Y287564D01*
Y281862D02*
X479775Y278823D01*
X479643Y278691D02*
X479775Y278823D01*
X479643Y278252D02*
Y278691D01*
X478667Y277276D02*
X479643Y278252D01*
X478175Y277276D02*
X478667D01*
X426475Y301469D02*
Y307768D01*
X431046Y312339D01*
X483483Y277276D02*
X483975D01*
X478669Y287598D02*
X478704Y287564D01*
Y283594D02*
X482506Y279791D01*
Y278252D02*
Y279791D01*
Y278252D02*
X483483Y277276D01*
X478704Y283594D02*
Y287564D01*
X480638Y284646D02*
X484955Y280328D01*
X480638Y284646D02*
Y287598D01*
X489222Y280328D02*
X489575Y279976D01*
X484955Y280328D02*
X489222D01*
X445075Y301976D02*
X445567D01*
X446743Y303152D01*
Y304152D01*
X447088Y304497D01*
X447096D01*
X450079Y307480D01*
X454850D01*
X497075Y279876D02*
X497102D01*
X498279Y281052D01*
Y282271D01*
X498630Y282623D01*
X504260Y284789D02*
Y287598D01*
X498630Y282623D02*
X502094D01*
X504260Y284789D01*
X452041Y297638D02*
X454850D01*
X447167Y290768D02*
Y292764D01*
X446375Y289976D02*
X447167Y290768D01*
Y292764D02*
X452041Y297638D01*
X539322Y332339D02*
Y332723D01*
X539519Y332132D02*
X540597Y331054D01*
X540990D01*
X542438Y329607D01*
X549550D01*
X552731Y331332D02*
Y332123D01*
X551050Y329651D02*
X552731Y331332D01*
X549594Y329651D02*
X551050D01*
X549550Y329607D02*
X549594Y329651D01*
X531497Y325197D02*
X537365Y331064D01*
X538047D01*
X539322Y332339D01*
X539519Y332132D02*
Y332526D01*
X514299Y325197D02*
X531497D01*
X489575Y271123D02*
Y274070D01*
X561187Y396835D02*
X564428Y400076D01*
X561187Y371856D02*
Y396835D01*
X568615Y400076D02*
X570677Y402138D01*
X564428Y400076D02*
X568615D01*
X556071Y464323D02*
X561375D01*
X561475Y464223D01*
X561575Y464323D01*
X582764D01*
X562529Y425760D02*
X570677D01*
X561892Y425123D02*
X562529Y425760D01*
X561575Y425123D02*
X561892D01*
X557006Y383354D02*
Y400278D01*
X566740Y410012D01*
X570677D01*
X550375Y376723D02*
X557006Y383354D01*
X550375Y372849D02*
Y376723D01*
X546835Y369309D02*
X550375Y372849D01*
X546835Y363902D02*
Y369309D01*
X564201Y443197D02*
X568988D01*
X570677Y441508D01*
X562437Y444961D02*
X564201Y443197D01*
X554315Y364984D02*
X561187Y371856D01*
X554315Y363902D02*
Y364984D01*
X547254Y460244D02*
X549335D01*
X546902Y459893D02*
X547254Y460244D01*
X546902Y448399D02*
Y459893D01*
Y448399D02*
X561667Y433634D01*
X570677D01*
X583142Y462468D02*
Y463945D01*
Y462468D02*
X586188Y459421D01*
X592252D01*
X582764Y464323D02*
X583142Y463945D01*
X572738Y431573D02*
X579175D01*
X570677Y433634D02*
X572738Y431573D01*
X579175D02*
X579176Y431572D01*
Y431521D02*
Y431572D01*
Y431521D02*
X581375Y429323D01*
Y416023D02*
Y429323D01*
X579175Y413823D02*
X581375Y416023D01*
X562775Y413823D02*
X579175D01*
X554275Y405323D02*
X562775Y413823D01*
X554275Y384923D02*
Y405323D01*
X549675Y380323D02*
X554275Y384923D01*
X532875Y380323D02*
X549675D01*
X508197Y355645D02*
X532875Y380323D01*
X508197Y347047D02*
Y355645D01*
X546496Y417886D02*
X570677D01*
X546433Y417823D02*
X546496Y417886D01*
X584875Y377123D02*
Y381178D01*
X587921Y384224D01*
X592252D01*
X562437Y444961D02*
Y457069D01*
X561225Y458280D02*
X562437Y457069D01*
X557696Y458280D02*
X561225D01*
X514302Y323226D02*
X520086D01*
X514299Y323228D02*
X514302Y323226D01*
X514299Y327165D02*
X528217D01*
X508465Y284819D02*
X509278D01*
X508197Y285088D02*
Y287598D01*
Y285088D02*
X508465Y284819D01*
X449035Y303483D02*
X454790D01*
X448975Y303423D02*
X449035Y303483D01*
X514331Y321291D02*
X521743D01*
X514299Y321260D02*
X514331Y321291D01*
X514299Y338976D02*
X522528D01*
X525291Y335039D02*
X535575Y345323D01*
X514299Y303543D02*
X517203D01*
X520275Y300472D01*
X465001Y282272D02*
Y287487D01*
X464890Y287598D02*
X465001Y287487D01*
X467861Y283522D02*
X468827Y284488D01*
Y287598D01*
X454790Y303483D02*
X454850Y303543D01*
X514299Y335039D02*
X525291D01*
X520275Y300423D02*
Y300472D01*
X527275Y343723D02*
Y349123D01*
X522528Y338976D02*
X527275Y343723D01*
X521743Y321291D02*
X521775Y321323D01*
X509278Y284819D02*
X510875Y283223D01*
X554315Y353263D02*
Y363902D01*
X528217Y327165D02*
X554315Y353263D01*
X520086Y323226D02*
X520089Y323223D01*
X449029Y277023D02*
X449043Y277037D01*
X465250Y280286D02*
X465990D01*
X469775Y202809D02*
Y203126D01*
X467475Y208670D02*
X467967D01*
X469143Y207494D01*
Y203757D02*
Y207494D01*
Y203757D02*
X469775Y203126D01*
X472975Y202809D02*
Y209164D01*
X472775Y209364D02*
X472975Y209164D01*
X567367Y354184D02*
X571151Y357967D01*
Y358299D01*
X577976Y358698D02*
X578150Y358872D01*
X571550Y358698D02*
X577976D01*
X571151Y358299D02*
X571550Y358698D01*
X535875Y263965D02*
X537346Y262494D01*
X546119D01*
X546390Y262223D01*
X489755Y215003D02*
X499375Y224623D01*
X489755Y206640D02*
Y215003D01*
X484238Y201123D02*
X489755Y206640D01*
X456599Y212599D02*
Y214299D01*
X468075Y201123D02*
X484238D01*
X456599Y212599D02*
X468075Y201123D01*
X499375Y224623D02*
X504005D01*
X521522Y242140D01*
X456375Y214523D02*
X456599Y214299D01*
X521522Y242140D02*
Y255223D01*
X535579Y269280D01*
X521323Y257623D02*
X521675Y257974D01*
X502029Y257623D02*
X521323D01*
X521675Y257974D02*
Y260123D01*
X501275Y227823D02*
X501499Y228047D01*
X502896D01*
X466911Y251801D02*
X469675Y254564D01*
X462787Y251801D02*
X466911D01*
X460307Y250991D02*
Y251796D01*
X461630Y249668D02*
X473688D01*
X460307Y250991D02*
X461630Y249668D01*
X462554Y266888D02*
Y268383D01*
X472375Y268023D02*
Y271370D01*
X461767Y269170D02*
X462554Y268383D01*
X521675Y280423D02*
Y282070D01*
X514106Y260254D02*
Y262975D01*
X500575Y259023D02*
X512875D01*
X514106Y260254D01*
Y274001D02*
Y274294D01*
X515283Y275470D01*
X515775D01*
X463891Y235707D02*
X464775D01*
X442983Y306170D02*
X443475D01*
X441806Y304994D02*
X442983Y306170D01*
X446375Y269374D02*
X446726Y269023D01*
X446375Y269374D02*
Y270258D01*
Y283054D02*
Y284070D01*
X500591Y256374D02*
X500780D01*
X502029Y257623D01*
X498375Y270823D02*
Y272794D01*
X470875Y205323D02*
Y205640D01*
X474936Y205362D02*
Y205660D01*
X475575Y206299D01*
X470500Y206015D02*
X470875Y205640D01*
X502896Y228047D02*
X506875Y232026D01*
X461275Y269170D02*
X461767D01*
X478207Y267807D02*
Y271338D01*
X478175Y271370D02*
X478207Y271338D01*
X497075Y273970D02*
X497198D01*
X498375Y272794D01*
X510875Y280852D02*
Y283223D01*
X509275Y279380D02*
X509403D01*
X510875Y280852D01*
X506242Y274065D02*
X509275D01*
X503275Y274361D02*
X505775D01*
X505946D02*
X506406Y273901D01*
X506875Y232026D02*
Y232223D01*
X506832Y238223D02*
Y244223D01*
X506875Y232223D02*
Y238180D01*
X506832Y238223D02*
X506875Y238180D01*
X483975Y271370D02*
X484075Y271270D01*
Y267923D02*
Y271270D01*
X439162Y340867D02*
Y344873D01*
X438068Y339773D02*
X439162Y340867D01*
X438080Y346153D02*
Y350273D01*
Y346153D02*
X439162Y345070D01*
Y344873D02*
Y345070D01*
X467320Y214730D02*
X467475Y214576D01*
X467320Y214730D02*
Y223221D01*
X467745Y223645D01*
X467750D02*
X470678Y226572D01*
X467745Y223645D02*
X467750D01*
X478775Y226072D02*
X478875Y225972D01*
X478775Y226072D02*
Y230823D01*
X486278Y225472D02*
X486475D01*
X480928Y230823D02*
X486278Y225472D01*
X478775Y230823D02*
X480928D01*
X470875Y220273D02*
X478275D01*
X478875Y219673D01*
X479375Y219173D01*
X470500Y206015D02*
Y212601D01*
X472381Y214482D01*
X472775D02*
X476575D01*
X476775Y214282D01*
X472381Y214482D02*
X472775D01*
X476456Y209164D02*
X476775D01*
X475575Y208283D02*
X476456Y209164D01*
X475575Y206299D02*
Y208283D01*
X560218Y332123D02*
X560818Y331523D01*
X564975D01*
X566875Y354184D02*
X567367D01*
X550375Y356823D02*
Y363702D01*
X550575Y363902D01*
X548375Y382123D02*
X551028Y384776D01*
Y387823D01*
X527875Y350040D02*
Y355226D01*
X529103Y356454D02*
Y356509D01*
X530279Y357685D02*
X530575D01*
X529103Y356509D02*
X530279Y357685D01*
X527875Y355226D02*
X529103Y356454D01*
X527275Y349440D02*
X527875Y350040D01*
X526075Y350323D02*
Y354623D01*
X524243Y356454D02*
X526075Y354623D01*
X522575Y357980D02*
X522772D01*
X524243Y356509D01*
Y356454D02*
Y356509D01*
X553075Y461327D02*
X556071Y464323D01*
X553075Y460244D02*
Y461327D01*
X550575Y388276D02*
Y397532D01*
Y388276D02*
X551028Y387823D01*
X546433Y417823D02*
Y428972D01*
X548433Y430972D01*
X546433Y401673D02*
Y417823D01*
X556815Y459161D02*
X557696Y458280D01*
X556815Y459161D02*
Y460244D01*
D23*
X350000Y472728D02*
D03*
Y477665D02*
D03*
X350394Y484539D02*
D03*
Y489476D02*
D03*
X350395Y434933D02*
D03*
Y439870D02*
D03*
X350395Y423122D02*
D03*
Y428059D02*
D03*
X350000Y447924D02*
D03*
Y452861D02*
D03*
Y459341D02*
D03*
Y464278D02*
D03*
X350395Y416248D02*
D03*
Y411311D02*
D03*
D24*
X342913Y472146D02*
D03*
Y477461D02*
D03*
Y489665D02*
D03*
Y484350D02*
D03*
X343308Y440846D02*
D03*
Y435532D02*
D03*
X343308Y428642D02*
D03*
Y423327D02*
D03*
X342914Y447736D02*
D03*
Y453051D02*
D03*
Y459547D02*
D03*
Y464862D02*
D03*
X343308Y416831D02*
D03*
Y411516D02*
D03*
X487402Y428642D02*
D03*
Y423327D02*
D03*
X509275Y279380D02*
D03*
Y274065D02*
D03*
X522575Y352665D02*
D03*
Y357980D02*
D03*
D25*
X460953Y378875D02*
D03*
X456498Y383330D02*
D03*
X451316Y378605D02*
D03*
X455770Y374151D02*
D03*
D26*
X362205Y246457D02*
D03*
X365748Y251969D02*
D03*
X362205Y202922D02*
D03*
X365748Y208965D02*
D03*
X361811Y288583D02*
D03*
X364961Y293504D02*
D03*
X350394Y246457D02*
D03*
X346457Y252362D02*
D03*
X350394Y202371D02*
D03*
X346457Y208965D02*
D03*
X350394Y288583D02*
D03*
X346457Y292913D02*
D03*
X364961Y299803D02*
D03*
X346457Y299213D02*
D03*
X350394Y282283D02*
D03*
X361811D02*
D03*
X346457Y258661D02*
D03*
X365748Y258268D02*
D03*
X350394Y240158D02*
D03*
X362205D02*
D03*
X365748Y215264D02*
D03*
X346457Y215264D02*
D03*
X362205Y196623D02*
D03*
X350394Y196072D02*
D03*
D27*
X359842Y252362D02*
D03*
X359449Y208965D02*
D03*
X359055Y293701D02*
D03*
X353543Y252362D02*
D03*
X353150Y208965D02*
D03*
X352756Y293701D02*
D03*
X359449Y309449D02*
D03*
X353150D02*
D03*
X359449Y269291D02*
D03*
X353150D02*
D03*
X353543Y227568D02*
D03*
X359842D02*
D03*
D28*
X381890Y305412D02*
D03*
Y299312D02*
D03*
X381102Y264467D02*
D03*
Y258367D02*
D03*
X382283Y214676D02*
D03*
Y220776D02*
D03*
D29*
X385827Y291929D02*
D03*
Y284449D02*
D03*
X385039Y250197D02*
D03*
Y242717D02*
D03*
X386221Y199025D02*
D03*
Y206505D02*
D03*
D30*
X378346Y291445D02*
D03*
Y285720D02*
D03*
X377953Y249319D02*
D03*
Y243595D02*
D03*
X378346Y199903D02*
D03*
Y205627D02*
D03*
D31*
X529134Y305709D02*
D03*
Y297441D02*
D03*
D32*
X414370Y446063D02*
D03*
X406102D02*
D03*
Y479528D02*
D03*
X414370D02*
D03*
X441142Y446063D02*
D03*
X449409D02*
D03*
X592471Y242723D02*
D03*
X600739D02*
D03*
D33*
X589665Y235827D02*
D03*
X584350D02*
D03*
D34*
X434646Y261417D02*
D03*
Y281417D02*
D03*
X417717Y261235D02*
D03*
Y281236D02*
D03*
D35*
X452362Y281829D02*
D03*
Y286675D02*
D03*
X443476Y306699D02*
D03*
Y311545D02*
D03*
X489575Y274601D02*
D03*
Y279446D02*
D03*
X460630Y269624D02*
D03*
Y274470D02*
D03*
X466892Y271224D02*
D03*
Y276069D02*
D03*
X446375Y284600D02*
D03*
Y289446D02*
D03*
X497075Y274500D02*
D03*
Y279346D02*
D03*
X445075Y296600D02*
D03*
Y301446D02*
D03*
X483976Y271900D02*
D03*
Y276746D02*
D03*
X521673Y282601D02*
D03*
Y287446D02*
D03*
X478173Y271900D02*
D03*
Y276746D02*
D03*
X515776Y275998D02*
D03*
Y280844D02*
D03*
X472374Y271900D02*
D03*
Y276746D02*
D03*
D36*
X454850Y333071D02*
D03*
Y295669D02*
D03*
Y340945D02*
D03*
Y337008D02*
D03*
Y335039D02*
D03*
Y309449D02*
D03*
X514299Y293701D02*
D03*
Y295669D02*
D03*
X454850Y338976D02*
D03*
X514299Y297638D02*
D03*
X454850Y319291D02*
D03*
Y317323D02*
D03*
Y307480D02*
D03*
Y297638D02*
D03*
X514299Y325197D02*
D03*
X454850Y313386D02*
D03*
X514299Y307480D02*
D03*
Y309449D02*
D03*
Y311417D02*
D03*
Y313386D02*
D03*
Y315354D02*
D03*
X454850Y331102D02*
D03*
Y329134D02*
D03*
Y327165D02*
D03*
Y325197D02*
D03*
Y323228D02*
D03*
Y321260D02*
D03*
Y315354D02*
D03*
Y311417D02*
D03*
Y305512D02*
D03*
Y303543D02*
D03*
Y301575D02*
D03*
Y299606D02*
D03*
Y293701D02*
D03*
X514299Y299606D02*
D03*
Y301575D02*
D03*
Y303543D02*
D03*
Y305512D02*
D03*
Y317323D02*
D03*
Y319291D02*
D03*
Y321260D02*
D03*
Y323228D02*
D03*
Y327165D02*
D03*
Y329134D02*
D03*
Y331102D02*
D03*
Y333071D02*
D03*
Y335039D02*
D03*
Y337008D02*
D03*
Y338976D02*
D03*
Y340945D02*
D03*
D37*
X484575Y287598D02*
D03*
X472764D02*
D03*
X474732D02*
D03*
X476701D02*
D03*
X478669D02*
D03*
X480638D02*
D03*
X460953D02*
D03*
X466858Y347047D02*
D03*
X464890D02*
D03*
X474732D02*
D03*
X470795D02*
D03*
X468827D02*
D03*
X478669D02*
D03*
X476701D02*
D03*
X504260Y287598D02*
D03*
X466858D02*
D03*
X488512D02*
D03*
X470795D02*
D03*
X492449D02*
D03*
X496386D02*
D03*
X480638Y347047D02*
D03*
X482606D02*
D03*
X486543D02*
D03*
X488512D02*
D03*
X462921Y287598D02*
D03*
X464890D02*
D03*
X468827D02*
D03*
X482606D02*
D03*
X486543D02*
D03*
X490480D02*
D03*
X494417D02*
D03*
X498354D02*
D03*
X500323D02*
D03*
X502291D02*
D03*
X506228D02*
D03*
X508197D02*
D03*
Y347047D02*
D03*
X506228D02*
D03*
X504260D02*
D03*
X502291D02*
D03*
X500323D02*
D03*
X498354D02*
D03*
X496386D02*
D03*
X494417D02*
D03*
X492449D02*
D03*
X490480D02*
D03*
X484575D02*
D03*
X472764D02*
D03*
X462921D02*
D03*
X460953D02*
D03*
D38*
X417975Y301469D02*
D03*
X426475D02*
D03*
X417975Y294776D02*
D03*
X426475D02*
D03*
D39*
X414904Y313323D02*
D03*
X431046D02*
D03*
D40*
X441634Y316929D02*
D03*
X444980D02*
D03*
D41*
X539322Y332723D02*
D03*
X545122Y387823D02*
D03*
X551028D02*
D03*
X545227Y332723D02*
D03*
D42*
X552731Y332123D02*
D03*
X560218D02*
D03*
D43*
X443006Y339773D02*
D03*
X438068D02*
D03*
D44*
X443432Y322923D02*
D03*
X438117D02*
D03*
X443932Y330823D02*
D03*
X438617D02*
D03*
X438080Y350273D02*
D03*
X443395D02*
D03*
X541732Y441437D02*
D03*
X536417D02*
D03*
X506832Y244223D02*
D03*
X501517D02*
D03*
Y238223D02*
D03*
X506832D02*
D03*
X501560Y232223D02*
D03*
X506875D02*
D03*
D45*
X439162Y344873D02*
D03*
X442312D02*
D03*
D46*
X467475Y208670D02*
D03*
Y214576D02*
D03*
D47*
X485236Y211417D02*
D03*
X495866D02*
D03*
D48*
X470875Y220273D02*
D03*
Y226572D02*
D03*
X478875Y219673D02*
D03*
Y225972D02*
D03*
X486475Y219173D02*
D03*
Y225472D02*
D03*
D49*
X535875Y263965D02*
D03*
Y269280D02*
D03*
D50*
X503275Y274361D02*
D03*
Y279085D02*
D03*
X530575Y357685D02*
D03*
Y352961D02*
D03*
D51*
X546835Y373744D02*
D03*
X554315D02*
D03*
Y363902D02*
D03*
X550575D02*
D03*
X546835D02*
D03*
X556815Y450402D02*
D03*
X549335D02*
D03*
Y460244D02*
D03*
X553075D02*
D03*
X556815D02*
D03*
D52*
X517717Y429823D02*
D03*
Y418209D02*
D03*
X467323D02*
D03*
Y429823D02*
D03*
X477953Y418209D02*
D03*
Y429823D02*
D03*
X496457Y430217D02*
D03*
Y418602D02*
D03*
X507087Y429823D02*
D03*
Y418209D02*
D03*
D53*
X592252Y384224D02*
D03*
Y459421D02*
D03*
D54*
X570677Y394264D02*
D03*
Y402138D02*
D03*
Y410012D02*
D03*
Y417886D02*
D03*
Y425760D02*
D03*
Y433634D02*
D03*
Y441508D02*
D03*
Y449382D02*
D03*
D55*
X548433Y430972D02*
D03*
Y399673D02*
D03*
X530717Y430972D02*
D03*
Y399673D02*
D03*
D56*
X501342Y455787D02*
D03*
X497012D02*
D03*
X492681D02*
D03*
X488350D02*
D03*
X484020D02*
D03*
X479689D02*
D03*
X475358D02*
D03*
X471028D02*
D03*
D57*
X461303Y447126D02*
D03*
X515988D02*
D03*
Y479409D02*
D03*
X461303D02*
D03*
D58*
X361614Y478346D02*
D03*
X395276D02*
D03*
D59*
X535433Y277362D02*
D03*
Y282480D02*
D03*
X476775Y214282D02*
D03*
Y209164D02*
D03*
X472775Y214482D02*
D03*
Y209364D02*
D03*
D76*
X566875Y349262D02*
D03*
Y354184D02*
D03*
D84*
X299213Y305118D02*
D03*
Y257874D02*
D03*
X314961Y344488D02*
D03*
Y265748D02*
D03*
X299213Y273622D02*
D03*
X314961Y360236D02*
D03*
X299213Y431102D02*
D03*
Y368110D02*
D03*
Y352362D02*
D03*
Y320866D02*
D03*
X330709Y336614D02*
D03*
Y273622D02*
D03*
Y320866D02*
D03*
Y257874D02*
D03*
Y415354D02*
D03*
Y399606D02*
D03*
Y383858D02*
D03*
Y368110D02*
D03*
Y352362D02*
D03*
Y305118D02*
D03*
Y289370D02*
D03*
X314961Y423228D02*
D03*
Y407480D02*
D03*
Y391732D02*
D03*
Y375984D02*
D03*
Y328740D02*
D03*
Y312992D02*
D03*
Y297244D02*
D03*
Y281496D02*
D03*
X299213Y415354D02*
D03*
Y399606D02*
D03*
Y383858D02*
D03*
Y336614D02*
D03*
Y289370D02*
D03*
D85*
X312992Y456693D02*
D03*
Y232283D02*
D03*
D86*
X330709Y431102D02*
D03*
D94*
X400787Y453740D02*
X403940Y450587D01*
X400787Y453740D02*
Y465748D01*
X394882Y478740D02*
X395276Y478346D01*
X390551Y478740D02*
X394882D01*
X403940Y448225D02*
Y450587D01*
Y448225D02*
X406102Y446063D01*
D95*
X337795Y493307D02*
X359449D01*
X299213Y431102D02*
Y432195D01*
X320571Y453554D01*
Y476083D02*
X337795Y493307D01*
X320571Y453554D02*
Y476083D01*
X425000Y462795D02*
X434252Y453543D01*
X414370Y479528D02*
X425000Y468898D01*
Y462795D02*
Y468898D01*
X592446Y242698D02*
X592471Y242723D01*
X360639Y479322D02*
X361614Y478346D01*
X360639Y479322D02*
Y489564D01*
X359449Y490754D02*
X360639Y489564D01*
X359449Y490754D02*
Y493307D01*
X406170D01*
X408532Y490945D02*
X410236D01*
X406170Y493307D02*
X408532Y490945D01*
X410236Y489240D02*
X414370Y485107D01*
Y479528D02*
Y485107D01*
X410236Y489240D02*
Y490945D01*
X589665Y235827D02*
X589690Y235852D01*
D96*
X590551Y240803D02*
X592471Y242723D01*
X590551Y236713D02*
Y240803D01*
X589678Y235839D02*
X590551Y236713D01*
X460630Y274470D02*
X460953Y274793D01*
Y287598D01*
D97*
X465748Y398819D02*
D03*
X397638Y299213D02*
D03*
Y254331D02*
D03*
X396457Y207489D02*
D03*
X410236Y457874D02*
D03*
X490874Y398819D02*
D03*
X424409Y408661D02*
D03*
X407087D02*
D03*
X388224Y408697D02*
D03*
X445472Y458071D02*
D03*
X392913Y383071D02*
D03*
X424016D02*
D03*
X445276Y491339D02*
D03*
X410236Y490945D02*
D03*
D98*
X598032Y366943D02*
D03*
Y338203D02*
D03*
D99*
X558083Y289707D02*
D03*
X566075Y285691D02*
D03*
Y277660D02*
D03*
X558083Y273644D02*
D03*
Y281676D02*
D03*
X566075Y293723D02*
D03*
X558083Y297739D02*
D03*
X566075Y301754D02*
D03*
D100*
X546390Y313176D02*
D03*
Y272223D02*
D03*
Y262223D02*
D03*
Y303176D02*
D03*
D101*
X599382Y318959D02*
D03*
Y256439D02*
D03*
D102*
X585760Y265199D02*
D03*
Y310199D02*
D03*
D103*
X578150Y358872D02*
D03*
X582875Y355723D02*
D03*
X578150Y352573D02*
D03*
X582875Y349424D02*
D03*
X578150Y346274D02*
D03*
D104*
X449382Y311333D02*
D03*
X488875Y235707D02*
D03*
X467605Y281888D02*
D03*
X462787Y251801D02*
D03*
X472375Y268023D02*
D03*
X456759Y269023D02*
D03*
X452175Y277523D02*
D03*
X457375Y272123D02*
D03*
X473688Y249668D02*
D03*
X500591Y256374D02*
D03*
X500575Y259023D02*
D03*
X498375Y270823D02*
D03*
X488875Y233123D02*
D03*
X478207Y267807D02*
D03*
X489575Y271123D02*
D03*
X484075Y267923D02*
D03*
D105*
X461417Y312598D02*
D03*
X448475Y321423D02*
D03*
X448425Y324803D02*
D03*
X438189Y322835D02*
D03*
X400787Y470866D02*
D03*
Y465748D02*
D03*
X530428Y399875D02*
D03*
X477953Y417717D02*
D03*
X419291Y483465D02*
D03*
X351580Y484252D02*
D03*
X443420Y323103D02*
D03*
X438583Y330709D02*
D03*
X443814Y330977D02*
D03*
X346176Y493182D02*
D03*
X346457Y458268D02*
D03*
X380315Y458563D02*
D03*
X364173Y458268D02*
D03*
X350394Y196063D02*
D03*
X517323Y417717D02*
D03*
X507480D02*
D03*
X496063Y418110D02*
D03*
X397638Y314173D02*
D03*
X391732Y456299D02*
D03*
X390551Y478740D02*
D03*
X424803Y472835D02*
D03*
X483858Y417717D02*
D03*
X500761Y357088D02*
D03*
X499076Y352988D02*
D03*
X451968Y424016D02*
D03*
X418110Y276700D02*
D03*
Y283686D02*
D03*
X417717Y260630D02*
D03*
X431317Y225823D02*
D03*
X434646Y259431D02*
D03*
X433022Y233623D02*
D03*
X434646Y269291D02*
D03*
X383688Y431634D02*
D03*
X456498Y382960D02*
D03*
X446457Y390551D02*
D03*
X436614Y395193D02*
D03*
X448032Y393307D02*
D03*
X311417Y438189D02*
D03*
X402756Y395669D02*
D03*
X351181Y416142D02*
D03*
X342126Y416929D02*
D03*
X418110Y395276D02*
D03*
X306693Y434252D02*
D03*
X308279Y448819D02*
D03*
X342126Y440945D02*
D03*
X431382Y362005D02*
D03*
X413891Y303543D02*
D03*
X398031Y240709D02*
D03*
X367717Y443701D02*
D03*
X405512Y368401D02*
D03*
X350787Y428346D02*
D03*
X342520Y428740D02*
D03*
X350787Y440158D02*
D03*
Y452756D02*
D03*
X342126Y453543D02*
D03*
Y477953D02*
D03*
Y465748D02*
D03*
X350394Y464173D02*
D03*
Y477559D02*
D03*
Y489370D02*
D03*
X342126Y489764D02*
D03*
X409842Y427264D02*
D03*
X443307Y350394D02*
D03*
X441457Y355016D02*
D03*
X385827Y284646D02*
D03*
X378740Y285827D02*
D03*
X361811Y282283D02*
D03*
X350000D02*
D03*
X350394Y240158D02*
D03*
X362205D02*
D03*
X377953Y243701D02*
D03*
X385039Y242913D02*
D03*
X392618Y220324D02*
D03*
X362205Y196457D02*
D03*
X378346Y200000D02*
D03*
X386221Y198819D02*
D03*
X434252Y453543D02*
D03*
X392719Y463979D02*
D03*
X434252Y461516D02*
D03*
X379921Y410630D02*
D03*
X346850D02*
D03*
X364173Y410630D02*
D03*
X346560Y471154D02*
D03*
X364173Y470866D02*
D03*
X380316Y470866D02*
D03*
X346457Y483465D02*
D03*
X364173Y483571D02*
D03*
X380316Y482677D02*
D03*
X379528Y422835D02*
D03*
X346456Y422834D02*
D03*
X363779Y423228D02*
D03*
X380315Y446457D02*
D03*
X346456Y446456D02*
D03*
X364173Y446457D02*
D03*
X379922Y434646D02*
D03*
X363780D02*
D03*
X346457Y434646D02*
D03*
X434252Y476772D02*
D03*
X405118Y479134D02*
D03*
X434252Y469685D02*
D03*
X454331Y456201D02*
D03*
X466531Y417416D02*
D03*
X472975Y354423D02*
D03*
X496457Y357087D02*
D03*
X474802Y364566D02*
D03*
X466142Y338189D02*
D03*
X461024Y323228D02*
D03*
X473821Y359648D02*
D03*
X434975Y306223D02*
D03*
X545122Y387823D02*
D03*
X488181Y423045D02*
D03*
X479689Y455787D02*
D03*
X475197Y431102D02*
D03*
X470181D02*
D03*
X488181Y428360D02*
D03*
X441732Y370079D02*
D03*
X429340Y275794D02*
D03*
X462205Y316142D02*
D03*
X464567Y317323D02*
D03*
X462205Y321260D02*
D03*
X466142Y309842D02*
D03*
X570677Y449382D02*
D03*
X535585Y282351D02*
D03*
X527165Y314961D02*
D03*
Y307874D02*
D03*
X600739Y242723D02*
D03*
X522975Y216123D02*
D03*
X461500Y446929D02*
D03*
X461303Y479409D02*
D03*
X515988D02*
D03*
Y447126D02*
D03*
X536417Y441437D02*
D03*
X530717Y430972D02*
D03*
X456299Y353150D02*
D03*
X438976Y344882D02*
D03*
X422441Y295276D02*
D03*
X504575Y270223D02*
D03*
X462992Y298130D02*
D03*
X448819Y202362D02*
D03*
X529345Y335753D02*
D03*
X529975Y333423D02*
D03*
X546850Y373622D02*
D03*
X535511Y361823D02*
D03*
X478775Y230823D02*
D03*
X442312Y344873D02*
D03*
X462863Y281723D02*
D03*
X465135Y282138D02*
D03*
X561475Y464223D02*
D03*
X444575Y219523D02*
D03*
X525675Y227323D02*
D03*
X520089Y323223D02*
D03*
X469775Y202809D02*
D03*
X478375D02*
D03*
X472975D02*
D03*
X571375Y358523D02*
D03*
X522575Y238323D02*
D03*
X521625Y213449D02*
D03*
X491475Y213423D02*
D03*
X455710Y217233D02*
D03*
X456375Y214523D02*
D03*
X501275Y227823D02*
D03*
X448526Y237950D02*
D03*
X463136Y303823D02*
D03*
X449029Y277023D02*
D03*
X470875Y205323D02*
D03*
X474936Y205362D02*
D03*
X479075Y205123D02*
D03*
X456548Y230002D02*
D03*
X491975Y244423D02*
D03*
X448989Y301123D02*
D03*
X448975Y303423D02*
D03*
X510875Y283223D02*
D03*
X564975Y331523D02*
D03*
X521775Y321323D02*
D03*
X524175Y345523D02*
D03*
X520275Y300423D02*
D03*
X550375Y356823D02*
D03*
X548375Y382123D02*
D03*
X527275Y349123D02*
D03*
X561575Y425123D02*
D03*
X584875Y377123D02*
D03*
X562437Y444961D02*
D03*
M02*
