G04*
G04 #@! TF.GenerationSoftware,Altium Limited,Altium Designer,22.11.1 (43)*
G04*
G04 Layer_Physical_Order=2*
G04 Layer_Color=32768*
%FSLAX25Y25*%
%MOIN*%
G70*
G04*
G04 #@! TF.SameCoordinates,B9669DE6-A21E-4E6A-9EE2-FAEABAE17C55*
G04*
G04*
G04 #@! TF.FilePolarity,Negative*
G04*
G01*
G75*
%ADD104C,0.02000*%
%ADD106C,0.04000*%
%ADD107C,0.07099*%
G04:AMPARAMS|DCode=108|XSize=100.52mil|YSize=100.52mil|CornerRadius=0mil|HoleSize=0mil|Usage=FLASHONLY|Rotation=0.000|XOffset=0mil|YOffset=0mil|HoleType=Round|Shape=Relief|Width=4mil|Gap=4mil|Entries=4|*
%AMTHD108*
7,0,0,0.10052,0.09252,0.00400,45*
%
%ADD108THD108*%
%ADD109C,0.07690*%
%ADD110C,0.12020*%
%ADD111C,0.08772*%
%ADD112C,0.04343*%
%ADD113C,0.05209*%
G04:AMPARAMS|DCode=114|XSize=75.716mil|YSize=75.716mil|CornerRadius=0mil|HoleSize=0mil|Usage=FLASHONLY|Rotation=0.000|XOffset=0mil|YOffset=0mil|HoleType=Round|Shape=Relief|Width=4mil|Gap=4mil|Entries=4|*
%AMTHD114*
7,0,0,0.07572,0.06772,0.00400,45*
%
%ADD114THD114*%
G04:AMPARAMS|DCode=115|XSize=94.614mil|YSize=94.614mil|CornerRadius=0mil|HoleSize=0mil|Usage=FLASHONLY|Rotation=0.000|XOffset=0mil|YOffset=0mil|HoleType=Round|Shape=Relief|Width=4mil|Gap=4mil|Entries=4|*
%AMTHD115*
7,0,0,0.09461,0.08661,0.00400,45*
%
%ADD115THD115*%
G04:AMPARAMS|DCode=116|XSize=159.575mil|YSize=159.575mil|CornerRadius=0mil|HoleSize=0mil|Usage=FLASHONLY|Rotation=0.000|XOffset=0mil|YOffset=0mil|HoleType=Round|Shape=Relief|Width=4mil|Gap=4mil|Entries=4|*
%AMTHD116*
7,0,0,0.15958,0.15158,0.00400,45*
%
%ADD116THD116*%
G04:AMPARAMS|DCode=117|XSize=59.181mil|YSize=59.181mil|CornerRadius=0mil|HoleSize=0mil|Usage=FLASHONLY|Rotation=0.000|XOffset=0mil|YOffset=0mil|HoleType=Round|Shape=Relief|Width=4mil|Gap=4mil|Entries=4|*
%AMTHD117*
7,0,0,0.05918,0.05118,0.00400,45*
%
%ADD117THD117*%
%ADD118C,0.03556*%
%ADD119C,0.01587*%
G36*
X588556Y490794D02*
X589989Y490200D01*
X591279Y489338D01*
X592375Y488242D01*
X593237Y486952D01*
X593831Y485519D01*
X594133Y483998D01*
X594133Y483222D01*
X594133Y483222D01*
X594133Y482447D01*
X593831Y480925D01*
X593237Y479492D01*
X592375Y478203D01*
X591279Y477106D01*
X589989Y476244D01*
X588556Y475651D01*
X587035Y475348D01*
X586259Y475348D01*
X585484Y475348D01*
X583962Y475651D01*
X582529Y476244D01*
X581240Y477106D01*
X580143Y478203D01*
X579281Y479492D01*
X578688Y480925D01*
X578385Y482446D01*
X578385Y483222D01*
X578385Y483998D01*
X578688Y485519D01*
X579281Y486952D01*
X580143Y488241D01*
X581240Y489338D01*
X582529Y490200D01*
X583962Y490794D01*
X585484Y491096D01*
X586259Y491096D01*
X586259Y491096D01*
X587035Y491096D01*
X588556Y490794D01*
D02*
G37*
G36*
X365925Y397297D02*
X367358Y396703D01*
X368648Y395841D01*
X369744Y394745D01*
X370606Y393455D01*
X371200Y392022D01*
X371502Y390501D01*
X371502Y389725D01*
X371502Y389725D01*
X371502Y388950D01*
X371200Y387428D01*
X370606Y385995D01*
X369744Y384706D01*
X368648Y383609D01*
X367358Y382747D01*
X365925Y382154D01*
X364404Y381851D01*
X363628Y381851D01*
X362853Y381851D01*
X361332Y382154D01*
X359898Y382747D01*
X358609Y383609D01*
X357512Y384706D01*
X356650Y385995D01*
X356057Y387428D01*
X355754Y388950D01*
X355754Y389725D01*
X355754Y390501D01*
X356057Y392022D01*
X356650Y393455D01*
X357512Y394744D01*
X358609Y395841D01*
X359898Y396703D01*
X361331Y397297D01*
X362853Y397599D01*
X363628Y397599D01*
X363628Y397599D01*
X364404Y397599D01*
X365925Y397297D01*
D02*
G37*
G36*
X592113Y229875D02*
X593546Y229282D01*
X594836Y228420D01*
X595933Y227323D01*
X596795Y226034D01*
X597388Y224601D01*
X597691Y223079D01*
X597691Y222304D01*
X597691Y222304D01*
X597691Y221528D01*
X597388Y220007D01*
X596795Y218574D01*
X595933Y217284D01*
X594836Y216188D01*
X593546Y215326D01*
X592113Y214732D01*
X590592Y214430D01*
X589817Y214430D01*
X589041Y214430D01*
X587520Y214733D01*
X586087Y215326D01*
X584797Y216188D01*
X583701Y217284D01*
X582839Y218574D01*
X582245Y220007D01*
X581943Y221528D01*
X581943Y222304D01*
X581943Y223079D01*
X582245Y224601D01*
X582839Y226034D01*
X583700Y227323D01*
X584797Y228420D01*
X586087Y229282D01*
X587520Y229875D01*
X589041Y230178D01*
X589817Y230178D01*
X589817Y230178D01*
X590592Y230178D01*
X592113Y229875D01*
D02*
G37*
G36*
X426065Y215096D02*
X427498Y214502D01*
X428787Y213640D01*
X429884Y212544D01*
X430746Y211254D01*
X431339Y209821D01*
X431642Y208300D01*
X431642Y207524D01*
X431642Y207524D01*
X431642Y206749D01*
X431339Y205227D01*
X430746Y203795D01*
X429884Y202505D01*
X428787Y201408D01*
X427498Y200546D01*
X426065Y199953D01*
X424543Y199650D01*
X423768Y199650D01*
X422992Y199650D01*
X421471Y199953D01*
X420038Y200546D01*
X418749Y201408D01*
X417652Y202505D01*
X416790Y203795D01*
X416196Y205227D01*
X415894Y206749D01*
X415894Y207524D01*
X415894Y208300D01*
X416196Y209821D01*
X416790Y211254D01*
X417652Y212544D01*
X418748Y213640D01*
X420038Y214502D01*
X421471Y215096D01*
X422992Y215398D01*
X423768Y215398D01*
X423768Y215398D01*
X424543Y215398D01*
X426065Y215096D01*
D02*
G37*
D104*
X449382Y311333D02*
D03*
X488875Y235707D02*
D03*
X467605Y281888D02*
D03*
X462787Y251801D02*
D03*
X472375Y268023D02*
D03*
X456759Y269023D02*
D03*
X452175Y277523D02*
D03*
X457375Y272123D02*
D03*
X473688Y249668D02*
D03*
X500591Y256374D02*
D03*
X500575Y259023D02*
D03*
X498375Y270823D02*
D03*
X488875Y233123D02*
D03*
X478207Y267807D02*
D03*
X489575Y271123D02*
D03*
X484075Y267923D02*
D03*
D106*
X424543Y215398D02*
X426065Y215096D01*
X427498Y214502D01*
X428787Y213640D01*
X429884Y212544D01*
X430746Y211254D01*
X431339Y209821D01*
X431642Y208300D01*
X431642Y207524D02*
X431642Y208300D01*
X431642Y207524D02*
X431642Y207524D01*
X431642Y206749D01*
X431339Y205227D02*
X431642Y206749D01*
X430746Y203795D02*
X431339Y205227D01*
X429884Y202505D02*
X430746Y203795D01*
X428787Y201408D02*
X429884Y202505D01*
X427498Y200546D02*
X428787Y201408D01*
X426065Y199953D02*
X427498Y200546D01*
X424543Y199650D02*
X426065Y199953D01*
X423768Y199650D02*
X424543Y199650D01*
X422992Y199650D02*
X423768Y199650D01*
X421471Y199953D02*
X422992Y199650D01*
X420038Y200546D02*
X421471Y199953D01*
X418749Y201408D02*
X420038Y200546D01*
X417652Y202505D02*
X418749Y201408D01*
X416790Y203795D02*
X417652Y202505D01*
X416196Y205227D02*
X416790Y203795D01*
X415894Y206749D02*
X416196Y205227D01*
X415894Y206749D02*
X415894Y207524D01*
X415894Y208300D02*
X415894Y207524D01*
X415894Y208300D02*
X416196Y209821D01*
X416790Y211254D01*
X417652Y212544D01*
X418748Y213640D01*
X420038Y214502D01*
X421471Y215096D01*
X422992Y215398D01*
X423768Y215398D01*
X423768Y215398D01*
X424543Y215398D01*
X364404Y397599D02*
X365925Y397297D01*
X367358Y396703D01*
X368648Y395841D01*
X369744Y394745D01*
X370606Y393455D01*
X371200Y392022D01*
X371502Y390501D01*
X371502Y389725D02*
X371502Y390501D01*
X371502Y389725D02*
X371502Y389725D01*
X371502Y388950D01*
X371200Y387428D02*
X371502Y388950D01*
X370606Y385995D02*
X371200Y387428D01*
X369744Y384706D02*
X370606Y385995D01*
X368648Y383609D02*
X369744Y384706D01*
X367358Y382747D02*
X368648Y383609D01*
X365925Y382154D02*
X367358Y382747D01*
X364404Y381851D02*
X365925Y382154D01*
X363628Y381851D02*
X364404Y381851D01*
X362853Y381851D02*
X363628Y381851D01*
X361332Y382154D02*
X362853Y381851D01*
X359898Y382747D02*
X361332Y382154D01*
X358609Y383609D02*
X359898Y382747D01*
X357512Y384706D02*
X358609Y383609D01*
X356650Y385995D02*
X357512Y384706D01*
X356057Y387428D02*
X356650Y385995D01*
X355754Y388950D02*
X356057Y387428D01*
X355754Y388950D02*
X355754Y389725D01*
X355754Y390501D02*
X355754Y389725D01*
X355754Y390501D02*
X356057Y392022D01*
X356650Y393455D01*
X357512Y394744D01*
X358609Y395841D01*
X359898Y396703D01*
X361331Y397297D01*
X362853Y397599D01*
X363628Y397599D01*
X363628Y397599D01*
X364404Y397599D01*
X286614Y501576D02*
X606693Y501575D01*
X286614Y501576D02*
X286614Y188189D01*
X572993D01*
X606693Y221889D01*
X606693Y501575D01*
X587035Y491096D02*
X588556Y490794D01*
X589989Y490200D01*
X591279Y489338D01*
X592375Y488242D01*
X593237Y486952D01*
X593831Y485519D01*
X594133Y483998D01*
X594133Y483222D02*
X594133Y483998D01*
X594133Y483222D02*
X594133Y483222D01*
X594133Y482447D01*
X593831Y480925D02*
X594133Y482447D01*
X593237Y479492D02*
X593831Y480925D01*
X592375Y478203D02*
X593237Y479492D01*
X591279Y477106D02*
X592375Y478203D01*
X589989Y476244D02*
X591279Y477106D01*
X588556Y475651D02*
X589989Y476244D01*
X587035Y475348D02*
X588556Y475651D01*
X586259Y475348D02*
X587035Y475348D01*
X585484Y475348D02*
X586259Y475348D01*
X583962Y475651D02*
X585484Y475348D01*
X582529Y476244D02*
X583962Y475651D01*
X581240Y477106D02*
X582529Y476244D01*
X580143Y478203D02*
X581240Y477106D01*
X579281Y479492D02*
X580143Y478203D01*
X578688Y480925D02*
X579281Y479492D01*
X578385Y482446D02*
X578688Y480925D01*
X578385Y482446D02*
X578385Y483222D01*
X578385Y483998D02*
X578385Y483222D01*
X578385Y483998D02*
X578688Y485519D01*
X579281Y486952D01*
X580143Y488241D01*
X581240Y489338D01*
X582529Y490200D01*
X583962Y490794D01*
X585484Y491096D01*
X586259Y491096D01*
X586259Y491096D01*
X587035Y491096D01*
X590592Y230178D02*
X592113Y229875D01*
X593546Y229282D01*
X594836Y228420D01*
X595933Y227323D01*
X596795Y226034D01*
X597388Y224601D01*
X597691Y223079D01*
X597691Y222304D02*
X597691Y223079D01*
X597691Y222304D02*
X597691Y222304D01*
X597691Y221528D01*
X597388Y220007D02*
X597691Y221528D01*
X596795Y218574D02*
X597388Y220007D01*
X595933Y217284D02*
X596795Y218574D01*
X594836Y216188D02*
X595933Y217284D01*
X593546Y215326D02*
X594836Y216188D01*
X592113Y214732D02*
X593546Y215326D01*
X590592Y214430D02*
X592113Y214732D01*
X589817Y214430D02*
X590592Y214430D01*
X589041Y214430D02*
X589817Y214430D01*
X587520Y214733D02*
X589041Y214430D01*
X586087Y215326D02*
X587520Y214733D01*
X584797Y216188D02*
X586087Y215326D01*
X583701Y217284D02*
X584797Y216188D01*
X582839Y218574D02*
X583701Y217284D01*
X582245Y220007D02*
X582839Y218574D01*
X581943Y221528D02*
X582245Y220007D01*
X581943Y221528D02*
X581943Y222304D01*
X581943Y223079D02*
X581943Y222304D01*
X581943Y223079D02*
X582245Y224601D01*
X582839Y226034D01*
X583700Y227323D01*
X584797Y228420D01*
X586087Y229282D01*
X587520Y229875D01*
X589041Y230178D01*
X589817Y230178D01*
X589817Y230178D01*
X590592Y230178D01*
D107*
X465748Y398819D02*
D03*
X397638Y299213D02*
D03*
Y254331D02*
D03*
X396457Y207489D02*
D03*
X410236Y457874D02*
D03*
X490874Y398819D02*
D03*
X424409Y408661D02*
D03*
X407087D02*
D03*
X388224Y408697D02*
D03*
X445472Y458071D02*
D03*
X392913Y383071D02*
D03*
X424016D02*
D03*
X410236Y490945D02*
D03*
D108*
X299213Y305118D02*
D03*
X314961Y344488D02*
D03*
Y265748D02*
D03*
X299213Y352362D02*
D03*
X314961Y423228D02*
D03*
Y297244D02*
D03*
Y281496D02*
D03*
X299213Y415354D02*
D03*
D109*
Y257874D02*
D03*
Y273622D02*
D03*
X314961Y360236D02*
D03*
X299213Y431102D02*
D03*
Y368110D02*
D03*
Y320866D02*
D03*
X330709Y336614D02*
D03*
Y273622D02*
D03*
Y320866D02*
D03*
Y257874D02*
D03*
Y431102D02*
D03*
Y415354D02*
D03*
Y399606D02*
D03*
Y383858D02*
D03*
Y368110D02*
D03*
Y352362D02*
D03*
Y305118D02*
D03*
Y289370D02*
D03*
X314961Y407480D02*
D03*
Y391732D02*
D03*
Y375984D02*
D03*
Y328740D02*
D03*
Y312992D02*
D03*
X299213Y399606D02*
D03*
Y383858D02*
D03*
Y336614D02*
D03*
Y289370D02*
D03*
D110*
X312992Y456693D02*
D03*
Y232283D02*
D03*
D111*
X598032Y366943D02*
D03*
Y338203D02*
D03*
D112*
X558083Y289707D02*
D03*
X566075Y285691D02*
D03*
Y277660D02*
D03*
X558083Y273644D02*
D03*
Y281676D02*
D03*
X566075Y293723D02*
D03*
X558083Y297739D02*
D03*
X566075Y301754D02*
D03*
D113*
X546390Y313176D02*
D03*
Y262223D02*
D03*
Y303176D02*
D03*
D114*
Y272223D02*
D03*
D115*
X599382Y318959D02*
D03*
Y256439D02*
D03*
X445276Y491339D02*
D03*
D116*
X585760Y265199D02*
D03*
Y310199D02*
D03*
D117*
X578150Y358872D02*
D03*
D118*
X582875Y355723D02*
D03*
X578150Y352573D02*
D03*
X582875Y349424D02*
D03*
X578150Y346274D02*
D03*
D119*
X461417Y312598D02*
D03*
X448475Y321423D02*
D03*
X400787Y465748D02*
D03*
X477953Y417717D02*
D03*
X351580Y484252D02*
D03*
X443420Y323103D02*
D03*
X443814Y330977D02*
D03*
X346176Y493182D02*
D03*
X346457Y458268D02*
D03*
X380315Y458563D02*
D03*
X364173Y458268D02*
D03*
X517323Y417717D02*
D03*
X507480D02*
D03*
X496063Y418110D02*
D03*
X483858Y417717D02*
D03*
X500761Y357088D02*
D03*
X499076Y352988D02*
D03*
X418110Y276700D02*
D03*
Y283686D02*
D03*
X434646Y269291D02*
D03*
X383688Y431634D02*
D03*
X456498Y382960D02*
D03*
X446457Y390551D02*
D03*
X436614Y395193D02*
D03*
X448032Y393307D02*
D03*
X311417Y438189D02*
D03*
X402756Y395669D02*
D03*
X418110Y395276D02*
D03*
X306693Y434252D02*
D03*
X308279Y448819D02*
D03*
X413891Y303543D02*
D03*
X367717Y443701D02*
D03*
X405512Y368401D02*
D03*
X443307Y350394D02*
D03*
X441457Y355016D02*
D03*
X434252Y453543D02*
D03*
X392719Y463979D02*
D03*
X379921Y410630D02*
D03*
X346850D02*
D03*
X364173Y410630D02*
D03*
X346560Y471154D02*
D03*
X364173Y470866D02*
D03*
X380316Y470866D02*
D03*
X346457Y483465D02*
D03*
X364173Y483571D02*
D03*
X380316Y482677D02*
D03*
X379528Y422835D02*
D03*
X346456Y422834D02*
D03*
X363779Y423228D02*
D03*
X380315Y446457D02*
D03*
X346456Y446456D02*
D03*
X364173Y446457D02*
D03*
X379922Y434646D02*
D03*
X363780D02*
D03*
X346457Y434646D02*
D03*
X405118Y479134D02*
D03*
X434252Y469685D02*
D03*
X466531Y417416D02*
D03*
X496457Y357087D02*
D03*
X466142Y338189D02*
D03*
X461024Y323228D02*
D03*
X473821Y359648D02*
D03*
X545122Y387823D02*
D03*
X475197Y431102D02*
D03*
X470181D02*
D03*
X488181Y428360D02*
D03*
X429340Y275794D02*
D03*
X462205Y316142D02*
D03*
X464567Y317323D02*
D03*
X462205Y321260D02*
D03*
X466142Y309842D02*
D03*
X570677Y449382D02*
D03*
X527165Y307874D02*
D03*
X600739Y242723D02*
D03*
X522975Y216123D02*
D03*
X448819Y202362D02*
D03*
X529345Y335753D02*
D03*
X529975Y333423D02*
D03*
X546850Y373622D02*
D03*
X535511Y361823D02*
D03*
X442312Y344873D02*
D03*
X465135Y282138D02*
D03*
X444575Y219523D02*
D03*
X525675Y227323D02*
D03*
X520089Y323223D02*
D03*
X469775Y202809D02*
D03*
X472975D02*
D03*
X455710Y217233D02*
D03*
X456375Y214523D02*
D03*
X463136Y303823D02*
D03*
X449029Y277023D02*
D03*
X470875Y205323D02*
D03*
X474936Y205362D02*
D03*
X479075Y205123D02*
D03*
X456548Y230002D02*
D03*
X491975Y244423D02*
D03*
X448989Y301123D02*
D03*
X510875Y283223D02*
D03*
X521775Y321323D02*
D03*
X524175Y345523D02*
D03*
X520275Y300423D02*
D03*
X548375Y382123D02*
D03*
X562437Y444961D02*
D03*
M02*
