G04*
G04 #@! TF.GenerationSoftware,Altium Limited,Altium Designer,22.11.1 (43)*
G04*
G04 Layer_Physical_Order=4*
G04 Layer_Color=16711680*
%FSLAX25Y25*%
%MOIN*%
G70*
G04*
G04 #@! TF.SameCoordinates,B9669DE6-A21E-4E6A-9EE2-FAEABAE17C55*
G04*
G04*
G04 #@! TF.FilePolarity,Positive*
G04*
G01*
G75*
%ADD14C,0.01000*%
%ADD20C,0.00600*%
%ADD24R,0.03937X0.03543*%
%ADD26R,0.04921X0.03150*%
%ADD27R,0.03150X0.04921*%
%ADD35R,0.03394X0.02894*%
%ADD43R,0.02985X0.03197*%
%ADD44R,0.03543X0.03937*%
%ADD49R,0.04134X0.03543*%
%ADD84C,0.10433*%
%ADD85C,0.11221*%
%ADD86R,0.10433X0.10433*%
%ADD94C,0.00400*%
%ADD95C,0.01968*%
%ADD97C,0.08268*%
%ADD98C,0.11957*%
%ADD99C,0.05512*%
%ADD100C,0.06614*%
%ADD101C,0.09449*%
%ADD102C,0.19193*%
%ADD103C,0.04724*%
%ADD104C,0.02000*%
%ADD105C,0.01772*%
%ADD121R,0.01575X0.01890*%
%ADD122R,0.05512X0.03740*%
G04:AMPARAMS|DCode=123|XSize=39.37mil|YSize=108.27mil|CornerRadius=1.97mil|HoleSize=0mil|Usage=FLASHONLY|Rotation=0.000|XOffset=0mil|YOffset=0mil|HoleType=Round|Shape=RoundedRectangle|*
%AMROUNDEDRECTD123*
21,1,0.03937,0.10433,0,0,0.0*
21,1,0.03543,0.10827,0,0,0.0*
1,1,0.00394,0.01772,-0.05217*
1,1,0.00394,-0.01772,-0.05217*
1,1,0.00394,-0.01772,0.05217*
1,1,0.00394,0.01772,0.05217*
%
%ADD123ROUNDEDRECTD123*%
G04:AMPARAMS|DCode=124|XSize=218.5mil|YSize=242.13mil|CornerRadius=2.19mil|HoleSize=0mil|Usage=FLASHONLY|Rotation=0.000|XOffset=0mil|YOffset=0mil|HoleType=Round|Shape=RoundedRectangle|*
%AMROUNDEDRECTD124*
21,1,0.21850,0.23776,0,0,0.0*
21,1,0.21413,0.24213,0,0,0.0*
1,1,0.00437,0.10707,-0.11888*
1,1,0.00437,-0.10707,-0.11888*
1,1,0.00437,-0.10707,0.11888*
1,1,0.00437,0.10707,0.11888*
%
%ADD124ROUNDEDRECTD124*%
%ADD125R,0.04331X0.05118*%
%ADD126R,0.02894X0.03394*%
%ADD127R,0.03740X0.03150*%
%ADD128R,0.06922X0.04551*%
%ADD129R,0.03937X0.03150*%
%ADD130R,0.04528X0.07087*%
G04:AMPARAMS|DCode=131|XSize=108.27mil|YSize=39.37mil|CornerRadius=1.97mil|HoleSize=0mil|Usage=FLASHONLY|Rotation=270.000|XOffset=0mil|YOffset=0mil|HoleType=Round|Shape=RoundedRectangle|*
%AMROUNDEDRECTD131*
21,1,0.10827,0.03543,0,0,270.0*
21,1,0.10433,0.03937,0,0,270.0*
1,1,0.00394,-0.01772,-0.05217*
1,1,0.00394,-0.01772,0.05217*
1,1,0.00394,0.01772,0.05217*
1,1,0.00394,0.01772,-0.05217*
%
%ADD131ROUNDEDRECTD131*%
G04:AMPARAMS|DCode=132|XSize=242.13mil|YSize=218.5mil|CornerRadius=2.19mil|HoleSize=0mil|Usage=FLASHONLY|Rotation=270.000|XOffset=0mil|YOffset=0mil|HoleType=Round|Shape=RoundedRectangle|*
%AMROUNDEDRECTD132*
21,1,0.24213,0.21413,0,0,270.0*
21,1,0.23776,0.21850,0,0,270.0*
1,1,0.00437,-0.10707,-0.11888*
1,1,0.00437,-0.10707,0.11888*
1,1,0.00437,0.10707,0.11888*
1,1,0.00437,0.10707,-0.11888*
%
%ADD132ROUNDEDRECTD132*%
G04:AMPARAMS|DCode=133|XSize=25.59mil|YSize=64.96mil|CornerRadius=1.92mil|HoleSize=0mil|Usage=FLASHONLY|Rotation=90.000|XOffset=0mil|YOffset=0mil|HoleType=Round|Shape=RoundedRectangle|*
%AMROUNDEDRECTD133*
21,1,0.02559,0.06112,0,0,90.0*
21,1,0.02175,0.06496,0,0,90.0*
1,1,0.00384,0.03056,0.01088*
1,1,0.00384,0.03056,-0.01088*
1,1,0.00384,-0.03056,-0.01088*
1,1,0.00384,-0.03056,0.01088*
%
%ADD133ROUNDEDRECTD133*%
%ADD134R,0.05709X0.05118*%
G04:AMPARAMS|DCode=135|XSize=65.17mil|YSize=23.72mil|CornerRadius=11.86mil|HoleSize=0mil|Usage=FLASHONLY|Rotation=0.000|XOffset=0mil|YOffset=0mil|HoleType=Round|Shape=RoundedRectangle|*
%AMROUNDEDRECTD135*
21,1,0.06517,0.00000,0,0,0.0*
21,1,0.04145,0.02372,0,0,0.0*
1,1,0.02372,0.02072,0.00000*
1,1,0.02372,-0.02072,0.00000*
1,1,0.02372,-0.02072,0.00000*
1,1,0.02372,0.02072,0.00000*
%
%ADD135ROUNDEDRECTD135*%
%ADD136R,0.06517X0.02372*%
%ADD137R,0.06496X0.02992*%
%ADD138R,0.01181X0.05807*%
%ADD139R,0.05807X0.01181*%
%ADD140R,0.06528X0.04156*%
%ADD141R,0.05906X0.03937*%
%ADD142R,0.03150X0.03543*%
%ADD143C,0.01008*%
%ADD144C,0.01181*%
D14*
X316940Y450798D02*
G03*
X318887Y452745I-3948J5895D01*
G01*
X351580Y484252D02*
X362599D01*
X364174Y482677D01*
X378315Y399606D02*
X378323Y399598D01*
X380815D01*
X381890Y398524D01*
Y397638D02*
Y398524D01*
X330709Y399606D02*
X378315D01*
X383676Y431647D02*
Y438077D01*
X382276Y429421D02*
X383541Y430686D01*
Y431487D01*
X380808Y429134D02*
X381095Y429421D01*
X383676Y431647D02*
X383688Y431634D01*
X381095Y429421D02*
X382276D01*
X383541Y431487D02*
X383688Y431634D01*
X448032Y393307D02*
X453150Y388189D01*
X459449D01*
X297649Y438189D02*
X311417D01*
X293096Y433636D02*
X297649Y438189D01*
X297555Y440075D02*
X339354D01*
X344783Y434646D01*
X291696Y434216D02*
X297555Y440075D01*
X299213Y327964D02*
X306693Y335444D01*
Y434252D01*
X299213Y320866D02*
Y327964D01*
X293096Y342731D02*
X299213Y336614D01*
X293096Y342731D02*
Y433636D01*
X290296Y273888D02*
Y434796D01*
Y273888D02*
X299213Y264972D01*
X291696Y295706D02*
X298031Y289370D01*
X290296Y434796D02*
X301276Y445776D01*
X291696Y295706D02*
Y434216D01*
X308279Y448819D02*
X314961D01*
X316940Y450798D01*
X345776Y445776D02*
X346456Y446456D01*
X301276Y445776D02*
X345776D01*
X342732Y455429D02*
X345571Y458268D01*
X321571Y455429D02*
X342732D01*
X318887Y452745D02*
X321571Y455429D01*
X345571Y458268D02*
X346457D01*
X298031Y289370D02*
X299213D01*
X344783Y434646D02*
X346457D01*
X299213Y257874D02*
Y264972D01*
X331294Y313692D02*
X370767D01*
X419897Y362822D01*
X423115D01*
X331294Y312292D02*
X371347D01*
X420477Y361422D02*
X423115D01*
X371347Y312292D02*
X420477Y361422D01*
X423701Y358264D02*
Y360836D01*
X423115Y361422D02*
X423701Y360836D01*
X423115Y362822D02*
X423701Y363408D01*
Y365745D01*
X423963Y365482D02*
X440990D01*
X441457Y365016D01*
X423701Y365745D02*
X423963Y365482D01*
X438709Y359236D02*
X439488Y360016D01*
X441457D01*
X438304Y359236D02*
X438709D01*
X427045Y359055D02*
X438123D01*
X438304Y359236D01*
X426940Y358950D02*
X427045Y359055D01*
X423701Y358264D02*
X424387Y358950D01*
X426940D01*
X330709Y305118D02*
Y311706D01*
X331294Y312292D01*
X330709Y314278D02*
Y320866D01*
Y314278D02*
X331294Y313692D01*
X381201Y416929D02*
X383676Y419404D01*
Y425872D01*
X380808Y428739D02*
X383676Y425872D01*
X380808Y428739D02*
Y429134D01*
X380315Y428346D02*
X380808Y428839D01*
Y429134D01*
Y440944D02*
Y440945D01*
Y440944D02*
X382276Y439476D01*
X382277D01*
X383676Y438077D01*
X382276Y476091D02*
Y476189D01*
X381202Y477165D02*
X381299D01*
X382276Y476189D01*
X383677Y467043D02*
Y474691D01*
X382276Y476091D02*
X383677Y474691D01*
X346273Y470866D02*
X346560Y471154D01*
X346063Y470866D02*
X346273D01*
X380808Y440945D02*
X383676Y443812D01*
Y450281D01*
X381201Y452756D02*
X383676Y450281D01*
X380315Y452756D02*
X381201D01*
X383676Y455231D01*
Y462092D01*
X381201Y464567D02*
X383676Y462092D01*
X380315Y416929D02*
X381201D01*
X380315Y464567D02*
X381201D01*
X383677Y467043D01*
X381202Y477165D02*
X383677Y479640D01*
Y486502D01*
X381202Y488976D02*
X383677Y486502D01*
X380316Y488976D02*
X381202D01*
X463075Y303823D02*
X463136D01*
X462998Y303746D02*
X463075Y303823D01*
X562075Y275218D02*
Y277683D01*
X561739Y275218D02*
X562075D01*
X561739Y273218D02*
Y275218D01*
Y273218D02*
X569013D01*
Y271218D02*
Y273218D01*
X560827Y271218D02*
X569013D01*
X560827Y269218D02*
Y271218D01*
Y269218D02*
X562075D01*
Y268718D02*
Y269218D01*
X551997Y222568D02*
Y299365D01*
X554355Y301723D02*
X561975D01*
X551997Y299365D02*
X554355Y301723D01*
X550597Y299945D02*
X553775Y303123D01*
X550597Y221989D02*
Y299945D01*
X553775Y303123D02*
X563485D01*
X436632Y225665D02*
Y225823D01*
Y225665D02*
X437904Y224394D01*
X439065D02*
X443788Y219671D01*
X437904Y224394D02*
X439065D01*
X443788Y219671D02*
X444427D01*
X444575Y219523D01*
X437904Y228768D02*
X438928Y229791D01*
X437904Y227095D02*
Y228768D01*
X436632Y225823D02*
X437904Y227095D01*
X438928Y229791D02*
Y233623D01*
X571179Y232019D02*
X573575Y229623D01*
X575327D01*
X571179Y237227D02*
X573575Y239623D01*
X575327D01*
X535532Y234623D02*
X541823D01*
X573575Y204623D02*
X575327D01*
X571179Y207019D02*
X573575Y204623D01*
Y214623D02*
X575327D01*
X571179Y212227D02*
X573575Y214623D01*
X558083Y297739D02*
X558898Y296923D01*
X561975D01*
Y301723D01*
X551997Y222568D02*
X564243Y210323D01*
X570593D01*
X571179Y210909D01*
Y212227D01*
X564854Y301754D02*
X566075D01*
X563485Y303123D02*
X564854Y301754D01*
X550597Y221989D02*
X563663Y208923D01*
X570593D01*
X571179Y208337D01*
Y207019D02*
Y208337D01*
X562075Y268414D02*
Y268718D01*
X561489Y267829D02*
X562075Y268414D01*
X559081Y267829D02*
X561489D01*
X558083Y266831D02*
X559081Y267829D01*
X558083Y247005D02*
Y266831D01*
Y247005D02*
X569765Y235323D01*
X570593D01*
X571179Y235909D01*
Y237227D01*
X566075Y292529D02*
Y293723D01*
X559597Y286051D02*
X566075Y292529D01*
X557288Y286051D02*
X559597D01*
X554427Y283190D02*
X557288Y286051D01*
X554427Y269271D02*
Y283190D01*
Y269271D02*
X556683Y267015D01*
Y246425D02*
Y267015D01*
Y246425D02*
X569185Y233923D01*
X570593D01*
X571179Y233337D01*
Y232019D02*
Y233337D01*
X444723Y219671D02*
X445798D01*
X451223Y225095D01*
X444575Y219523D02*
X444723Y219671D01*
X558083Y281676D02*
X562075Y277683D01*
X456575Y303746D02*
X462998D01*
X488792Y244423D02*
X491975D01*
X488702Y244332D02*
X488792Y244423D01*
X488702Y241495D02*
Y244332D01*
X456622Y230076D02*
X461190D01*
X456575Y230123D02*
X456622Y230076D01*
X451479Y234013D02*
X461190D01*
X451223Y233757D02*
X451479Y234013D01*
X448866Y301123D02*
X448989D01*
X445836Y299722D02*
X447465D01*
X444843Y298623D02*
Y298729D01*
X445836Y299722D01*
X444790Y304126D02*
Y304323D01*
Y304126D02*
X447793Y301123D01*
X448866D01*
X443518Y305791D02*
X444790Y304520D01*
X441503Y307610D02*
X443321Y305791D01*
X443518D01*
X440543Y309923D02*
X441503Y308963D01*
Y307610D02*
Y308963D01*
X444843Y293312D02*
Y298623D01*
X444790Y304323D02*
X445475Y305008D01*
X444843Y293312D02*
X445032Y293123D01*
X444790Y304323D02*
Y304520D01*
X447465Y299722D02*
X448866Y301123D01*
X451223Y225095D02*
Y225489D01*
D20*
X456693Y318898D02*
X461024Y323228D01*
X418898Y318898D02*
X456693D01*
X407205Y307205D02*
X418898Y318898D01*
X458661Y317717D02*
X462205Y321260D01*
X459076Y316717D02*
X461368Y319009D01*
X460713Y314717D02*
X460974Y314456D01*
X409205Y306055D02*
X419866Y316717D01*
X408205Y306630D02*
X419291Y317717D01*
X411205Y304767D02*
X421154Y314717D01*
X459490Y315717D02*
X459915Y316142D01*
X419866Y316717D02*
X459076D01*
X420740Y315717D02*
X459490D01*
X419291Y317717D02*
X458661D01*
X410205Y305181D02*
X420740Y315717D01*
X421154Y314717D02*
X460713D01*
X461100Y312598D02*
X461417D01*
X449375Y306382D02*
Y311326D01*
X421069Y313217D02*
X460481D01*
X460974Y314456D02*
X462903D01*
X412205Y304353D02*
X421069Y313217D01*
X460481D02*
X461100Y312598D01*
X449375Y311326D02*
X449382Y311333D01*
X462903Y314456D02*
X464343Y315896D01*
X459915Y316142D02*
X462205D01*
X400675Y215757D02*
X406693D01*
X424274Y398936D02*
Y408526D01*
X424409Y408661D01*
X424274Y398936D02*
X424316Y398895D01*
Y396550D02*
Y398895D01*
Y396550D02*
X425591Y395276D01*
X407087Y395571D02*
Y397342D01*
X409055Y399311D02*
Y403328D01*
X408554Y403829D02*
X409055Y403328D01*
X408554Y403829D02*
Y407194D01*
X407087Y408661D02*
X408554Y407194D01*
X407087Y397342D02*
X409055Y399311D01*
X407087Y395571D02*
X408465Y394193D01*
X406004Y391732D02*
X408465Y394193D01*
X383858Y391732D02*
X406004D01*
X368110Y375984D02*
X383858Y391732D01*
X314961Y375984D02*
X368110D01*
X388189Y397638D02*
X390664D01*
X391015Y397989D01*
Y404369D01*
X388224Y407160D02*
X391015Y404369D01*
X388224Y407160D02*
Y408697D01*
X382470Y393493D02*
X387405D01*
X388189Y394277D01*
Y397638D01*
X369740Y380764D02*
X382470Y393493D01*
X336264Y380764D02*
X369740D01*
X333170Y383858D02*
X336264Y380764D01*
X330709Y383858D02*
X333170D01*
X422074Y392055D02*
X423255D01*
X425591Y394390D01*
Y395276D01*
X419390Y389370D02*
X422074Y392055D01*
X384252Y389370D02*
X419390D01*
X362992Y368110D02*
X384252Y389370D01*
X330709Y368110D02*
X362992D01*
X385149Y387905D02*
X438507D01*
X357480Y360236D02*
X385149Y387905D01*
X314961Y360236D02*
X357480D01*
X480638Y384646D02*
X484575Y388583D01*
X452362Y384646D02*
X480638D01*
X490874Y388583D02*
Y398819D01*
X446457Y390551D02*
X452362Y384646D01*
X483858Y417717D02*
X500575Y401000D01*
Y359323D02*
Y401000D01*
X474499Y429417D02*
X474914D01*
X520275Y323409D02*
Y384056D01*
X474914Y429417D02*
X520275Y384056D01*
X521775Y321323D02*
Y384524D01*
X473511Y430404D02*
X474499Y429417D01*
X475197Y431102D02*
X521775Y384524D01*
X473511Y430404D02*
Y430751D01*
X473160Y431102D02*
X473511Y430751D01*
X470181Y431102D02*
X473160D01*
X500575Y359323D02*
X500761Y359136D01*
Y357088D02*
Y359136D01*
X468323Y352362D02*
X496990D01*
X497391Y352764D02*
X498851D01*
X496990Y352362D02*
X497391Y352764D01*
X498851D02*
X499076Y352988D01*
X413891Y238520D02*
Y303543D01*
Y238520D02*
X437449Y214961D01*
X448819D01*
X443341Y383071D02*
X456388D01*
X456498Y382960D01*
X438507Y387905D02*
X443341Y383071D01*
X367028Y352362D02*
X386614Y371949D01*
X330709Y352362D02*
X367028D01*
X386614Y371949D02*
Y372835D01*
X329921Y345276D02*
X366240D01*
X314961Y328740D02*
Y330315D01*
X329921Y345276D01*
X330709Y336614D02*
X381988D01*
X417717Y372342D01*
Y373228D01*
X366240Y345276D02*
X392913Y371949D01*
Y372835D02*
Y373622D01*
Y371949D02*
Y372835D01*
X379413Y327740D02*
X424016Y372342D01*
X314961Y313485D02*
X329215Y327740D01*
X379413D01*
X424016Y374016D02*
X424409Y373622D01*
X314961Y312992D02*
Y313485D01*
X424016Y372342D02*
Y373228D01*
X392913Y373622D02*
X392913Y373622D01*
X392913Y373622D02*
Y383071D01*
X397638Y299213D02*
Y308425D01*
X402461Y270866D02*
X410205Y278610D01*
X401575Y270866D02*
X402461D01*
X408205Y281039D02*
Y306630D01*
X407205Y288400D02*
Y307205D01*
X403735Y284930D02*
X407205Y288400D01*
X409205Y280071D02*
Y306055D01*
X406387Y279221D02*
X408205Y281039D01*
X410205Y278610D02*
Y305181D01*
X406299Y277165D02*
X409205Y280071D01*
X398042Y279221D02*
X406387D01*
X401181Y277165D02*
X406299D01*
X403735Y282771D02*
Y284930D01*
X402461Y281496D02*
X403735Y282771D01*
X412205Y226378D02*
Y304353D01*
X411205Y231981D02*
Y304767D01*
X406693Y222056D02*
X407968Y223331D01*
X409158D01*
X412205Y226378D01*
X401280Y222056D02*
X411205Y231981D01*
X401575Y281496D02*
X402461D01*
X394882D02*
X395768D01*
X398042Y279221D01*
X396157Y272141D02*
X401181Y277165D01*
X394976Y272141D02*
X396157D01*
X393701Y270866D02*
X394976Y272141D01*
X464343Y317099D02*
X464567Y317323D01*
X464343Y315896D02*
Y317099D01*
X401950Y212982D02*
Y214482D01*
X400675Y215757D02*
X401950Y214482D01*
X396457Y207489D02*
X401950Y212982D01*
X466142Y309842D02*
X466253Y309953D01*
Y318021D01*
X465265Y319009D02*
X466253Y318021D01*
X461368Y319009D02*
X465265D01*
X397638Y264567D02*
X401575D01*
X393701D02*
X397638D01*
Y254331D02*
Y264567D01*
X397835Y246102D02*
X398031Y245905D01*
X397835Y246102D02*
Y254134D01*
X397638Y254331D02*
X397835Y254134D01*
X464961Y387795D02*
X465748Y388583D01*
Y398819D01*
X445472Y457677D02*
X450792Y452357D01*
X452662D01*
X454134Y450886D01*
X454331D01*
Y446102D02*
Y450886D01*
X452323Y440650D02*
Y444095D01*
X454331Y446102D01*
X400394Y222056D02*
X401280D01*
X392618Y214970D02*
Y215127D01*
Y214970D02*
X395065Y212523D01*
Y208881D02*
Y212523D01*
Y208881D02*
X396457Y207489D01*
X424016Y374016D02*
Y383071D01*
X392913D02*
X394380Y381604D01*
X396991D01*
X403646Y381496D02*
X405512Y379630D01*
X396991Y381604D02*
X397099Y381496D01*
X403646D01*
X436614Y383071D02*
X436614Y383071D01*
X424016Y383071D02*
X436614D01*
X465669Y355016D02*
X468323Y352362D01*
X463701Y355016D02*
X465669D01*
X463701Y370016D02*
X483528D01*
X496457Y357087D01*
X466142Y338189D02*
X466173Y338158D01*
Y333344D02*
Y338158D01*
X473559Y359386D02*
Y359386D01*
X473821Y359648D01*
X472929Y360016D02*
X473559Y359386D01*
X473879Y359066D01*
Y365365D02*
X474005D01*
X473529Y365016D02*
X473879Y365365D01*
X397638Y299213D02*
X398228Y298622D01*
Y287795D02*
X401575D01*
X394882D02*
X398228D01*
Y298622D01*
X434975Y306223D02*
X435375Y306623D01*
X520089Y323223D02*
X520275Y323409D01*
X449375Y306382D02*
X450675Y305082D01*
X466667Y327970D02*
X467843Y326794D01*
Y304254D02*
X502475Y269623D01*
X467843Y304254D02*
Y326794D01*
X466175Y327970D02*
X466667D01*
X522975Y216123D02*
X528522D01*
X528622Y216223D02*
X529114Y215731D01*
X528522Y216123D02*
X528622Y216223D01*
X529114Y215731D02*
X529522D01*
X528546Y229199D02*
Y230713D01*
X517246Y232164D02*
X523856Y225554D01*
X535428Y228223D02*
X538671D01*
X523856Y225554D02*
X533251D01*
X535428Y227731D01*
Y228223D01*
X529922Y240131D02*
Y240623D01*
Y240131D02*
X532889Y237164D01*
X463701Y365016D02*
X473529D01*
X463701Y360016D02*
X472929D01*
X449367Y215509D02*
Y217478D01*
X448819Y214961D02*
X449367Y215509D01*
Y217478D02*
X455769Y223880D01*
X460899D01*
X461190Y224170D01*
X546850Y373622D02*
Y380598D01*
X530142Y335273D02*
X561404D01*
X530912Y334273D02*
X561818D01*
X529345Y335753D02*
X529662D01*
X529975Y333423D02*
X530062D01*
X530912Y334273D01*
X529662Y335753D02*
X530142Y335273D01*
X561818Y334273D02*
X576882Y349336D01*
X561404Y335273D02*
X575316Y349184D01*
X546850Y380598D02*
X548375Y382123D01*
X535575Y361887D02*
Y418098D01*
X535511Y361823D02*
X535575Y361887D01*
X490904Y237736D02*
X494347D01*
X494560Y237950D01*
X488875Y235707D02*
X490904Y237736D01*
X478775Y230823D02*
X486733Y238781D01*
X462651Y280086D02*
Y281510D01*
X462863Y281723D01*
X456375Y214523D02*
Y214840D01*
X457447Y215913D01*
Y217038D01*
X457996Y217587D01*
X458199D01*
X458877Y218265D01*
X461190D01*
X470168Y250523D02*
X471538Y249153D01*
Y249153D02*
Y249153D01*
Y249153D02*
X472908Y247783D01*
X473462D02*
X474244Y247001D01*
X472908Y247783D02*
X473462D01*
X465135Y277841D02*
Y282138D01*
X486575Y266018D02*
Y266946D01*
X479676Y266018D02*
X486575D01*
X479676Y264418D02*
Y266018D01*
Y264418D02*
X486780D01*
Y262818D02*
Y264418D01*
X479299Y262818D02*
X486780D01*
X479299Y261218D02*
Y262818D01*
Y261218D02*
X487145D01*
Y259618D02*
Y261218D01*
X479299Y259618D02*
X487145D01*
X479299Y258018D02*
Y259618D01*
Y258018D02*
X487145D01*
Y256418D02*
Y258018D01*
X479299Y256418D02*
X487145D01*
X479299Y254818D02*
Y256418D01*
Y254818D02*
X487145D01*
Y253218D02*
Y254818D01*
X479299Y253218D02*
X487145D01*
X479299Y251618D02*
Y253218D01*
Y251618D02*
X487145D01*
Y250018D02*
Y251618D01*
X481094Y250018D02*
X487145D01*
X481094Y248418D02*
Y250018D01*
Y248418D02*
X484539D01*
Y248067D02*
Y248418D01*
X484239Y247766D02*
X484539Y248067D01*
X498504Y270693D02*
X499775Y269423D01*
Y269284D02*
Y269423D01*
Y269284D02*
X500831D01*
Y267684D02*
Y269284D01*
X494844Y267684D02*
X500831D01*
X494844Y266084D02*
Y267684D01*
Y266084D02*
X501475D01*
Y264484D02*
Y266084D01*
X494844Y264484D02*
X501475D01*
X494844Y262884D02*
Y264484D01*
Y262884D02*
X501475D01*
Y261284D02*
Y262884D01*
X494844Y261284D02*
X501475D01*
X494844Y259684D02*
Y261284D01*
Y259684D02*
X498222D01*
Y258084D02*
Y259684D01*
X494844Y258084D02*
X498222D01*
X494844Y256484D02*
Y258084D01*
Y256484D02*
X497706D01*
Y254884D02*
Y256484D01*
X494844Y254884D02*
X497706D01*
X494844Y253284D02*
Y254884D01*
Y253284D02*
X497706D01*
Y251684D02*
Y253284D01*
X494844Y251684D02*
X497706D01*
X494844Y250084D02*
Y251684D01*
Y250084D02*
X497706D01*
Y248484D02*
Y250084D01*
X494844Y248484D02*
X497706D01*
X494844Y246884D02*
Y248484D01*
Y246884D02*
X498163D01*
Y245284D02*
Y246884D01*
X494844Y245284D02*
X498163D01*
X494844Y243684D02*
Y245284D01*
Y243684D02*
X498163D01*
Y242084D02*
Y243684D01*
X494844Y242084D02*
X498163D01*
X494844Y240484D02*
Y242084D01*
Y240484D02*
X498163D01*
Y238884D02*
Y240484D01*
X498110Y238884D02*
X498163D01*
X498110D02*
X498163Y238830D01*
Y237069D02*
Y238830D01*
X498078Y236984D02*
X498163Y237069D01*
X494844Y269824D02*
Y270473D01*
X492852Y269824D02*
X494844D01*
X492852Y268224D02*
Y269824D01*
Y268224D02*
X493844D01*
Y266624D02*
Y268224D01*
X487575Y266624D02*
X493844D01*
X487575Y265024D02*
Y266624D01*
Y265024D02*
X493844D01*
Y263424D02*
Y265024D01*
X488145Y263424D02*
X493844D01*
X488145Y261824D02*
Y263424D01*
Y261824D02*
X493844D01*
Y260224D02*
Y261824D01*
X488145Y260224D02*
X493844D01*
X488145Y258624D02*
Y260224D01*
Y258624D02*
X493844D01*
Y257024D02*
Y258624D01*
X488145Y257024D02*
X493844D01*
X488145Y255424D02*
Y257024D01*
Y255424D02*
X493844D01*
Y253824D02*
Y255424D01*
X488145Y253824D02*
X493844D01*
X488145Y252224D02*
Y253824D01*
Y252224D02*
X493844D01*
Y250624D02*
Y252224D01*
X488145Y250624D02*
X493844D01*
X488145Y249024D02*
Y250624D01*
Y249024D02*
X493844D01*
Y248724D02*
Y249024D01*
X457375Y272123D02*
Y274931D01*
X459174D01*
Y276531D01*
X456075D02*
X459174D01*
X456075D02*
Y278131D01*
X459180D01*
Y279731D01*
X456075D02*
X459180D01*
X456075D02*
Y281331D01*
X459180D01*
Y282931D01*
X456075D02*
X459180D01*
X456075D02*
Y284531D01*
X459180D01*
Y286131D01*
X456075D02*
X459180D01*
X456075D02*
Y287731D01*
X459180D01*
Y289331D01*
X457375D02*
X459180D01*
X457375D02*
Y289631D01*
X478207Y267428D02*
Y267758D01*
X476567Y265789D02*
X478207Y267428D01*
X467815Y265789D02*
X476567D01*
X467815Y264189D02*
Y265789D01*
Y264189D02*
X478299D01*
Y262589D02*
Y264189D01*
X466916Y262589D02*
X478299D01*
X466916Y260988D02*
Y262589D01*
Y260988D02*
X478299D01*
Y259388D02*
Y260988D01*
X466916Y259388D02*
X478299D01*
X466916Y257788D02*
Y259388D01*
Y257788D02*
X478299D01*
Y256189D02*
Y257788D01*
X466916Y256189D02*
X478299D01*
X466916Y254589D02*
Y256189D01*
Y254589D02*
X476175D01*
Y254288D02*
Y254589D01*
X456759Y267117D02*
Y269023D01*
Y267117D02*
X457299D01*
Y265517D02*
Y267117D01*
X455875Y265517D02*
X457299D01*
X455875Y263917D02*
Y265517D01*
Y263917D02*
X457075D01*
Y262317D02*
Y263917D01*
X455875Y262317D02*
X457075D01*
X455875Y260717D02*
Y262317D01*
Y260717D02*
X457075D01*
Y259117D02*
Y260717D01*
X455875Y259117D02*
X457075D01*
X455875Y257517D02*
Y259117D01*
Y257517D02*
X457075D01*
Y255917D02*
Y257517D01*
X455875Y255917D02*
X457075D01*
X455875Y254317D02*
Y255917D01*
Y254317D02*
X456759D01*
Y254016D02*
Y254317D01*
X452175Y275355D02*
Y277523D01*
Y275355D02*
X453875D01*
Y273755D02*
Y275355D01*
X450029Y273755D02*
X453875D01*
X450029Y272155D02*
Y273755D01*
Y272155D02*
X453875D01*
Y270555D02*
Y272155D01*
X450029Y270555D02*
X453875D01*
X450029Y268955D02*
Y270555D01*
Y268955D02*
X453875D01*
Y267355D02*
Y268955D01*
X450029Y267355D02*
X453875D01*
X450029Y265755D02*
Y267355D01*
Y265755D02*
X453875D01*
Y264155D02*
Y265755D01*
X450029Y264155D02*
X453875D01*
X450029Y262555D02*
Y264155D01*
Y262555D02*
X453875D01*
Y260955D02*
Y262555D01*
X450029Y260955D02*
X453875D01*
X450029Y259355D02*
Y260955D01*
Y259355D02*
X453875D01*
Y257755D02*
Y259355D01*
X450029Y257755D02*
X453875D01*
X450029Y256155D02*
Y257755D01*
Y256155D02*
X453875D01*
Y254555D02*
Y256155D01*
X450029Y254555D02*
X453875D01*
X450029Y252955D02*
Y254555D01*
Y252955D02*
X454317D01*
Y251355D02*
Y252955D01*
X450029Y251355D02*
X454317D01*
X450029Y249755D02*
Y251355D01*
Y249755D02*
X452175D01*
Y249455D02*
Y249755D01*
X456575Y247411D02*
X457775D01*
X456575D02*
Y248075D01*
X454975D02*
X456575D01*
X454975Y247411D02*
Y248075D01*
X454675Y247411D02*
X454975D01*
X453875Y243623D02*
X454375D01*
Y244086D01*
X455975D01*
Y242123D02*
Y244086D01*
Y242123D02*
X457575D01*
Y244086D01*
X459175D01*
Y242123D02*
Y244086D01*
Y242123D02*
X460775D01*
Y243623D01*
X461075D01*
X465391Y267756D02*
X465669Y268034D01*
X465391Y266485D02*
Y267756D01*
Y266485D02*
X465958D01*
Y264885D02*
Y266485D01*
X458075Y264885D02*
X465958D01*
X458075Y263285D02*
Y264885D01*
Y263285D02*
X465916D01*
Y261685D02*
Y263285D01*
X458075Y261685D02*
X465916D01*
X458075Y260085D02*
Y261685D01*
Y260085D02*
X465916D01*
Y258485D02*
Y260085D01*
X458075Y258485D02*
X465916D01*
X458075Y256885D02*
Y258485D01*
Y256885D02*
X465916D01*
Y255285D02*
Y256885D01*
X458075Y255285D02*
X465916D01*
X458075Y253685D02*
Y255285D01*
Y253685D02*
X465337D01*
Y253385D02*
Y253685D01*
X465789Y252183D02*
X466267Y251704D01*
X467622D01*
Y253589D01*
X469222D01*
Y251523D02*
Y253589D01*
Y251523D02*
X470822D01*
Y253589D01*
X472422D01*
Y251552D02*
Y253589D01*
Y251552D02*
X474022D01*
Y251704D01*
X474322D01*
X463075Y243623D02*
X464699Y241999D01*
X461075Y243623D02*
X463075D01*
X464699Y240339D02*
Y241999D01*
Y240339D02*
X465793Y239244D01*
X453675Y243623D02*
X453875D01*
X449029Y248269D02*
X453675Y243623D01*
X449029Y248269D02*
Y277023D01*
X444875Y240123D02*
X463361D01*
X464243Y239240D01*
X444275Y240723D02*
X444875Y240123D01*
X449029Y277023D02*
Y287140D01*
X466475Y228923D02*
Y238423D01*
X464383Y226817D02*
X464793Y227227D01*
X464368Y226817D02*
X464383D01*
X464793Y227227D02*
Y227241D01*
X466475Y228923D01*
X461480Y226429D02*
X463981D01*
X461190Y226139D02*
X461480Y226429D01*
X463981D02*
X464368Y226817D01*
X465793Y239104D02*
X466475Y238423D01*
X465793Y239104D02*
Y239244D01*
X464793Y238690D02*
X465375Y238109D01*
X464050Y228398D02*
X465375Y229723D01*
Y238109D01*
X461480Y228398D02*
X464050D01*
X461190Y228107D02*
X461480Y228398D01*
X464793Y238690D02*
Y238830D01*
X464383Y239240D02*
X464793Y238830D01*
X464243Y239240D02*
X464383D01*
X529117Y209923D02*
Y210120D01*
X525788Y213449D02*
X529117Y210120D01*
X521625Y213449D02*
X525788D01*
X521625Y213227D02*
Y213449D01*
X518617Y210220D02*
X521625Y213227D01*
X518617Y210023D02*
Y210220D01*
X497761Y205834D02*
X501450Y209523D01*
X501864Y208523D02*
X515387D01*
X522456Y201454D01*
X498175Y204834D02*
X501864Y208523D01*
X513387Y209523D02*
X514136Y210271D01*
X501450Y209523D02*
X513387D01*
X514136Y210271D02*
Y210271D01*
X522756Y218891D01*
X482312Y206634D02*
Y207155D01*
X480828Y210438D02*
X481118Y210147D01*
X533028Y203631D02*
Y204123D01*
X541323D02*
X541823Y204623D01*
X481118Y207349D02*
Y210147D01*
X522456Y201454D02*
X530851D01*
X533028Y203631D01*
X483112Y205834D02*
X497761D01*
X481312Y206220D02*
Y207155D01*
X481118Y207349D02*
X481312Y207155D01*
Y206220D02*
X482698Y204834D01*
X498175D01*
X482312Y206634D02*
X483112Y205834D01*
X482506Y207349D02*
Y210147D01*
X533028Y204123D02*
X541323D01*
X482312Y207155D02*
X482506Y207349D01*
Y210147D02*
X482796Y210438D01*
X487821Y206834D02*
X489582D01*
X486733Y208125D02*
Y210438D01*
Y208125D02*
X487411Y207447D01*
Y207244D02*
X487821Y206834D01*
X490071Y207323D02*
X491485D01*
X488992Y208323D02*
X491071D01*
X487411Y207244D02*
Y207447D01*
X489582Y206834D02*
X490071Y207323D01*
X534528Y216223D02*
X538471D01*
X540071Y214623D02*
X541823D01*
X538471Y216223D02*
X540071Y214623D01*
X533251Y218891D02*
X533351Y218791D01*
Y217399D02*
Y218791D01*
Y217399D02*
X534528Y216223D01*
X522756Y218891D02*
X533251D01*
X529522Y215731D02*
X531789Y213464D01*
Y210223D02*
Y213464D01*
X527122Y204123D02*
X528222Y205222D01*
X529147D01*
X531589Y207664D01*
Y210023D02*
X531789Y210223D01*
X531589Y207664D02*
Y210023D01*
X523932Y209826D02*
X525946Y207813D01*
Y205299D02*
Y207813D01*
Y205299D02*
X527122Y204123D01*
X523932Y209826D02*
Y210023D01*
X540071Y229623D02*
X541823D01*
X538671Y228223D02*
X540071Y229623D01*
X535828Y240623D02*
X540823D01*
X541823Y239623D01*
X534732Y209623D02*
X541823D01*
X534432Y209923D02*
X534732Y209623D01*
X528622Y227323D02*
X529522Y228223D01*
X525675Y227323D02*
X528622D01*
X517246Y233516D02*
Y236681D01*
X516894Y233164D02*
X517246Y233516D01*
X516326Y232164D02*
X517246D01*
X491485Y207323D02*
X516326Y232164D01*
X515912Y233164D02*
X516894D01*
X491071Y208323D02*
X515912Y233164D01*
X465075Y277780D02*
X465135Y277841D01*
X435375Y306623D02*
X435575Y306423D01*
Y306340D02*
Y306423D01*
X435375Y306623D02*
Y309691D01*
X435606Y309923D01*
X467061Y205522D02*
Y209843D01*
Y205522D02*
X469775Y202809D01*
X466757Y210147D02*
X467048Y210438D01*
X466757Y210147D02*
X467061Y209843D01*
X476933Y204316D02*
Y210396D01*
X478375Y202809D02*
Y202874D01*
X476933Y204316D02*
X478375Y202874D01*
X476891Y210438D02*
X476933Y210396D01*
X472964Y202819D02*
Y210427D01*
Y202819D02*
X472975Y202809D01*
X472954Y210438D02*
X472964Y210427D01*
X521103Y235808D02*
Y236851D01*
X519717Y234423D02*
X521103Y235808D01*
Y236851D02*
X522575Y238323D01*
X526714D01*
X530217Y234820D01*
X490856Y214041D02*
X491475Y213423D01*
X485853Y214041D02*
X490856D01*
X455710Y217251D02*
X457586Y219127D01*
Y219145D02*
X457996Y219555D01*
X458014D01*
X458402Y219942D02*
X460899D01*
X457586Y219127D02*
Y219145D01*
X460899Y219942D02*
X461190Y220233D01*
X458014Y219555D02*
X458402Y219942D01*
X453875Y214223D02*
X468275Y199823D01*
X453875Y214223D02*
Y217953D01*
X468275Y199823D02*
X544675D01*
X460939Y221951D02*
X461190Y222202D01*
X453875Y217953D02*
X457873Y221951D01*
X460939D01*
X534080Y306365D02*
X534375D01*
X532608Y304894D02*
X534080Y306365D01*
X532608Y304598D02*
Y304894D01*
X531975Y256123D02*
Y303965D01*
X532608Y304598D01*
X531975Y256123D02*
X547575Y240523D01*
Y202723D02*
Y240523D01*
X544675Y199823D02*
X547575Y202723D01*
X497753Y226817D02*
X520275Y249338D01*
Y300423D01*
X497163Y226465D02*
X497515Y226817D01*
X494560Y226139D02*
X496873D01*
X497163Y226429D01*
Y226465D01*
X497515Y226817D02*
X497753D01*
X544762Y313176D02*
X546390D01*
X543267Y311680D02*
X544762Y313176D01*
X534375Y311680D02*
X543267D01*
X461190Y235981D02*
Y237950D01*
X448526D02*
X461190D01*
X444727Y234150D02*
X448526Y237950D01*
X444727Y233757D02*
Y234150D01*
X574540Y353336D02*
X574891Y353688D01*
X574540Y350458D02*
Y353336D01*
Y350458D02*
X575316Y349682D01*
X574891Y353688D02*
X575920D01*
X577034Y352573D01*
X578150D01*
X575316Y349184D02*
Y349682D01*
X582149Y349336D02*
X582556Y349743D01*
X576882Y349336D02*
X582149D01*
X582556Y349743D02*
X582875Y349424D01*
X485442Y213429D02*
Y213631D01*
X484765Y212751D02*
X485442Y213429D01*
X484765Y210438D02*
Y212751D01*
X485442Y213631D02*
X485853Y214041D01*
X535828Y240623D02*
Y241115D01*
X517246Y236681D02*
X523856Y243291D01*
X533651D02*
X535828Y241115D01*
X523856Y243291D02*
X533651D01*
X488702Y208613D02*
X488992Y208323D01*
X488702Y208613D02*
Y210438D01*
X528546Y229199D02*
X529522Y228223D01*
X534132Y210223D02*
X534432Y209923D01*
X531789Y210223D02*
X534132D01*
X532889Y234723D02*
Y237164D01*
Y232281D02*
Y234723D01*
X535432D02*
X535532Y234623D01*
X532889Y234723D02*
X535432D01*
X525032Y234226D02*
X528546Y230713D01*
X525032Y234226D02*
Y234423D01*
X530698Y230091D02*
X532889Y232281D01*
X530698Y229399D02*
Y230091D01*
X529522Y228223D02*
X530698Y229399D01*
X530217Y234623D02*
Y234820D01*
X449029Y287140D02*
X455389Y293500D01*
X456575D01*
X454875Y253811D02*
Y289071D01*
X455775Y289971D02*
X457034D01*
X454875Y289071D02*
X455775Y289971D01*
X457034D02*
X457375Y289631D01*
X444275Y240723D02*
Y290103D01*
X462787Y251801D02*
X462918D01*
X464196Y250523D01*
X470168D01*
X469663Y249411D02*
X471663Y247411D01*
X467929D02*
X468726Y246614D01*
Y244098D02*
X469017Y243808D01*
X460689Y249411D02*
X469663D01*
X460275Y248411D02*
X468897D01*
X457775Y247411D02*
X467929D01*
X468897Y248411D02*
X470307Y247001D01*
X468726Y244098D02*
Y246614D01*
X454875Y253811D02*
X456225Y252461D01*
X458925Y249761D02*
X460275Y248411D01*
X456225Y251573D02*
Y252461D01*
X458036Y249761D02*
X458925D01*
X456225Y251573D02*
X458036Y249761D01*
X456759Y253341D02*
X460689Y249411D01*
X465391Y267756D02*
X465659Y268023D01*
X472375D01*
X475293Y250732D02*
X478766Y247260D01*
X474322Y251704D02*
X474942D01*
X475293Y250732D02*
Y251353D01*
X474942Y251704D02*
X475293Y251353D01*
X478766Y243901D02*
X478859Y243808D01*
X478766Y243901D02*
Y247260D01*
X478257Y249840D02*
Y253340D01*
Y249840D02*
X480537Y247561D01*
X454219Y247411D02*
X454675D01*
X452175Y249455D02*
X454219Y247411D01*
X456759Y253341D02*
Y254016D01*
X470307Y246799D02*
Y247001D01*
Y246799D02*
X470985Y246121D01*
Y243808D02*
Y246121D01*
X447504Y294875D02*
X450675Y298045D01*
X447094Y290454D02*
X447504Y290864D01*
Y294875D01*
X444275Y290103D02*
X444626Y290454D01*
X447094D01*
X465337Y252534D02*
Y253385D01*
Y252534D02*
X465689Y252183D01*
X465789D01*
X471866Y247411D02*
X472276Y247001D01*
X471663Y247411D02*
X471866D01*
X476600Y244098D02*
X476891Y243808D01*
X476600Y244098D02*
Y246893D01*
X473826Y249668D02*
X476600Y246893D01*
X474244Y246799D02*
Y247001D01*
X473688Y249668D02*
X473826D01*
X476175Y254288D02*
X477309D01*
X478257Y253340D01*
X478207Y267758D02*
Y267807D01*
X480537Y244098D02*
Y247561D01*
X472276Y246799D02*
Y247001D01*
X472954Y243808D02*
Y246121D01*
X472276Y246799D02*
X472954Y246121D01*
X480537Y244098D02*
X480828Y243808D01*
X483474Y246763D02*
Y247001D01*
X484239Y247766D01*
X494844Y270473D02*
Y270771D01*
X493844Y248274D02*
Y248724D01*
X489575Y271123D02*
X494492D01*
X494844Y270771D01*
X486364Y247923D02*
X493492D01*
X493844Y248274D01*
X497753Y236659D02*
X498078Y236984D01*
X498375Y270823D02*
X498504Y270693D01*
X498706Y257154D02*
X500575Y259023D01*
X498706Y248086D02*
Y257154D01*
X500591Y236668D02*
Y256374D01*
X497450Y228398D02*
X502475Y233423D01*
Y269623D01*
X494850Y228398D02*
X497450D01*
X498875Y235812D02*
Y236366D01*
X499163Y236655D02*
Y247629D01*
X497753Y232722D02*
X499875Y234843D01*
X498875Y236366D02*
X499163Y236655D01*
X499875Y235952D02*
X500591Y236668D01*
X497753Y234690D02*
X498875Y235812D01*
X498706Y248086D02*
X499163Y247629D01*
X499875Y234843D02*
Y235952D01*
X468339Y213429D02*
Y238714D01*
X467048Y240004D02*
Y243808D01*
Y240004D02*
X468339Y238714D01*
X483122Y246411D02*
X483474Y246763D01*
X484700Y267298D02*
X486223D01*
X486575Y266946D01*
X484075Y267923D02*
X484700Y267298D01*
X484765Y246121D02*
X485442Y246799D01*
X484765Y243808D02*
Y246121D01*
X482796Y243808D02*
Y246121D01*
X483087Y246411D02*
X483122D01*
X482796Y246121D02*
X483087Y246411D01*
X485442Y247001D02*
X486364Y247923D01*
X485442Y246799D02*
Y247001D01*
X474922Y243808D02*
Y246121D01*
X474244Y246799D02*
X474922Y246121D01*
X478967Y205231D02*
Y210330D01*
Y205231D02*
X479075Y205123D01*
X496873Y234013D02*
X497551Y234690D01*
X497753D01*
X474929Y205368D02*
Y210431D01*
Y205368D02*
X474936Y205362D01*
X494560Y235981D02*
X496873D01*
X497163Y236272D01*
Y236308D01*
X497515Y236659D01*
X497753D01*
X490972Y230366D02*
X494269D01*
X489143Y232195D02*
X490972Y230366D01*
X489143Y232195D02*
Y232855D01*
X488875Y233123D02*
X489143Y232855D01*
X470930Y205378D02*
Y210383D01*
X470875Y205323D02*
X470930Y205378D01*
X469017Y212751D02*
X469695Y213429D01*
X478569Y210728D02*
Y213244D01*
X470105Y214041D02*
X477771D01*
X478569Y210728D02*
X478967Y210330D01*
X477771Y214041D02*
X478569Y213244D01*
X469695Y213429D02*
Y213631D01*
X470105Y214041D01*
X468339Y213429D02*
X469017Y212751D01*
X474922Y210438D02*
X474929Y210431D01*
X494560Y234013D02*
X496873D01*
X486733Y238781D02*
Y243808D01*
X494269Y230366D02*
X494560Y230076D01*
X470930Y210383D02*
X470985Y210438D01*
X494560Y228107D02*
X494850Y228398D01*
X494560Y232044D02*
X496873D01*
X497551Y232722D01*
X497753D01*
X469017Y210438D02*
Y212751D01*
X450675Y298045D02*
Y305082D01*
X438003Y305991D02*
X439475Y304520D01*
X436523Y305991D02*
X438003D01*
X436516Y305999D02*
X436523Y305991D01*
X435916Y305999D02*
X436516D01*
X435575Y306340D02*
X435916Y305999D01*
X439906Y293312D02*
Y298623D01*
X439717Y293123D02*
X439906Y293312D01*
X439475Y299054D02*
Y304520D01*
Y299054D02*
X439906Y298623D01*
X442861Y236016D02*
X444727Y234150D01*
X462406Y279842D02*
X462651Y280086D01*
X462406Y274937D02*
Y279842D01*
Y274937D02*
X464878Y272465D01*
X465075D01*
X535575Y418098D02*
X562437Y444961D01*
D24*
X424016Y467028D02*
D03*
Y472342D02*
D03*
X454331Y456201D02*
D03*
Y450886D02*
D03*
X462992Y298130D02*
D03*
Y303445D02*
D03*
X465075Y277780D02*
D03*
Y272465D02*
D03*
D26*
X393701Y270866D02*
D03*
Y264567D02*
D03*
X401575D02*
D03*
Y270866D02*
D03*
X394882Y287795D02*
D03*
Y281496D02*
D03*
X401575Y287795D02*
D03*
Y281496D02*
D03*
X380315Y489764D02*
D03*
Y483465D02*
D03*
X347244Y416535D02*
D03*
Y410236D02*
D03*
X364173Y416831D02*
D03*
Y410532D02*
D03*
X364173Y428642D02*
D03*
Y422343D02*
D03*
Y453150D02*
D03*
Y446850D02*
D03*
Y464567D02*
D03*
Y458268D02*
D03*
Y477953D02*
D03*
Y471654D02*
D03*
X346063Y453150D02*
D03*
Y446850D02*
D03*
X346457Y464567D02*
D03*
Y458268D02*
D03*
Y477953D02*
D03*
Y471654D02*
D03*
Y428346D02*
D03*
Y422047D02*
D03*
X380315Y416831D02*
D03*
Y410532D02*
D03*
Y428346D02*
D03*
Y422047D02*
D03*
Y453150D02*
D03*
Y446850D02*
D03*
Y464862D02*
D03*
Y458563D02*
D03*
X364173Y489764D02*
D03*
Y483465D02*
D03*
X346063Y489764D02*
D03*
Y483465D02*
D03*
X380315Y477953D02*
D03*
Y471654D02*
D03*
Y440551D02*
D03*
Y434252D02*
D03*
X364173Y440551D02*
D03*
Y434252D02*
D03*
X346063Y440551D02*
D03*
Y434252D02*
D03*
X400394Y222056D02*
D03*
Y215757D02*
D03*
X406693D02*
D03*
Y222056D02*
D03*
D27*
X490874Y388583D02*
D03*
X484575D02*
D03*
X419291Y395276D02*
D03*
X425591D02*
D03*
X465748Y388189D02*
D03*
X459449D02*
D03*
X381890Y397638D02*
D03*
X388189D02*
D03*
X386614Y372835D02*
D03*
X392913D02*
D03*
X417717Y373228D02*
D03*
X424016D02*
D03*
X407087Y396457D02*
D03*
X400787D02*
D03*
D35*
X466173Y328499D02*
D03*
Y333344D02*
D03*
D43*
X435606Y309923D02*
D03*
X440543D02*
D03*
X439906Y298623D02*
D03*
X444843D02*
D03*
D44*
X527165Y314961D02*
D03*
Y307874D02*
D03*
X434252Y476772D02*
D03*
Y469685D02*
D03*
X439475Y304323D02*
D03*
X444790D02*
D03*
X530217Y234623D02*
D03*
X535532D02*
D03*
X529117Y209923D02*
D03*
X534432D02*
D03*
X439717Y293123D02*
D03*
X445032D02*
D03*
X431317Y225823D02*
D03*
X436632D02*
D03*
X525032Y234423D02*
D03*
X519717D02*
D03*
X523932Y210023D02*
D03*
X518617D02*
D03*
D49*
X534375Y311680D02*
D03*
Y306365D02*
D03*
D84*
X299213Y305118D02*
D03*
Y257874D02*
D03*
X314961Y344488D02*
D03*
Y265748D02*
D03*
X299213Y273622D02*
D03*
X314961Y360236D02*
D03*
X299213Y431102D02*
D03*
Y368110D02*
D03*
Y352362D02*
D03*
Y320866D02*
D03*
X330709Y336614D02*
D03*
Y273622D02*
D03*
Y320866D02*
D03*
Y257874D02*
D03*
Y415354D02*
D03*
Y399606D02*
D03*
Y383858D02*
D03*
Y368110D02*
D03*
Y352362D02*
D03*
Y305118D02*
D03*
Y289370D02*
D03*
X314961Y423228D02*
D03*
Y407480D02*
D03*
Y391732D02*
D03*
Y375984D02*
D03*
Y328740D02*
D03*
Y312992D02*
D03*
Y297244D02*
D03*
Y281496D02*
D03*
X299213Y415354D02*
D03*
Y399606D02*
D03*
Y383858D02*
D03*
Y336614D02*
D03*
Y289370D02*
D03*
D85*
X312992Y456693D02*
D03*
Y232283D02*
D03*
D86*
X330709Y431102D02*
D03*
D94*
X415650Y478740D02*
Y480020D01*
X419095Y483465D01*
X419291D01*
X401575Y395669D02*
X402756D01*
X400787Y396457D02*
X401575Y395669D01*
X430508Y274997D02*
X434446D01*
X434646Y275197D01*
X429711Y275794D02*
X430508Y274997D01*
X429340Y275794D02*
X429711D01*
D95*
X346063Y489764D02*
X346176Y489877D01*
Y493182D01*
X434272Y440669D02*
Y454213D01*
X390945Y463681D02*
X391831D01*
X392717Y464567D02*
Y465453D01*
X395276Y481879D02*
X403150Y489753D01*
X395276Y468012D02*
Y481879D01*
X391831Y463681D02*
X392717Y464567D01*
Y465453D02*
X395276Y468012D01*
X391831Y462795D02*
X393898D01*
X418887Y461024D02*
X419056Y460855D01*
X415090Y461024D02*
X418887D01*
X411941Y457874D02*
X415090Y461024D01*
X410236Y457874D02*
X411941D01*
X400827Y453642D02*
Y457087D01*
X399843Y458071D02*
X400827Y457087D01*
X393898Y462795D02*
X398622Y458071D01*
X399843D01*
X403150Y489753D02*
X409044D01*
X410236Y490945D01*
X419056Y461083D02*
X423819Y465846D01*
X419056Y460855D02*
Y461083D01*
X418858Y453642D02*
X419056Y453839D01*
Y460855D01*
X423819Y465846D02*
X424016D01*
X434272Y440669D02*
X434291Y440650D01*
X434252Y454232D02*
X434272Y454213D01*
D97*
X465748Y398819D02*
D03*
X397638Y299213D02*
D03*
Y254331D02*
D03*
X396457Y207489D02*
D03*
X410236Y457874D02*
D03*
X490874Y398819D02*
D03*
X424409Y408661D02*
D03*
X407087D02*
D03*
X388224Y408697D02*
D03*
X445472Y458071D02*
D03*
X392913Y383071D02*
D03*
X424016D02*
D03*
X445276Y491339D02*
D03*
X410236Y490945D02*
D03*
D98*
X598032Y366943D02*
D03*
Y338203D02*
D03*
D99*
X558083Y289707D02*
D03*
X566075Y285691D02*
D03*
Y277660D02*
D03*
X558083Y273644D02*
D03*
Y281676D02*
D03*
X566075Y293723D02*
D03*
X558083Y297739D02*
D03*
X566075Y301754D02*
D03*
D100*
X546390Y313176D02*
D03*
Y272223D02*
D03*
Y262223D02*
D03*
Y303176D02*
D03*
D101*
X599382Y318959D02*
D03*
Y256439D02*
D03*
D102*
X585760Y265199D02*
D03*
Y310199D02*
D03*
D103*
X578150Y358872D02*
D03*
X582875Y355723D02*
D03*
X578150Y352573D02*
D03*
X582875Y349424D02*
D03*
X578150Y346274D02*
D03*
D104*
X449382Y311333D02*
D03*
X488875Y235707D02*
D03*
X467605Y281888D02*
D03*
X462787Y251801D02*
D03*
X472375Y268023D02*
D03*
X456759Y269023D02*
D03*
X452175Y277523D02*
D03*
X457375Y272123D02*
D03*
X473688Y249668D02*
D03*
X500591Y256374D02*
D03*
X500575Y259023D02*
D03*
X498375Y270823D02*
D03*
X488875Y233123D02*
D03*
X478207Y267807D02*
D03*
X489575Y271123D02*
D03*
X484075Y267923D02*
D03*
D105*
X461417Y312598D02*
D03*
X448475Y321423D02*
D03*
X448425Y324803D02*
D03*
X438189Y322835D02*
D03*
X400787Y470866D02*
D03*
Y465748D02*
D03*
X530428Y399875D02*
D03*
X477953Y417717D02*
D03*
X419291Y483465D02*
D03*
X351580Y484252D02*
D03*
X443420Y323103D02*
D03*
X438583Y330709D02*
D03*
X443814Y330977D02*
D03*
X346176Y493182D02*
D03*
X346457Y458268D02*
D03*
X380315Y458563D02*
D03*
X364173Y458268D02*
D03*
X350394Y196063D02*
D03*
X517323Y417717D02*
D03*
X507480D02*
D03*
X496063Y418110D02*
D03*
X397638Y314173D02*
D03*
X391732Y456299D02*
D03*
X390551Y478740D02*
D03*
X424803Y472835D02*
D03*
X483858Y417717D02*
D03*
X500761Y357088D02*
D03*
X499076Y352988D02*
D03*
X451968Y424016D02*
D03*
X418110Y276700D02*
D03*
Y283686D02*
D03*
X417717Y260630D02*
D03*
X431317Y225823D02*
D03*
X434646Y259431D02*
D03*
X433022Y233623D02*
D03*
X434646Y269291D02*
D03*
X383688Y431634D02*
D03*
X456498Y382960D02*
D03*
X446457Y390551D02*
D03*
X436614Y395193D02*
D03*
X448032Y393307D02*
D03*
X311417Y438189D02*
D03*
X402756Y395669D02*
D03*
X351181Y416142D02*
D03*
X342126Y416929D02*
D03*
X418110Y395276D02*
D03*
X306693Y434252D02*
D03*
X308279Y448819D02*
D03*
X342126Y440945D02*
D03*
X431382Y362005D02*
D03*
X413891Y303543D02*
D03*
X398031Y240709D02*
D03*
X367717Y443701D02*
D03*
X405512Y368401D02*
D03*
X350787Y428346D02*
D03*
X342520Y428740D02*
D03*
X350787Y440158D02*
D03*
Y452756D02*
D03*
X342126Y453543D02*
D03*
Y477953D02*
D03*
Y465748D02*
D03*
X350394Y464173D02*
D03*
Y477559D02*
D03*
Y489370D02*
D03*
X342126Y489764D02*
D03*
X409842Y427264D02*
D03*
X443307Y350394D02*
D03*
X441457Y355016D02*
D03*
X385827Y284646D02*
D03*
X378740Y285827D02*
D03*
X361811Y282283D02*
D03*
X350000D02*
D03*
X350394Y240158D02*
D03*
X362205D02*
D03*
X377953Y243701D02*
D03*
X385039Y242913D02*
D03*
X392618Y220324D02*
D03*
X362205Y196457D02*
D03*
X378346Y200000D02*
D03*
X386221Y198819D02*
D03*
X434252Y453543D02*
D03*
X392719Y463979D02*
D03*
X434252Y461516D02*
D03*
X379921Y410630D02*
D03*
X346850D02*
D03*
X364173Y410630D02*
D03*
X346560Y471154D02*
D03*
X364173Y470866D02*
D03*
X380316Y470866D02*
D03*
X346457Y483465D02*
D03*
X364173Y483571D02*
D03*
X380316Y482677D02*
D03*
X379528Y422835D02*
D03*
X346456Y422834D02*
D03*
X363779Y423228D02*
D03*
X380315Y446457D02*
D03*
X346456Y446456D02*
D03*
X364173Y446457D02*
D03*
X379922Y434646D02*
D03*
X363780D02*
D03*
X346457Y434646D02*
D03*
X434252Y476772D02*
D03*
X405118Y479134D02*
D03*
X434252Y469685D02*
D03*
X454331Y456201D02*
D03*
X466531Y417416D02*
D03*
X472975Y354423D02*
D03*
X496457Y357087D02*
D03*
X474802Y364566D02*
D03*
X466142Y338189D02*
D03*
X461024Y323228D02*
D03*
X473821Y359648D02*
D03*
X434975Y306223D02*
D03*
X545122Y387823D02*
D03*
X488181Y423045D02*
D03*
X479689Y455787D02*
D03*
X475197Y431102D02*
D03*
X470181D02*
D03*
X488181Y428360D02*
D03*
X441732Y370079D02*
D03*
X429340Y275794D02*
D03*
X462205Y316142D02*
D03*
X464567Y317323D02*
D03*
X462205Y321260D02*
D03*
X466142Y309842D02*
D03*
X570677Y449382D02*
D03*
X535585Y282351D02*
D03*
X527165Y314961D02*
D03*
Y307874D02*
D03*
X600739Y242723D02*
D03*
X522975Y216123D02*
D03*
X461500Y446929D02*
D03*
X461303Y479409D02*
D03*
X515988D02*
D03*
Y447126D02*
D03*
X536417Y441437D02*
D03*
X530717Y430972D02*
D03*
X456299Y353150D02*
D03*
X438976Y344882D02*
D03*
X422441Y295276D02*
D03*
X504575Y270223D02*
D03*
X462992Y298130D02*
D03*
X448819Y202362D02*
D03*
X529345Y335753D02*
D03*
X529975Y333423D02*
D03*
X546850Y373622D02*
D03*
X535511Y361823D02*
D03*
X478775Y230823D02*
D03*
X442312Y344873D02*
D03*
X462863Y281723D02*
D03*
X465135Y282138D02*
D03*
X561475Y464223D02*
D03*
X444575Y219523D02*
D03*
X525675Y227323D02*
D03*
X520089Y323223D02*
D03*
X469775Y202809D02*
D03*
X478375D02*
D03*
X472975D02*
D03*
X571375Y358523D02*
D03*
X522575Y238323D02*
D03*
X521625Y213449D02*
D03*
X491475Y213423D02*
D03*
X455710Y217233D02*
D03*
X456375Y214523D02*
D03*
X501275Y227823D02*
D03*
X448526Y237950D02*
D03*
X463136Y303823D02*
D03*
X449029Y277023D02*
D03*
X470875Y205323D02*
D03*
X474936Y205362D02*
D03*
X479075Y205123D02*
D03*
X456548Y230002D02*
D03*
X491975Y244423D02*
D03*
X448989Y301123D02*
D03*
X448975Y303423D02*
D03*
X510875Y283223D02*
D03*
X564975Y331523D02*
D03*
X521775Y321323D02*
D03*
X524175Y345523D02*
D03*
X520275Y300423D02*
D03*
X550375Y356823D02*
D03*
X548375Y382123D02*
D03*
X527275Y349123D02*
D03*
X561575Y425123D02*
D03*
X584875Y377123D02*
D03*
X562437Y444961D02*
D03*
D121*
X397638Y313622D02*
D03*
Y308425D02*
D03*
X398031Y240709D02*
D03*
Y245905D02*
D03*
X392618Y215127D02*
D03*
Y220324D02*
D03*
D122*
X391732Y456595D02*
D03*
Y463878D02*
D03*
X434252Y454232D02*
D03*
Y461516D02*
D03*
D123*
X400827Y453642D02*
D03*
X418858D02*
D03*
D124*
X409842Y427264D02*
D03*
D125*
X444727Y225489D02*
D03*
Y233757D02*
D03*
X451223D02*
D03*
Y225489D02*
D03*
D126*
X533525Y216142D02*
D03*
X528680D02*
D03*
X534899Y228224D02*
D03*
X530054D02*
D03*
X530648Y240551D02*
D03*
X535494D02*
D03*
X533132Y203937D02*
D03*
X528286D02*
D03*
D127*
X400000Y465453D02*
D03*
Y470768D02*
D03*
D128*
X405512Y379630D02*
D03*
Y368401D02*
D03*
X436614Y394300D02*
D03*
Y383071D02*
D03*
D129*
X434646Y269291D02*
D03*
Y275197D02*
D03*
X418110Y277780D02*
D03*
Y283686D02*
D03*
D130*
X415650Y478740D02*
D03*
X404035D02*
D03*
D131*
X434291Y440650D02*
D03*
X452323D02*
D03*
D132*
X443307Y414272D02*
D03*
D133*
X463701Y370016D02*
D03*
Y355016D02*
D03*
X441457Y360016D02*
D03*
Y365016D02*
D03*
Y370016D02*
D03*
Y355016D02*
D03*
X463701Y360016D02*
D03*
Y365016D02*
D03*
D134*
X473879Y365365D02*
D03*
Y359066D02*
D03*
D135*
X431382Y362005D02*
D03*
X423701Y365745D02*
D03*
D136*
Y358264D02*
D03*
D137*
X541823Y204623D02*
D03*
X575327D02*
D03*
X541823Y209623D02*
D03*
Y214623D02*
D03*
Y219623D02*
D03*
Y224623D02*
D03*
Y229623D02*
D03*
Y234623D02*
D03*
Y239623D02*
D03*
X575327Y209623D02*
D03*
Y214623D02*
D03*
Y219623D02*
D03*
Y224623D02*
D03*
Y229623D02*
D03*
Y234623D02*
D03*
Y239623D02*
D03*
D138*
X488702Y243808D02*
D03*
X486733D02*
D03*
X484765D02*
D03*
X482796D02*
D03*
X480828D02*
D03*
X478859D02*
D03*
X476891D02*
D03*
X474922D02*
D03*
X472954D02*
D03*
X470985D02*
D03*
X469017D02*
D03*
X467048D02*
D03*
Y210438D02*
D03*
X469017D02*
D03*
X470985D02*
D03*
X472954D02*
D03*
X474922D02*
D03*
X476891D02*
D03*
X478859D02*
D03*
X480828D02*
D03*
X482796D02*
D03*
X484765D02*
D03*
X486733D02*
D03*
X488702D02*
D03*
D139*
X461190Y237950D02*
D03*
Y235981D02*
D03*
Y234013D02*
D03*
Y232044D02*
D03*
Y230076D02*
D03*
Y228107D02*
D03*
Y226139D02*
D03*
Y224170D02*
D03*
Y222202D02*
D03*
Y220233D02*
D03*
Y218265D02*
D03*
Y216296D02*
D03*
X494560D02*
D03*
Y218265D02*
D03*
Y220233D02*
D03*
Y222202D02*
D03*
Y224170D02*
D03*
Y226139D02*
D03*
Y228107D02*
D03*
Y230076D02*
D03*
Y232044D02*
D03*
Y234013D02*
D03*
Y235981D02*
D03*
Y237950D02*
D03*
D140*
X456575Y293500D02*
D03*
Y303746D02*
D03*
D141*
X448819Y214961D02*
D03*
Y202362D02*
D03*
D142*
X433022Y233623D02*
D03*
X438928D02*
D03*
D143*
X347539Y477756D02*
X348413Y476882D01*
X347342Y477953D02*
X347539Y477756D01*
X349821Y467046D02*
Y473603D01*
X347342Y464567D02*
X349821Y467046D01*
X346457Y477953D02*
X347342D01*
X348413Y475011D02*
Y476882D01*
Y475011D02*
X349821Y473603D01*
X346457Y464567D02*
X347342D01*
D144*
X347539Y477756D02*
X349603Y479820D01*
X347441Y464468D02*
X348327Y463583D01*
X346949Y429035D02*
X349603Y431690D01*
Y438192D01*
X346456Y416929D02*
X347341D01*
X346949Y440846D02*
X349603Y438192D01*
X365059Y416929D02*
X367624Y419494D01*
Y426076D01*
X364666Y429035D02*
X367624Y426076D01*
X364666Y429035D02*
Y429134D01*
X367624Y432092D01*
Y437986D01*
X364666Y440944D02*
X367624Y437986D01*
X364666Y440944D02*
Y440945D01*
X346949Y452658D02*
X349908Y455617D01*
Y460253D01*
X348327Y461834D02*
X349908Y460253D01*
X348327Y461834D02*
Y463583D01*
X349603Y443501D02*
Y450003D01*
X346949Y440846D02*
X349603Y443501D01*
X346949Y429035D02*
X349996Y425988D01*
X346949Y489272D02*
X349603Y486617D01*
Y479820D02*
Y486617D01*
X349996Y419584D02*
Y425988D01*
X347341Y416929D02*
X349996Y419584D01*
X346949Y452658D02*
X349603Y450003D01*
X364666Y440945D02*
X367624Y443903D01*
X364173Y452756D02*
X365059D01*
X367624Y450191D01*
X365059Y452756D02*
X367624Y455321D01*
Y443903D02*
Y450191D01*
Y455321D02*
Y462002D01*
X365059Y464567D02*
X367624Y462002D01*
X365059Y464567D02*
X367624Y467132D01*
X364173Y464567D02*
X365059D01*
X367624Y467132D02*
Y474698D01*
X365059Y477264D02*
X367624Y474698D01*
X364173Y477264D02*
X365059D01*
X367625Y479830D01*
Y486411D01*
X365060Y488976D02*
X367625Y486411D01*
X364173Y416929D02*
X365059D01*
X364174Y488976D02*
X365060D01*
M02*
