M48
;Layer_Color=9474304
;FILE_FORMAT=2:4
INCH,TZ
;TYPE=PLATED
T1F00S00C0.0079
T2F00S00C0.0120
T3F00S00C0.0276
T4F00S00C0.0354
T5F00S00C0.0441
T6F00S00C0.0630
T7F00S00C0.0689
T8F00S00C0.0797
T9F00S00C0.1280
;TYPE=NON_PLATED
T10F00S00C0.1122
%
T01
X46977Y20281
X47297
X47494Y20536
X47087Y20532
X47907Y20512
X47837Y20281
X49147Y21342
X50127Y22782
X52567Y22732
X52297Y21612
X52162Y21345
X52257Y23832
X49197Y24442
X47877Y23082
X50457Y27022
X51087Y28322
X53559Y28235
X52027Y30042
X52717Y30787
X60074Y24272
X45655Y23000
X45571Y21723
X45637Y21452
X44457Y21952
X43132Y22582
X43302Y23362
X44853Y23795
X43465Y25943
X43465Y26929
X42934Y27579
X41811Y27670
Y28369
X42244Y29528
X41389Y30354
X43497Y30622
X44897Y30342
X44899Y30112
X46314Y30382
X46299Y29813
X46614Y30984
X46514Y28214
X46286Y28172
X44903Y27702
X41772Y26063
X39803Y24071
X38504Y24291
X37795Y24370
X36220Y24016
X35039
X35000Y28228
X36181
X37874Y28583
X38583Y28465
X39262Y22032
X38622Y19882
X37835Y20000
X36220Y19646
X35039Y19606
X44882Y20236
X31142Y43819
X30669Y43425
X30828Y44882
X34213Y45354
X34646Y45827
X35079Y45276
X34646Y44646
X34213Y44094
X35079Y44016
X34646Y43465
X34252Y42874
X35079Y42835
X34646Y42283
X34213Y41693
X35118Y41614
X34685Y41063
X36417Y41063
X36378Y42323
X36378Y43465
X36417Y44646
X36772Y44370
X38031Y44646
X38031Y45856
X39173Y45630
X39272Y46398
X40079Y46575
X43425Y46152
Y45354
X45433Y45620
X46150Y44693
X45197Y42402
X46653Y41742
X44803Y39331
X44646Y39055
X43661Y39519
X41811Y39528
X40276Y39567
X40551Y36840
X43138Y36200
X44146Y35502
X44331Y35039
X44231Y34487
X43898Y34488
X43858Y33071
X44381Y33098
X44342Y32310
X43819Y32283
X44847Y32142
X44843Y32480
X46102Y32323
X46220Y32126
Y31614
X46457Y31732
X46142Y31260
X46614Y33819
X45630Y35315
X45650Y38296
X44173Y37008
X40984Y42726
X38369Y43163
X37992Y43465
X37953Y42283
X37992Y41063
X36417Y45827
X35039Y46417
X34213Y46575
X39764Y31417
X47297Y35442
X47382Y35965
X47480Y36457
X49646Y35709
X50076Y35709
X49908Y35299
X52727Y34912
X52417Y34552
X52935Y33575
X52997Y33342
X52009Y32322
X52177Y32132
X52717Y31496
X56497Y33152
X57137Y35852
X55037Y35682
X53551Y36182
X54685Y37362
X54837Y38212
X54512Y38782
X53043Y39987
X51732Y41772
X50748
X49606Y41811
X48386Y41772
X47795
X48818Y42304
Y42836
X47520Y43110
X47018
X47969Y45579
X51599Y44713
X53642Y44144
X53072Y43097
X56157Y42512
X56244Y44496
X57068Y44938
X56147Y46422
X58487Y37712
X51599Y47941
X46130
X43425Y47677
Y46968
X42480Y47283
X41929Y48346
X40512Y47913
X40079Y47087
X39055Y47874
X38032Y48268
Y47087
X36417Y47087
Y48357
X35158Y48425
X34646Y48346
X34213Y47795
X35039Y47756
X34656Y47115
X35039Y48937
X34618Y49318
X34213Y48976
T02
X48887Y23312
Y23571
X47369Y24967
X47237Y26802
X47821Y26781
X48407Y26792
X48957Y27112
X49837Y27082
X50057Y25902
X50059Y25637
X46279Y25180
X45676Y26902
X45737Y27212
X45217Y27752
X46761Y28189
X44938Y31133
T03
X57815Y34627
Y35257
Y35887
X58287Y35572
Y34942
T04
X55808Y27364
Y28168
Y28971
Y29774
X56607Y29372
Y28569
Y27766
Y30175
T05
X54639Y26222
Y27222
Y30318
Y31318
T06
X59938Y25644
X39764Y25433
Y29921
X39646Y20749
X39291Y38307
X38822Y40870
X40709Y40866
X42441
X42402Y38307
X46575Y39882
X44547Y45807
X41024Y45787
X49087Y39882
X59938Y31896
X44528Y49134
X41024Y49094
T07
X31496Y26575
Y28150
Y29724
X33071Y30512
Y28937
Y27362
Y25787
X29921
Y27362
Y28937
Y30512
Y32087
Y33661
Y35236
Y36811
Y38386
Y39961
Y41535
Y43110
X31496Y42323
Y40748
Y39173
Y37598
Y36024
Y34449
Y32874
Y31299
X33071Y32087
Y33661
Y35236
Y36811
Y38386
Y39961
Y41535
Y43110
T08
X59803Y33820
Y36694
T09
X58576Y26520
Y31020
T10
X31299Y23228
Y45669
M30
