G04*
G04 #@! TF.GenerationSoftware,Altium Limited,Altium Designer,23.5.1 (21)*
G04*
G04 Layer_Color=16711935*
%FSLAX25Y25*%
%MOIN*%
G70*
G04*
G04 #@! TF.SameCoordinates,80D67788-F2EE-4A8B-BDA7-D5AA6EA99E9C*
G04*
G04*
G04 #@! TF.FilePolarity,Negative*
G04*
G01*
G75*
%ADD19R,0.03937X0.02953*%
%ADD20R,0.02985X0.03197*%
%ADD57R,0.04134X0.04528*%
%ADD58R,0.04528X0.04134*%
%ADD68R,0.02756X0.02362*%
%ADD69R,0.05315X0.05315*%
%ADD70R,0.04724X0.04134*%
%ADD79C,0.11614*%
%ADD80C,0.17520*%
%ADD81C,0.08858*%
%ADD82C,0.06102*%
%ADD83C,0.07205*%
%ADD84C,0.10039*%
%ADD85C,0.19784*%
%ADD86C,0.12547*%
%ADD87C,0.05315*%
%ADD88C,0.02362*%
%ADD119R,0.02953X0.03937*%
%ADD123R,0.06528X0.04156*%
%ADD124R,0.05906X0.03937*%
G04:AMPARAMS|DCode=126|XSize=65.17mil|YSize=23.72mil|CornerRadius=11.86mil|HoleSize=0mil|Usage=FLASHONLY|Rotation=180.000|XOffset=0mil|YOffset=0mil|HoleType=Round|Shape=RoundedRectangle|*
%AMROUNDEDRECTD126*
21,1,0.06517,0.00000,0,0,180.0*
21,1,0.04145,0.02372,0,0,180.0*
1,1,0.02372,-0.02072,0.00000*
1,1,0.02372,0.02072,0.00000*
1,1,0.02372,0.02072,0.00000*
1,1,0.02372,-0.02072,0.00000*
%
%ADD126ROUNDEDRECTD126*%
%ADD127R,0.06517X0.02372*%
G04:AMPARAMS|DCode=129|XSize=242.13mil|YSize=218.5mil|CornerRadius=2.19mil|HoleSize=0mil|Usage=FLASHONLY|Rotation=0.000|XOffset=0mil|YOffset=0mil|HoleType=Round|Shape=RoundedRectangle|*
%AMROUNDEDRECTD129*
21,1,0.24213,0.21413,0,0,0.0*
21,1,0.23776,0.21850,0,0,0.0*
1,1,0.00437,0.11888,-0.10707*
1,1,0.00437,-0.11888,-0.10707*
1,1,0.00437,-0.11888,0.10707*
1,1,0.00437,0.11888,0.10707*
%
%ADD129ROUNDEDRECTD129*%
G04:AMPARAMS|DCode=130|XSize=108.27mil|YSize=39.37mil|CornerRadius=1.97mil|HoleSize=0mil|Usage=FLASHONLY|Rotation=0.000|XOffset=0mil|YOffset=0mil|HoleType=Round|Shape=RoundedRectangle|*
%AMROUNDEDRECTD130*
21,1,0.10827,0.03543,0,0,0.0*
21,1,0.10433,0.03937,0,0,0.0*
1,1,0.00394,0.05217,-0.01772*
1,1,0.00394,-0.05217,-0.01772*
1,1,0.00394,-0.05217,0.01772*
1,1,0.00394,0.05217,0.01772*
%
%ADD130ROUNDEDRECTD130*%
%ADD131R,0.03740X0.05512*%
%ADD132R,0.03150X0.03543*%
%ADD133R,0.04331X0.05118*%
%ADD135R,0.07087X0.03583*%
%ADD136R,0.01772X0.06398*%
%ADD137R,0.06398X0.01772*%
G04:AMPARAMS|DCode=138|XSize=31.5mil|YSize=70.87mil|CornerRadius=4.87mil|HoleSize=0mil|Usage=FLASHONLY|Rotation=270.000|XOffset=0mil|YOffset=0mil|HoleType=Round|Shape=RoundedRectangle|*
%AMROUNDEDRECTD138*
21,1,0.03150,0.06112,0,0,270.0*
21,1,0.02175,0.07087,0,0,270.0*
1,1,0.00974,-0.03056,-0.01088*
1,1,0.00974,-0.03056,0.01088*
1,1,0.00974,0.03056,0.01088*
1,1,0.00974,0.03056,-0.01088*
%
%ADD138ROUNDEDRECTD138*%
%ADD139R,0.06299X0.05709*%
D19*
X264600Y360647D02*
D03*
Y366553D02*
D03*
D20*
X234032Y342600D02*
D03*
X238968D02*
D03*
X238332Y331300D02*
D03*
X243268D02*
D03*
D57*
X237900Y337000D02*
D03*
X243215D02*
D03*
X328643Y267300D02*
D03*
X333958D02*
D03*
X327542Y242600D02*
D03*
X332857D02*
D03*
X238142Y325800D02*
D03*
X243458D02*
D03*
X229743Y258500D02*
D03*
X235057D02*
D03*
X323458Y267100D02*
D03*
X318143D02*
D03*
X322358Y242700D02*
D03*
X317042D02*
D03*
D58*
X262600Y347158D02*
D03*
Y341843D02*
D03*
X180900Y476358D02*
D03*
Y471042D02*
D03*
X263500Y310457D02*
D03*
Y305142D02*
D03*
D68*
X215276Y490300D02*
D03*
X212324D02*
D03*
D69*
X190366Y490200D02*
D03*
X198634D02*
D03*
D70*
X332800Y344357D02*
D03*
Y339042D02*
D03*
D79*
X142996Y378592D02*
D03*
Y362844D02*
D03*
Y347096D02*
D03*
Y331348D02*
D03*
Y315600D02*
D03*
X127248Y370718D02*
D03*
Y354970D02*
D03*
Y339222D02*
D03*
Y323474D02*
D03*
X111500Y378592D02*
D03*
Y362844D02*
D03*
Y347096D02*
D03*
Y331348D02*
D03*
Y315600D02*
D03*
D80*
X125279Y404183D02*
D03*
Y290009D02*
D03*
D81*
X256000Y400500D02*
D03*
X246000Y415500D02*
D03*
X175800Y461700D02*
D03*
Y435500D02*
D03*
X175900Y487600D02*
D03*
D82*
X356508Y322384D02*
D03*
X364500Y318369D02*
D03*
Y310337D02*
D03*
X356508Y306321D02*
D03*
Y314353D02*
D03*
X364500Y326400D02*
D03*
X356508Y330416D02*
D03*
X364500Y334432D02*
D03*
D83*
X344815Y345853D02*
D03*
Y304900D02*
D03*
Y294900D02*
D03*
Y335853D02*
D03*
D84*
X397807Y351636D02*
D03*
Y289117D02*
D03*
D85*
X384185Y297876D02*
D03*
Y342876D02*
D03*
D86*
X396458Y370880D02*
D03*
Y399621D02*
D03*
D87*
X376576Y391550D02*
D03*
X381300Y388400D02*
D03*
X376576Y385250D02*
D03*
X381300Y382101D02*
D03*
X376576Y378951D02*
D03*
D88*
X359900Y496900D02*
D03*
X369600Y486300D02*
D03*
X321400Y248800D02*
D03*
X243000Y252200D02*
D03*
X246900Y354100D02*
D03*
X324100Y260000D02*
D03*
X261200Y355900D02*
D03*
X256623Y383233D02*
D03*
X318514Y355900D02*
D03*
X263560Y314815D02*
D03*
X261300Y314400D02*
D03*
X154800Y414100D02*
D03*
X233800Y418400D02*
D03*
X201000Y413800D02*
D03*
X228400Y358900D02*
D03*
X233300Y359545D02*
D03*
X233400Y338900D02*
D03*
X247300Y363700D02*
D03*
X268200Y235486D02*
D03*
X276800D02*
D03*
X271400D02*
D03*
X369800Y391200D02*
D03*
X255628Y484100D02*
D03*
X232693Y471250D02*
D03*
X235600Y420200D02*
D03*
X321000Y271000D02*
D03*
X320050Y246127D02*
D03*
X289900Y246100D02*
D03*
X254136Y249910D02*
D03*
X254800Y247200D02*
D03*
X299700Y260500D02*
D03*
X246951Y270627D02*
D03*
X208500Y395500D02*
D03*
X179090Y359914D02*
D03*
X328400Y366100D02*
D03*
X327770Y368430D02*
D03*
X337600Y310800D02*
D03*
X261561Y336500D02*
D03*
X247454Y309700D02*
D03*
X264550Y370650D02*
D03*
X269300Y238000D02*
D03*
X273361Y238039D02*
D03*
X277500Y237800D02*
D03*
X254973Y262679D02*
D03*
X303000Y302900D02*
D03*
X290400Y277100D02*
D03*
X247414Y333800D02*
D03*
X247400Y336100D02*
D03*
X309300Y315900D02*
D03*
X290800Y422400D02*
D03*
X290900Y427700D02*
D03*
X243123Y375533D02*
D03*
X230723Y380833D02*
D03*
X277200Y263500D02*
D03*
X363400Y364200D02*
D03*
X320200Y354000D02*
D03*
X322600Y378200D02*
D03*
X318700Y333100D02*
D03*
X227100Y396500D02*
D03*
X228200Y393900D02*
D03*
X220700Y321900D02*
D03*
X231324Y367776D02*
D03*
X271400Y387100D02*
D03*
X245000Y405200D02*
D03*
X348800Y389500D02*
D03*
X346800Y414800D02*
D03*
X345500Y410900D02*
D03*
X325700Y381800D02*
D03*
X360000Y457800D02*
D03*
X383300Y409800D02*
D03*
X211400Y372700D02*
D03*
X178700Y354000D02*
D03*
X243200Y387700D02*
D03*
X227100Y391400D02*
D03*
X230300Y398500D02*
D03*
X248800Y387300D02*
D03*
X269000Y385700D02*
D03*
X271700Y389800D02*
D03*
X236100Y410500D02*
D03*
X278508Y431108D02*
D03*
X250417Y435650D02*
D03*
X221000Y422814D02*
D03*
X337427Y420500D02*
D03*
X360862Y477638D02*
D03*
X334000Y394500D02*
D03*
X329142Y470984D02*
D03*
X399100Y270700D02*
D03*
X198000Y391500D02*
D03*
X212500Y443000D02*
D03*
X230500Y441500D02*
D03*
X198000Y397500D02*
D03*
X155000Y405500D02*
D03*
X277000Y387500D02*
D03*
X275000Y390000D02*
D03*
X294528Y392500D02*
D03*
X297000Y395000D02*
D03*
X299000Y392000D02*
D03*
X288000Y407500D02*
D03*
X274000Y430000D02*
D03*
X269000Y431500D02*
D03*
D119*
X332953Y248900D02*
D03*
X327047D02*
D03*
X325547Y236800D02*
D03*
X331453D02*
D03*
X327947Y260900D02*
D03*
X333853D02*
D03*
X328347Y273300D02*
D03*
X334253D02*
D03*
D123*
X255000Y326177D02*
D03*
Y336423D02*
D03*
D124*
X233900Y350301D02*
D03*
Y362899D02*
D03*
D126*
X208159Y391500D02*
D03*
X215841Y387760D02*
D03*
X161660Y391000D02*
D03*
X169341Y387260D02*
D03*
D127*
X215841Y395240D02*
D03*
X169341Y394740D02*
D03*
D129*
X216500Y472500D02*
D03*
D130*
X190122Y481516D02*
D03*
Y463484D02*
D03*
D131*
X198742Y453200D02*
D03*
X191458D02*
D03*
D132*
X231447Y266300D02*
D03*
X237353D02*
D03*
D133*
X249648Y258166D02*
D03*
Y266434D02*
D03*
X243152D02*
D03*
Y258166D02*
D03*
D135*
X340248Y237300D02*
D03*
X373752D02*
D03*
X340248Y242300D02*
D03*
Y247300D02*
D03*
Y252300D02*
D03*
Y257300D02*
D03*
Y262300D02*
D03*
Y267300D02*
D03*
Y272300D02*
D03*
X373752Y242300D02*
D03*
Y247300D02*
D03*
Y252300D02*
D03*
Y257300D02*
D03*
Y262300D02*
D03*
Y267300D02*
D03*
Y272300D02*
D03*
D136*
X287127Y276485D02*
D03*
X285158D02*
D03*
X283190D02*
D03*
X281221D02*
D03*
X279253D02*
D03*
X277284D02*
D03*
X275316D02*
D03*
X273347D02*
D03*
X271379D02*
D03*
X269410D02*
D03*
X267442D02*
D03*
X265473D02*
D03*
Y243115D02*
D03*
X267442D02*
D03*
X269410D02*
D03*
X271379D02*
D03*
X273347D02*
D03*
X275316D02*
D03*
X277284D02*
D03*
X279253D02*
D03*
X281221D02*
D03*
X283190D02*
D03*
X285158D02*
D03*
X287127D02*
D03*
D137*
X259615Y270627D02*
D03*
Y268658D02*
D03*
Y266690D02*
D03*
Y264721D02*
D03*
Y262753D02*
D03*
Y260784D02*
D03*
Y258816D02*
D03*
Y256847D02*
D03*
Y254879D02*
D03*
Y252910D02*
D03*
Y250942D02*
D03*
Y248973D02*
D03*
X292985D02*
D03*
Y250942D02*
D03*
Y252910D02*
D03*
Y254879D02*
D03*
Y256847D02*
D03*
Y258816D02*
D03*
Y260784D02*
D03*
Y262753D02*
D03*
Y264721D02*
D03*
Y266690D02*
D03*
Y268658D02*
D03*
Y270627D02*
D03*
D138*
X161378Y404000D02*
D03*
Y409000D02*
D03*
Y414000D02*
D03*
Y419000D02*
D03*
X183622Y404000D02*
D03*
Y409000D02*
D03*
Y414000D02*
D03*
Y419000D02*
D03*
X228622D02*
D03*
Y414000D02*
D03*
Y409000D02*
D03*
Y404000D02*
D03*
X206378Y419000D02*
D03*
Y414000D02*
D03*
Y409000D02*
D03*
Y404000D02*
D03*
D139*
X149500Y415600D02*
D03*
Y409301D02*
D03*
X196200Y408650D02*
D03*
Y414950D02*
D03*
M02*
