G04*
G04 #@! TF.GenerationSoftware,Altium Limited,Altium Designer,23.5.1 (21)*
G04*
G04 Layer_Physical_Order=2*
G04 Layer_Color=32768*
%FSLAX25Y25*%
%MOIN*%
G70*
G04*
G04 #@! TF.SameCoordinates,80D67788-F2EE-4A8B-BDA7-D5AA6EA99E9C*
G04*
G04*
G04 #@! TF.FilePolarity,Negative*
G04*
G01*
G75*
%ADD101C,0.02000*%
%ADD102C,0.04000*%
%ADD103C,0.08083*%
G04:AMPARAMS|DCode=104|XSize=104.457mil|YSize=104.457mil|CornerRadius=0mil|HoleSize=0mil|Usage=FLASHONLY|Rotation=0.000|XOffset=0mil|YOffset=0mil|HoleType=Round|Shape=Relief|Width=4mil|Gap=4mil|Entries=4|*
%AMTHD104*
7,0,0,0.10446,0.09646,0.00400,45*
%
%ADD104THD104*%
G04:AMPARAMS|DCode=105|XSize=146.976mil|YSize=146.976mil|CornerRadius=0mil|HoleSize=0mil|Usage=FLASHONLY|Rotation=0.000|XOffset=0mil|YOffset=0mil|HoleType=Round|Shape=Relief|Width=4mil|Gap=4mil|Entries=4|*
%AMTHD105*
7,0,0,0.14698,0.13898,0.00400,45*
%
%ADD105THD105*%
%ADD106C,0.07099*%
%ADD107C,0.04343*%
%ADD108C,0.05209*%
G04:AMPARAMS|DCode=109|XSize=75.716mil|YSize=75.716mil|CornerRadius=0mil|HoleSize=0mil|Usage=FLASHONLY|Rotation=0.000|XOffset=0mil|YOffset=0mil|HoleType=Round|Shape=Relief|Width=4mil|Gap=4mil|Entries=4|*
%AMTHD109*
7,0,0,0.07572,0.06772,0.00400,45*
%
%ADD109THD109*%
G04:AMPARAMS|DCode=110|XSize=94.614mil|YSize=94.614mil|CornerRadius=0mil|HoleSize=0mil|Usage=FLASHONLY|Rotation=0.000|XOffset=0mil|YOffset=0mil|HoleType=Round|Shape=Relief|Width=4mil|Gap=4mil|Entries=4|*
%AMTHD110*
7,0,0,0.09461,0.08661,0.00400,45*
%
%ADD110THD110*%
G04:AMPARAMS|DCode=111|XSize=159.575mil|YSize=159.575mil|CornerRadius=0mil|HoleSize=0mil|Usage=FLASHONLY|Rotation=0.000|XOffset=0mil|YOffset=0mil|HoleType=Round|Shape=Relief|Width=4mil|Gap=4mil|Entries=4|*
%AMTHD111*
7,0,0,0.15958,0.15158,0.00400,45*
%
%ADD111THD111*%
G04:AMPARAMS|DCode=112|XSize=111.338mil|YSize=111.338mil|CornerRadius=0mil|HoleSize=0mil|Usage=FLASHONLY|Rotation=0.000|XOffset=0mil|YOffset=0mil|HoleType=Round|Shape=Relief|Width=4mil|Gap=4mil|Entries=4|*
%AMTHD112*
7,0,0,0.11134,0.10334,0.00400,45*
%
%ADD112THD112*%
G04:AMPARAMS|DCode=113|XSize=59.181mil|YSize=59.181mil|CornerRadius=0mil|HoleSize=0mil|Usage=FLASHONLY|Rotation=0.000|XOffset=0mil|YOffset=0mil|HoleType=Round|Shape=Relief|Width=4mil|Gap=4mil|Entries=4|*
%AMTHD113*
7,0,0,0.05918,0.05118,0.00400,45*
%
%ADD113THD113*%
%ADD114C,0.03556*%
%ADD115C,0.01587*%
G36*
X332644Y491975D02*
X333361Y491678D01*
X334006Y491247D01*
X334554Y490699D01*
X334985Y490054D01*
X335282Y489337D01*
X335433Y488577D01*
Y488189D01*
Y487801D01*
X335282Y487041D01*
X334985Y486324D01*
X334554Y485679D01*
X334006Y485131D01*
X333361Y484700D01*
X332644Y484403D01*
X331884Y484252D01*
X331108D01*
X330348Y484403D01*
X329631Y484700D01*
X328986Y485131D01*
X328438Y485679D01*
X328007Y486324D01*
X327710Y487041D01*
X327559Y487801D01*
Y488189D01*
Y488577D01*
X327710Y489337D01*
X328007Y490054D01*
X328438Y490699D01*
X328986Y491247D01*
X329631Y491678D01*
X330348Y491975D01*
X331108Y492126D01*
X331884D01*
X332644Y491975D01*
D02*
G37*
G36*
X111385D02*
X112101Y491678D01*
X112746Y491247D01*
X113294Y490699D01*
X113725Y490054D01*
X114022Y489337D01*
X114173Y488577D01*
Y488189D01*
Y487801D01*
X114022Y487041D01*
X113725Y486324D01*
X113294Y485679D01*
X112746Y485131D01*
X112101Y484700D01*
X111385Y484403D01*
X110624Y484252D01*
X109848D01*
X109088Y484403D01*
X108371Y484700D01*
X107727Y485131D01*
X107178Y485679D01*
X106747Y486324D01*
X106450Y487041D01*
X106299Y487801D01*
Y488189D01*
Y488577D01*
X106450Y489337D01*
X106747Y490054D01*
X107178Y490699D01*
X107727Y491247D01*
X108371Y491678D01*
X109088Y491975D01*
X109848Y492126D01*
X110624D01*
X111385Y491975D01*
D02*
G37*
G36*
X387763Y255361D02*
X388479Y255064D01*
X389124Y254633D01*
X389672Y254084D01*
X390103Y253440D01*
X390400Y252723D01*
X390551Y251963D01*
Y251575D01*
Y251187D01*
X390400Y250426D01*
X390103Y249710D01*
X389672Y249065D01*
X389124Y248517D01*
X388479Y248086D01*
X387763Y247789D01*
X387002Y247638D01*
X386226D01*
X385466Y247789D01*
X384749Y248086D01*
X384104Y248517D01*
X383556Y249065D01*
X383125Y249710D01*
X382828Y250426D01*
X382677Y251187D01*
Y251575D01*
Y251963D01*
X382828Y252723D01*
X383125Y253440D01*
X383556Y254084D01*
X384104Y254633D01*
X384749Y255064D01*
X385466Y255361D01*
X386226Y255512D01*
X387002D01*
X387763Y255361D01*
D02*
G37*
G36*
X111385Y243943D02*
X112101Y243646D01*
X112746Y243215D01*
X113294Y242667D01*
X113725Y242022D01*
X114022Y241306D01*
X114173Y240545D01*
Y240158D01*
Y239770D01*
X114022Y239009D01*
X113725Y238293D01*
X113294Y237648D01*
X112746Y237099D01*
X112101Y236668D01*
X111385Y236372D01*
X110624Y236221D01*
X109848D01*
X109088Y236372D01*
X108371Y236668D01*
X107727Y237099D01*
X107178Y237648D01*
X106747Y238293D01*
X106450Y239009D01*
X106299Y239770D01*
Y240158D01*
Y240545D01*
X106450Y241306D01*
X106747Y242022D01*
X107178Y242667D01*
X107727Y243215D01*
X108371Y243646D01*
X109088Y243943D01*
X109848Y244094D01*
X110624D01*
X111385Y243943D01*
D02*
G37*
D101*
X247800Y344010D02*
D03*
X266018Y314565D02*
D03*
X261212Y284478D02*
D03*
X270800Y300700D02*
D03*
X255184Y301700D02*
D03*
X250600Y310200D02*
D03*
X255800Y304800D02*
D03*
X272113Y282345D02*
D03*
X299016Y289051D02*
D03*
X299000Y291700D02*
D03*
X296800Y303500D02*
D03*
X287300Y268384D02*
D03*
Y265800D02*
D03*
X276632Y300484D02*
D03*
X288000Y303800D02*
D03*
X282500Y300600D02*
D03*
D102*
X99502Y500098D02*
X99502Y220974D01*
X371998D01*
X405010Y253986D01*
X110624Y244094D02*
X111385Y243943D01*
X112101Y243646D01*
X112746Y243215D01*
X113294Y242667D01*
X113725Y242022D01*
X114022Y241306D01*
X114173Y240545D01*
X114022Y239009D02*
X114173Y239770D01*
X113725Y238293D02*
X114022Y239009D01*
X113294Y237648D02*
X113725Y238293D01*
X112746Y237099D02*
X113294Y237648D01*
X112101Y236668D02*
X112746Y237099D01*
X111385Y236372D02*
X112101Y236668D01*
X110624Y236221D02*
X111385Y236372D01*
X109848Y236221D02*
X110624D01*
X109088Y236372D02*
X109848Y236221D01*
X108371Y236668D02*
X109088Y236372D01*
X107727Y237099D02*
X108371Y236668D01*
X107178Y237648D02*
X107727Y237099D01*
X106747Y238293D02*
X107178Y237648D01*
X106450Y239009D02*
X106747Y238293D01*
X106299Y239770D02*
X106450Y239009D01*
X106299Y239770D02*
Y240158D01*
Y240545D01*
X106450Y241306D01*
X106747Y242022D01*
X107178Y242667D01*
X107727Y243215D01*
X108371Y243646D01*
X109088Y243943D01*
X109848Y244094D01*
X110624D01*
X114173Y239770D02*
Y240158D01*
Y240545D01*
X331884Y492126D02*
X332644Y491975D01*
X333361Y491678D01*
X334006Y491247D01*
X334554Y490699D01*
X334985Y490054D01*
X335282Y489337D01*
X335433Y488577D01*
Y488189D02*
Y488577D01*
Y487801D02*
Y488189D01*
X335282Y487041D02*
X335433Y487801D01*
X334985Y486324D02*
X335282Y487041D01*
X334554Y485679D02*
X334985Y486324D01*
X334006Y485131D02*
X334554Y485679D01*
X333361Y484700D02*
X334006Y485131D01*
X332644Y484403D02*
X333361Y484700D01*
X331884Y484252D02*
X332644Y484403D01*
X331108Y484252D02*
X331884D01*
X330348Y484403D02*
X331108Y484252D01*
X329631Y484700D02*
X330348Y484403D01*
X328986Y485131D02*
X329631Y484700D01*
X328438Y485679D02*
X328986Y485131D01*
X328007Y486324D02*
X328438Y485679D01*
X327710Y487041D02*
X328007Y486324D01*
X327559Y487801D02*
X327710Y487041D01*
X327559Y487801D02*
Y488189D01*
Y488577D01*
X327710Y489337D01*
X328007Y490054D01*
X328438Y490699D01*
X328986Y491247D01*
X329631Y491678D01*
X330348Y491975D01*
X331108Y492126D01*
X331884D01*
X110624D02*
X111385Y491975D01*
X112101Y491678D01*
X112746Y491247D01*
X113294Y490699D01*
X113725Y490054D01*
X114022Y489337D01*
X114173Y488577D01*
Y488189D02*
Y488577D01*
Y487801D02*
Y488189D01*
X114022Y487041D02*
X114173Y487801D01*
X113725Y486324D02*
X114022Y487041D01*
X113294Y485679D02*
X113725Y486324D01*
X112746Y485131D02*
X113294Y485679D01*
X112101Y484700D02*
X112746Y485131D01*
X111385Y484403D02*
X112101Y484700D01*
X110624Y484252D02*
X111385Y484403D01*
X109848Y484252D02*
X110624D01*
X109088Y484403D02*
X109848Y484252D01*
X108371Y484700D02*
X109088Y484403D01*
X107727Y485131D02*
X108371Y484700D01*
X107178Y485679D02*
X107727Y485131D01*
X106747Y486324D02*
X107178Y485679D01*
X106450Y487041D02*
X106747Y486324D01*
X106299Y487801D02*
X106450Y487041D01*
X106299Y487801D02*
Y488189D01*
Y488577D01*
X106450Y489337D01*
X106747Y490054D01*
X107178Y490699D01*
X107727Y491247D01*
X108371Y491678D01*
X109088Y491975D01*
X109848Y492126D01*
X110624D01*
X387002Y255512D02*
X387763Y255361D01*
X388479Y255064D01*
X389124Y254633D01*
X389672Y254084D01*
X390103Y253440D01*
X390400Y252723D01*
X390551Y251963D01*
Y251575D02*
Y251963D01*
Y251187D02*
Y251575D01*
X390400Y250426D02*
X390551Y251187D01*
X390103Y249710D02*
X390400Y250426D01*
X389672Y249065D02*
X390103Y249710D01*
X389124Y248517D02*
X389672Y249065D01*
X388479Y248086D02*
X389124Y248517D01*
X387763Y247789D02*
X388479Y248086D01*
X387002Y247638D02*
X387763Y247789D01*
X386226Y247638D02*
X387002D01*
X385466Y247789D02*
X386226Y247638D01*
X384749Y248086D02*
X385466Y247789D01*
X384104Y248517D02*
X384749Y248086D01*
X383556Y249065D02*
X384104Y248517D01*
X383125Y249710D02*
X383556Y249065D01*
X382828Y250426D02*
X383125Y249710D01*
X382677Y251187D02*
X382828Y250426D01*
X382677Y251187D02*
Y251575D01*
Y251963D01*
X382828Y252723D01*
X383125Y253440D01*
X383556Y254084D01*
X384104Y254633D01*
X384749Y255064D01*
X385466Y255361D01*
X386226Y255512D01*
X387002D01*
X405010Y253986D02*
X405010Y500097D01*
X99502Y500098D02*
X405010Y500097D01*
D103*
X142996Y378592D02*
D03*
Y362844D02*
D03*
Y347096D02*
D03*
Y331348D02*
D03*
Y315600D02*
D03*
X127248Y370718D02*
D03*
Y354970D02*
D03*
Y339222D02*
D03*
Y323474D02*
D03*
X111500Y378592D02*
D03*
Y362844D02*
D03*
Y331348D02*
D03*
D104*
Y347096D02*
D03*
Y315600D02*
D03*
D105*
X125279Y404183D02*
D03*
Y290009D02*
D03*
D106*
X256000Y400500D02*
D03*
X246000Y415500D02*
D03*
X175800Y435500D02*
D03*
X175900Y487600D02*
D03*
D107*
X356508Y322384D02*
D03*
X364500Y318369D02*
D03*
Y310337D02*
D03*
X356508Y306321D02*
D03*
Y314353D02*
D03*
X364500Y326400D02*
D03*
X356508Y330416D02*
D03*
X364500Y334432D02*
D03*
D108*
X344815Y345853D02*
D03*
Y294900D02*
D03*
Y335853D02*
D03*
D109*
Y304900D02*
D03*
D110*
X397807Y351636D02*
D03*
Y289117D02*
D03*
X175800Y461700D02*
D03*
D111*
X384185Y297876D02*
D03*
Y342876D02*
D03*
D112*
X396458Y370880D02*
D03*
Y399621D02*
D03*
D113*
X376576Y391550D02*
D03*
D114*
X381300Y388400D02*
D03*
X376576Y385250D02*
D03*
X381300Y382101D02*
D03*
X376576Y378951D02*
D03*
D115*
X369600Y486300D02*
D03*
X321400Y248800D02*
D03*
X243000Y252200D02*
D03*
X246900Y354100D02*
D03*
X324100Y260000D02*
D03*
X318514Y355900D02*
D03*
X263560Y314815D02*
D03*
X154800Y414100D02*
D03*
X233800Y418400D02*
D03*
X201000Y413800D02*
D03*
X233300Y359545D02*
D03*
X247300Y363700D02*
D03*
X268200Y235486D02*
D03*
X271400D02*
D03*
X232693Y471250D02*
D03*
X235600Y420200D02*
D03*
X254136Y249910D02*
D03*
X254800Y247200D02*
D03*
X179090Y359914D02*
D03*
X328400Y366100D02*
D03*
X327770Y368430D02*
D03*
X261561Y336500D02*
D03*
X247454Y309700D02*
D03*
X264550Y370650D02*
D03*
X269300Y238000D02*
D03*
X273361Y238039D02*
D03*
X277500Y237800D02*
D03*
X254973Y262679D02*
D03*
X290400Y277100D02*
D03*
X247414Y333800D02*
D03*
X309300Y315900D02*
D03*
X290900Y427700D02*
D03*
X243123Y375533D02*
D03*
X320200Y354000D02*
D03*
X322600Y378200D02*
D03*
X318700Y333100D02*
D03*
X227100Y396500D02*
D03*
X228200Y393900D02*
D03*
X231324Y367776D02*
D03*
X245000Y405200D02*
D03*
X346800Y414800D02*
D03*
X345500Y410900D02*
D03*
X211400Y372700D02*
D03*
X178700Y354000D02*
D03*
X243200Y387700D02*
D03*
X227100Y391400D02*
D03*
X248800Y387300D02*
D03*
X269000Y385700D02*
D03*
X271700Y389800D02*
D03*
X236100Y410500D02*
D03*
X337427Y420500D02*
D03*
X360862Y477638D02*
D03*
X334000Y394500D02*
D03*
X399100Y270700D02*
D03*
X198000Y391500D02*
D03*
X230500Y441500D02*
D03*
X277000Y387500D02*
D03*
X275000Y390000D02*
D03*
X294528Y392500D02*
D03*
X297000Y395000D02*
D03*
X299000Y392000D02*
D03*
X288000Y407500D02*
D03*
X274000Y430000D02*
D03*
X269000Y431500D02*
D03*
M02*
