G04*
G04 #@! TF.GenerationSoftware,Altium Limited,Altium Designer,23.5.1 (21)*
G04*
G04 Layer_Color=8421504*
%FSLAX25Y25*%
%MOIN*%
G70*
G04*
G04 #@! TF.SameCoordinates,80D67788-F2EE-4A8B-BDA7-D5AA6EA99E9C*
G04*
G04*
G04 #@! TF.FilePolarity,Positive*
G04*
G01*
G75*
%ADD18R,0.02992X0.02047*%
%ADD19R,0.03937X0.02953*%
%ADD20R,0.02985X0.03197*%
%ADD21O,0.07087X0.01181*%
%ADD22O,0.01181X0.07087*%
%ADD23R,0.03543X0.03937*%
%ADD24R,0.01575X0.01968*%
%ADD25R,0.03937X0.03543*%
%ADD26R,0.03150X0.04921*%
%ADD27R,0.04921X0.03150*%
%ADD28R,0.00984X0.02657*%
%ADD29R,0.02657X0.00984*%
%ADD30R,0.05315X0.03937*%
%ADD31R,0.08000X0.04500*%
%ADD32R,0.04724X0.04724*%
%ADD33R,0.06922X0.04551*%
%ADD34R,0.04551X0.06922*%
%ADD35R,0.07480X0.09449*%
%ADD36R,0.04331X0.04921*%
%ADD37R,0.02559X0.02362*%
%ADD38R,0.05591X0.08386*%
%ADD39R,0.05709X0.05315*%
%ADD40R,0.02165X0.01772*%
%ADD41R,0.04724X0.04724*%
%ADD42R,0.04134X0.03543*%
%ADD43R,0.03543X0.02953*%
%ADD44R,0.03963X0.05544*%
%ADD45R,0.02362X0.04528*%
%ADD46R,0.04528X0.07087*%
%ADD47R,0.03150X0.03937*%
%ADD48R,0.20866X0.06693*%
%ADD49R,0.12598X0.04724*%
%ADD50R,0.05118X0.06102*%
%ADD51R,0.03150X0.04724*%
%ADD52R,0.05906X0.07874*%
%ADD53R,0.14961X0.07677*%
%ADD54R,0.03150X0.02362*%
D18*
X365300Y381939D02*
D03*
Y386861D02*
D03*
D19*
X282400Y309953D02*
D03*
Y304047D02*
D03*
X241900Y338847D02*
D03*
Y344753D02*
D03*
X243500Y328747D02*
D03*
Y334653D02*
D03*
X244800Y322653D02*
D03*
Y316747D02*
D03*
X250600Y319853D02*
D03*
Y313947D02*
D03*
X265900Y241347D02*
D03*
Y247253D02*
D03*
X259700Y301847D02*
D03*
Y307753D02*
D03*
X265200Y310053D02*
D03*
Y304147D02*
D03*
X270800Y304047D02*
D03*
Y309953D02*
D03*
X276600D02*
D03*
Y304047D02*
D03*
X288000Y312653D02*
D03*
Y306747D02*
D03*
X295500Y312553D02*
D03*
Y306647D02*
D03*
X314200Y308147D02*
D03*
Y314053D02*
D03*
X320100Y320653D02*
D03*
Y314747D02*
D03*
D20*
X239069Y375600D02*
D03*
X234132D02*
D03*
D21*
X253276Y373622D02*
D03*
Y371654D02*
D03*
Y369685D02*
D03*
Y367717D02*
D03*
Y365748D02*
D03*
Y363779D02*
D03*
Y361811D02*
D03*
Y359842D02*
D03*
Y357874D02*
D03*
Y355906D02*
D03*
Y353937D02*
D03*
Y351969D02*
D03*
Y350000D02*
D03*
Y348031D02*
D03*
Y346063D02*
D03*
Y344094D02*
D03*
Y342126D02*
D03*
Y340158D02*
D03*
Y338189D02*
D03*
Y336221D02*
D03*
Y334252D02*
D03*
Y332283D02*
D03*
Y330315D02*
D03*
Y328346D02*
D03*
Y326378D02*
D03*
X312724D02*
D03*
Y328346D02*
D03*
Y330315D02*
D03*
Y332283D02*
D03*
Y334252D02*
D03*
Y336221D02*
D03*
Y338189D02*
D03*
Y340158D02*
D03*
Y342126D02*
D03*
Y344094D02*
D03*
Y346063D02*
D03*
Y348031D02*
D03*
Y350000D02*
D03*
Y351969D02*
D03*
Y353937D02*
D03*
Y355906D02*
D03*
Y357874D02*
D03*
Y359842D02*
D03*
Y361811D02*
D03*
Y363779D02*
D03*
Y365748D02*
D03*
Y367717D02*
D03*
Y369685D02*
D03*
Y371654D02*
D03*
Y373622D02*
D03*
D22*
X259378Y320276D02*
D03*
X261347D02*
D03*
X263315D02*
D03*
X265283D02*
D03*
X267252D02*
D03*
X269220D02*
D03*
X271189D02*
D03*
X273158D02*
D03*
X275126D02*
D03*
X277095D02*
D03*
X279063D02*
D03*
X281031D02*
D03*
X283000D02*
D03*
X284968D02*
D03*
X286937D02*
D03*
X288906D02*
D03*
X290874D02*
D03*
X292843D02*
D03*
X294811D02*
D03*
X296779D02*
D03*
X298748D02*
D03*
X300716D02*
D03*
X302685D02*
D03*
X304654D02*
D03*
X306622D02*
D03*
Y379724D02*
D03*
X304654D02*
D03*
X302685D02*
D03*
X300716D02*
D03*
X298748D02*
D03*
X296779D02*
D03*
X294811D02*
D03*
X292843D02*
D03*
X290874D02*
D03*
X288906D02*
D03*
X286937D02*
D03*
X284968D02*
D03*
X283000D02*
D03*
X281031D02*
D03*
X279063D02*
D03*
X277095D02*
D03*
X275126D02*
D03*
X273158D02*
D03*
X271189D02*
D03*
X269220D02*
D03*
X267252D02*
D03*
X265283D02*
D03*
X263315D02*
D03*
X261347D02*
D03*
X259378D02*
D03*
D23*
X241858Y355600D02*
D03*
X236543D02*
D03*
X242357Y363500D02*
D03*
X237042D02*
D03*
X234142Y386100D02*
D03*
X239458D02*
D03*
X339657Y476500D02*
D03*
X334343D02*
D03*
X305258Y276900D02*
D03*
X299942D02*
D03*
Y270900D02*
D03*
X305258D02*
D03*
X299985Y264900D02*
D03*
X305300D02*
D03*
D24*
X235225Y380700D02*
D03*
X238375D02*
D03*
D25*
X287000Y427572D02*
D03*
Y422258D02*
D03*
X217000Y429685D02*
D03*
Y435000D02*
D03*
X209000Y429843D02*
D03*
Y435157D02*
D03*
X307700Y312057D02*
D03*
Y306743D02*
D03*
X321000Y385343D02*
D03*
Y390657D02*
D03*
D26*
X234350Y401500D02*
D03*
X240650D02*
D03*
X259850Y415000D02*
D03*
X266150D02*
D03*
X269150Y423500D02*
D03*
X262850D02*
D03*
X240450Y394400D02*
D03*
X234150D02*
D03*
D27*
X233000Y435650D02*
D03*
Y429350D02*
D03*
X225000D02*
D03*
Y435650D02*
D03*
X212500Y399150D02*
D03*
Y392850D02*
D03*
X204500Y399150D02*
D03*
Y392850D02*
D03*
D28*
X213094Y416587D02*
D03*
X215063D02*
D03*
X217032D02*
D03*
X219000D02*
D03*
X220969D02*
D03*
X222937D02*
D03*
X224905D02*
D03*
Y407413D02*
D03*
X222937D02*
D03*
X220969D02*
D03*
X219000D02*
D03*
X217032D02*
D03*
X215063D02*
D03*
X213094D02*
D03*
D29*
X226539Y412000D02*
D03*
X211461D02*
D03*
D30*
X180039Y394413D02*
D03*
Y401500D02*
D03*
D31*
X163539Y391250D02*
D03*
Y401750D02*
D03*
D32*
X173039Y393823D02*
D03*
Y402091D02*
D03*
D33*
X169500Y346885D02*
D03*
Y358115D02*
D03*
D34*
X185000Y370500D02*
D03*
X173771D02*
D03*
D35*
X229471Y346000D02*
D03*
X213329D02*
D03*
D36*
X216400Y334146D02*
D03*
Y327453D02*
D03*
X224900Y334146D02*
D03*
Y327453D02*
D03*
D37*
X243027Y349200D02*
D03*
X246373D02*
D03*
D38*
X284685Y243800D02*
D03*
X295315D02*
D03*
D39*
X269300Y252950D02*
D03*
Y259250D02*
D03*
X277300Y252350D02*
D03*
Y258650D02*
D03*
X284900Y251850D02*
D03*
Y258150D02*
D03*
D40*
X387624Y270800D02*
D03*
X390576D02*
D03*
D41*
X390896Y275400D02*
D03*
X399164D02*
D03*
D42*
X334300Y296642D02*
D03*
Y301958D02*
D03*
D43*
X301700Y307038D02*
D03*
Y311762D02*
D03*
X329000Y390362D02*
D03*
Y385638D02*
D03*
D44*
X351156Y364800D02*
D03*
X358644D02*
D03*
D45*
X345260Y406421D02*
D03*
X352740D02*
D03*
Y396579D02*
D03*
X349000D02*
D03*
X345260D02*
D03*
X355240Y483079D02*
D03*
X347760D02*
D03*
Y492921D02*
D03*
X351500D02*
D03*
X355240D02*
D03*
D46*
X319693Y420500D02*
D03*
X331307D02*
D03*
X232693Y454500D02*
D03*
X244307D02*
D03*
X232693Y465500D02*
D03*
X244307D02*
D03*
Y477000D02*
D03*
X232693D02*
D03*
X244807Y488000D02*
D03*
X233193D02*
D03*
D47*
X343547Y420500D02*
D03*
X349453D02*
D03*
X337747Y365400D02*
D03*
X343653D02*
D03*
D48*
X390677Y416902D02*
D03*
Y492098D02*
D03*
D49*
X369102Y426941D02*
D03*
Y434815D02*
D03*
Y442689D02*
D03*
Y450563D02*
D03*
Y458437D02*
D03*
Y466311D02*
D03*
Y474185D02*
D03*
Y482059D02*
D03*
D50*
X346858Y463650D02*
D03*
Y432350D02*
D03*
X329142Y463650D02*
D03*
Y432350D02*
D03*
D51*
X300161Y455000D02*
D03*
X295831D02*
D03*
X291500D02*
D03*
X287169D02*
D03*
X282839D02*
D03*
X278508D02*
D03*
X274177D02*
D03*
X269847D02*
D03*
D52*
X260122Y446339D02*
D03*
X314807D02*
D03*
Y478622D02*
D03*
X260122D02*
D03*
D53*
X124902Y472835D02*
D03*
X158563D02*
D03*
D54*
X334100Y305641D02*
D03*
Y310759D02*
D03*
X275200Y246959D02*
D03*
Y241841D02*
D03*
X271200Y247159D02*
D03*
Y242041D02*
D03*
M02*
