M48
;Layer_Color=9474304
;FILE_FORMAT=2:4
INCH,TZ
;TYPE=PLATED
T1F00S00C0.0079
T2F00S00C0.0120
T3F00S00C0.0276
T4F00S00C0.0354
T5F00S00C0.0441
T6F00S00C0.0630
T7F00S00C0.0728
T8F00S00C0.0797
T9F00S00C0.1154
T10F00S00C0.1280
%
T01
X32005Y24613
X32140Y24880
X32410Y26000
X32100Y27100
X33760Y31080
X39910Y27070
X29970Y26050
X28990Y24610
X27750Y23780
X27680Y23549
X27140
X26820
X26930Y23800
X27336Y23804
X25480Y24720
X25414Y24991
X24300Y25220
X24695Y27063
X25497Y26268
X27720Y26350
X29040Y27710
X30300Y30290
X24745Y30970
X15500Y40550
X15480Y41410
X20100Y41380
X19800Y39750
Y39150
X20850Y39550
X22710Y39650
X22820Y39390
X22710Y39140
X23030Y39850
X23610Y41050
X23380Y41840
X23560Y42020
X22100Y42281
X23050Y44150
X21250Y44300
X25042Y43565
X26900Y43150
X27400Y43000
X27851Y43111
X29090Y42770
X29080Y42240
X28800Y40750
X29700Y39500
X29453Y39250
X29900Y39200
X27500Y39000
X27170Y38980
X27140Y38710
X26900Y38570
X27700Y38750
X25662Y38323
X24880Y38730
X24320Y38770
X24312Y37553
X24730Y36370
X24690Y35410
X26120Y35590
X26455Y37065
X23132Y36778
X23330Y35954
X22840Y35890
X23072Y38083
X21140Y37270
X17909Y35991
X17870Y35400
X23340Y33890
X24740Y33610
X24741Y33380
X26156Y33650
X26130Y31440
X26356Y31481
X30930Y31590
X22070Y32190
X24500Y40520
X33400Y39450
X34880Y38950
X36980Y39120
X38330Y40980
X34550Y41090
X34680Y41480
X33743Y42050
X32570Y38180
X32260Y37820
X32777Y36843
X32840Y36610
X31851Y35590
X32020Y35400
X31870Y33310
X36340Y36420
X36000Y45780
X36086Y47764
X36960Y48630
X35990Y49690
X32914Y47098
X25563Y48410
X23269Y47125
T02
X26121Y28448
X27211Y28234
X27080Y30070
X27663Y30048
X28250Y30060
X28800Y30380
X29680Y30350
X29900Y29170
X29902Y28905
X28730Y26838
Y26580
X25518Y30170
X25580Y30480
X25060Y31020
X26602Y31457
X24780Y34401
T03
X37658Y37895
Y38525
Y39155
X38130Y38840
Y38210
T04
X35651Y30632
X36450Y31034
Y31837
Y32640
Y33443
X35651Y33042
Y32238
Y31435
T05
X34481Y29490
Y30490
Y33585
Y34585
T06
X39781Y28912
X25600Y40050
X24600Y41550
X17580Y43550
Y46170
X39781Y35164
X17590Y48760
T07
X11150Y31560
Y33135
Y34710
Y36284
Y37859
X12725Y37072
Y35497
Y33922
Y32347
X14300Y31560
Y33135
Y34710
Y36284
Y37859
T08
X39646Y37088
Y39962
T09
X12528Y29001
Y40418
T10
X38419Y29788
Y34288
M30
