G04*
G04 #@! TF.GenerationSoftware,Altium Limited,Altium Designer,23.5.1 (21)*
G04*
G04 Layer_Physical_Order=4*
G04 Layer_Color=16711680*
%FSLAX25Y25*%
%MOIN*%
G70*
G04*
G04 #@! TF.SameCoordinates,80D67788-F2EE-4A8B-BDA7-D5AA6EA99E9C*
G04*
G04*
G04 #@! TF.FilePolarity,Positive*
G04*
G01*
G75*
%ADD17C,0.01000*%
%ADD19R,0.03937X0.02953*%
%ADD20R,0.02985X0.03197*%
%ADD23R,0.03543X0.03937*%
%ADD25R,0.03937X0.03543*%
%ADD40R,0.02165X0.01772*%
%ADD41R,0.04724X0.04724*%
%ADD42R,0.04134X0.03543*%
%ADD90C,0.00600*%
%ADD91C,0.11024*%
%ADD92C,0.16929*%
%ADD93C,0.08268*%
%ADD94C,0.05512*%
%ADD95C,0.06614*%
%ADD96C,0.09449*%
%ADD97C,0.19193*%
%ADD98C,0.11957*%
%ADD99C,0.04724*%
%ADD100C,0.01772*%
%ADD101C,0.02000*%
%ADD119R,0.02953X0.03937*%
%ADD120R,0.06496X0.02992*%
%ADD121R,0.01181X0.05807*%
%ADD122R,0.05807X0.01181*%
%ADD123R,0.06528X0.04156*%
%ADD124R,0.05906X0.03937*%
G04:AMPARAMS|DCode=125|XSize=25.59mil|YSize=64.96mil|CornerRadius=1.92mil|HoleSize=0mil|Usage=FLASHONLY|Rotation=270.000|XOffset=0mil|YOffset=0mil|HoleType=Round|Shape=RoundedRectangle|*
%AMROUNDEDRECTD125*
21,1,0.02559,0.06112,0,0,270.0*
21,1,0.02175,0.06496,0,0,270.0*
1,1,0.00384,-0.03056,-0.01088*
1,1,0.00384,-0.03056,0.01088*
1,1,0.00384,0.03056,0.01088*
1,1,0.00384,0.03056,-0.01088*
%
%ADD125ROUNDEDRECTD125*%
G04:AMPARAMS|DCode=126|XSize=65.17mil|YSize=23.72mil|CornerRadius=11.86mil|HoleSize=0mil|Usage=FLASHONLY|Rotation=180.000|XOffset=0mil|YOffset=0mil|HoleType=Round|Shape=RoundedRectangle|*
%AMROUNDEDRECTD126*
21,1,0.06517,0.00000,0,0,180.0*
21,1,0.04145,0.02372,0,0,180.0*
1,1,0.02372,-0.02072,0.00000*
1,1,0.02372,0.02072,0.00000*
1,1,0.02372,0.02072,0.00000*
1,1,0.02372,-0.02072,0.00000*
%
%ADD126ROUNDEDRECTD126*%
%ADD127R,0.06517X0.02372*%
%ADD128R,0.05709X0.05118*%
G04:AMPARAMS|DCode=129|XSize=242.13mil|YSize=218.5mil|CornerRadius=2.19mil|HoleSize=0mil|Usage=FLASHONLY|Rotation=0.000|XOffset=0mil|YOffset=0mil|HoleType=Round|Shape=RoundedRectangle|*
%AMROUNDEDRECTD129*
21,1,0.24213,0.21413,0,0,0.0*
21,1,0.23776,0.21850,0,0,0.0*
1,1,0.00437,0.11888,-0.10707*
1,1,0.00437,-0.11888,-0.10707*
1,1,0.00437,-0.11888,0.10707*
1,1,0.00437,0.11888,0.10707*
%
%ADD129ROUNDEDRECTD129*%
G04:AMPARAMS|DCode=130|XSize=108.27mil|YSize=39.37mil|CornerRadius=1.97mil|HoleSize=0mil|Usage=FLASHONLY|Rotation=0.000|XOffset=0mil|YOffset=0mil|HoleType=Round|Shape=RoundedRectangle|*
%AMROUNDEDRECTD130*
21,1,0.10827,0.03543,0,0,0.0*
21,1,0.10433,0.03937,0,0,0.0*
1,1,0.00394,0.05217,-0.01772*
1,1,0.00394,-0.05217,-0.01772*
1,1,0.00394,-0.05217,0.01772*
1,1,0.00394,0.05217,0.01772*
%
%ADD130ROUNDEDRECTD130*%
%ADD131R,0.03740X0.05512*%
%ADD132R,0.03150X0.03543*%
%ADD133R,0.04331X0.05118*%
%ADD134C,0.01200*%
D17*
X350422Y255246D02*
Y332042D01*
X352780Y334400D02*
X360400D01*
X350422Y332042D02*
X352780Y334400D01*
X349022Y332622D02*
X352200Y335800D01*
X349022Y254666D02*
Y332622D01*
X352200Y335800D02*
X361911D01*
X235057Y258343D02*
Y258500D01*
Y258343D02*
X236329Y257071D01*
X237490D02*
X242213Y252348D01*
X236329Y257071D02*
X237490D01*
X242213Y252348D02*
X242852D01*
X243000Y252200D01*
X236329Y261445D02*
X237353Y262469D01*
X236329Y259772D02*
Y261445D01*
X235057Y258500D02*
X236329Y259772D01*
X237353Y262469D02*
Y266300D01*
X369604Y264696D02*
X372000Y262300D01*
X373752D01*
X369604Y269904D02*
X372000Y272300D01*
X373752D01*
X333958Y267300D02*
X340248D01*
X372000Y237300D02*
X373752D01*
X369604Y239696D02*
X372000Y237300D01*
Y247300D02*
X373752D01*
X369604Y244904D02*
X372000Y247300D01*
X356508Y330416D02*
X357324Y329600D01*
X360400D01*
Y334400D01*
X350422Y255246D02*
X362668Y243000D01*
X369018D01*
X369604Y243586D01*
Y244904D01*
X363279Y334432D02*
X364500D01*
X361911Y335800D02*
X363279Y334432D01*
X349022Y254666D02*
X362088Y241600D01*
X369018D01*
X369604Y241014D01*
Y239696D02*
Y241014D01*
X360500Y301092D02*
Y301395D01*
X359914Y300506D02*
X360500Y301092D01*
X357506Y300506D02*
X359914D01*
X356508Y299508D02*
X357506Y300506D01*
X356508Y279682D02*
Y299508D01*
Y279682D02*
X368190Y268000D01*
X369018D01*
X369604Y268586D01*
Y269904D01*
X364500Y325206D02*
Y326400D01*
X358022Y318728D02*
X364500Y325206D01*
X355713Y318728D02*
X358022D01*
X352852Y315867D02*
X355713Y318728D01*
X352852Y301948D02*
Y315867D01*
Y301948D02*
X355108Y299692D01*
Y279102D02*
Y299692D01*
Y279102D02*
X367610Y266600D01*
X369018D01*
X369604Y266014D01*
Y264696D02*
Y266014D01*
X243148Y252348D02*
X244223D01*
X249648Y257772D01*
X243000Y252200D02*
X243148Y252348D01*
X247091Y363700D02*
X247300D01*
X246290Y362899D02*
X247091Y363700D01*
X233900Y362899D02*
X246290D01*
X360500Y307895D02*
Y310361D01*
X360164Y307895D02*
X360500D01*
X360164Y305895D02*
Y307895D01*
Y305895D02*
X367438D01*
Y303895D02*
Y305895D01*
X359252Y303895D02*
X367438D01*
X359252Y301895D02*
Y303895D01*
Y301895D02*
X360500D01*
Y301395D02*
Y301895D01*
X356508Y314353D02*
X360500Y310361D01*
X255000Y336423D02*
X261423D01*
X287217Y277100D02*
X290400D01*
X287127Y277010D02*
X287217Y277100D01*
X287127Y274172D02*
Y277010D01*
X255047Y262753D02*
X259615D01*
X255000Y262800D02*
X255047Y262753D01*
X249904Y266690D02*
X259615D01*
X249648Y266434D02*
X249904Y266690D01*
X247291Y333800D02*
X247414D01*
X244261Y332399D02*
X245890D01*
X243268Y331300D02*
Y331406D01*
X244261Y332399D01*
X243215Y336803D02*
Y337000D01*
Y336803D02*
X246218Y333800D01*
X247291D01*
X241943Y338469D02*
X243215Y337197D01*
X239928Y340287D02*
X241746Y338469D01*
X241943D01*
X238968Y342600D02*
X239928Y341641D01*
Y340287D02*
Y341641D01*
X243268Y325989D02*
Y331300D01*
X243215Y337000D02*
X243900Y337685D01*
X243268Y325989D02*
X243458Y325800D01*
X243215Y337000D02*
Y337197D01*
X245890Y332399D02*
X247291Y333800D01*
X249648Y257772D02*
Y258166D01*
D19*
X264600Y360647D02*
D03*
Y366553D02*
D03*
D20*
X234032Y342600D02*
D03*
X238968D02*
D03*
X238332Y331300D02*
D03*
X243268D02*
D03*
D23*
X237900Y337000D02*
D03*
X243215D02*
D03*
X328643Y267300D02*
D03*
X333958D02*
D03*
X327542Y242600D02*
D03*
X332857D02*
D03*
X238142Y325800D02*
D03*
X243458D02*
D03*
X229743Y258500D02*
D03*
X235057D02*
D03*
X323458Y267100D02*
D03*
X318143D02*
D03*
X322358Y242700D02*
D03*
X317042D02*
D03*
D25*
X262600Y347158D02*
D03*
Y341843D02*
D03*
X180900Y476358D02*
D03*
Y471042D02*
D03*
X263500Y310457D02*
D03*
Y305142D02*
D03*
D40*
X215276Y490300D02*
D03*
X212324D02*
D03*
D41*
X190366Y490200D02*
D03*
X198634D02*
D03*
D42*
X332800Y344357D02*
D03*
Y339042D02*
D03*
D90*
X261500Y276300D02*
X263124Y274676D01*
X259500Y276300D02*
X261500D01*
X263124Y273016D02*
Y274676D01*
Y273016D02*
X264218Y271921D01*
X252300Y276300D02*
X252800D01*
Y276763D01*
X254400D01*
Y274800D02*
Y276763D01*
Y274800D02*
X256000D01*
Y276763D01*
X257600D01*
Y274800D02*
Y276763D01*
Y274800D02*
X259200D01*
Y276300D01*
X259500D01*
X252100D02*
X252300D01*
X247454Y280946D02*
X252100Y276300D01*
X247454Y280946D02*
Y309700D01*
X243300Y272800D02*
X261786D01*
X262668Y271917D01*
X242700Y273400D02*
X243300Y272800D01*
X247454Y309700D02*
Y319817D01*
X264900Y261600D02*
Y271100D01*
X262808Y259494D02*
X263218Y259904D01*
X262794Y259494D02*
X262808D01*
X263218Y259904D02*
Y259918D01*
X264900Y261600D01*
X259906Y259106D02*
X262406D01*
X259615Y258816D02*
X259906Y259106D01*
X262406D02*
X262794Y259494D01*
X264218Y271781D02*
X264900Y271100D01*
X264218Y271781D02*
Y271921D01*
X263218Y271367D02*
X263800Y270786D01*
X262475Y261075D02*
X263800Y262400D01*
Y270786D01*
X259906Y261075D02*
X262475D01*
X259615Y260784D02*
X259906Y261075D01*
X263218Y271367D02*
Y271507D01*
X262808Y271917D02*
X263218Y271507D01*
X262668Y271917D02*
X262808D01*
X327542Y242600D02*
Y242797D01*
X324213Y246127D02*
X327542Y242797D01*
X320050Y246127D02*
X324213D01*
X320050Y245905D02*
Y246127D01*
X317042Y242897D02*
X320050Y245905D01*
X317042Y242700D02*
Y242897D01*
X232000Y260954D02*
Y265647D01*
X229743Y258697D02*
X232000Y260954D01*
X229743Y258500D02*
Y258697D01*
X231447Y266200D02*
Y266300D01*
Y266200D02*
X232000Y265647D01*
X296186Y238511D02*
X299875Y242200D01*
X300289Y241200D02*
X313812D01*
X320881Y234132D01*
X296601Y237511D02*
X300289Y241200D01*
X311812Y242200D02*
X312561Y242949D01*
X299875Y242200D02*
X311812D01*
X312561Y242949D02*
Y242949D01*
X321181Y251569D01*
X280737Y239311D02*
Y239832D01*
X279253Y243115D02*
X279543Y242824D01*
X331453Y236308D02*
Y236800D01*
X339748D02*
X340248Y237300D01*
X279543Y240026D02*
Y242824D01*
X320881Y234132D02*
X329276D01*
X331453Y236308D01*
X281537Y238511D02*
X296186D01*
X279737Y238897D02*
Y239832D01*
X279543Y240026D02*
X279737Y239832D01*
Y238897D02*
X281123Y237511D01*
X296601D01*
X280737Y239311D02*
X281537Y238511D01*
X280931Y240026D02*
Y242824D01*
X331453Y236800D02*
X339748D01*
X280737Y239832D02*
X280931Y240026D01*
Y242824D02*
X281221Y243115D01*
X286246Y239511D02*
X288007D01*
X285158Y240802D02*
Y243115D01*
Y240802D02*
X285836Y240124D01*
Y239921D02*
X286246Y239511D01*
X288496Y240000D02*
X289910D01*
X287417Y241000D02*
X289496D01*
X285836Y239921D02*
Y240124D01*
X288007Y239511D02*
X288496Y240000D01*
X332953Y248900D02*
X336896D01*
X338496Y247300D02*
X340248D01*
X336896Y248900D02*
X338496Y247300D01*
X331676Y251569D02*
X331776Y251468D01*
Y250076D02*
Y251468D01*
Y250076D02*
X332953Y248900D01*
X321181Y251569D02*
X331676D01*
X321400Y248800D02*
X326947D01*
X327047Y248900D01*
X327539Y248408D01*
X327947D01*
X330214Y246141D01*
Y242900D02*
Y246141D01*
X325547Y236800D02*
X326647Y237899D01*
X327572D01*
X330014Y240342D01*
Y242700D02*
X330214Y242900D01*
X330014Y240342D02*
Y242700D01*
X322358Y242503D02*
X324371Y240490D01*
Y237976D02*
Y240490D01*
Y237976D02*
X325547Y236800D01*
X322358Y242503D02*
Y242700D01*
X338496Y262300D02*
X340248D01*
X337096Y260900D02*
X338496Y262300D01*
X333853Y260900D02*
X337096D01*
X334253Y273300D02*
X339248D01*
X340248Y272300D01*
X333157Y242300D02*
X340248D01*
X332857Y242600D02*
X333157Y242300D01*
X183622Y419000D02*
X191854D01*
X195905Y414950D01*
X196200D01*
X327047Y260000D02*
X327947Y260900D01*
X324100Y260000D02*
X327047D01*
X315671Y266193D02*
Y269358D01*
X322281Y258231D02*
X331676D01*
X315319Y265842D02*
X315671Y266193D01*
X314752Y264842D02*
X315671D01*
X289910Y240000D02*
X314752Y264842D01*
X331676Y258231D02*
X333853Y260408D01*
X315671Y264842D02*
X322281Y258231D01*
X314337Y265842D02*
X315319D01*
X289496Y241000D02*
X314337Y265842D01*
X262600Y337856D02*
Y341843D01*
X261561Y336817D02*
X262600Y337856D01*
X261561Y336500D02*
Y336817D01*
X262600Y347158D02*
Y354500D01*
X261200Y355900D02*
X262600Y354500D01*
X247800Y339059D02*
Y344010D01*
Y339059D02*
X249100Y337759D01*
X318514Y355900D02*
X318700Y356086D01*
X320200Y354000D02*
Y381800D01*
X263560Y310518D02*
Y314815D01*
X261076Y314176D02*
X261300Y314400D01*
X261076Y312763D02*
Y314176D01*
X318700Y356086D02*
Y381800D01*
X263500Y310457D02*
X263560Y310518D01*
X274000Y428000D02*
X320200Y381800D01*
X136412Y355005D02*
X158439D01*
X215309Y392352D02*
X218038D01*
X158439Y355005D02*
X165385Y361951D01*
X215916Y391352D02*
X216267Y391000D01*
X214165Y391352D02*
X215916D01*
X184765Y361951D02*
X214165Y391352D01*
X165385Y361951D02*
X184765D01*
X215309Y392352D02*
Y394709D01*
X215841Y395240D01*
X146035Y315252D02*
X165452D01*
X147215Y370402D02*
X167313Y390500D01*
X169692Y391500D02*
X171642D01*
X167313Y390500D02*
X168989D01*
X169341Y391851D02*
X169692Y391500D01*
X169341Y391851D02*
Y394740D01*
X137006Y371402D02*
X146801D01*
X166899Y391500D01*
X127248Y354970D02*
X127927Y355649D01*
X135767D01*
X136412Y355005D01*
X213751Y392352D02*
X215309D01*
X184351Y362951D02*
X213751Y392352D01*
X164971Y362951D02*
X184351D01*
X158024Y356005D02*
X164971Y362951D01*
X136826Y356005D02*
X158024D01*
X136475Y356357D02*
X136826Y356005D01*
X136475Y356357D02*
Y356854D01*
X142465Y362844D01*
X142996D01*
X136654Y371753D02*
X137006Y371402D01*
X136654Y371753D02*
Y372250D01*
X142996Y378592D01*
X127248Y370718D02*
X128606Y372077D01*
X135303D01*
X135654Y371725D01*
Y371339D02*
Y371725D01*
Y371339D02*
X136591Y370402D01*
X147215D01*
X165452Y315252D02*
X218200Y368000D01*
X166899Y391500D02*
X168989D01*
Y390500D02*
X169341Y390148D01*
X231100Y368000D02*
X231324Y367776D01*
X218200Y368000D02*
X231100D01*
X168989Y391500D02*
X169341Y391851D01*
X151100Y414000D02*
X161378D01*
X149500Y415600D02*
X151100Y414000D01*
X149500Y409301D02*
X149795D01*
X153372Y405724D01*
X154776D01*
X155000Y405500D01*
X197350Y413800D02*
X206178D01*
X233800Y418400D02*
X234100D01*
X235648Y416852D01*
X225406Y410248D02*
X226654Y409000D01*
X228622D01*
X226654Y414000D02*
X228622D01*
X225406Y412752D02*
X226654Y414000D01*
X228622Y419000D02*
X229602Y419979D01*
X232000Y420200D02*
X235600D01*
X231780Y419979D02*
X232000Y420200D01*
X229602Y419979D02*
X231780D01*
X206378Y419000D02*
Y421778D01*
X209326Y406180D02*
X224000Y420854D01*
X206178Y413800D02*
X206378Y414000D01*
X204601Y409000D02*
X206378D01*
X203622Y408020D02*
X204601Y409000D01*
X229321Y404000D02*
X230300Y403020D01*
Y398500D02*
Y403020D01*
X228622Y404000D02*
X229321D01*
X206378D02*
X208347D01*
X209326Y404980D01*
Y406180D01*
X203622Y406649D02*
Y408020D01*
X200500Y403527D02*
X203622Y406649D01*
X200500Y398500D02*
Y403527D01*
X199500Y397500D02*
X200500Y398500D01*
X198000Y397500D02*
X199500D01*
X275000Y390000D02*
Y393336D01*
X246336Y422000D02*
X275000Y393336D01*
X224352Y422000D02*
X246336D01*
X224000Y421649D02*
X224352Y422000D01*
X224000Y420854D02*
Y421649D01*
X277000Y387500D02*
Y394000D01*
X246500Y424500D02*
X277000Y394000D01*
X209100Y424500D02*
X246500D01*
X206378Y421778D02*
X209100Y424500D01*
X225406Y410248D02*
Y410648D01*
X225054Y411000D02*
X225406Y410648D01*
X224478Y411000D02*
X225054D01*
X221994Y408516D02*
X224478Y411000D01*
X221994Y394894D02*
Y408516D01*
X218452Y391352D02*
X221994Y394894D01*
X216619Y391352D02*
X218452D01*
X216267Y391000D02*
X216619Y391352D01*
X225406Y412352D02*
Y412752D01*
X225054Y412000D02*
X225406Y412352D01*
X224064Y412000D02*
X225054D01*
X220994Y408930D02*
X224064Y412000D01*
X220994Y395308D02*
Y408930D01*
X218038Y392352D02*
X220994Y395308D01*
X196200Y414950D02*
X197350Y413800D01*
X197300Y398517D02*
Y407550D01*
X196200Y408650D02*
X197300Y407550D01*
Y398517D02*
X198000Y397817D01*
Y397500D02*
Y397817D01*
X181984Y481516D02*
X190122D01*
X175900Y487600D02*
X181984Y481516D01*
X180419Y490200D02*
X190366D01*
X177819Y487600D02*
X180419Y490200D01*
X175900Y487600D02*
X177819D01*
X232916Y350301D02*
X233900D01*
X227200Y305592D02*
X231247Y309639D01*
X233300Y350901D02*
Y359545D01*
X231247Y348632D02*
X232916Y350301D01*
X233300Y350901D02*
X233900Y350301D01*
X231247Y309639D02*
Y348632D01*
X233800Y339300D02*
X234000Y339100D01*
Y339017D02*
Y339100D01*
X233400Y338900D02*
X233800Y339300D01*
Y342369D01*
X234032Y342600D01*
X227200Y255600D02*
Y305592D01*
X265487Y238199D02*
Y242520D01*
Y238199D02*
X268200Y235486D01*
X265183Y242824D02*
X265473Y243115D01*
X265183Y242824D02*
X265487Y242520D01*
X275358Y236994D02*
Y243073D01*
X276800Y235486D02*
Y235551D01*
X275358Y236994D02*
X276800Y235551D01*
X275316Y243115D02*
X275358Y243073D01*
X271389Y235496D02*
Y243104D01*
Y235496D02*
X271400Y235486D01*
X271379Y243115D02*
X271389Y243104D01*
X200312Y450744D02*
X204756D01*
X212500Y443000D01*
X188500Y472500D02*
X216500D01*
X188453Y479847D02*
X190122Y481516D01*
X216059Y472941D02*
X216500Y472500D01*
X216059Y472941D02*
Y489714D01*
X215473Y490300D02*
X216059Y489714D01*
X215276Y490300D02*
X215473D01*
X184587Y479847D02*
X188453D01*
X181097Y476358D02*
X184587Y479847D01*
X180900Y476358D02*
X181097D01*
X177700Y461700D02*
X188500Y472500D01*
X176321Y461700D02*
X177700D01*
X198634Y490200D02*
X198734Y490300D01*
X212324D01*
X175800Y461700D02*
X176321D01*
X176240Y464708D02*
X177214Y463734D01*
X179232Y469374D02*
Y469571D01*
X176240Y466382D02*
X179232Y469374D01*
X177214Y463734D02*
X178355D01*
X176240Y464708D02*
Y466382D01*
X179232Y469571D02*
X180703Y471042D01*
X180900D01*
X176321Y461700D02*
X178355Y463734D01*
X235648Y415485D02*
Y416852D01*
X319528Y268485D02*
Y269528D01*
X318143Y267100D02*
X319528Y268485D01*
Y269528D02*
X321000Y271000D01*
X325139D01*
X328643Y267497D01*
X289282Y246719D02*
X289900Y246100D01*
X284278Y246719D02*
X289282D01*
X254136Y249928D02*
X256011Y251804D01*
Y251822D02*
X256421Y252232D01*
X256439D01*
X256827Y252620D02*
X259324D01*
X256011Y251804D02*
Y251822D01*
X259324Y252620D02*
X259615Y252910D01*
X256439Y252232D02*
X256827Y252620D01*
X254800Y247380D02*
X255800Y248380D01*
Y249642D02*
X256421Y250264D01*
X255800Y248380D02*
Y249642D01*
X256421Y250264D02*
X256421D01*
X259324Y250651D02*
X259615Y250942D01*
X256809Y250651D02*
X259324D01*
X256421Y250264D02*
X256809Y250651D01*
X254800Y247200D02*
Y247380D01*
X252300Y246900D02*
X266700Y232500D01*
X252300Y246900D02*
Y250630D01*
X266700Y232500D02*
X343100D01*
X259365Y254628D02*
X259615Y254879D01*
X252300Y250630D02*
X256298Y254628D01*
X259365D01*
X332505Y339042D02*
X332800D01*
X331033Y337571D02*
X332505Y339042D01*
X331033Y337276D02*
Y337571D01*
X330400Y288800D02*
Y336643D01*
X331033Y337276D01*
X330400Y288800D02*
X346000Y273200D01*
Y235400D02*
Y273200D01*
X343100Y232500D02*
X346000Y235400D01*
X249200Y249900D02*
X256147Y256847D01*
X232900Y249900D02*
X249200D01*
X256147Y256847D02*
X259615D01*
X296179Y259494D02*
X318700Y282015D01*
Y333100D01*
X295589Y259142D02*
X295940Y259494D01*
X292985Y258816D02*
X295298D01*
X295589Y259106D01*
Y259142D01*
X295940Y259494D02*
X296179D01*
X343187Y345853D02*
X344815D01*
X341692Y344357D02*
X343187Y345853D01*
X332800Y344357D02*
X341692D01*
X259615Y268658D02*
Y270627D01*
X246951D02*
X259615D01*
X243152Y266828D02*
X246951Y270627D01*
X243152Y266434D02*
Y266828D01*
X208159Y391500D02*
X208500Y391841D01*
Y395500D01*
X216267Y388187D02*
Y391000D01*
X215841Y387760D02*
X216267Y388187D01*
X176349Y407414D02*
X178867Y409933D01*
X182689D01*
X183622Y409000D01*
X180846Y412352D02*
Y413021D01*
X180494Y412000D02*
X180846Y412352D01*
X179520Y412000D02*
X180494D01*
X169341Y390148D02*
X169692Y390500D01*
X181825Y414000D02*
X183622D01*
X180846Y413021D02*
X181825Y414000D01*
X175349Y395207D02*
Y407829D01*
X179520Y412000D01*
X176349Y394793D02*
Y407414D01*
X172056Y390500D02*
X176349Y394793D01*
X171642Y391500D02*
X175349Y395207D01*
X169692Y390500D02*
X172056D01*
X169341Y387260D02*
Y390148D01*
X372965Y386013D02*
X373316Y386365D01*
X372965Y383135D02*
Y386013D01*
Y383135D02*
X373741Y382359D01*
X373316Y386365D02*
X374345D01*
X375460Y385250D01*
X376576D01*
X373741Y381862D02*
Y382359D01*
X359829Y367950D02*
X373741Y381862D01*
X360244Y366950D02*
X375307Y382013D01*
X329337Y366950D02*
X360244D01*
X328567Y367950D02*
X359829D01*
X380574Y382013D02*
X380981Y382420D01*
X375307Y382013D02*
X380574D01*
X328087Y368430D02*
X328567Y367950D01*
X327770Y368430D02*
X328087D01*
X328487Y366100D02*
X329337Y366950D01*
X328400Y366100D02*
X328487D01*
X380981Y382420D02*
X381300Y382101D01*
X283868Y246106D02*
Y246308D01*
X283190Y245428D02*
X283868Y246106D01*
X283190Y243115D02*
Y245428D01*
X283868Y246308D02*
X284278Y246719D01*
X334253Y273300D02*
Y273792D01*
X315671Y269358D02*
X322281Y275969D01*
X332076D02*
X334253Y273792D01*
X333853Y260408D02*
Y260900D01*
X322281Y275969D02*
X332076D01*
X287127Y241290D02*
X287417Y241000D01*
X287127Y241290D02*
Y243115D01*
X326971Y261876D02*
X327947Y260900D01*
X332558Y242900D02*
X332857Y242600D01*
X330214Y242900D02*
X332558D01*
X331314Y267400D02*
Y269841D01*
Y264959D02*
Y267400D01*
X333858D02*
X333958Y267300D01*
X331314Y267400D02*
X333858D01*
X326971Y261876D02*
Y263390D01*
X323458Y266903D02*
X326971Y263390D01*
X323458Y266903D02*
Y267100D01*
X329124Y262768D02*
X331314Y264959D01*
X329124Y262076D02*
Y262768D01*
X327947Y260900D02*
X329124Y262076D01*
X328347Y272808D02*
X331314Y269841D01*
X328347Y272808D02*
Y273300D01*
X328643Y267300D02*
Y267497D01*
X227200Y255600D02*
X232900Y249900D01*
X247454Y319817D02*
X253814Y326177D01*
X255000D01*
X253300Y286489D02*
Y321748D01*
X254200Y322649D02*
X255459D01*
X253300Y321748D02*
X254200Y322649D01*
X255459D02*
X255800Y322308D01*
X242700Y273400D02*
Y322780D01*
X231447Y266300D02*
Y266497D01*
X233722Y268772D01*
X239217D01*
X261212Y284478D02*
X261343D01*
X262621Y283200D01*
X268594D01*
X268088Y282089D02*
X270088Y280089D01*
X266354D02*
X267151Y279291D01*
Y276776D02*
X267442Y276485D01*
X259114Y282089D02*
X268088D01*
X258700Y281089D02*
X267322D01*
X256200Y280089D02*
X266354D01*
X267322Y281089D02*
X268732Y279679D01*
X267151Y276776D02*
Y279291D01*
X253300Y286489D02*
X254650Y285139D01*
X257350Y282439D02*
X258700Y281089D01*
X254650Y284250D02*
Y285139D01*
X256461Y282439D02*
X257350D01*
X254650Y284250D02*
X256461Y282439D01*
X255184Y286019D02*
X259114Y282089D01*
X263817Y300433D02*
X264084Y300700D01*
X270800D01*
X273719Y283409D02*
X277191Y279937D01*
X272747Y284381D02*
X273367D01*
X273719Y283409D02*
Y284030D01*
X273367Y284381D02*
X273719Y284030D01*
X277191Y276578D02*
X277284Y276485D01*
X277191Y276578D02*
Y279937D01*
X276682Y282518D02*
Y286017D01*
Y282518D02*
X278962Y280238D01*
X255000Y280089D02*
X256200D01*
X255000D02*
Y280752D01*
X253400D02*
X255000D01*
X253400Y280089D02*
Y280752D01*
X253100Y280089D02*
X253400D01*
X252644D02*
X253100D01*
X250600Y282133D02*
X252644Y280089D01*
X255184Y286019D02*
Y286694D01*
X255800Y304800D02*
Y307608D01*
X257600D01*
Y309208D01*
X254500D02*
X257600D01*
X254500D02*
Y310808D01*
X257606D01*
Y312408D01*
X254500D02*
X257606D01*
X254500D02*
Y314008D01*
X257606D01*
Y315608D01*
X254500D02*
X257606D01*
X254500D02*
Y317208D01*
X257606D01*
Y318808D01*
X254500D02*
X257606D01*
X254500D02*
Y320408D01*
X257606D01*
Y322008D01*
X255800D02*
X257606D01*
X255800D02*
Y322308D01*
X255184Y299794D02*
Y301700D01*
Y299794D02*
X255725D01*
Y298194D02*
Y299794D01*
X254300Y298194D02*
X255725D01*
X254300Y296594D02*
Y298194D01*
Y296594D02*
X255500D01*
Y294994D02*
Y296594D01*
X254300Y294994D02*
X255500D01*
X254300Y293394D02*
Y294994D01*
Y293394D02*
X255500D01*
Y291794D02*
Y293394D01*
X254300Y291794D02*
X255500D01*
X254300Y290194D02*
Y291794D01*
Y290194D02*
X255500D01*
Y288594D02*
Y290194D01*
X254300Y288594D02*
X255500D01*
X254300Y286994D02*
Y288594D01*
Y286994D02*
X255184D01*
Y286694D02*
Y286994D01*
X250600Y308033D02*
Y310200D01*
Y308033D02*
X252300D01*
Y306433D02*
Y308033D01*
X248454Y306433D02*
X252300D01*
X248454Y304833D02*
Y306433D01*
Y304833D02*
X252300D01*
Y303233D02*
Y304833D01*
X248454Y303233D02*
X252300D01*
X248454Y301633D02*
Y303233D01*
Y301633D02*
X252300D01*
Y300033D02*
Y301633D01*
X248454Y300033D02*
X252300D01*
X248454Y298433D02*
Y300033D01*
Y298433D02*
X252300D01*
Y296833D02*
Y298433D01*
X248454Y296833D02*
X252300D01*
X248454Y295233D02*
Y296833D01*
Y295233D02*
X252300D01*
Y293633D02*
Y295233D01*
X248454Y293633D02*
X252300D01*
X248454Y292033D02*
Y293633D01*
Y292033D02*
X252300D01*
Y290433D02*
Y292033D01*
X248454Y290433D02*
X252300D01*
X248454Y288833D02*
Y290433D01*
Y288833D02*
X252300D01*
Y287233D02*
Y288833D01*
X248454Y287233D02*
X252300D01*
X248454Y285633D02*
Y287233D01*
Y285633D02*
X252742D01*
Y284033D02*
Y285633D01*
X248454Y284033D02*
X252742D01*
X248454Y282433D02*
Y284033D01*
Y282433D02*
X250600D01*
Y282133D02*
Y282433D01*
X268732Y279476D02*
Y279679D01*
Y279476D02*
X269410Y278798D01*
Y276485D02*
Y278798D01*
X245929Y327552D02*
X249100Y330722D01*
X245519Y323131D02*
X245929Y323542D01*
Y327552D01*
X242700Y322780D02*
X243052Y323131D01*
X245519D01*
X263817Y300433D02*
Y300711D01*
X263817Y300711D01*
X263817Y299162D02*
Y300433D01*
Y299162D02*
X264383D01*
Y297562D02*
Y299162D01*
X256500Y297562D02*
X264383D01*
X256500Y295962D02*
Y297562D01*
Y295962D02*
X264341D01*
Y294362D02*
Y295962D01*
X256500Y294362D02*
X264341D01*
X256500Y292762D02*
Y294362D01*
Y292762D02*
X264341D01*
Y291162D02*
Y292762D01*
X256500Y291162D02*
X264341D01*
X256500Y289562D02*
Y291162D01*
Y289562D02*
X264341D01*
Y287962D02*
Y289562D01*
X256500Y287962D02*
X264341D01*
X256500Y286362D02*
Y287962D01*
Y286362D02*
X263762D01*
Y286062D02*
Y286362D01*
Y285211D02*
Y286062D01*
Y285211D02*
X264114Y284860D01*
X264214D02*
X264692Y284381D01*
X266047D01*
Y286266D01*
X267647D01*
Y284200D02*
Y286266D01*
Y284200D02*
X269247D01*
Y286266D01*
X270847D01*
Y284229D02*
Y286266D01*
Y284229D02*
X272447D01*
Y284381D01*
X272747D01*
X264114Y284860D02*
X264214D01*
X268594Y283200D02*
X271317Y280476D01*
X270291Y280089D02*
X270701Y279679D01*
X270088Y280089D02*
X270291D01*
X275025Y276776D02*
X275316Y276485D01*
X275025Y276776D02*
Y279570D01*
X272251Y282345D02*
X275025Y279570D01*
X271872Y280476D02*
X272669Y279679D01*
Y279476D02*
Y279679D01*
X271317Y280476D02*
X271872D01*
X272113Y282345D02*
X272251D01*
X274600Y286966D02*
X275734D01*
X276682Y286017D01*
X276632Y300105D02*
Y300435D01*
X274993Y298466D02*
X276632Y300105D01*
X266240Y298466D02*
X274993D01*
X266240Y296866D02*
Y298466D01*
Y296866D02*
X276724D01*
Y295266D02*
Y296866D01*
X265341Y295266D02*
X276724D01*
X265341Y293666D02*
Y295266D01*
Y293666D02*
X276724D01*
Y292066D02*
Y293666D01*
X265341Y292066D02*
X276724D01*
X265341Y290466D02*
Y292066D01*
Y290466D02*
X276724D01*
Y288866D02*
Y290466D01*
X265341Y288866D02*
X276724D01*
X265341Y287266D02*
Y288866D01*
Y287266D02*
X274600D01*
Y286966D02*
Y287266D01*
X276632Y300435D02*
Y300484D01*
X278962Y276776D02*
Y280238D01*
X270701Y279476D02*
Y279679D01*
X271379Y276485D02*
Y278798D01*
X270701Y279476D02*
X271379Y278798D01*
X278962Y276776D02*
X279253Y276485D01*
X285000Y298695D02*
Y299623D01*
X278101Y298695D02*
X285000D01*
X278101Y297095D02*
Y298695D01*
Y297095D02*
X285205D01*
Y295495D02*
Y297095D01*
X277724Y295495D02*
X285205D01*
X277724Y293895D02*
Y295495D01*
Y293895D02*
X285571D01*
Y292295D02*
Y293895D01*
X277724Y292295D02*
X285571D01*
X277724Y290695D02*
Y292295D01*
Y290695D02*
X285571D01*
Y289095D02*
Y290695D01*
X277724Y289095D02*
X285571D01*
X277724Y287495D02*
Y289095D01*
Y287495D02*
X285571D01*
Y285895D02*
Y287495D01*
X277724Y285895D02*
X285571D01*
X277724Y284295D02*
Y285895D01*
Y284295D02*
X285571D01*
Y282695D02*
Y284295D01*
X279519Y282695D02*
X285571D01*
X279519Y281095D02*
Y282695D01*
Y281095D02*
X282964D01*
Y280744D02*
Y281095D01*
X282664Y280444D02*
X282964Y280744D01*
X281899Y279440D02*
Y279679D01*
X282664Y280444D01*
X293269Y302502D02*
Y303150D01*
X291277Y302502D02*
X293269D01*
X291277Y300902D02*
Y302502D01*
Y300902D02*
X292269D01*
Y299302D02*
Y300902D01*
X286000Y299302D02*
X292269D01*
X286000Y297702D02*
Y299302D01*
Y297702D02*
X292269D01*
Y296102D02*
Y297702D01*
X286571Y296102D02*
X292269D01*
X286571Y294502D02*
Y296102D01*
Y294502D02*
X292269D01*
Y292902D02*
Y294502D01*
X286571Y292902D02*
X292269D01*
X286571Y291302D02*
Y292902D01*
Y291302D02*
X292269D01*
Y289702D02*
Y291302D01*
X286571Y289702D02*
X292269D01*
X286571Y288102D02*
Y289702D01*
Y288102D02*
X292269D01*
Y286502D02*
Y288102D01*
X286571Y286502D02*
X292269D01*
X286571Y284902D02*
Y286502D01*
Y284902D02*
X292269D01*
Y283302D02*
Y284902D01*
X286571Y283302D02*
X292269D01*
X286571Y281702D02*
Y283302D01*
Y281702D02*
X292269D01*
Y281402D02*
Y281702D01*
X293269Y303150D02*
Y303449D01*
X292269Y280951D02*
Y281402D01*
X288000Y303800D02*
X292918D01*
X293269Y303449D01*
X284789Y280600D02*
X291918D01*
X292269Y280951D01*
X296930Y303370D02*
X298200Y302100D01*
Y301961D02*
Y302100D01*
Y301961D02*
X299256D01*
Y300361D02*
Y301961D01*
X293269Y300361D02*
X299256D01*
X293269Y298761D02*
Y300361D01*
Y298761D02*
X299900D01*
Y297161D02*
Y298761D01*
X293269Y297161D02*
X299900D01*
X293269Y295561D02*
Y297161D01*
Y295561D02*
X299900D01*
Y293961D02*
Y295561D01*
X293269Y293961D02*
X299900D01*
X293269Y292361D02*
Y293961D01*
Y292361D02*
X296647D01*
Y290761D02*
Y292361D01*
X293269Y290761D02*
X296647D01*
X293269Y289161D02*
Y290761D01*
Y289161D02*
X296131D01*
Y287561D02*
Y289161D01*
X293269Y287561D02*
X296131D01*
X293269Y285961D02*
Y287561D01*
Y285961D02*
X296131D01*
Y284361D02*
Y285961D01*
X293269Y284361D02*
X296131D01*
X293269Y282761D02*
Y284361D01*
Y282761D02*
X296131D01*
Y281161D02*
Y282761D01*
X293269Y281161D02*
X296131D01*
X293269Y279561D02*
Y281161D01*
Y279561D02*
X296589D01*
Y277961D02*
Y279561D01*
X293269Y277961D02*
X296589D01*
X293269Y276361D02*
Y277961D01*
Y276361D02*
X296589D01*
Y274761D02*
Y276361D01*
X293269Y274761D02*
X296589D01*
X293269Y273161D02*
Y274761D01*
Y273161D02*
X296589D01*
Y271561D02*
Y273161D01*
X296535Y271561D02*
X296589D01*
X296535D02*
X296589Y271507D01*
Y269746D02*
Y271507D01*
X296503Y269661D02*
X296589Y269746D01*
X296179Y269336D02*
X296503Y269661D01*
X296800Y303500D02*
X296930Y303370D01*
X297131Y289831D02*
X299000Y291700D01*
X297131Y280763D02*
Y289831D01*
X299016Y269345D02*
Y289051D01*
X295875Y261075D02*
X300900Y266100D01*
Y302300D01*
X266268Y336931D02*
X300900Y302300D01*
X266268Y336931D02*
Y359471D01*
X293276Y261075D02*
X295875D01*
X297300Y268489D02*
Y269043D01*
X297589Y269332D02*
Y280306D01*
X296179Y265399D02*
X298300Y267521D01*
X297300Y269043D02*
X297589Y269332D01*
X298300Y268629D02*
X299016Y269345D01*
X296179Y267368D02*
X297300Y268489D01*
X297131Y280763D02*
X297589Y280306D01*
X298300Y267521D02*
Y268629D01*
X264550Y366603D02*
X264600Y366553D01*
X264550Y366603D02*
Y370650D01*
X266764Y246106D02*
Y271391D01*
X265473Y272681D02*
Y276485D01*
Y272681D02*
X266764Y271391D01*
X281548Y279089D02*
X281899Y279440D01*
X283125Y299975D02*
X284648D01*
X285000Y299623D01*
X282500Y300600D02*
X283125Y299975D01*
X283190Y278798D02*
X283868Y279476D01*
X283190Y276485D02*
Y278798D01*
X281221Y276485D02*
Y278798D01*
X281512Y279089D02*
X281548D01*
X281221Y278798D02*
X281512Y279089D01*
X283868Y279679D02*
X284789Y280600D01*
X283868Y279476D02*
Y279679D01*
X273347Y276485D02*
Y278798D01*
X272669Y279476D02*
X273347Y278798D01*
X277392Y237908D02*
Y243007D01*
Y237908D02*
X277500Y237800D01*
X295298Y266690D02*
X295976Y267368D01*
X296179D01*
X277200Y263500D02*
X285158Y271458D01*
X273354Y238046D02*
Y243108D01*
Y238046D02*
X273361Y238039D01*
X292985Y268658D02*
X295298D01*
X295589Y268949D01*
Y268985D01*
X295940Y269336D01*
X296179D01*
X289397Y263043D02*
X292694D01*
X287568Y264872D02*
X289397Y263043D01*
X287568Y264872D02*
Y265532D01*
X287300Y265800D02*
X287568Y265532D01*
X269355Y238055D02*
Y243060D01*
X269300Y238000D02*
X269355Y238055D01*
X267442Y245428D02*
X268120Y246106D01*
X276994Y243406D02*
Y245921D01*
X268530Y246719D02*
X276196D01*
X276994Y243406D02*
X277392Y243007D01*
X276196Y246719D02*
X276994Y245921D01*
X268120Y246106D02*
Y246308D01*
X268530Y246719D01*
X266764Y246106D02*
X267442Y245428D01*
X273347Y243115D02*
X273354Y243108D01*
X292985Y266690D02*
X295298D01*
X285158Y271458D02*
Y276485D01*
X292694Y263043D02*
X292985Y262753D01*
X269355Y243060D02*
X269410Y243115D01*
X292985Y260784D02*
X293276Y261075D01*
X287300Y268384D02*
X289329Y270413D01*
X292772D01*
X292985Y270627D01*
Y264721D02*
X295298D01*
X295976Y265399D01*
X296179D01*
X267442Y243115D02*
Y245428D01*
X265092Y360647D02*
X266268Y359471D01*
X264600Y360647D02*
X265092D01*
X249100Y330722D02*
Y337759D01*
X236428Y338668D02*
X237900Y337197D01*
X234948Y338668D02*
X236428D01*
X234941Y338676D02*
X234948Y338668D01*
X234341Y338676D02*
X234941D01*
X234000Y339017D02*
X234341Y338676D01*
X238332Y325989D02*
Y331300D01*
X238142Y325800D02*
X238332Y325989D01*
X237900Y331732D02*
Y337197D01*
Y331732D02*
X238332Y331300D01*
X239217Y268772D02*
X239220Y268770D01*
X240816D01*
X240893Y268693D01*
X241287D02*
X243152Y266828D01*
X240893Y268693D02*
X241287D01*
X198742Y452314D02*
X200312Y450744D01*
X198742Y452314D02*
Y453200D01*
X260831Y312519D02*
X261076Y312763D01*
X260831Y307614D02*
Y312519D01*
X274000Y428000D02*
Y430000D01*
X269000Y431500D02*
X318700Y381800D01*
X260831Y307614D02*
X263303Y305142D01*
X263500D01*
X228200Y393900D02*
X231959D01*
X232758Y394700D01*
X236200D01*
X200500Y358500D02*
X227614Y385614D01*
X183200Y358500D02*
X200500D01*
X227614Y385614D02*
X249498D01*
X346800Y412200D02*
Y414800D01*
X345500Y410900D02*
X346800Y412200D01*
X211400Y372700D02*
X227100Y388400D01*
Y391400D01*
X178700Y354000D02*
X183200Y358500D01*
X236200Y394700D02*
X243200Y387700D01*
X249584Y385700D02*
X269000D01*
X234414Y401686D02*
Y414251D01*
Y401686D02*
X248800Y387300D01*
X249498Y385614D02*
X249584Y385700D01*
X234414Y414251D02*
X235648Y415485D01*
X250400Y393200D02*
X268300D01*
X236100Y407500D02*
X250400Y393200D01*
X236100Y407500D02*
Y410500D01*
X268300Y393200D02*
X271700Y389800D01*
X184717Y425500D02*
X261528D01*
X170846Y426500D02*
X265500D01*
X297000Y395000D01*
X163347Y419000D02*
X170846Y426500D01*
X261528Y425500D02*
X294528Y392500D01*
X173521Y414304D02*
X184717Y425500D01*
X334000Y394500D02*
Y450776D01*
X360862Y477638D01*
X184328Y402172D02*
X189000Y397500D01*
X198000D01*
X183622Y404000D02*
X184328Y403294D01*
Y402172D02*
Y403294D01*
X155000Y396000D02*
Y405500D01*
X160000Y391000D02*
X161660D01*
X155000Y396000D02*
X160000Y391000D01*
X159409Y409000D02*
X161378D01*
X156134Y405724D02*
X159409Y409000D01*
X155224Y405724D02*
X156134D01*
X155000Y405500D02*
X155224Y405724D01*
X161378Y419000D02*
X163347D01*
X173521Y414175D02*
Y414304D01*
X163347Y404000D02*
X173521Y414175D01*
X161378Y404000D02*
X163347D01*
X161228Y414150D02*
X161378Y414000D01*
X288000Y407500D02*
X299000Y396500D01*
Y392000D02*
Y396500D01*
D91*
X142996Y378592D02*
D03*
Y362844D02*
D03*
Y347096D02*
D03*
Y331348D02*
D03*
Y315600D02*
D03*
X127248Y370718D02*
D03*
Y354970D02*
D03*
Y339222D02*
D03*
Y323474D02*
D03*
X111500Y378592D02*
D03*
Y362844D02*
D03*
Y347096D02*
D03*
Y331348D02*
D03*
Y315600D02*
D03*
D92*
X125279Y404183D02*
D03*
Y290009D02*
D03*
D93*
X256000Y400500D02*
D03*
X246000Y415500D02*
D03*
X175800Y461700D02*
D03*
Y435500D02*
D03*
X175900Y487600D02*
D03*
D94*
X356508Y322384D02*
D03*
X364500Y318369D02*
D03*
Y310337D02*
D03*
X356508Y306321D02*
D03*
Y314353D02*
D03*
X364500Y326400D02*
D03*
X356508Y330416D02*
D03*
X364500Y334432D02*
D03*
D95*
X344815Y345853D02*
D03*
Y304900D02*
D03*
Y294900D02*
D03*
Y335853D02*
D03*
D96*
X397807Y351636D02*
D03*
Y289117D02*
D03*
D97*
X384185Y297876D02*
D03*
Y342876D02*
D03*
D98*
X396458Y370880D02*
D03*
Y399621D02*
D03*
D99*
X376576Y391550D02*
D03*
X381300Y388400D02*
D03*
X376576Y385250D02*
D03*
X381300Y382101D02*
D03*
X376576Y378951D02*
D03*
D100*
X359900Y496900D02*
D03*
X369600Y486300D02*
D03*
X321400Y248800D02*
D03*
X243000Y252200D02*
D03*
X246900Y354100D02*
D03*
X324100Y260000D02*
D03*
X261200Y355900D02*
D03*
X256623Y383233D02*
D03*
X318514Y355900D02*
D03*
X263560Y314815D02*
D03*
X261300Y314400D02*
D03*
X154800Y414100D02*
D03*
X233800Y418400D02*
D03*
X201000Y413800D02*
D03*
X228400Y358900D02*
D03*
X233300Y359545D02*
D03*
X233400Y338900D02*
D03*
X247300Y363700D02*
D03*
X268200Y235486D02*
D03*
X276800D02*
D03*
X271400D02*
D03*
X369800Y391200D02*
D03*
X255628Y484100D02*
D03*
X232693Y471250D02*
D03*
X235600Y420200D02*
D03*
X321000Y271000D02*
D03*
X320050Y246127D02*
D03*
X289900Y246100D02*
D03*
X254136Y249910D02*
D03*
X254800Y247200D02*
D03*
X299700Y260500D02*
D03*
X246951Y270627D02*
D03*
X208500Y395500D02*
D03*
X179090Y359914D02*
D03*
X328400Y366100D02*
D03*
X327770Y368430D02*
D03*
X337600Y310800D02*
D03*
X261561Y336500D02*
D03*
X247454Y309700D02*
D03*
X264550Y370650D02*
D03*
X269300Y238000D02*
D03*
X273361Y238039D02*
D03*
X277500Y237800D02*
D03*
X254973Y262679D02*
D03*
X303000Y302900D02*
D03*
X290400Y277100D02*
D03*
X247414Y333800D02*
D03*
X247400Y336100D02*
D03*
X309300Y315900D02*
D03*
X290800Y422400D02*
D03*
X290900Y427700D02*
D03*
X243123Y375533D02*
D03*
X230723Y380833D02*
D03*
X277200Y263500D02*
D03*
X363400Y364200D02*
D03*
X320200Y354000D02*
D03*
X322600Y378200D02*
D03*
X318700Y333100D02*
D03*
X227100Y396500D02*
D03*
X228200Y393900D02*
D03*
X220700Y321900D02*
D03*
X231324Y367776D02*
D03*
X271400Y387100D02*
D03*
X245000Y405200D02*
D03*
X348800Y389500D02*
D03*
X346800Y414800D02*
D03*
X345500Y410900D02*
D03*
X325700Y381800D02*
D03*
X360000Y457800D02*
D03*
X383300Y409800D02*
D03*
X211400Y372700D02*
D03*
X178700Y354000D02*
D03*
X243200Y387700D02*
D03*
X227100Y391400D02*
D03*
X230300Y398500D02*
D03*
X248800Y387300D02*
D03*
X269000Y385700D02*
D03*
X271700Y389800D02*
D03*
X236100Y410500D02*
D03*
X278508Y431108D02*
D03*
X250417Y435650D02*
D03*
X221000Y422814D02*
D03*
X337427Y420500D02*
D03*
X360862Y477638D02*
D03*
X334000Y394500D02*
D03*
X329142Y470984D02*
D03*
X399100Y270700D02*
D03*
X198000Y391500D02*
D03*
X212500Y443000D02*
D03*
X230500Y441500D02*
D03*
X198000Y397500D02*
D03*
X155000Y405500D02*
D03*
X277000Y387500D02*
D03*
X275000Y390000D02*
D03*
X294528Y392500D02*
D03*
X297000Y395000D02*
D03*
X299000Y392000D02*
D03*
X288000Y407500D02*
D03*
X274000Y430000D02*
D03*
X269000Y431500D02*
D03*
D101*
X247800Y344010D02*
D03*
X266018Y314565D02*
D03*
X261212Y284478D02*
D03*
X270800Y300700D02*
D03*
X255184Y301700D02*
D03*
X250600Y310200D02*
D03*
X255800Y304800D02*
D03*
X272113Y282345D02*
D03*
X299016Y289051D02*
D03*
X299000Y291700D02*
D03*
X296800Y303500D02*
D03*
X287300Y268384D02*
D03*
Y265800D02*
D03*
X276632Y300484D02*
D03*
X288000Y303800D02*
D03*
X282500Y300600D02*
D03*
D119*
X332953Y248900D02*
D03*
X327047D02*
D03*
X325547Y236800D02*
D03*
X331453D02*
D03*
X327947Y260900D02*
D03*
X333853D02*
D03*
X328347Y273300D02*
D03*
X334253D02*
D03*
D120*
X340248Y237300D02*
D03*
X373752D02*
D03*
X340248Y242300D02*
D03*
Y247300D02*
D03*
Y252300D02*
D03*
Y257300D02*
D03*
Y262300D02*
D03*
Y267300D02*
D03*
Y272300D02*
D03*
X373752Y242300D02*
D03*
Y247300D02*
D03*
Y252300D02*
D03*
Y257300D02*
D03*
Y262300D02*
D03*
Y267300D02*
D03*
Y272300D02*
D03*
D121*
X287127Y276485D02*
D03*
X285158D02*
D03*
X283190D02*
D03*
X281221D02*
D03*
X279253D02*
D03*
X277284D02*
D03*
X275316D02*
D03*
X273347D02*
D03*
X271379D02*
D03*
X269410D02*
D03*
X267442D02*
D03*
X265473D02*
D03*
Y243115D02*
D03*
X267442D02*
D03*
X269410D02*
D03*
X271379D02*
D03*
X273347D02*
D03*
X275316D02*
D03*
X277284D02*
D03*
X279253D02*
D03*
X281221D02*
D03*
X283190D02*
D03*
X285158D02*
D03*
X287127D02*
D03*
D122*
X259615Y270627D02*
D03*
Y268658D02*
D03*
Y266690D02*
D03*
Y264721D02*
D03*
Y262753D02*
D03*
Y260784D02*
D03*
Y258816D02*
D03*
Y256847D02*
D03*
Y254879D02*
D03*
Y252910D02*
D03*
Y250942D02*
D03*
Y248973D02*
D03*
X292985D02*
D03*
Y250942D02*
D03*
Y252910D02*
D03*
Y254879D02*
D03*
Y256847D02*
D03*
Y258816D02*
D03*
Y260784D02*
D03*
Y262753D02*
D03*
Y264721D02*
D03*
Y266690D02*
D03*
Y268658D02*
D03*
Y270627D02*
D03*
D123*
X255000Y326177D02*
D03*
Y336423D02*
D03*
D124*
X233900Y350301D02*
D03*
Y362899D02*
D03*
D125*
X161378Y404000D02*
D03*
Y409000D02*
D03*
Y414000D02*
D03*
Y419000D02*
D03*
X183622Y404000D02*
D03*
Y409000D02*
D03*
Y414000D02*
D03*
Y419000D02*
D03*
X228622D02*
D03*
Y414000D02*
D03*
Y409000D02*
D03*
Y404000D02*
D03*
X206378Y419000D02*
D03*
Y414000D02*
D03*
Y409000D02*
D03*
Y404000D02*
D03*
D126*
X208159Y391500D02*
D03*
X215841Y387760D02*
D03*
X161660Y391000D02*
D03*
X169341Y387260D02*
D03*
D127*
X215841Y395240D02*
D03*
X169341Y394740D02*
D03*
D128*
X149500Y415600D02*
D03*
Y409301D02*
D03*
X196200Y408650D02*
D03*
Y414950D02*
D03*
D129*
X216500Y472500D02*
D03*
D130*
X190122Y481516D02*
D03*
Y463484D02*
D03*
D131*
X198742Y453200D02*
D03*
X191458D02*
D03*
D132*
X231447Y266300D02*
D03*
X237353D02*
D03*
D133*
X249648Y258166D02*
D03*
Y266434D02*
D03*
X243152D02*
D03*
Y258166D02*
D03*
D134*
X175800Y435500D02*
Y436656D01*
X191458Y452314D01*
Y453200D01*
X190188Y454470D02*
Y463418D01*
X190122Y463484D02*
X190188Y463418D01*
Y454470D02*
X191458Y453200D01*
M02*
