G04*
G04 #@! TF.GenerationSoftware,Altium Limited,Altium Designer,23.5.1 (21)*
G04*
G04 Layer_Color=8388736*
%FSLAX25Y25*%
%MOIN*%
G70*
G04*
G04 #@! TF.SameCoordinates,80D67788-F2EE-4A8B-BDA7-D5AA6EA99E9C*
G04*
G04*
G04 #@! TF.FilePolarity,Negative*
G04*
G01*
G75*
%ADD19R,0.03937X0.02953*%
%ADD20R,0.02985X0.03197*%
%ADD24R,0.01575X0.01968*%
%ADD31R,0.08000X0.04500*%
%ADD33R,0.06922X0.04551*%
%ADD34R,0.04551X0.06922*%
%ADD35R,0.07480X0.09449*%
%ADD38R,0.05591X0.08386*%
%ADD43R,0.03543X0.02953*%
%ADD44R,0.03963X0.05544*%
%ADD48R,0.20866X0.06693*%
%ADD49R,0.12598X0.04724*%
%ADD50R,0.05118X0.06102*%
%ADD55O,0.07677X0.01772*%
%ADD56O,0.01772X0.07677*%
%ADD57R,0.04134X0.04528*%
%ADD58R,0.04528X0.04134*%
%ADD59R,0.03740X0.05512*%
%ADD60R,0.05512X0.03740*%
%ADD61R,0.01575X0.03248*%
%ADD62R,0.03248X0.01575*%
%ADD63R,0.05906X0.04528*%
%ADD64R,0.05315X0.05315*%
%ADD65R,0.04921X0.05512*%
%ADD66R,0.03150X0.02953*%
%ADD67R,0.06299X0.05906*%
%ADD68R,0.02756X0.02362*%
%ADD69R,0.05315X0.05315*%
%ADD70R,0.04724X0.04134*%
%ADD71R,0.03150X0.02165*%
%ADD72R,0.02953X0.05118*%
%ADD73R,0.05118X0.07677*%
%ADD74R,0.03740X0.04528*%
%ADD75R,0.03740X0.05315*%
%ADD76R,0.06496X0.08465*%
%ADD77R,0.15551X0.08268*%
%ADD78R,0.03740X0.02953*%
%ADD79C,0.11614*%
%ADD80C,0.17520*%
%ADD81C,0.08858*%
%ADD82C,0.06102*%
%ADD83C,0.07205*%
%ADD84C,0.10039*%
%ADD85C,0.19784*%
%ADD86C,0.12547*%
%ADD87C,0.05315*%
%ADD88C,0.02362*%
D19*
X282400Y309953D02*
D03*
Y304047D02*
D03*
X241900Y338847D02*
D03*
Y344753D02*
D03*
X243500Y328747D02*
D03*
Y334653D02*
D03*
X244800Y322653D02*
D03*
Y316747D02*
D03*
X250600Y319853D02*
D03*
Y313947D02*
D03*
X265900Y241347D02*
D03*
Y247253D02*
D03*
X259700Y301847D02*
D03*
Y307753D02*
D03*
X265200Y310053D02*
D03*
Y304147D02*
D03*
X270800Y304047D02*
D03*
Y309953D02*
D03*
X276600D02*
D03*
Y304047D02*
D03*
X288000Y312653D02*
D03*
Y306747D02*
D03*
X295500Y312553D02*
D03*
Y306647D02*
D03*
X314200Y308147D02*
D03*
Y314053D02*
D03*
X320100Y320653D02*
D03*
Y314747D02*
D03*
D20*
X239069Y375600D02*
D03*
X234132D02*
D03*
D24*
X235225Y380700D02*
D03*
X238375D02*
D03*
D31*
X163539Y391250D02*
D03*
Y401750D02*
D03*
D33*
X169500Y346885D02*
D03*
Y358115D02*
D03*
D34*
X185000Y370500D02*
D03*
X173771D02*
D03*
D35*
X229471Y346000D02*
D03*
X213329D02*
D03*
D38*
X284685Y243800D02*
D03*
X295315D02*
D03*
D43*
X301700Y307038D02*
D03*
Y311762D02*
D03*
X329000Y390362D02*
D03*
Y385638D02*
D03*
D44*
X351156Y364800D02*
D03*
X358644D02*
D03*
D48*
X390677Y416902D02*
D03*
Y492098D02*
D03*
D49*
X369102Y426941D02*
D03*
Y434815D02*
D03*
Y442689D02*
D03*
Y450563D02*
D03*
Y458437D02*
D03*
Y466311D02*
D03*
Y474185D02*
D03*
Y482059D02*
D03*
D50*
X346858Y463650D02*
D03*
Y432350D02*
D03*
X329142Y463650D02*
D03*
Y432350D02*
D03*
D55*
X253276Y373622D02*
D03*
Y371654D02*
D03*
Y369685D02*
D03*
Y367717D02*
D03*
Y365748D02*
D03*
Y363779D02*
D03*
Y361811D02*
D03*
Y359842D02*
D03*
Y357874D02*
D03*
Y355906D02*
D03*
Y353937D02*
D03*
Y351969D02*
D03*
Y350000D02*
D03*
Y348031D02*
D03*
Y346063D02*
D03*
Y344094D02*
D03*
Y342126D02*
D03*
Y340158D02*
D03*
Y338189D02*
D03*
Y336221D02*
D03*
Y334252D02*
D03*
Y332283D02*
D03*
Y330315D02*
D03*
Y328346D02*
D03*
Y326378D02*
D03*
X312724D02*
D03*
Y328346D02*
D03*
Y330315D02*
D03*
Y332283D02*
D03*
Y334252D02*
D03*
Y336221D02*
D03*
Y338189D02*
D03*
Y340158D02*
D03*
Y342126D02*
D03*
Y344094D02*
D03*
Y346063D02*
D03*
Y348031D02*
D03*
Y350000D02*
D03*
Y351969D02*
D03*
Y353937D02*
D03*
Y355906D02*
D03*
Y357874D02*
D03*
Y359842D02*
D03*
Y361811D02*
D03*
Y363779D02*
D03*
Y365748D02*
D03*
Y367717D02*
D03*
Y369685D02*
D03*
Y371654D02*
D03*
Y373622D02*
D03*
D56*
X259378Y320276D02*
D03*
X261347D02*
D03*
X263315D02*
D03*
X265283D02*
D03*
X267252D02*
D03*
X269220D02*
D03*
X271189D02*
D03*
X273158D02*
D03*
X275126D02*
D03*
X277095D02*
D03*
X279063D02*
D03*
X281031D02*
D03*
X283000D02*
D03*
X284968D02*
D03*
X286937D02*
D03*
X288906D02*
D03*
X290874D02*
D03*
X292843D02*
D03*
X294811D02*
D03*
X296779D02*
D03*
X298748D02*
D03*
X300716D02*
D03*
X302685D02*
D03*
X304654D02*
D03*
X306622D02*
D03*
Y379724D02*
D03*
X304654D02*
D03*
X302685D02*
D03*
X300716D02*
D03*
X298748D02*
D03*
X296779D02*
D03*
X294811D02*
D03*
X292843D02*
D03*
X290874D02*
D03*
X288906D02*
D03*
X286937D02*
D03*
X284968D02*
D03*
X283000D02*
D03*
X281031D02*
D03*
X279063D02*
D03*
X277095D02*
D03*
X275126D02*
D03*
X273158D02*
D03*
X271189D02*
D03*
X269220D02*
D03*
X267252D02*
D03*
X265283D02*
D03*
X263315D02*
D03*
X261347D02*
D03*
X259378D02*
D03*
D57*
X241858Y355600D02*
D03*
X236543D02*
D03*
X242357Y363500D02*
D03*
X237042D02*
D03*
X234142Y386100D02*
D03*
X239458D02*
D03*
X339657Y476500D02*
D03*
X334343D02*
D03*
X305258Y276900D02*
D03*
X299942D02*
D03*
Y270900D02*
D03*
X305258D02*
D03*
X299985Y264900D02*
D03*
X305300D02*
D03*
D58*
X287000Y427572D02*
D03*
Y422258D02*
D03*
X217000Y429685D02*
D03*
Y435000D02*
D03*
X209000Y429843D02*
D03*
Y435157D02*
D03*
X307700Y312057D02*
D03*
Y306743D02*
D03*
X321000Y385343D02*
D03*
Y390657D02*
D03*
D59*
X234350Y401500D02*
D03*
X240650D02*
D03*
X259850Y415000D02*
D03*
X266150D02*
D03*
X269150Y423500D02*
D03*
X262850D02*
D03*
X240450Y394400D02*
D03*
X234150D02*
D03*
D60*
X233000Y435650D02*
D03*
Y429350D02*
D03*
X225000D02*
D03*
Y435650D02*
D03*
X212500Y399150D02*
D03*
Y392850D02*
D03*
X204500Y399150D02*
D03*
Y392850D02*
D03*
D61*
X213094Y416587D02*
D03*
X215063D02*
D03*
X217032D02*
D03*
X219000D02*
D03*
X220969D02*
D03*
X222937D02*
D03*
X224905D02*
D03*
Y407413D02*
D03*
X222937D02*
D03*
X220969D02*
D03*
X219000D02*
D03*
X217032D02*
D03*
X215063D02*
D03*
X213094D02*
D03*
D62*
X226539Y412000D02*
D03*
X211461D02*
D03*
D63*
X180039Y394413D02*
D03*
Y401500D02*
D03*
D64*
X173039Y393823D02*
D03*
Y402091D02*
D03*
D65*
X216400Y334146D02*
D03*
Y327453D02*
D03*
X224900Y334146D02*
D03*
Y327453D02*
D03*
D66*
X243027Y349200D02*
D03*
X246373D02*
D03*
D67*
X269300Y252950D02*
D03*
Y259250D02*
D03*
X277300Y252350D02*
D03*
Y258650D02*
D03*
X284900Y251850D02*
D03*
Y258150D02*
D03*
D68*
X387624Y270800D02*
D03*
X390576D02*
D03*
D69*
X390896Y275400D02*
D03*
X399164D02*
D03*
D70*
X334300Y296642D02*
D03*
Y301958D02*
D03*
D71*
X365300Y381939D02*
D03*
Y386861D02*
D03*
D72*
X345260Y406421D02*
D03*
X352740D02*
D03*
Y396579D02*
D03*
X349000D02*
D03*
X345260D02*
D03*
X355240Y483079D02*
D03*
X347760D02*
D03*
Y492921D02*
D03*
X351500D02*
D03*
X355240D02*
D03*
D73*
X319693Y420500D02*
D03*
X331307D02*
D03*
X232693Y454500D02*
D03*
X244307D02*
D03*
X232693Y465500D02*
D03*
X244307D02*
D03*
Y477000D02*
D03*
X232693D02*
D03*
X244807Y488000D02*
D03*
X233193D02*
D03*
D74*
X343547Y420500D02*
D03*
X349453D02*
D03*
X337747Y365400D02*
D03*
X343653D02*
D03*
D75*
X300161Y455000D02*
D03*
X295831D02*
D03*
X291500D02*
D03*
X287169D02*
D03*
X282839D02*
D03*
X278508D02*
D03*
X274177D02*
D03*
X269847D02*
D03*
D76*
X260122Y446339D02*
D03*
X314807D02*
D03*
Y478622D02*
D03*
X260122D02*
D03*
D77*
X124902Y472835D02*
D03*
X158563D02*
D03*
D78*
X334100Y305641D02*
D03*
Y310759D02*
D03*
X275200Y246959D02*
D03*
Y241841D02*
D03*
X271200Y247159D02*
D03*
Y242041D02*
D03*
D79*
X142996Y378592D02*
D03*
Y362844D02*
D03*
Y347096D02*
D03*
Y331348D02*
D03*
Y315600D02*
D03*
X127248Y370718D02*
D03*
Y354970D02*
D03*
Y339222D02*
D03*
Y323474D02*
D03*
X111500Y378592D02*
D03*
Y362844D02*
D03*
Y347096D02*
D03*
Y331348D02*
D03*
Y315600D02*
D03*
D80*
X125279Y404183D02*
D03*
Y290009D02*
D03*
D81*
X256000Y400500D02*
D03*
X246000Y415500D02*
D03*
X175800Y461700D02*
D03*
Y435500D02*
D03*
X175900Y487600D02*
D03*
D82*
X356508Y322384D02*
D03*
X364500Y318369D02*
D03*
Y310337D02*
D03*
X356508Y306321D02*
D03*
Y314353D02*
D03*
X364500Y326400D02*
D03*
X356508Y330416D02*
D03*
X364500Y334432D02*
D03*
D83*
X344815Y345853D02*
D03*
Y304900D02*
D03*
Y294900D02*
D03*
Y335853D02*
D03*
D84*
X397807Y351636D02*
D03*
Y289117D02*
D03*
D85*
X384185Y297876D02*
D03*
Y342876D02*
D03*
D86*
X396458Y370880D02*
D03*
Y399621D02*
D03*
D87*
X376576Y391550D02*
D03*
X381300Y388400D02*
D03*
X376576Y385250D02*
D03*
X381300Y382101D02*
D03*
X376576Y378951D02*
D03*
D88*
X359900Y496900D02*
D03*
X369600Y486300D02*
D03*
X321400Y248800D02*
D03*
X243000Y252200D02*
D03*
X246900Y354100D02*
D03*
X324100Y260000D02*
D03*
X261200Y355900D02*
D03*
X256623Y383233D02*
D03*
X318514Y355900D02*
D03*
X263560Y314815D02*
D03*
X261300Y314400D02*
D03*
X154800Y414100D02*
D03*
X233800Y418400D02*
D03*
X201000Y413800D02*
D03*
X228400Y358900D02*
D03*
X233300Y359545D02*
D03*
X233400Y338900D02*
D03*
X247300Y363700D02*
D03*
X268200Y235486D02*
D03*
X276800D02*
D03*
X271400D02*
D03*
X369800Y391200D02*
D03*
X255628Y484100D02*
D03*
X232693Y471250D02*
D03*
X235600Y420200D02*
D03*
X321000Y271000D02*
D03*
X320050Y246127D02*
D03*
X289900Y246100D02*
D03*
X254136Y249910D02*
D03*
X254800Y247200D02*
D03*
X299700Y260500D02*
D03*
X246951Y270627D02*
D03*
X208500Y395500D02*
D03*
X179090Y359914D02*
D03*
X328400Y366100D02*
D03*
X327770Y368430D02*
D03*
X337600Y310800D02*
D03*
X261561Y336500D02*
D03*
X247454Y309700D02*
D03*
X264550Y370650D02*
D03*
X269300Y238000D02*
D03*
X273361Y238039D02*
D03*
X277500Y237800D02*
D03*
X254973Y262679D02*
D03*
X303000Y302900D02*
D03*
X290400Y277100D02*
D03*
X247414Y333800D02*
D03*
X247400Y336100D02*
D03*
X309300Y315900D02*
D03*
X290800Y422400D02*
D03*
X290900Y427700D02*
D03*
X243123Y375533D02*
D03*
X230723Y380833D02*
D03*
X277200Y263500D02*
D03*
X363400Y364200D02*
D03*
X320200Y354000D02*
D03*
X322600Y378200D02*
D03*
X318700Y333100D02*
D03*
X227100Y396500D02*
D03*
X228200Y393900D02*
D03*
X220700Y321900D02*
D03*
X231324Y367776D02*
D03*
X271400Y387100D02*
D03*
X245000Y405200D02*
D03*
X348800Y389500D02*
D03*
X346800Y414800D02*
D03*
X345500Y410900D02*
D03*
X325700Y381800D02*
D03*
X360000Y457800D02*
D03*
X383300Y409800D02*
D03*
X211400Y372700D02*
D03*
X178700Y354000D02*
D03*
X243200Y387700D02*
D03*
X227100Y391400D02*
D03*
X230300Y398500D02*
D03*
X248800Y387300D02*
D03*
X269000Y385700D02*
D03*
X271700Y389800D02*
D03*
X236100Y410500D02*
D03*
X278508Y431108D02*
D03*
X250417Y435650D02*
D03*
X221000Y422814D02*
D03*
X337427Y420500D02*
D03*
X360862Y477638D02*
D03*
X334000Y394500D02*
D03*
X329142Y470984D02*
D03*
X399100Y270700D02*
D03*
X198000Y391500D02*
D03*
X212500Y443000D02*
D03*
X230500Y441500D02*
D03*
X198000Y397500D02*
D03*
X155000Y405500D02*
D03*
X277000Y387500D02*
D03*
X275000Y390000D02*
D03*
X294528Y392500D02*
D03*
X297000Y395000D02*
D03*
X299000Y392000D02*
D03*
X288000Y407500D02*
D03*
X274000Y430000D02*
D03*
X269000Y431500D02*
D03*
M02*
