G04*
G04 #@! TF.GenerationSoftware,Altium Limited,Altium Designer,23.5.1 (21)*
G04*
G04 Layer_Color=65535*
%FSLAX25Y25*%
%MOIN*%
G70*
G04*
G04 #@! TF.SameCoordinates,80D67788-F2EE-4A8B-BDA7-D5AA6EA99E9C*
G04*
G04*
G04 #@! TF.FilePolarity,Positive*
G04*
G01*
G75*
%ADD10C,0.00984*%
%ADD11C,0.02362*%
%ADD12C,0.00787*%
%ADD13C,0.00394*%
%ADD14C,0.01575*%
%ADD15C,0.00300*%
%ADD16C,0.00591*%
%ADD17C,0.01000*%
G36*
X251609Y260670D02*
X251481D01*
Y260286D01*
X251353D01*
Y260029D01*
X251224D01*
Y259644D01*
X251096D01*
Y259260D01*
X250968D01*
Y258875D01*
X250840D01*
Y258618D01*
X250711D01*
Y258234D01*
X250583D01*
Y257849D01*
X250455D01*
Y257464D01*
X246736D01*
Y257849D01*
X246864D01*
Y258234D01*
X246992D01*
Y258490D01*
X247120D01*
Y258875D01*
X247249D01*
Y259260D01*
X247377D01*
Y259644D01*
X247505D01*
Y260029D01*
X247633D01*
Y260286D01*
X247762D01*
Y260670D01*
X247890D01*
Y261055D01*
X248018D01*
Y261183D01*
X251609D01*
Y260670D01*
D02*
G37*
G36*
X244042D02*
X243914D01*
Y260286D01*
X243786D01*
Y260029D01*
X243658D01*
Y259644D01*
X243530D01*
Y259260D01*
X243401D01*
Y258875D01*
X243273D01*
Y258618D01*
X243145D01*
Y258234D01*
X243017D01*
Y257849D01*
X242888D01*
Y257593D01*
X242760D01*
Y257464D01*
X239169D01*
Y257849D01*
X239297D01*
Y258234D01*
X239426D01*
Y258618D01*
X239554D01*
Y258875D01*
X239682D01*
Y259260D01*
X239810D01*
Y259644D01*
X239939D01*
Y259901D01*
X240067D01*
Y260286D01*
X240195D01*
Y260670D01*
X240323D01*
Y261055D01*
X240452D01*
Y261183D01*
X244042D01*
Y260670D01*
D02*
G37*
G36*
X246479Y256951D02*
X246351D01*
Y256567D01*
X246223D01*
Y256310D01*
X246094D01*
Y255925D01*
X245966D01*
Y255540D01*
X245838D01*
Y255284D01*
X245710D01*
Y254899D01*
X245582D01*
Y254515D01*
X245453D01*
Y254130D01*
X245325D01*
Y253873D01*
X245197D01*
Y253617D01*
X245325D01*
Y253489D01*
X248659D01*
Y253617D01*
X248788D01*
Y253489D01*
X248916D01*
Y253360D01*
X248788D01*
Y252976D01*
X248659D01*
Y252591D01*
X248531D01*
Y252206D01*
X248403D01*
Y251950D01*
X248275D01*
Y251565D01*
X248146D01*
Y251180D01*
X248018D01*
Y250795D01*
X247890D01*
Y250411D01*
X247762D01*
Y250154D01*
X247633D01*
Y249898D01*
X247505D01*
Y249769D01*
X243914D01*
Y250154D01*
X244042D01*
Y250411D01*
X244171D01*
Y250795D01*
X244299D01*
Y251180D01*
X244427D01*
Y251565D01*
X244555D01*
Y251821D01*
X244684D01*
Y252206D01*
X244812D01*
Y252591D01*
X244940D01*
Y252976D01*
X245069D01*
Y253232D01*
X245197D01*
Y253617D01*
X241478D01*
Y253745D01*
X241606D01*
Y254130D01*
X241734D01*
Y254515D01*
X241862D01*
Y254899D01*
X241991D01*
Y255156D01*
X242119D01*
Y255540D01*
X242247D01*
Y255925D01*
X242375D01*
Y256310D01*
X242504D01*
Y256567D01*
X242632D01*
Y256951D01*
X242760D01*
Y257336D01*
X246479D01*
Y256951D01*
D02*
G37*
G36*
X193001Y261055D02*
X192873D01*
Y260670D01*
X192744D01*
Y260286D01*
X192616D01*
Y259901D01*
X192488D01*
Y259644D01*
X192359D01*
Y259260D01*
X192231D01*
Y258875D01*
X192103D01*
Y258490D01*
X191975D01*
Y258234D01*
X191847D01*
Y257849D01*
X191718D01*
Y257464D01*
X191590D01*
Y257080D01*
X191462D01*
Y256823D01*
X191333D01*
Y256438D01*
X191205D01*
Y256053D01*
X191077D01*
Y255669D01*
X190949D01*
Y255412D01*
X190821D01*
Y255028D01*
X190692D01*
Y254643D01*
X190564D01*
Y254258D01*
X190436D01*
Y254002D01*
X190307D01*
Y253617D01*
X190179D01*
Y253232D01*
X190051D01*
Y252847D01*
X189923D01*
Y252591D01*
X189795D01*
Y252206D01*
X189666D01*
Y251821D01*
X189538D01*
Y251437D01*
X189410D01*
Y251180D01*
X189282D01*
Y250795D01*
X189153D01*
Y250411D01*
X189025D01*
Y250026D01*
X188897D01*
Y249769D01*
X188769D01*
Y249385D01*
X188640D01*
Y249000D01*
X188512D01*
Y248615D01*
X188384D01*
Y248359D01*
X188256D01*
Y247974D01*
X188127D01*
Y247589D01*
X187999D01*
Y247205D01*
X187871D01*
Y246820D01*
X187743D01*
Y246563D01*
X187614D01*
Y246179D01*
X187486D01*
Y245794D01*
X187358D01*
Y245537D01*
X187230D01*
Y245153D01*
X187101D01*
Y244768D01*
X186973D01*
Y244383D01*
X186845D01*
Y244127D01*
X186717D01*
Y243742D01*
X186588D01*
Y243357D01*
X186460D01*
Y242972D01*
X186332D01*
Y242716D01*
X186204D01*
Y242331D01*
X186075D01*
Y242203D01*
X152603D01*
Y242460D01*
X152732D01*
Y242716D01*
X152860D01*
Y243101D01*
X152988D01*
Y243485D01*
X153116D01*
Y243742D01*
X153244D01*
Y244127D01*
X153373D01*
Y244511D01*
X153501D01*
Y244896D01*
X153629D01*
Y245281D01*
X153758D01*
Y245537D01*
X153886D01*
Y245922D01*
X154014D01*
Y246307D01*
X154142D01*
Y246692D01*
X154271D01*
Y246948D01*
X154399D01*
Y247333D01*
X154527D01*
Y247717D01*
X154655D01*
Y247974D01*
X154783D01*
Y248359D01*
X154912D01*
Y248744D01*
X155040D01*
Y249128D01*
X155168D01*
Y249513D01*
X155296D01*
Y249769D01*
X155425D01*
Y250154D01*
X155553D01*
Y250539D01*
X155681D01*
Y250795D01*
X155809D01*
Y251180D01*
X155938D01*
Y251565D01*
X156066D01*
Y251950D01*
X156194D01*
Y252334D01*
X156322D01*
Y252591D01*
X156451D01*
Y252976D01*
X156579D01*
Y253360D01*
X156707D01*
Y253745D01*
X156835D01*
Y254002D01*
X156964D01*
Y254386D01*
X157092D01*
Y254771D01*
X157220D01*
Y255156D01*
X157348D01*
Y255412D01*
X157477D01*
Y255797D01*
X157605D01*
Y256182D01*
X157733D01*
Y256567D01*
X157861D01*
Y256823D01*
X157990D01*
Y257208D01*
X158118D01*
Y257593D01*
X158246D01*
Y257977D01*
X158374D01*
Y258234D01*
X158503D01*
Y258618D01*
X158631D01*
Y259003D01*
X158759D01*
Y259388D01*
X158887D01*
Y259644D01*
X159016D01*
Y260029D01*
X159144D01*
Y260414D01*
X159272D01*
Y260799D01*
X159400D01*
Y261055D01*
X159529D01*
Y261183D01*
X166710D01*
Y260670D01*
X166582D01*
Y260286D01*
X166454D01*
Y260029D01*
X166326D01*
Y259644D01*
X166197D01*
Y259260D01*
X166069D01*
Y259003D01*
X165941D01*
Y258618D01*
X165813D01*
Y258234D01*
X165684D01*
Y257849D01*
X165556D01*
Y257593D01*
X165428D01*
Y257208D01*
X165300D01*
Y256823D01*
X165171D01*
Y256438D01*
X165043D01*
Y256053D01*
X164915D01*
Y255797D01*
X164787D01*
Y255412D01*
X164658D01*
Y255028D01*
X164530D01*
Y254643D01*
X164402D01*
Y254386D01*
X164274D01*
Y254002D01*
X164145D01*
Y253617D01*
X164017D01*
Y253232D01*
X163889D01*
Y252976D01*
X163761D01*
Y252591D01*
X163632D01*
Y252206D01*
X163504D01*
Y251821D01*
X163376D01*
Y251565D01*
X163248D01*
Y251180D01*
X163119D01*
Y250795D01*
X162991D01*
Y250411D01*
X162863D01*
Y250154D01*
X162735D01*
Y249769D01*
X162606D01*
Y249385D01*
X162478D01*
Y249000D01*
X162350D01*
Y248744D01*
X162222D01*
Y248359D01*
X162093D01*
Y247974D01*
X161965D01*
Y247589D01*
X161837D01*
Y247205D01*
X161709D01*
Y246948D01*
X161581D01*
Y246563D01*
X167351D01*
Y246820D01*
X167480D01*
Y247205D01*
X167608D01*
Y247461D01*
X167736D01*
Y247846D01*
X167865D01*
Y248231D01*
X167993D01*
Y248615D01*
X168121D01*
Y249000D01*
X168249D01*
Y249256D01*
X168377D01*
Y249641D01*
X168506D01*
Y250026D01*
X168634D01*
Y250411D01*
X168762D01*
Y250667D01*
X168891D01*
Y251052D01*
X169019D01*
Y251437D01*
X169147D01*
Y251821D01*
X169275D01*
Y252078D01*
X169404D01*
Y252463D01*
X169532D01*
Y252847D01*
X169660D01*
Y253232D01*
X169788D01*
Y253489D01*
X169916D01*
Y253873D01*
X170045D01*
Y254258D01*
X170173D01*
Y254643D01*
X170301D01*
Y254899D01*
X170429D01*
Y255284D01*
X170558D01*
Y255669D01*
X170686D01*
Y256053D01*
X170814D01*
Y256310D01*
X170942D01*
Y256695D01*
X171071D01*
Y257080D01*
X171199D01*
Y257464D01*
X171327D01*
Y257721D01*
X171455D01*
Y258105D01*
X171584D01*
Y258490D01*
X171712D01*
Y258875D01*
X171840D01*
Y259131D01*
X171968D01*
Y259516D01*
X172097D01*
Y259901D01*
X172225D01*
Y260286D01*
X172353D01*
Y260542D01*
X172481D01*
Y260927D01*
X172610D01*
Y261183D01*
X179791D01*
Y260670D01*
X179663D01*
Y260286D01*
X179535D01*
Y260029D01*
X179407D01*
Y259644D01*
X179278D01*
Y259260D01*
X179150D01*
Y258875D01*
X179022D01*
Y258618D01*
X178894D01*
Y258234D01*
X178765D01*
Y257849D01*
X178637D01*
Y257464D01*
X178509D01*
Y257208D01*
X178381D01*
Y256823D01*
X178252D01*
Y256438D01*
X178124D01*
Y256053D01*
X177996D01*
Y255797D01*
X177868D01*
Y255412D01*
X177740D01*
Y255028D01*
X177611D01*
Y254771D01*
X177483D01*
Y254386D01*
X177355D01*
Y254002D01*
X177226D01*
Y253617D01*
X177098D01*
Y253232D01*
X176970D01*
Y252976D01*
X176842D01*
Y252591D01*
X176714D01*
Y252206D01*
X176585D01*
Y251821D01*
X176457D01*
Y251437D01*
X176329D01*
Y251180D01*
X176200D01*
Y250795D01*
X176072D01*
Y250411D01*
X175944D01*
Y250026D01*
X175816D01*
Y249769D01*
X175688D01*
Y249385D01*
X175559D01*
Y249000D01*
X175431D01*
Y248744D01*
X175303D01*
Y248359D01*
X175174D01*
Y247974D01*
X175046D01*
Y247717D01*
X174918D01*
Y247333D01*
X174790D01*
Y246948D01*
X174662D01*
Y246563D01*
X180433D01*
Y246820D01*
X180561D01*
Y247205D01*
X180689D01*
Y247589D01*
X180817D01*
Y247974D01*
X180946D01*
Y248231D01*
X181074D01*
Y248615D01*
X181202D01*
Y249000D01*
X181330D01*
Y249385D01*
X181459D01*
Y249641D01*
X181587D01*
Y250026D01*
X181715D01*
Y250411D01*
X181843D01*
Y250795D01*
X181972D01*
Y251052D01*
X182100D01*
Y251437D01*
X182228D01*
Y251821D01*
X182356D01*
Y252206D01*
X182484D01*
Y252463D01*
X182613D01*
Y252847D01*
X182741D01*
Y253232D01*
X182869D01*
Y253617D01*
X182998D01*
Y254002D01*
X183126D01*
Y254258D01*
X183254D01*
Y254643D01*
X183382D01*
Y255028D01*
X183510D01*
Y255412D01*
X183639D01*
Y255669D01*
X183767D01*
Y256053D01*
X183895D01*
Y256438D01*
X184023D01*
Y256695D01*
X184152D01*
Y257080D01*
X184280D01*
Y257464D01*
X184408D01*
Y257849D01*
X184537D01*
Y258234D01*
X184665D01*
Y258490D01*
X184793D01*
Y258875D01*
X184921D01*
Y259260D01*
X185049D01*
Y259644D01*
X185178D01*
Y259901D01*
X185306D01*
Y260286D01*
X185434D01*
Y260670D01*
X185562D01*
Y261055D01*
X185691D01*
Y261183D01*
X193001D01*
Y261055D01*
D02*
G37*
G36*
X157733Y260670D02*
X157605D01*
Y260414D01*
X157477D01*
Y260029D01*
X157348D01*
Y259644D01*
X157220D01*
Y259388D01*
X157092D01*
Y259003D01*
X156964D01*
Y258618D01*
X156835D01*
Y258234D01*
X156707D01*
Y257849D01*
X156579D01*
Y257593D01*
X156451D01*
Y257208D01*
X156322D01*
Y256823D01*
X156194D01*
Y256438D01*
X156066D01*
Y256182D01*
X155938D01*
Y255797D01*
X155809D01*
Y255412D01*
X155681D01*
Y255028D01*
X155553D01*
Y254771D01*
X155425D01*
Y254386D01*
X155296D01*
Y254002D01*
X155168D01*
Y253617D01*
X155040D01*
Y253360D01*
X154912D01*
Y252976D01*
X154783D01*
Y252591D01*
X154655D01*
Y252206D01*
X154527D01*
Y251950D01*
X154399D01*
Y251565D01*
X154271D01*
Y251180D01*
X154142D01*
Y250795D01*
X154014D01*
Y250539D01*
X153886D01*
Y250154D01*
X153758D01*
Y249769D01*
X153629D01*
Y249385D01*
X153501D01*
Y249128D01*
X153373D01*
Y248744D01*
X153244D01*
Y248359D01*
X153116D01*
Y247974D01*
X152988D01*
Y247717D01*
X152860D01*
Y247333D01*
X152732D01*
Y246948D01*
X152603D01*
Y246563D01*
X152475D01*
Y246307D01*
X152347D01*
Y245922D01*
X152218D01*
Y245537D01*
X152090D01*
Y245153D01*
X151962D01*
Y244896D01*
X151834D01*
Y244511D01*
X151706D01*
Y244127D01*
X151577D01*
Y243742D01*
X151449D01*
Y243485D01*
X151321D01*
Y243101D01*
X151193D01*
Y242716D01*
X151064D01*
Y242331D01*
X150936D01*
Y242203D01*
X126185D01*
Y242331D01*
X126313D01*
Y242716D01*
X126441D01*
Y243101D01*
X126569D01*
Y243485D01*
X126698D01*
Y243742D01*
X126826D01*
Y244127D01*
X126954D01*
Y244511D01*
X127082D01*
Y244896D01*
X127211D01*
Y245281D01*
X127339D01*
Y245666D01*
X127467D01*
Y245922D01*
X127595D01*
Y246307D01*
X127724D01*
Y246692D01*
X127852D01*
Y247076D01*
X127980D01*
Y247461D01*
X128108D01*
Y247717D01*
X128237D01*
Y248102D01*
X128365D01*
Y248487D01*
X128493D01*
Y248744D01*
X128621D01*
Y249128D01*
X128750D01*
Y249513D01*
X128878D01*
Y249898D01*
X129006D01*
Y250283D01*
X129134D01*
Y250539D01*
X129262D01*
Y250924D01*
X129391D01*
Y251308D01*
X129519D01*
Y251693D01*
X129647D01*
Y251950D01*
X129776D01*
Y252334D01*
X129904D01*
Y252719D01*
X130032D01*
Y253104D01*
X130160D01*
Y253360D01*
X130289D01*
Y253745D01*
X130417D01*
Y254130D01*
X130545D01*
Y254515D01*
X130673D01*
Y254771D01*
X130801D01*
Y255156D01*
X130930D01*
Y255540D01*
X131058D01*
Y255925D01*
X131186D01*
Y256182D01*
X131315D01*
Y256567D01*
X131443D01*
Y256951D01*
X131571D01*
Y257336D01*
X131699D01*
Y257593D01*
X131827D01*
Y257977D01*
X131956D01*
Y258362D01*
X132084D01*
Y258747D01*
X132212D01*
Y259003D01*
X132340D01*
Y259388D01*
X132469D01*
Y259773D01*
X132597D01*
Y260157D01*
X132725D01*
Y260414D01*
X132853D01*
Y260799D01*
X132982D01*
Y261055D01*
X133110D01*
Y261183D01*
X140676D01*
Y260927D01*
X140548D01*
Y260542D01*
X140420D01*
Y260157D01*
X140292D01*
Y259901D01*
X140163D01*
Y259516D01*
X140035D01*
Y259131D01*
X139907D01*
Y258747D01*
X139779D01*
Y258490D01*
X139650D01*
Y258105D01*
X139522D01*
Y257721D01*
X139394D01*
Y257336D01*
X139266D01*
Y257080D01*
X139137D01*
Y256695D01*
X139009D01*
Y256310D01*
X138881D01*
Y255925D01*
X138753D01*
Y255669D01*
X138625D01*
Y255284D01*
X138496D01*
Y254899D01*
X138368D01*
Y254515D01*
X138240D01*
Y254258D01*
X138111D01*
Y253873D01*
X137983D01*
Y253489D01*
X137855D01*
Y253104D01*
X137727D01*
Y252847D01*
X137599D01*
Y252463D01*
X137470D01*
Y252078D01*
X137342D01*
Y251693D01*
X137214D01*
Y251437D01*
X137085D01*
Y251308D01*
Y251052D01*
X136957D01*
Y250667D01*
X136829D01*
Y250283D01*
X136701D01*
Y250026D01*
X136573D01*
Y249641D01*
X136444D01*
Y249256D01*
X136316D01*
Y248872D01*
X136188D01*
Y248487D01*
X136060D01*
Y248231D01*
X135931D01*
Y247846D01*
X135803D01*
Y247461D01*
X135675D01*
Y247076D01*
X135547D01*
Y246820D01*
X135418D01*
Y246563D01*
X144139D01*
Y246820D01*
X144267D01*
Y247205D01*
X144396D01*
Y247589D01*
X144524D01*
Y247846D01*
X144652D01*
Y248231D01*
X144780D01*
Y248615D01*
X144908D01*
Y248872D01*
X145037D01*
Y249256D01*
X145165D01*
Y249641D01*
X145293D01*
Y250026D01*
X145422D01*
Y250411D01*
X145550D01*
Y250667D01*
X145678D01*
Y251052D01*
X145806D01*
Y251437D01*
X145934D01*
Y251821D01*
X146063D01*
Y252078D01*
X146191D01*
Y252463D01*
X146319D01*
Y252847D01*
X146448D01*
Y253232D01*
X146576D01*
Y253489D01*
X146704D01*
Y253873D01*
X146832D01*
Y254258D01*
X146960D01*
Y254643D01*
X147089D01*
Y254899D01*
X147217D01*
Y255284D01*
X147345D01*
Y255669D01*
X147473D01*
Y255925D01*
X147602D01*
Y256310D01*
X147730D01*
Y256695D01*
X147858D01*
Y257080D01*
X147986D01*
Y257464D01*
X148115D01*
Y257721D01*
X148243D01*
Y258105D01*
X148371D01*
Y258490D01*
X148499D01*
Y258875D01*
X148628D01*
Y259131D01*
X148756D01*
Y259516D01*
X148884D01*
Y259901D01*
X149012D01*
Y260286D01*
X149141D01*
Y260542D01*
X149269D01*
Y260927D01*
X149397D01*
Y261183D01*
X157733D01*
Y260670D01*
D02*
G37*
G36*
X237887Y253489D02*
X241349D01*
Y253360D01*
X241221D01*
Y252976D01*
X241093D01*
Y252591D01*
X240965D01*
Y252334D01*
X240836D01*
Y251950D01*
X240708D01*
Y251565D01*
X240580D01*
Y251180D01*
X240452D01*
Y250795D01*
X240323D01*
Y250411D01*
X240195D01*
Y250154D01*
X240067D01*
Y249769D01*
X243786D01*
Y249641D01*
X243658D01*
Y249256D01*
X243530D01*
Y248872D01*
X243401D01*
Y248487D01*
X243273D01*
Y248231D01*
X243145D01*
Y247846D01*
X243017D01*
Y247461D01*
X242888D01*
Y247076D01*
X242760D01*
Y246820D01*
X242632D01*
Y246435D01*
X242504D01*
Y246050D01*
X238784D01*
Y246435D01*
X238913D01*
Y246820D01*
X239041D01*
Y247076D01*
X239169D01*
Y247461D01*
X239297D01*
Y247846D01*
X239426D01*
Y248102D01*
X239554D01*
Y248487D01*
X239682D01*
Y248872D01*
X239810D01*
Y249256D01*
X239939D01*
Y249513D01*
X240067D01*
Y249769D01*
X236348D01*
Y250154D01*
X236476D01*
Y250411D01*
X236604D01*
Y250795D01*
X236733D01*
Y251180D01*
X236861D01*
Y251565D01*
X236989D01*
Y251950D01*
X237117D01*
Y252206D01*
X237245D01*
Y252591D01*
X237374D01*
Y252976D01*
X237502D01*
Y253232D01*
X237630D01*
Y253489D01*
X237758D01*
Y253617D01*
X237887D01*
Y253489D01*
D02*
G37*
G36*
X246094Y245537D02*
X245966D01*
Y245153D01*
X245838D01*
Y244768D01*
X245710D01*
Y244511D01*
X245582D01*
Y244127D01*
X245453D01*
Y243742D01*
X245325D01*
Y243357D01*
X245197D01*
Y242972D01*
X245069D01*
Y242716D01*
X244940D01*
Y242331D01*
X244812D01*
Y242203D01*
X241093D01*
Y242331D01*
X241221D01*
Y242716D01*
X241349D01*
Y242972D01*
X241478D01*
Y243357D01*
X241606D01*
Y243742D01*
X241734D01*
Y243998D01*
X241862D01*
Y244383D01*
X241991D01*
Y244768D01*
X242119D01*
Y245153D01*
X242247D01*
Y245537D01*
X242375D01*
Y245794D01*
X242504D01*
Y245922D01*
X246094D01*
Y245537D01*
D02*
G37*
G36*
X238528D02*
X238400D01*
Y245153D01*
X238271D01*
Y244768D01*
X238143D01*
Y244511D01*
X238015D01*
Y244127D01*
X237887D01*
Y243742D01*
X237758D01*
Y243357D01*
X237630D01*
Y243101D01*
X237502D01*
Y242716D01*
X237374D01*
Y242588D01*
Y242331D01*
X237245D01*
Y242203D01*
X233526D01*
Y242331D01*
X233655D01*
Y242716D01*
X233783D01*
Y242972D01*
X233911D01*
Y243357D01*
X234039D01*
Y243742D01*
X234168D01*
Y243998D01*
X234296D01*
Y244383D01*
X234424D01*
Y244768D01*
X234552D01*
Y245153D01*
X234681D01*
Y245537D01*
X234809D01*
Y245794D01*
X234937D01*
Y245922D01*
X238528D01*
Y245537D01*
D02*
G37*
G36*
X238784Y260799D02*
X238656D01*
Y260414D01*
X238528D01*
Y260029D01*
X238400D01*
Y259644D01*
X238271D01*
Y259388D01*
X238143D01*
Y259003D01*
X238015D01*
Y258618D01*
X237887D01*
Y258362D01*
X237758D01*
Y257977D01*
X237630D01*
Y257593D01*
X237502D01*
Y257336D01*
X237374D01*
Y256951D01*
X237245D01*
Y256823D01*
X225575D01*
Y256695D01*
X225447D01*
Y256310D01*
X225319D01*
Y255925D01*
X225190D01*
Y255669D01*
X225062D01*
Y255284D01*
X224934D01*
Y254899D01*
X224806D01*
Y254515D01*
X224677D01*
Y254258D01*
X224549D01*
Y253873D01*
X224421D01*
Y253489D01*
X224293D01*
Y252976D01*
X234039D01*
Y252591D01*
X233911D01*
Y252206D01*
X233783D01*
Y251950D01*
X233655D01*
Y251565D01*
X233526D01*
Y251180D01*
X233398D01*
Y250924D01*
X233270D01*
Y250539D01*
X233142D01*
Y250154D01*
X233013D01*
Y249769D01*
X232885D01*
Y249385D01*
X232757D01*
Y249256D01*
X232629D01*
Y249128D01*
X222754D01*
Y248872D01*
X222625D01*
Y248615D01*
X222497D01*
Y248231D01*
X222369D01*
Y247846D01*
X222241D01*
Y247461D01*
X222112D01*
Y247205D01*
X221984D01*
Y246820D01*
X221856D01*
Y246563D01*
X233526D01*
Y246307D01*
X233398D01*
Y245922D01*
X233270D01*
Y245537D01*
X233142D01*
Y245153D01*
X233013D01*
Y244768D01*
X232885D01*
Y244511D01*
X232757D01*
Y244127D01*
X232629D01*
Y243742D01*
X232500D01*
Y243357D01*
X232372D01*
Y243101D01*
X232244D01*
Y242716D01*
X232116D01*
Y242331D01*
X231987D01*
Y242203D01*
X213007D01*
Y242588D01*
X213135D01*
Y242972D01*
X213264D01*
Y243357D01*
X213392D01*
Y243614D01*
X213520D01*
Y243998D01*
X213648D01*
Y244383D01*
X213776D01*
Y244768D01*
X213905D01*
Y245153D01*
X214033D01*
Y245409D01*
X214161D01*
Y245794D01*
X214289D01*
Y246179D01*
X214418D01*
Y246563D01*
X214546D01*
Y246820D01*
X214674D01*
Y247205D01*
X214803D01*
Y247589D01*
X214931D01*
Y247846D01*
X215059D01*
Y248231D01*
X215187D01*
Y248615D01*
X215316D01*
Y249000D01*
X215444D01*
Y249385D01*
X215572D01*
Y249641D01*
X215700D01*
Y250026D01*
X215828D01*
Y250411D01*
X215957D01*
Y250795D01*
X216085D01*
Y251052D01*
X216213D01*
Y251437D01*
X216341D01*
Y251821D01*
X216470D01*
Y252206D01*
X216598D01*
Y252463D01*
X216726D01*
Y252847D01*
X216854D01*
Y253232D01*
X216983D01*
Y253617D01*
X217111D01*
Y253873D01*
X217239D01*
Y254258D01*
X217367D01*
Y254643D01*
X217496D01*
Y255028D01*
X217624D01*
Y255284D01*
X217752D01*
Y255669D01*
X217880D01*
Y256053D01*
X218009D01*
Y256438D01*
X218137D01*
Y256823D01*
X218265D01*
Y257080D01*
X218393D01*
Y257464D01*
X218522D01*
Y257849D01*
X218650D01*
Y258105D01*
X218778D01*
Y258490D01*
X218906D01*
Y258875D01*
X219035D01*
Y259260D01*
X219163D01*
Y259644D01*
X219291D01*
Y259901D01*
X219419D01*
Y260286D01*
X219548D01*
Y260670D01*
X219676D01*
Y260927D01*
X219804D01*
Y261183D01*
X238784D01*
Y260799D01*
D02*
G37*
G36*
X218393Y261055D02*
X218265D01*
Y260670D01*
X218137D01*
Y260286D01*
X218009D01*
Y259901D01*
X217880D01*
Y259516D01*
X217752D01*
Y259131D01*
X217624D01*
Y258875D01*
X217496D01*
Y258490D01*
X217367D01*
Y258105D01*
X217239D01*
Y257721D01*
X217111D01*
Y257464D01*
X216983D01*
Y257080D01*
X216854D01*
Y256823D01*
X201850D01*
Y256695D01*
X201721D01*
Y256438D01*
X201593D01*
Y256053D01*
X201465D01*
Y255797D01*
X201337D01*
Y255412D01*
X201208D01*
Y255028D01*
X201080D01*
Y254643D01*
X200952D01*
Y254258D01*
X200824D01*
Y254002D01*
X200695D01*
Y253617D01*
X200567D01*
Y253232D01*
X200439D01*
Y252976D01*
X209544D01*
Y252591D01*
X209416D01*
Y252334D01*
X209288D01*
Y251950D01*
X209160D01*
Y251565D01*
X209031D01*
Y251180D01*
X208903D01*
Y250924D01*
X208775D01*
Y250539D01*
X208647D01*
Y250154D01*
X208518D01*
Y249769D01*
X208390D01*
Y249513D01*
X208262D01*
Y249256D01*
X208134D01*
Y249128D01*
X199028D01*
Y249000D01*
X198900D01*
Y248615D01*
X198772D01*
Y248231D01*
X198644D01*
Y247846D01*
X198515D01*
Y247589D01*
X198387D01*
Y247205D01*
X198259D01*
Y246820D01*
X198131D01*
Y246563D01*
X198002D01*
Y246179D01*
X197874D01*
Y245794D01*
X197746D01*
Y245409D01*
X197618D01*
Y245153D01*
X197489D01*
Y244768D01*
X197361D01*
Y244383D01*
X197233D01*
Y243998D01*
X197105D01*
Y243742D01*
X196976D01*
Y243357D01*
X196848D01*
Y242972D01*
X196720D01*
Y242588D01*
X196592D01*
Y242331D01*
X196463D01*
Y242203D01*
X187743D01*
Y242331D01*
X187871D01*
Y242716D01*
X187999D01*
Y243101D01*
X188127D01*
Y243485D01*
X188256D01*
Y243870D01*
X188384D01*
Y244127D01*
X188512D01*
Y244511D01*
X188640D01*
Y244896D01*
X188769D01*
Y245281D01*
X188897D01*
Y245537D01*
X189025D01*
Y245922D01*
X189153D01*
Y246307D01*
X189282D01*
Y246563D01*
X189410D01*
Y246948D01*
X189538D01*
Y247333D01*
X189666D01*
Y247717D01*
X189795D01*
Y248102D01*
X189923D01*
Y248359D01*
X190051D01*
Y248744D01*
X190179D01*
Y249128D01*
X190307D01*
Y249513D01*
X190436D01*
Y249769D01*
X190564D01*
Y250154D01*
X190692D01*
Y250539D01*
X190821D01*
Y250924D01*
X190949D01*
Y251180D01*
X191077D01*
Y251565D01*
X191205D01*
Y251950D01*
X191333D01*
Y252334D01*
X191462D01*
Y252591D01*
X191590D01*
Y252976D01*
X191718D01*
Y253360D01*
X191847D01*
Y253745D01*
X191975D01*
Y254002D01*
X192103D01*
Y254386D01*
X192231D01*
Y254771D01*
X192359D01*
Y255156D01*
X192488D01*
Y255540D01*
X192616D01*
Y255797D01*
X192744D01*
Y256182D01*
X192873D01*
Y256567D01*
X193001D01*
Y256823D01*
X193129D01*
Y257208D01*
X193257D01*
Y257593D01*
X193385D01*
Y257977D01*
X193514D01*
Y258362D01*
X193642D01*
Y258618D01*
X193770D01*
Y259003D01*
X193898D01*
Y259388D01*
X194027D01*
Y259773D01*
X194155D01*
Y260029D01*
X194283D01*
Y260414D01*
X194411D01*
Y260799D01*
X194540D01*
Y261055D01*
X194668D01*
Y261183D01*
X218393D01*
Y261055D01*
D02*
G37*
G36*
X148115Y240664D02*
X148371D01*
Y240536D01*
X148499D01*
Y240151D01*
X148371D01*
Y240023D01*
X148115D01*
Y240151D01*
X147858D01*
Y240279D01*
X147345D01*
Y240151D01*
X147089D01*
Y239510D01*
X147217D01*
Y239382D01*
X147602D01*
Y239253D01*
X147986D01*
Y239125D01*
X148243D01*
Y238997D01*
X148371D01*
Y238869D01*
X148499D01*
Y238740D01*
X148628D01*
Y238484D01*
X148756D01*
Y237843D01*
X148628D01*
Y237586D01*
X148499D01*
Y237458D01*
X148371D01*
Y237201D01*
X148115D01*
Y237073D01*
X147730D01*
Y236945D01*
X147089D01*
Y237073D01*
X146704D01*
Y237201D01*
X146576D01*
Y237330D01*
X146319D01*
Y237458D01*
X146191D01*
Y237714D01*
X146319D01*
Y237843D01*
X146448D01*
Y237971D01*
X146704D01*
Y237843D01*
X146832D01*
Y237714D01*
X146960D01*
Y237586D01*
X147730D01*
Y237714D01*
X147858D01*
Y237843D01*
X147986D01*
Y238227D01*
Y238356D01*
X147858D01*
Y238484D01*
X147730D01*
Y238612D01*
X147473D01*
Y238740D01*
X147089D01*
Y238869D01*
X146832D01*
Y238997D01*
X146704D01*
Y239125D01*
X146448D01*
Y239382D01*
X146319D01*
Y240151D01*
X146448D01*
Y240407D01*
X146576D01*
Y240536D01*
X146832D01*
Y240664D01*
X147089D01*
Y240792D01*
X148115D01*
Y240664D01*
D02*
G37*
G36*
X244812Y240536D02*
X245325D01*
Y240407D01*
X245582D01*
Y239638D01*
X245325D01*
Y239766D01*
X245069D01*
Y239895D01*
X244171D01*
Y239766D01*
X243914D01*
Y239638D01*
X243786D01*
Y239510D01*
X243658D01*
Y239382D01*
X243530D01*
Y239125D01*
X243401D01*
Y238099D01*
X243530D01*
Y237971D01*
X243658D01*
Y237714D01*
X243786D01*
Y237586D01*
X244042D01*
Y237458D01*
X244427D01*
Y237330D01*
X244940D01*
Y237458D01*
X245197D01*
Y237586D01*
X245582D01*
Y236945D01*
X245453D01*
Y236817D01*
X245069D01*
Y236688D01*
X244171D01*
Y236817D01*
X243658D01*
Y236945D01*
X243530D01*
Y237073D01*
X243273D01*
Y237201D01*
X243145D01*
Y237330D01*
X243017D01*
Y237586D01*
X242888D01*
Y237714D01*
X242760D01*
Y238099D01*
X242632D01*
Y239253D01*
X242760D01*
Y239638D01*
X242888D01*
Y239766D01*
X243017D01*
Y240023D01*
X243145D01*
Y240151D01*
X243401D01*
Y240279D01*
X243530D01*
Y240407D01*
X243786D01*
Y240536D01*
X244427D01*
Y240664D01*
X244812D01*
Y240536D01*
D02*
G37*
G36*
X233911D02*
X234552D01*
Y240407D01*
X234681D01*
Y239638D01*
X234552D01*
Y239766D01*
X234296D01*
Y239895D01*
X233270D01*
Y239766D01*
X233013D01*
Y239510D01*
X232885D01*
Y239382D01*
X232757D01*
Y239125D01*
X232629D01*
Y238099D01*
X232757D01*
Y237843D01*
X232885D01*
Y237714D01*
X233013D01*
Y237586D01*
X233270D01*
Y237458D01*
X233655D01*
Y237330D01*
X234039D01*
Y237458D01*
X234424D01*
Y237586D01*
X234552D01*
Y237714D01*
X234681D01*
Y236817D01*
X234296D01*
Y236688D01*
X233270D01*
Y236817D01*
X232885D01*
Y236945D01*
X232629D01*
Y237073D01*
X232500D01*
Y237201D01*
X232372D01*
Y237330D01*
X232244D01*
Y237458D01*
X232116D01*
Y237714D01*
X231987D01*
Y237971D01*
X231859D01*
Y239382D01*
X231987D01*
Y239638D01*
X232116D01*
Y239766D01*
X232244D01*
Y240023D01*
X232372D01*
Y240151D01*
X232500D01*
Y240279D01*
X232757D01*
Y240407D01*
X233013D01*
Y240536D01*
X233655D01*
Y240664D01*
X233911D01*
Y240536D01*
D02*
G37*
G36*
X156579D02*
X156451D01*
Y240407D01*
X156322D01*
Y240151D01*
X156194D01*
Y240023D01*
X156066D01*
Y239766D01*
X155938D01*
Y239638D01*
X155809D01*
Y239382D01*
X155681D01*
Y239253D01*
X155553D01*
Y238997D01*
X155425D01*
Y238869D01*
X155296D01*
Y237073D01*
X154655D01*
Y238740D01*
X154527D01*
Y238997D01*
X154399D01*
Y239125D01*
X154271D01*
Y239382D01*
X154142D01*
Y239510D01*
X154014D01*
Y239766D01*
X153886D01*
Y239895D01*
X153758D01*
Y240151D01*
X153629D01*
Y240279D01*
X153501D01*
Y240536D01*
X153373D01*
Y240664D01*
X154142D01*
Y240536D01*
X154271D01*
Y240279D01*
X154399D01*
Y240151D01*
X154527D01*
Y239895D01*
X154655D01*
Y239766D01*
X154783D01*
Y239510D01*
X154912D01*
Y239382D01*
X155040D01*
Y239510D01*
X155168D01*
Y239766D01*
X155296D01*
Y240023D01*
X155425D01*
Y240151D01*
X155553D01*
Y240407D01*
X155681D01*
Y240536D01*
X155809D01*
Y240664D01*
X156579D01*
Y240536D01*
D02*
G37*
G36*
X164787D02*
X164915D01*
Y240151D01*
X163632D01*
Y239253D01*
X164787D01*
Y238740D01*
X164658D01*
Y238612D01*
X164402D01*
Y238740D01*
X164274D01*
Y238612D01*
X163889D01*
Y238740D01*
X163761D01*
Y238612D01*
X163632D01*
Y237073D01*
X162991D01*
Y238099D01*
Y238227D01*
Y240664D01*
X164787D01*
Y240536D01*
D02*
G37*
G36*
X139394Y240664D02*
X139522D01*
Y240536D01*
Y240279D01*
X139394D01*
Y240023D01*
X139266D01*
Y239766D01*
X139137D01*
Y239510D01*
X139009D01*
Y239125D01*
X138881D01*
Y238869D01*
X138753D01*
Y238612D01*
X138625D01*
Y238227D01*
X138496D01*
Y237971D01*
X138368D01*
Y237714D01*
X138240D01*
Y237458D01*
X138111D01*
Y237073D01*
X137599D01*
Y237330D01*
X137470D01*
Y237586D01*
X137342D01*
Y237843D01*
X137214D01*
Y238099D01*
X137085D01*
Y238484D01*
X136957D01*
Y238740D01*
X136829D01*
Y238997D01*
X136701D01*
Y239382D01*
X136573D01*
Y239638D01*
X136444D01*
Y239895D01*
X136316D01*
Y240151D01*
X136188D01*
Y240536D01*
X136060D01*
Y240792D01*
X136701D01*
Y240664D01*
X136829D01*
Y240407D01*
X136957D01*
Y240151D01*
X137085D01*
Y239895D01*
X137214D01*
Y239510D01*
X137342D01*
Y239253D01*
X137470D01*
Y238869D01*
X137599D01*
Y238612D01*
X137727D01*
Y238356D01*
X137983D01*
Y238740D01*
X138111D01*
Y238997D01*
X138240D01*
Y239253D01*
X138368D01*
Y239638D01*
X138496D01*
Y239895D01*
X138625D01*
Y240279D01*
X138753D01*
Y240536D01*
X138881D01*
Y240664D01*
X139009D01*
Y240792D01*
X139394D01*
Y240664D01*
D02*
G37*
G36*
X133879Y237073D02*
X133366D01*
Y237201D01*
X133238D01*
Y237330D01*
X133110D01*
Y237458D01*
X132982D01*
Y237586D01*
X132853D01*
Y237714D01*
X132725D01*
Y237843D01*
X132597D01*
Y237971D01*
X132469D01*
Y238099D01*
X132340D01*
Y238227D01*
X132212D01*
Y238356D01*
X132084D01*
Y238484D01*
X131956D01*
Y238612D01*
X131827D01*
Y238740D01*
X131699D01*
Y238869D01*
X131571D01*
Y239125D01*
X131443D01*
Y239253D01*
X131315D01*
Y239382D01*
X131186D01*
Y239510D01*
X131058D01*
Y239382D01*
X130930D01*
Y237714D01*
Y237586D01*
Y237073D01*
X130289D01*
Y240664D01*
X130417D01*
Y240792D01*
X130801D01*
Y240664D01*
X130930D01*
Y240536D01*
X131058D01*
Y240407D01*
X131186D01*
Y240279D01*
X131315D01*
Y240151D01*
X131443D01*
Y239895D01*
X131571D01*
Y239766D01*
X131699D01*
Y239638D01*
X131827D01*
Y239510D01*
X131956D01*
Y239382D01*
X132084D01*
Y239253D01*
X132212D01*
Y239125D01*
X132340D01*
Y238997D01*
X132469D01*
Y238869D01*
X132597D01*
Y238740D01*
X132725D01*
Y238612D01*
X132853D01*
Y238484D01*
X132982D01*
Y238356D01*
X133238D01*
Y238612D01*
X133110D01*
Y240407D01*
X133238D01*
Y240792D01*
X133879D01*
Y237073D01*
D02*
G37*
G36*
X211212Y240023D02*
X211340D01*
Y239253D01*
X211468D01*
Y238484D01*
X211596D01*
Y237714D01*
X211725D01*
Y237073D01*
X211853D01*
Y236817D01*
X211083D01*
Y237073D01*
X210955D01*
Y238099D01*
X210827D01*
Y238869D01*
X210570D01*
Y238612D01*
X210442D01*
Y238227D01*
X210314D01*
Y237971D01*
X210186D01*
Y237714D01*
X210057D01*
Y237330D01*
X209929D01*
Y237073D01*
X209801D01*
Y236817D01*
X209416D01*
Y237073D01*
X209288D01*
Y237330D01*
X209160D01*
Y237714D01*
X209031D01*
Y237843D01*
Y237971D01*
X208903D01*
Y238356D01*
X208775D01*
Y238612D01*
X208647D01*
Y238869D01*
X208518D01*
Y238740D01*
X208390D01*
Y237971D01*
X208262D01*
Y237201D01*
X208134D01*
Y236817D01*
X207364D01*
Y237073D01*
X207492D01*
Y237714D01*
X207621D01*
Y238356D01*
X207749D01*
Y239125D01*
X207877D01*
Y239766D01*
X208005D01*
Y240407D01*
X208134D01*
Y240536D01*
X208647D01*
Y240279D01*
X208775D01*
Y240023D01*
X208903D01*
Y239638D01*
X209031D01*
Y239382D01*
X209160D01*
Y239125D01*
X209288D01*
Y238740D01*
X209416D01*
Y238484D01*
X209544D01*
Y238227D01*
X209673D01*
Y238484D01*
X209801D01*
Y238740D01*
X209929D01*
Y238997D01*
X210057D01*
Y239253D01*
X210186D01*
Y239638D01*
X210314D01*
Y239895D01*
X210442D01*
Y240151D01*
X210570D01*
Y240536D01*
X211212D01*
Y240023D01*
D02*
G37*
G36*
X172097Y240407D02*
X171968D01*
Y240023D01*
X171840D01*
Y239638D01*
X171712D01*
Y239382D01*
X171584D01*
Y238997D01*
X171455D01*
Y238612D01*
X171327D01*
Y238356D01*
X171199D01*
Y237971D01*
X171071D01*
Y237586D01*
X170942D01*
Y237330D01*
X170814D01*
Y236945D01*
X170686D01*
Y236817D01*
X170173D01*
Y237073D01*
X170045D01*
Y237458D01*
X169916D01*
Y237843D01*
X169788D01*
Y238099D01*
X169660D01*
Y238612D01*
X169532D01*
Y238869D01*
X169404D01*
Y239125D01*
X169275D01*
Y238869D01*
X169147D01*
Y238612D01*
X169019D01*
Y238227D01*
X168891D01*
Y237843D01*
X168762D01*
Y237458D01*
X168634D01*
Y237201D01*
X168506D01*
Y236945D01*
Y236817D01*
X167865D01*
Y237201D01*
X167736D01*
Y237586D01*
X167608D01*
Y237971D01*
X167480D01*
Y238356D01*
X167351D01*
Y238612D01*
X167223D01*
Y238997D01*
X167095D01*
Y239382D01*
X166967D01*
Y239766D01*
X166839D01*
Y240151D01*
X166710D01*
Y240536D01*
X167351D01*
Y240279D01*
X167480D01*
Y239895D01*
X167608D01*
Y239510D01*
X167736D01*
Y239125D01*
X167865D01*
Y238740D01*
X167993D01*
Y238356D01*
X168121D01*
Y238099D01*
X168377D01*
Y238484D01*
X168506D01*
Y238869D01*
X168634D01*
Y239253D01*
X168762D01*
Y239510D01*
X168891D01*
Y239895D01*
X169019D01*
Y240279D01*
X169147D01*
Y240536D01*
X169532D01*
Y240279D01*
X169660D01*
Y239895D01*
X169788D01*
Y239638D01*
X169916D01*
Y239253D01*
X170045D01*
Y238869D01*
X170173D01*
Y238484D01*
X170301D01*
Y238099D01*
X170558D01*
Y238356D01*
X170686D01*
Y238740D01*
X170814D01*
Y239125D01*
X170942D01*
Y239510D01*
X171071D01*
Y239766D01*
X171199D01*
Y240151D01*
X171327D01*
Y240407D01*
X171455D01*
Y240536D01*
X172097D01*
Y240407D01*
D02*
G37*
G36*
X129262Y240664D02*
X129391D01*
Y238099D01*
X129262D01*
Y237714D01*
X129134D01*
Y237458D01*
X129006D01*
Y237330D01*
X128750D01*
Y237201D01*
X128493D01*
Y237073D01*
X128108D01*
Y236945D01*
X127467D01*
Y237073D01*
X127082D01*
Y237201D01*
X126826D01*
Y237330D01*
X126698D01*
Y237458D01*
X126569D01*
Y237586D01*
X126441D01*
Y237971D01*
X126313D01*
Y240792D01*
X126954D01*
Y239638D01*
Y239510D01*
Y238227D01*
X127082D01*
Y237843D01*
X127211D01*
Y237714D01*
X127467D01*
Y237586D01*
X128237D01*
Y237714D01*
X128365D01*
Y237843D01*
X128493D01*
Y237971D01*
X128621D01*
Y240664D01*
X128750D01*
Y240792D01*
X129262D01*
Y240664D01*
D02*
G37*
G36*
X215572Y238099D02*
X215444D01*
Y237458D01*
X215316D01*
Y237330D01*
X215187D01*
Y237073D01*
X214931D01*
Y236945D01*
X214803D01*
Y236817D01*
X214418D01*
Y236688D01*
X213520D01*
Y236817D01*
X213264D01*
Y236945D01*
X213007D01*
Y237073D01*
X212879D01*
Y237201D01*
X212751D01*
Y237330D01*
X212622D01*
Y237586D01*
X212494D01*
Y240536D01*
X213264D01*
Y237714D01*
X213392D01*
Y237586D01*
X213520D01*
Y237458D01*
X213776D01*
Y237330D01*
X214161D01*
Y237458D01*
X214418D01*
Y237586D01*
X214674D01*
Y237843D01*
X214803D01*
Y238484D01*
Y238612D01*
Y240536D01*
X215572D01*
Y238099D01*
D02*
G37*
G36*
X152988Y240279D02*
X153116D01*
Y240151D01*
X152218D01*
Y237073D01*
X151577D01*
Y240023D01*
X151449D01*
Y240151D01*
X150680D01*
Y240664D01*
X152988D01*
Y240279D01*
D02*
G37*
G36*
X150038Y240664D02*
X150167D01*
Y239253D01*
Y239125D01*
Y237073D01*
X149525D01*
Y237330D01*
X149397D01*
Y237714D01*
X149525D01*
Y237971D01*
X149397D01*
Y240151D01*
X149525D01*
Y240279D01*
X149397D01*
Y240536D01*
X149525D01*
Y240664D01*
X149654D01*
Y240792D01*
X150038D01*
Y240664D01*
D02*
G37*
G36*
X144267D02*
X144780D01*
Y240536D01*
X145037D01*
Y240407D01*
X145165D01*
Y240279D01*
X145293D01*
Y240151D01*
X145422D01*
Y239125D01*
X145293D01*
Y238997D01*
X145165D01*
Y238869D01*
X145037D01*
Y238740D01*
X144652D01*
Y238356D01*
X144780D01*
Y238227D01*
X144908D01*
Y238099D01*
X145037D01*
Y237971D01*
X145165D01*
Y237714D01*
X145293D01*
Y237586D01*
X145422D01*
Y237458D01*
X145550D01*
Y237201D01*
X145678D01*
Y237073D01*
X144908D01*
Y237201D01*
X144780D01*
Y237330D01*
X144652D01*
Y237586D01*
X144524D01*
Y237714D01*
X144396D01*
Y237843D01*
X144267D01*
Y238099D01*
X144139D01*
Y238227D01*
X144011D01*
Y238484D01*
X143883D01*
Y238612D01*
X143754D01*
Y237073D01*
X142985D01*
Y240664D01*
X143113D01*
Y240792D01*
X144267D01*
Y240664D01*
D02*
G37*
G36*
X142087D02*
X142215D01*
Y240151D01*
X140805D01*
Y239382D01*
X140933D01*
Y239253D01*
X142215D01*
Y238740D01*
X140933D01*
Y238612D01*
X140805D01*
Y237714D01*
X140933D01*
Y237586D01*
X142215D01*
Y237073D01*
X140163D01*
Y238740D01*
Y238869D01*
Y240792D01*
X142087D01*
Y240664D01*
D02*
G37*
G36*
X135418D02*
X135547D01*
Y237714D01*
Y237586D01*
Y237073D01*
X134777D01*
Y240664D01*
X134905D01*
Y240792D01*
X135418D01*
Y240664D01*
D02*
G37*
G36*
X160939Y240536D02*
X161196D01*
Y240407D01*
X161452D01*
Y240279D01*
X161581D01*
Y240151D01*
X161709D01*
Y240023D01*
X161837D01*
Y239895D01*
X161965D01*
Y239638D01*
X162093D01*
Y239125D01*
X162222D01*
Y238484D01*
X162093D01*
Y238099D01*
X161965D01*
Y237843D01*
X161837D01*
Y237586D01*
X161581D01*
Y237458D01*
X161452D01*
Y237330D01*
X161324D01*
Y237201D01*
X161067D01*
Y237073D01*
X160555D01*
Y236945D01*
X159785D01*
Y237073D01*
X159400D01*
Y237201D01*
X159144D01*
Y237330D01*
X158887D01*
Y237458D01*
X158759D01*
Y237586D01*
X158631D01*
Y237714D01*
X158503D01*
Y237971D01*
X158374D01*
Y238356D01*
X158246D01*
Y239382D01*
X158374D01*
Y239766D01*
X158503D01*
Y239895D01*
X158631D01*
Y240151D01*
X158887D01*
Y240279D01*
X159016D01*
Y240407D01*
X159144D01*
Y240536D01*
X159529D01*
Y240664D01*
X160939D01*
Y240536D01*
D02*
G37*
G36*
X241991Y240151D02*
Y240023D01*
Y236817D01*
X241221D01*
Y240536D01*
X241991D01*
Y240151D01*
D02*
G37*
G36*
X239554Y240407D02*
X239810D01*
Y240279D01*
X240067D01*
Y240151D01*
X240195D01*
Y239895D01*
X240323D01*
Y238869D01*
X240195D01*
Y238740D01*
X240067D01*
Y238612D01*
X239939D01*
Y238484D01*
X239810D01*
Y238356D01*
X239554D01*
Y238227D01*
X239682D01*
Y238099D01*
X239810D01*
Y237971D01*
X239939D01*
Y237714D01*
X240067D01*
Y237586D01*
X240195D01*
Y237458D01*
X240323D01*
Y237201D01*
X240452D01*
Y237073D01*
X240580D01*
Y236945D01*
X240708D01*
Y236817D01*
X239682D01*
Y237073D01*
X239554D01*
Y237201D01*
X239426D01*
Y237458D01*
X239297D01*
Y237586D01*
X239169D01*
Y237843D01*
X239041D01*
Y237971D01*
X238913D01*
Y238227D01*
X238656D01*
Y236817D01*
X238015D01*
Y240536D01*
X239554D01*
Y240407D01*
D02*
G37*
G36*
X237502Y239895D02*
X236604D01*
Y236817D01*
X235963D01*
Y237843D01*
Y237971D01*
Y239895D01*
X235065D01*
Y240536D01*
X237502D01*
Y239895D01*
D02*
G37*
G36*
X231346D02*
X229936D01*
Y239125D01*
X231090D01*
Y238997D01*
X231218D01*
Y238484D01*
X229936D01*
Y238227D01*
Y238099D01*
Y237458D01*
X231218D01*
Y237330D01*
X231346D01*
Y236817D01*
X229166D01*
Y240536D01*
X231346D01*
Y239895D01*
D02*
G37*
G36*
X227499Y240151D02*
Y240023D01*
Y237458D01*
X228653D01*
Y236817D01*
X226858D01*
Y240536D01*
X227499D01*
Y240151D01*
D02*
G37*
G36*
X226088Y239895D02*
X224806D01*
Y239766D01*
X224677D01*
Y239125D01*
X225960D01*
Y238997D01*
X226088D01*
Y238484D01*
X224806D01*
Y238356D01*
X224677D01*
Y237586D01*
X224806D01*
Y237458D01*
X226088D01*
Y236817D01*
X224036D01*
Y240536D01*
X226088D01*
Y239895D01*
D02*
G37*
G36*
X220702Y240279D02*
X220830D01*
Y240023D01*
X220958D01*
Y239638D01*
X221087D01*
Y239382D01*
X221215D01*
Y239125D01*
X221343D01*
Y238740D01*
X221471D01*
Y238484D01*
X221600D01*
Y238227D01*
X221728D01*
Y237843D01*
X221856D01*
Y237586D01*
X221984D01*
Y237330D01*
X222112D01*
Y236945D01*
X222241D01*
Y236817D01*
X221471D01*
Y236945D01*
X221343D01*
Y237201D01*
X221215D01*
Y237458D01*
X221087D01*
Y237586D01*
X219548D01*
Y237201D01*
X219419D01*
Y236945D01*
X219291D01*
Y236817D01*
X218522D01*
Y237073D01*
X218650D01*
Y237330D01*
X218778D01*
Y237586D01*
X218906D01*
Y237971D01*
X219035D01*
Y238227D01*
X219163D01*
Y238484D01*
X219291D01*
Y238869D01*
X219419D01*
Y239125D01*
X219548D01*
Y239382D01*
X219676D01*
Y239766D01*
X219804D01*
Y240023D01*
X219932D01*
Y240279D01*
X220061D01*
Y240536D01*
X220702D01*
Y240279D01*
D02*
G37*
G36*
X217111Y237458D02*
X218265D01*
Y236817D01*
X216341D01*
Y238612D01*
Y238740D01*
Y240536D01*
X217111D01*
Y237458D01*
D02*
G37*
G36*
X205825Y240407D02*
X206210D01*
Y240279D01*
X206467D01*
Y240151D01*
X206595D01*
Y239895D01*
X206723D01*
Y238869D01*
X206595D01*
Y238740D01*
X206467D01*
Y238612D01*
X206338D01*
Y238484D01*
X206082D01*
Y238356D01*
X205954D01*
Y238227D01*
X206082D01*
Y238099D01*
X206210D01*
Y237843D01*
X206338D01*
Y237714D01*
X206467D01*
Y237586D01*
X206595D01*
Y237330D01*
X206723D01*
Y237201D01*
X206851D01*
Y236945D01*
X206979D01*
Y236817D01*
X206082D01*
Y237073D01*
X205954D01*
Y237201D01*
X205825D01*
Y237330D01*
X205697D01*
Y237586D01*
X205569D01*
Y237714D01*
X205440D01*
Y237843D01*
Y237971D01*
X205312D01*
Y238099D01*
X205184D01*
Y238227D01*
X205056D01*
Y236817D01*
X204286D01*
Y240536D01*
X205825D01*
Y240407D01*
D02*
G37*
G36*
X199156Y239895D02*
X198002D01*
Y239766D01*
X197874D01*
Y239125D01*
X199028D01*
Y238997D01*
X199156D01*
Y238484D01*
X198002D01*
Y238356D01*
X197874D01*
Y236817D01*
X197233D01*
Y240536D01*
X199156D01*
Y239895D01*
D02*
G37*
G36*
X185178Y240407D02*
X185306D01*
Y237330D01*
X186460D01*
Y236817D01*
X184537D01*
Y240407D01*
X184665D01*
Y240536D01*
X185178D01*
Y240407D01*
D02*
G37*
G36*
X182741D02*
X183126D01*
Y240279D01*
X183254D01*
Y240151D01*
X183510D01*
Y239895D01*
X183639D01*
Y238997D01*
X183510D01*
Y238740D01*
X183382D01*
Y238612D01*
X183254D01*
Y238484D01*
X182998D01*
Y238356D01*
X182869D01*
Y238227D01*
X182998D01*
Y238099D01*
X183126D01*
Y237843D01*
X183254D01*
Y237714D01*
X183382D01*
Y237586D01*
X183510D01*
Y237330D01*
X183639D01*
Y237201D01*
X183767D01*
Y237073D01*
X183895D01*
Y236817D01*
X183126D01*
Y236945D01*
X182998D01*
Y237073D01*
X182869D01*
Y237330D01*
X182741D01*
Y237458D01*
X182613D01*
Y237714D01*
X182484D01*
Y237843D01*
X182356D01*
Y238099D01*
X182228D01*
Y238227D01*
X181972D01*
Y236817D01*
X181330D01*
Y239510D01*
Y239638D01*
Y240536D01*
X182741D01*
Y240407D01*
D02*
G37*
G36*
X180433D02*
X180561D01*
Y239895D01*
X179150D01*
Y238997D01*
X180433D01*
Y238484D01*
X179150D01*
Y237458D01*
X179278D01*
Y237330D01*
X180561D01*
Y236817D01*
X178509D01*
Y240536D01*
X180433D01*
Y240407D01*
D02*
G37*
G36*
X177868D02*
X177996D01*
Y239895D01*
X177098D01*
Y236817D01*
X176457D01*
Y239895D01*
X175559D01*
Y240536D01*
X177868D01*
Y240407D01*
D02*
G37*
G36*
X174149Y240151D02*
X174277D01*
Y239895D01*
X174405D01*
Y239638D01*
X174533D01*
Y239253D01*
X174662D01*
Y238997D01*
X174790D01*
Y238740D01*
X174918D01*
Y238356D01*
X175046D01*
Y238099D01*
X175174D01*
Y237843D01*
X175303D01*
Y237458D01*
X175431D01*
Y237201D01*
X175559D01*
Y236945D01*
X175688D01*
Y236817D01*
X174918D01*
Y237073D01*
X174790D01*
Y237330D01*
X174662D01*
Y237586D01*
X172994D01*
Y237330D01*
X172866D01*
Y237073D01*
X172738D01*
Y236817D01*
X171968D01*
Y236945D01*
X172097D01*
Y237201D01*
X172225D01*
Y237586D01*
X172353D01*
Y237843D01*
X172481D01*
Y238099D01*
X172610D01*
Y238484D01*
X172738D01*
Y238740D01*
X172866D01*
Y238997D01*
X172994D01*
Y239382D01*
X173123D01*
Y239638D01*
X173251D01*
Y239895D01*
X173379D01*
Y240151D01*
X173507D01*
Y240407D01*
X173636D01*
Y240536D01*
X174149D01*
Y240151D01*
D02*
G37*
G36*
X201721Y240536D02*
X202491D01*
Y240407D01*
X202747D01*
Y240279D01*
X202876D01*
Y240151D01*
X203132D01*
Y239895D01*
X203260D01*
Y239766D01*
X203389D01*
Y239638D01*
X203517D01*
Y239253D01*
X203645D01*
Y238099D01*
X203517D01*
Y237714D01*
X203389D01*
Y237458D01*
X203260D01*
Y237330D01*
X203132D01*
Y237201D01*
X203004D01*
Y237073D01*
X202747D01*
Y236945D01*
X202491D01*
Y236817D01*
X202106D01*
Y236688D01*
X201208D01*
Y236817D01*
X200824D01*
Y236945D01*
X200567D01*
Y237073D01*
X200311D01*
Y237201D01*
X200183D01*
Y237330D01*
X200054D01*
Y237458D01*
X199926D01*
Y237714D01*
X199798D01*
Y237971D01*
X199670D01*
Y239253D01*
X199798D01*
Y239638D01*
X199926D01*
Y239766D01*
X200054D01*
Y240023D01*
X200183D01*
Y240151D01*
X200439D01*
Y240279D01*
X200567D01*
Y240407D01*
X200824D01*
Y240536D01*
X201465D01*
Y240664D01*
X201721D01*
Y240536D01*
D02*
G37*
G36*
X193898Y240407D02*
X194155D01*
Y240279D01*
X194411D01*
Y240151D01*
X194668D01*
Y239895D01*
X194796D01*
Y239766D01*
X194924D01*
Y239638D01*
X195053D01*
Y239253D01*
X195181D01*
Y237971D01*
X195053D01*
Y237714D01*
X194924D01*
Y237458D01*
X194796D01*
Y237330D01*
X194668D01*
Y237201D01*
X194540D01*
Y237073D01*
X194283D01*
Y236945D01*
X194027D01*
Y236817D01*
X193514D01*
Y236688D01*
X193001D01*
Y236817D01*
X192488D01*
Y236945D01*
X192231D01*
Y237073D01*
X191975D01*
Y237201D01*
X191847D01*
Y237330D01*
X191718D01*
Y237458D01*
X191590D01*
Y237586D01*
X191462D01*
Y237843D01*
X191333D01*
Y238356D01*
X191205D01*
Y238997D01*
X191333D01*
Y239510D01*
X191462D01*
Y239638D01*
X191590D01*
Y239895D01*
X191718D01*
Y240023D01*
X191847D01*
Y240151D01*
X191975D01*
Y240279D01*
X192231D01*
Y240407D01*
X192616D01*
Y240536D01*
X193898D01*
Y240407D01*
D02*
G37*
G36*
X189410D02*
X189666D01*
Y240279D01*
X189923D01*
Y240151D01*
X190051D01*
Y240023D01*
X190179D01*
Y239895D01*
X190307D01*
Y239766D01*
X190436D01*
Y239510D01*
X190564D01*
Y238997D01*
X190692D01*
Y238356D01*
Y238227D01*
X190564D01*
Y237843D01*
X190436D01*
Y237586D01*
X190307D01*
Y237458D01*
X190179D01*
Y237330D01*
X190051D01*
Y237201D01*
X189923D01*
Y237073D01*
X189795D01*
Y236945D01*
X189538D01*
Y236817D01*
X188897D01*
Y236688D01*
X188384D01*
Y236817D01*
X187871D01*
Y236945D01*
X187614D01*
Y237073D01*
X187486D01*
Y237201D01*
X187230D01*
Y237330D01*
X187101D01*
Y237586D01*
X186973D01*
Y237714D01*
X186845D01*
Y238099D01*
X186717D01*
Y239253D01*
X186845D01*
Y239510D01*
X186973D01*
Y239766D01*
X187101D01*
Y239895D01*
X187230D01*
Y240023D01*
X187358D01*
Y240151D01*
X187486D01*
Y240279D01*
X187743D01*
Y240407D01*
X187999D01*
Y240536D01*
X189410D01*
Y240407D01*
D02*
G37*
%LPC*%
G36*
X144524Y240151D02*
X143754D01*
Y238997D01*
X144267D01*
Y239125D01*
X144524D01*
Y239253D01*
X144652D01*
Y239382D01*
X144780D01*
Y239766D01*
X144652D01*
Y240023D01*
X144524D01*
Y240151D01*
D02*
G37*
G36*
X160555D02*
X159785D01*
Y240023D01*
X159529D01*
Y239895D01*
X159272D01*
Y239766D01*
X159144D01*
Y239510D01*
X159016D01*
Y239125D01*
X158887D01*
Y238484D01*
X159016D01*
Y238227D01*
X159144D01*
Y237971D01*
X159272D01*
Y237843D01*
X159400D01*
Y237714D01*
X159657D01*
Y237586D01*
X160683D01*
Y237714D01*
X160939D01*
Y237843D01*
X161067D01*
Y237971D01*
X161196D01*
Y238099D01*
X161324D01*
Y238227D01*
X161452D01*
Y239125D01*
Y239253D01*
Y239382D01*
X161324D01*
Y239638D01*
X161196D01*
Y239766D01*
X161067D01*
Y239895D01*
X160939D01*
Y240023D01*
X160555D01*
Y240151D01*
D02*
G37*
G36*
X239297Y239895D02*
X238656D01*
Y238869D01*
X238784D01*
Y238740D01*
X238913D01*
Y238869D01*
X239426D01*
Y238997D01*
X239554D01*
Y239253D01*
X239682D01*
Y239382D01*
Y239510D01*
X239554D01*
Y239766D01*
X239297D01*
Y239895D01*
D02*
G37*
G36*
X220445Y239382D02*
X220317D01*
Y239253D01*
X220189D01*
Y238869D01*
X220061D01*
Y238612D01*
X219932D01*
Y238227D01*
X220830D01*
Y238484D01*
X220702D01*
Y238869D01*
X220573D01*
Y239125D01*
X220445D01*
Y239253D01*
Y239382D01*
D02*
G37*
G36*
X205697Y239895D02*
X205056D01*
Y238869D01*
X205825D01*
Y238997D01*
X205954D01*
Y239766D01*
X205697D01*
Y239895D01*
D02*
G37*
G36*
X182741D02*
X181972D01*
Y239382D01*
Y239253D01*
Y238740D01*
X182613D01*
Y238869D01*
X182741D01*
Y238997D01*
X182869D01*
Y239125D01*
X182998D01*
Y239638D01*
X182869D01*
Y239766D01*
X182741D01*
Y239895D01*
D02*
G37*
G36*
X173892Y239510D02*
X173764D01*
Y239253D01*
X173636D01*
Y238997D01*
X173507D01*
Y238740D01*
X173379D01*
Y238356D01*
X173251D01*
Y238099D01*
X174277D01*
Y238227D01*
X174405D01*
Y238356D01*
X174277D01*
Y238612D01*
X174149D01*
Y238997D01*
X174020D01*
Y239253D01*
X173892D01*
Y239510D01*
D02*
G37*
G36*
X202234Y239895D02*
X201080D01*
Y239766D01*
X200952D01*
Y239638D01*
X200695D01*
Y239382D01*
X200567D01*
Y239125D01*
X200439D01*
Y238099D01*
X200567D01*
Y237843D01*
X200695D01*
Y237714D01*
X200824D01*
Y237586D01*
X201080D01*
Y237458D01*
X201465D01*
Y237330D01*
X201978D01*
Y237458D01*
X202234D01*
Y237586D01*
X202491D01*
Y237714D01*
X202619D01*
Y237843D01*
X202747D01*
Y238099D01*
X202876D01*
Y239125D01*
X202747D01*
Y239382D01*
X202619D01*
Y239510D01*
X202491D01*
Y239638D01*
X202363D01*
Y239766D01*
X202234D01*
Y239895D01*
D02*
G37*
G36*
X193385Y240023D02*
X193001D01*
Y239895D01*
X192616D01*
Y239766D01*
X192359D01*
Y239638D01*
X192231D01*
Y239382D01*
X192103D01*
Y239125D01*
X191975D01*
Y238099D01*
X192103D01*
Y237843D01*
X192231D01*
Y237714D01*
X192359D01*
Y237586D01*
X192488D01*
Y237458D01*
X192873D01*
Y237330D01*
X193642D01*
Y237458D01*
X193898D01*
Y237586D01*
X194155D01*
Y237714D01*
X194283D01*
Y237971D01*
X194411D01*
Y238227D01*
X194540D01*
Y239125D01*
X194411D01*
Y239382D01*
X194283D01*
Y239510D01*
X194155D01*
Y239638D01*
X194027D01*
Y239766D01*
X193898D01*
Y239895D01*
X193385D01*
Y240023D01*
D02*
G37*
G36*
X188897D02*
X188512D01*
Y239895D01*
X187999D01*
Y239766D01*
X187871D01*
Y239638D01*
X187743D01*
Y239510D01*
X187614D01*
Y239382D01*
X187486D01*
Y238997D01*
X187358D01*
Y238356D01*
X187486D01*
Y237971D01*
X187614D01*
Y237843D01*
X187743D01*
Y237714D01*
X187871D01*
Y237586D01*
X187999D01*
Y237458D01*
X188256D01*
Y237330D01*
X189153D01*
Y237458D01*
X189410D01*
Y237586D01*
X189538D01*
Y237714D01*
X189666D01*
Y237843D01*
X189795D01*
Y238099D01*
X189923D01*
Y239253D01*
X189795D01*
Y239510D01*
X189666D01*
Y239638D01*
X189538D01*
Y239766D01*
X189282D01*
Y239895D01*
X188897D01*
Y240023D01*
D02*
G37*
%LPD*%
D10*
X253768Y376378D02*
G03*
X253768Y376378I-492J0D01*
G01*
X365792Y378101D02*
G03*
X365792Y378101I-492J0D01*
G01*
X360933Y426941D02*
G03*
X360933Y426941I-492J0D01*
G01*
X347350Y469260D02*
G03*
X347350Y469260I-492J0D01*
G01*
D11*
X263512Y370669D02*
G03*
X263512Y370669I-1181J0D01*
G01*
D12*
X155122Y379234D02*
G03*
X155122Y379234I-504J0D01*
G01*
X262240Y400500D02*
G03*
X262240Y400500I-6240J0D01*
G01*
X252240Y415500D02*
G03*
X252240Y415500I-6240J0D01*
G01*
X365287Y354117D02*
G03*
X365287Y354510I0J197D01*
G01*
D02*
G03*
X365287Y354117I0J-197D01*
G01*
D02*
G03*
X365287Y354510I0J197D01*
G01*
X371458Y378557D02*
G03*
X371458Y379345I0J394D01*
G01*
D02*
G03*
X371458Y378557I0J-394D01*
G01*
X182040Y461700D02*
G03*
X182040Y461700I-6240J0D01*
G01*
Y435500D02*
G03*
X182040Y435500I-6240J0D01*
G01*
X182140Y487600D02*
G03*
X182140Y487600I-6240J0D01*
G01*
X258394Y325394D02*
Y374606D01*
X307606Y325394D02*
Y374606D01*
X258394D02*
X307606D01*
X258394Y325394D02*
X307606D01*
X134823Y390403D02*
Y413411D01*
Y390403D02*
X151067D01*
Y303789D02*
Y390403D01*
X134823Y303789D02*
X151067D01*
X134823Y280781D02*
Y303789D01*
X115319Y280781D02*
X134823D01*
X115319Y251033D02*
Y280781D01*
X77839Y251033D02*
X115319D01*
X77839D02*
Y285285D01*
X1854D02*
X77839D01*
X1854D02*
Y408907D01*
X77839D01*
Y443159D01*
X115319D01*
Y413411D02*
Y443159D01*
Y413411D02*
X134823D01*
X237106Y403567D02*
X237894D01*
X237106Y399433D02*
X237894D01*
X262606Y417067D02*
X263394D01*
X262606Y412933D02*
X263394D01*
X265606Y421433D02*
X266394D01*
X265606Y425567D02*
X266394D01*
X235067Y432106D02*
Y432894D01*
X230933Y432106D02*
Y432894D01*
X222933Y432106D02*
Y432894D01*
X227067Y432106D02*
Y432894D01*
X214567Y395606D02*
Y396394D01*
X210433Y395606D02*
Y396394D01*
X206567Y395606D02*
Y396394D01*
X202433Y395606D02*
Y396394D01*
X177776Y397563D02*
Y398350D01*
X182303Y397563D02*
Y398350D01*
X160289Y394976D02*
Y398024D01*
X166789Y394976D02*
Y398024D01*
X166350Y350638D02*
Y354362D01*
X172650Y350638D02*
Y354362D01*
X177523Y367350D02*
X181248D01*
X177523Y373650D02*
X181248D01*
X211164Y352201D02*
Y352693D01*
Y339307D02*
Y339799D01*
Y339307D02*
X231636D01*
Y352201D02*
Y352693D01*
Y339307D02*
Y339799D01*
X211164Y352693D02*
X231636D01*
X239957Y328550D02*
Y334850D01*
X247043Y328550D02*
Y334850D01*
X279370Y242816D02*
Y244784D01*
X278386Y243800D02*
X280354D01*
X354614Y367261D02*
X355186D01*
X354614Y362339D02*
X355186D01*
X362052Y381053D02*
Y387747D01*
X368548Y381053D02*
Y387747D01*
X343094Y394315D02*
Y398843D01*
X343193Y400220D02*
X354807D01*
Y402779D01*
X343193D02*
X354807D01*
X343193Y400220D02*
Y402779D01*
X323532Y423650D02*
X327468D01*
X323532Y417350D02*
X327468D01*
X364102Y414638D02*
Y423102D01*
Y485898D02*
Y494362D01*
X378768D01*
X401898Y421724D02*
Y487276D01*
X364102Y414638D02*
X378768D01*
X357405Y490658D02*
Y495185D01*
X345693Y489280D02*
X357307D01*
X345693Y486721D02*
Y489280D01*
Y486721D02*
X357307D01*
Y489280D01*
X349811Y436878D02*
Y459122D01*
X333177Y436189D02*
X342823D01*
X326189Y436878D02*
Y459122D01*
X333177Y459811D02*
X342823D01*
X236531Y457650D02*
X240469D01*
X236531Y451350D02*
X240469D01*
X236531Y468650D02*
X240469D01*
X236531Y462350D02*
X240469D01*
X236531Y473850D02*
X240469D01*
X236531Y480150D02*
X240469D01*
X237032Y484850D02*
X240968D01*
X237032Y491150D02*
X240968D01*
X121063Y477854D02*
Y485089D01*
X129478Y493504D01*
X121063Y460581D02*
X129478Y452165D01*
X121063Y460581D02*
Y467815D01*
X129478Y493504D02*
X162402D01*
Y477854D02*
Y493504D01*
Y452165D02*
Y467815D01*
X129478Y452165D02*
X162402D01*
X236906Y392333D02*
X237694D01*
X236906Y396467D02*
X237694D01*
X332248Y384555D02*
Y391445D01*
X325752Y384555D02*
Y391445D01*
D13*
X213094Y420661D02*
G03*
X213094Y420268I0J-197D01*
G01*
D02*
G03*
X213094Y420661I0J197D01*
G01*
X314138Y455098D02*
G03*
X314138Y454705I0J-197D01*
G01*
D02*
G03*
X314138Y455098I0J197D01*
G01*
X210142Y406095D02*
X211461D01*
X210142D02*
Y410032D01*
X226874Y406095D02*
X227858D01*
Y410032D01*
X210142Y413969D02*
Y417906D01*
X211461D01*
X226539D02*
X227858D01*
Y413969D02*
Y417906D01*
X340878Y288821D02*
X376311D01*
X340878D02*
X376311D01*
X405839D02*
X425248D01*
X405839D02*
X425248D01*
Y352148D01*
Y288821D02*
Y352148D01*
X405839Y351932D02*
X425248D01*
X405839D02*
X425248D01*
X340642D02*
X376311D01*
X340642D02*
X376311D01*
X340642Y309825D02*
Y331479D01*
Y309825D02*
Y331479D01*
X404135Y370093D02*
X411221D01*
Y400408D01*
X404135D02*
X411221D01*
X373426Y370093D02*
X388387D01*
X373426D02*
Y400408D01*
X388387D01*
X260693Y483051D02*
Y493780D01*
X314236D01*
Y483445D02*
Y493780D01*
X260693Y451161D02*
Y473996D01*
X314236Y451161D02*
Y473996D01*
X260693Y436890D02*
Y441319D01*
Y436890D02*
X314236D01*
Y441319D01*
D14*
X170579Y389492D02*
X175500D01*
X386565Y272939D02*
Y277861D01*
D15*
X280526Y312350D02*
Y313850D01*
X281275D01*
X281525Y313600D01*
Y313100D01*
X281275Y312850D01*
X280526D01*
X281025D02*
X281525Y312350D01*
X282025D02*
X282525D01*
X282275D01*
Y313850D01*
X282025Y313600D01*
X283275Y312600D02*
X283525Y312350D01*
X284025D01*
X284274Y312600D01*
Y313600D01*
X284025Y313850D01*
X283525D01*
X283275Y313600D01*
Y313350D01*
X283525Y313100D01*
X284274D01*
X241975Y381400D02*
X241725Y381650D01*
X241225D01*
X240975Y381400D01*
Y380400D01*
X241225Y380150D01*
X241725D01*
X241975Y380400D01*
X242475Y380150D02*
X242975D01*
X242725D01*
Y381650D01*
X242475Y381400D01*
X243725Y380150D02*
X244225D01*
X243975D01*
Y381650D01*
X243725Y381400D01*
X243776Y400850D02*
Y402350D01*
X244525D01*
X244775Y402100D01*
Y401600D01*
X244525Y401350D01*
X243776D01*
X244275D02*
X244775Y400850D01*
X245275D02*
X245775D01*
X245525D01*
Y402350D01*
X245275Y402100D01*
X246525Y400850D02*
X247024D01*
X246775D01*
Y402350D01*
X246525Y402100D01*
X244950Y345650D02*
Y347150D01*
X245700D01*
X245950Y346900D01*
Y346400D01*
X245700Y346150D01*
X244950D01*
X245450D02*
X245950Y345650D01*
X247450Y347150D02*
X246450D01*
Y346400D01*
X246950Y346650D01*
X247200D01*
X247450Y346400D01*
Y345900D01*
X247200Y345650D01*
X246700D01*
X246450Y345900D01*
X266550Y235201D02*
X265050D01*
Y235950D01*
X265300Y236200D01*
X265800D01*
X266050Y235950D01*
Y235201D01*
Y235700D02*
X266550Y236200D01*
X265300Y236700D02*
X265050Y236950D01*
Y237450D01*
X265300Y237700D01*
X265550D01*
X265800Y237450D01*
Y237200D01*
Y237450D01*
X266050Y237700D01*
X266300D01*
X266550Y237450D01*
Y236950D01*
X266300Y236700D01*
X266550Y239199D02*
Y238200D01*
X265550Y239199D01*
X265300D01*
X265050Y238949D01*
Y238450D01*
X265300Y238200D01*
X268300Y264300D02*
X268050Y264550D01*
X267551D01*
X267301Y264300D01*
Y263300D01*
X267551Y263050D01*
X268050D01*
X268300Y263300D01*
X268800Y264300D02*
X269050Y264550D01*
X269550D01*
X269800Y264300D01*
Y264050D01*
X269550Y263800D01*
X269300D01*
X269550D01*
X269800Y263550D01*
Y263300D01*
X269550Y263050D01*
X269050D01*
X268800Y263300D01*
X271049Y263050D02*
Y264550D01*
X270300Y263800D01*
X271299D01*
X276350Y263800D02*
X276100Y264050D01*
X275601D01*
X275351Y263800D01*
Y262800D01*
X275601Y262550D01*
X276100D01*
X276350Y262800D01*
X276850Y263800D02*
X277100Y264050D01*
X277600D01*
X277850Y263800D01*
Y263550D01*
X277600Y263300D01*
X277350D01*
X277600D01*
X277850Y263050D01*
Y262800D01*
X277600Y262550D01*
X277100D01*
X276850Y262800D01*
X278350Y262550D02*
X278849D01*
X278600D01*
Y264050D01*
X278350Y263800D01*
X284100Y263500D02*
X283850Y263750D01*
X283351D01*
X283101Y263500D01*
Y262500D01*
X283351Y262250D01*
X283850D01*
X284100Y262500D01*
X284600Y263500D02*
X284850Y263750D01*
X285350D01*
X285600Y263500D01*
Y263250D01*
X285350Y263000D01*
X285100D01*
X285350D01*
X285600Y262750D01*
Y262500D01*
X285350Y262250D01*
X284850D01*
X284600Y262500D01*
X286100Y263500D02*
X286350Y263750D01*
X286849D01*
X287099Y263500D01*
Y263250D01*
X286849Y263000D01*
X286599D01*
X286849D01*
X287099Y262750D01*
Y262500D01*
X286849Y262250D01*
X286350D01*
X286100Y262500D01*
X257901Y297950D02*
Y299450D01*
X258650D01*
X258900Y299200D01*
Y298700D01*
X258650Y298450D01*
X257901D01*
X258401D02*
X258900Y297950D01*
X260400D02*
X259400D01*
X260400Y298950D01*
Y299200D01*
X260150Y299450D01*
X259650D01*
X259400Y299200D01*
X260900Y298200D02*
X261150Y297950D01*
X261649D01*
X261899Y298200D01*
Y299200D01*
X261649Y299450D01*
X261150D01*
X260900Y299200D01*
Y298950D01*
X261150Y298700D01*
X261899D01*
X263601Y300250D02*
Y301750D01*
X264350D01*
X264600Y301500D01*
Y301000D01*
X264350Y300750D01*
X263601D01*
X264101D02*
X264600Y300250D01*
X266100D02*
X265100D01*
X266100Y301250D01*
Y301500D01*
X265850Y301750D01*
X265350D01*
X265100Y301500D01*
X266600Y301750D02*
X267599D01*
Y301500D01*
X266600Y300500D01*
Y300250D01*
X269026Y312350D02*
Y313850D01*
X269775D01*
X270025Y313600D01*
Y313100D01*
X269775Y312850D01*
X269026D01*
X269525D02*
X270025Y312350D01*
X270525D02*
X271025D01*
X270775D01*
Y313850D01*
X270525Y313600D01*
X272774Y313850D02*
X271775D01*
Y313100D01*
X272275Y313350D01*
X272524D01*
X272774Y313100D01*
Y312600D01*
X272524Y312350D01*
X272025D01*
X271775Y312600D01*
X275026Y312350D02*
Y313850D01*
X275775D01*
X276025Y313600D01*
Y313100D01*
X275775Y312850D01*
X275026D01*
X275525D02*
X276025Y312350D01*
X276525D02*
X277025D01*
X276775D01*
Y313850D01*
X276525Y313600D01*
X277775Y313850D02*
X278774D01*
Y313600D01*
X277775Y312600D01*
Y312350D01*
X286051Y314650D02*
Y316150D01*
X286800D01*
X287050Y315900D01*
Y315400D01*
X286800Y315150D01*
X286051D01*
X286550D02*
X287050Y314650D01*
X288550D02*
X287550D01*
X288550Y315650D01*
Y315900D01*
X288300Y316150D01*
X287800D01*
X287550Y315900D01*
X289050Y314650D02*
X289549D01*
X289300D01*
Y316150D01*
X289050Y315900D01*
X293401Y314650D02*
Y316150D01*
X294150D01*
X294400Y315900D01*
Y315400D01*
X294150Y315150D01*
X293401D01*
X293900D02*
X294400Y314650D01*
X295900D02*
X294900D01*
X295900Y315650D01*
Y315900D01*
X295650Y316150D01*
X295150D01*
X294900Y315900D01*
X296400D02*
X296650Y316150D01*
X297149D01*
X297399Y315900D01*
Y315650D01*
X297149Y315400D01*
X296900D01*
X297149D01*
X297399Y315150D01*
Y314900D01*
X297149Y314650D01*
X296650D01*
X296400Y314900D01*
X300850Y304600D02*
X300600Y304850D01*
X300100D01*
X299850Y304600D01*
Y303600D01*
X300100Y303350D01*
X300600D01*
X300850Y303600D01*
X302100Y303350D02*
Y304850D01*
X301350Y304100D01*
X302350D01*
X306825Y304100D02*
X306575Y304350D01*
X306076D01*
X305826Y304100D01*
Y303100D01*
X306076Y302850D01*
X306575D01*
X306825Y303100D01*
X307325Y302850D02*
X307825D01*
X307575D01*
Y304350D01*
X307325Y304100D01*
X309574Y304350D02*
X308575D01*
Y303600D01*
X309075Y303850D01*
X309325D01*
X309574Y303600D01*
Y303100D01*
X309325Y302850D01*
X308825D01*
X308575Y303100D01*
X312326Y316650D02*
Y318150D01*
X313075D01*
X313325Y317900D01*
Y317400D01*
X313075Y317150D01*
X312326D01*
X312825D02*
X313325Y316650D01*
X313825D02*
X314325D01*
X314075D01*
Y318150D01*
X313825Y317900D01*
X315825Y316650D02*
Y318150D01*
X315075Y317400D01*
X316074D01*
X272050Y236751D02*
X270550D01*
Y237500D01*
X270800Y237750D01*
X271300D01*
X271550Y237500D01*
Y236751D01*
Y237250D02*
X272050Y237750D01*
X270800Y238250D02*
X270550Y238500D01*
Y239000D01*
X270800Y239250D01*
X271050D01*
X271300Y239000D01*
Y238750D01*
Y239000D01*
X271550Y239250D01*
X271800D01*
X272050Y239000D01*
Y238500D01*
X271800Y238250D01*
X272050Y239750D02*
Y240249D01*
Y240000D01*
X270550D01*
X270800Y239750D01*
X276050Y236101D02*
X274550D01*
Y236850D01*
X274800Y237100D01*
X275300D01*
X275550Y236850D01*
Y236101D01*
Y236600D02*
X276050Y237100D01*
X274800Y237600D02*
X274550Y237850D01*
Y238350D01*
X274800Y238600D01*
X275050D01*
X275300Y238350D01*
Y238100D01*
Y238350D01*
X275550Y238600D01*
X275800D01*
X276050Y238350D01*
Y237850D01*
X275800Y237600D01*
X274800Y239100D02*
X274550Y239350D01*
Y239849D01*
X274800Y240099D01*
X275800D01*
X276050Y239849D01*
Y239350D01*
X275800Y239100D01*
X274800D01*
X318326Y323250D02*
Y324750D01*
X319075D01*
X319325Y324500D01*
Y324000D01*
X319075Y323750D01*
X318326D01*
X318825D02*
X319325Y323250D01*
X319825D02*
X320325D01*
X320075D01*
Y324750D01*
X319825Y324500D01*
X322074Y324750D02*
X321575Y324500D01*
X321075Y324000D01*
Y323500D01*
X321325Y323250D01*
X321825D01*
X322074Y323500D01*
Y323750D01*
X321825Y324000D01*
X321075D01*
X243026Y393750D02*
Y395250D01*
X243775D01*
X244025Y395000D01*
Y394500D01*
X243775Y394250D01*
X243026D01*
X243525D02*
X244025Y393750D01*
X244525D02*
X245025D01*
X244775D01*
Y395250D01*
X244525Y395000D01*
X245775D02*
X246025Y395250D01*
X246525D01*
X246774Y395000D01*
Y394000D01*
X246525Y393750D01*
X246025D01*
X245775Y394000D01*
Y395000D01*
D16*
X225878Y376184D02*
X225386Y376676D01*
X224402D01*
X223910Y376184D01*
Y374216D01*
X224402Y373724D01*
X225386D01*
X225878Y374216D01*
X226862Y373724D02*
X227846D01*
X227354D01*
Y376676D01*
X226862Y376184D01*
X229322D02*
X229814Y376676D01*
X230798D01*
X231290Y376184D01*
Y374216D01*
X230798Y373724D01*
X229814D01*
X229322Y374216D01*
Y376184D01*
X249440Y383576D02*
Y381116D01*
X249932Y380624D01*
X250916D01*
X251408Y381116D01*
Y383576D01*
X254360Y380624D02*
X252392D01*
X254360Y382592D01*
Y383084D01*
X253868Y383576D01*
X252884D01*
X252392Y383084D01*
X122736Y275492D02*
X121752D01*
X122244D01*
Y273032D01*
X121752Y272540D01*
X121260D01*
X120768Y273032D01*
X123720Y275000D02*
X124212Y275492D01*
X125196D01*
X125688Y275000D01*
Y274508D01*
X125196Y274016D01*
X124704D01*
X125196D01*
X125688Y273524D01*
Y273032D01*
X125196Y272540D01*
X124212D01*
X123720Y273032D01*
X228578Y356584D02*
X228086Y357076D01*
X227102D01*
X226610Y356584D01*
Y354616D01*
X227102Y354124D01*
X228086D01*
X228578Y354616D01*
X229562Y354124D02*
X230546D01*
X230054D01*
Y357076D01*
X229562Y356584D01*
X233990Y354124D02*
X232022D01*
X233990Y356092D01*
Y356584D01*
X233498Y357076D01*
X232514D01*
X232022Y356584D01*
X228778Y364884D02*
X228286Y365376D01*
X227302D01*
X226810Y364884D01*
Y362916D01*
X227302Y362424D01*
X228286D01*
X228778Y362916D01*
X229762Y362424D02*
X230746D01*
X230254D01*
Y365376D01*
X229762Y364884D01*
X232222D02*
X232714Y365376D01*
X233698D01*
X234190Y364884D01*
Y364392D01*
X233698Y363900D01*
X234190Y363408D01*
Y362916D01*
X233698Y362424D01*
X232714D01*
X232222Y362916D01*
Y363408D01*
X232714Y363900D01*
X232222Y364392D01*
Y364884D01*
X232714Y363900D02*
X233698D01*
X225678Y386884D02*
X225186Y387376D01*
X224202D01*
X223710Y386884D01*
Y384916D01*
X224202Y384424D01*
X225186D01*
X225678Y384916D01*
X226662Y384424D02*
X227646D01*
X227154D01*
Y387376D01*
X226662Y386884D01*
X229122Y387376D02*
X231090D01*
Y386884D01*
X229122Y384916D01*
Y384424D01*
X285132Y418484D02*
X284640Y418976D01*
X283656D01*
X283164Y418484D01*
Y416516D01*
X283656Y416024D01*
X284640D01*
X285132Y416516D01*
X286116Y418484D02*
X286608Y418976D01*
X287592D01*
X288084Y418484D01*
Y417992D01*
X287592Y417500D01*
X287100D01*
X287592D01*
X288084Y417008D01*
Y416516D01*
X287592Y416024D01*
X286608D01*
X286116Y416516D01*
X289068Y418484D02*
X289560Y418976D01*
X290544D01*
X291036Y418484D01*
Y417992D01*
X290544Y417500D01*
X291036Y417008D01*
Y416516D01*
X290544Y416024D01*
X289560D01*
X289068Y416516D01*
Y417008D01*
X289560Y417500D01*
X289068Y417992D01*
Y418484D01*
X289560Y417500D02*
X290544D01*
X254032Y392784D02*
X253540Y393276D01*
X252556D01*
X252064Y392784D01*
Y392292D01*
X252556Y391800D01*
X253540D01*
X254032Y391308D01*
Y390816D01*
X253540Y390324D01*
X252556D01*
X252064Y390816D01*
X255016Y393276D02*
Y390324D01*
X256492D01*
X256984Y390816D01*
Y392784D01*
X256492Y393276D01*
X255016D01*
X257968Y390324D02*
Y392292D01*
X258952Y393276D01*
X259936Y392292D01*
Y390324D01*
Y391800D01*
X257968D01*
X261240Y408224D02*
Y411176D01*
X262716D01*
X263208Y410684D01*
Y409700D01*
X262716Y409208D01*
X261240D01*
X262224D02*
X263208Y408224D01*
X264192Y408716D02*
X264684Y408224D01*
X265668D01*
X266160Y408716D01*
Y410684D01*
X265668Y411176D01*
X264684D01*
X264192Y410684D01*
Y410192D01*
X264684Y409700D01*
X266160D01*
X263040Y427524D02*
Y430476D01*
X264516D01*
X265008Y429984D01*
Y429000D01*
X264516Y428508D01*
X263040D01*
X264024D02*
X265008Y427524D01*
X267960Y430476D02*
X266976Y429984D01*
X265992Y429000D01*
Y428016D01*
X266484Y427524D01*
X267468D01*
X267960Y428016D01*
Y428508D01*
X267468Y429000D01*
X265992D01*
X244032Y425684D02*
X243540Y426176D01*
X242556D01*
X242064Y425684D01*
Y425192D01*
X242556Y424700D01*
X243540D01*
X244032Y424208D01*
Y423716D01*
X243540Y423224D01*
X242556D01*
X242064Y423716D01*
X246984Y425684D02*
X246492Y426176D01*
X245508D01*
X245016Y425684D01*
Y423716D01*
X245508Y423224D01*
X246492D01*
X246984Y423716D01*
X247968Y426176D02*
Y423224D01*
X249936D01*
X231440Y438224D02*
Y441176D01*
X232916D01*
X233408Y440684D01*
Y439700D01*
X232916Y439208D01*
X231440D01*
X232424D02*
X233408Y438224D01*
X234392Y441176D02*
X236360D01*
Y440684D01*
X234392Y438716D01*
Y438224D01*
X222540Y423824D02*
Y426776D01*
X224016D01*
X224508Y426284D01*
Y425300D01*
X224016Y424808D01*
X222540D01*
X223524D02*
X224508Y423824D01*
X225492Y426284D02*
X225984Y426776D01*
X226968D01*
X227460Y426284D01*
Y425792D01*
X226968Y425300D01*
X227460Y424808D01*
Y424316D01*
X226968Y423824D01*
X225984D01*
X225492Y424316D01*
Y424808D01*
X225984Y425300D01*
X225492Y425792D01*
Y426284D01*
X225984Y425300D02*
X226968D01*
X215032Y440984D02*
X214540Y441476D01*
X213556D01*
X213064Y440984D01*
Y439016D01*
X213556Y438524D01*
X214540D01*
X215032Y439016D01*
X217984Y438524D02*
X216016D01*
X217984Y440492D01*
Y440984D01*
X217492Y441476D01*
X216508D01*
X216016Y440984D01*
X218968D02*
X219460Y441476D01*
X220444D01*
X220936Y440984D01*
Y440492D01*
X220444Y440000D01*
X219952D01*
X220444D01*
X220936Y439508D01*
Y439016D01*
X220444Y438524D01*
X219460D01*
X218968Y439016D01*
X214302Y425476D02*
X215286D01*
X214794D01*
Y422524D01*
X214302D01*
X215286D01*
X218730Y424984D02*
X218238Y425476D01*
X217254D01*
X216762Y424984D01*
Y423016D01*
X217254Y422524D01*
X218238D01*
X218730Y423016D01*
X219714Y422524D02*
X220698D01*
X220206D01*
Y425476D01*
X219714Y424984D01*
X206832Y425984D02*
X206340Y426476D01*
X205356D01*
X204864Y425984D01*
Y424016D01*
X205356Y423524D01*
X206340D01*
X206832Y424016D01*
X209784Y423524D02*
X207816D01*
X209784Y425492D01*
Y425984D01*
X209292Y426476D01*
X208308D01*
X207816Y425984D01*
X212736Y423524D02*
X210768D01*
X212736Y425492D01*
Y425984D01*
X212244Y426476D01*
X211260D01*
X210768Y425984D01*
X208910Y387624D02*
Y390576D01*
X210386D01*
X210878Y390084D01*
Y389100D01*
X210386Y388608D01*
X208910D01*
X209894D02*
X210878Y387624D01*
X211862D02*
X212846D01*
X212354D01*
Y390576D01*
X211862Y390084D01*
X214322D02*
X214814Y390576D01*
X215798D01*
X216290Y390084D01*
Y389592D01*
X215798Y389100D01*
X215306D01*
X215798D01*
X216290Y388608D01*
Y388116D01*
X215798Y387624D01*
X214814D01*
X214322Y388116D01*
X200610Y401924D02*
Y404876D01*
X202086D01*
X202578Y404384D01*
Y403400D01*
X202086Y402908D01*
X200610D01*
X201594D02*
X202578Y401924D01*
X203562D02*
X204546D01*
X204054D01*
Y404876D01*
X203562Y404384D01*
X207990Y401924D02*
X206022D01*
X207990Y403892D01*
Y404384D01*
X207498Y404876D01*
X206514D01*
X206022Y404384D01*
X176856Y388524D02*
Y391476D01*
X178332D01*
X178824Y390984D01*
Y390000D01*
X178332Y389508D01*
X176856D01*
X177840D02*
X178824Y388524D01*
X181284D02*
Y391476D01*
X179808Y390000D01*
X181776D01*
X182760Y388524D02*
X183744D01*
X183252D01*
Y391476D01*
X182760Y390984D01*
X163300Y388176D02*
X161332D01*
Y386700D01*
X162316D01*
X161332D01*
Y385224D01*
X164284D02*
X165268D01*
X164776D01*
Y388176D01*
X164284Y387684D01*
X169564Y408676D02*
Y405724D01*
X171040D01*
X171532Y406216D01*
Y408184D01*
X171040Y408676D01*
X169564D01*
X174484Y408184D02*
X173992Y408676D01*
X173008D01*
X172516Y408184D01*
Y407692D01*
X173008Y407200D01*
X173992D01*
X174484Y406708D01*
Y406216D01*
X173992Y405724D01*
X173008D01*
X172516Y406216D01*
X175468Y408184D02*
X175960Y408676D01*
X176944D01*
X177436Y408184D01*
Y407692D01*
X176944Y407200D01*
X176452D01*
X176944D01*
X177436Y406708D01*
Y406216D01*
X176944Y405724D01*
X175960D01*
X175468Y406216D01*
X167140Y339924D02*
Y342876D01*
X168616D01*
X169108Y342384D01*
Y341400D01*
X168616Y340908D01*
X167140D01*
X168124D02*
X169108Y339924D01*
X170092Y342384D02*
X170584Y342876D01*
X171568D01*
X172060Y342384D01*
Y341892D01*
X171568Y341400D01*
X171076D01*
X171568D01*
X172060Y340908D01*
Y340416D01*
X171568Y339924D01*
X170584D01*
X170092Y340416D01*
X177240Y376024D02*
Y378976D01*
X178716D01*
X179208Y378484D01*
Y377500D01*
X178716Y377008D01*
X177240D01*
X178224D02*
X179208Y376024D01*
X182160D02*
X180192D01*
X182160Y377992D01*
Y378484D01*
X181668Y378976D01*
X180684D01*
X180192Y378484D01*
X204132Y347476D02*
Y346984D01*
X205116Y346000D01*
X206100Y346984D01*
Y347476D01*
X205116Y346000D02*
Y344524D01*
X207084D02*
X208068D01*
X207576D01*
Y347476D01*
X207084Y346984D01*
X209316Y328932D02*
X208824Y328440D01*
Y327456D01*
X209316Y326964D01*
X211284D01*
X211776Y327456D01*
Y328440D01*
X211284Y328932D01*
X211776Y331884D02*
Y329916D01*
X209808Y331884D01*
X209316D01*
X208824Y331392D01*
Y330408D01*
X209316Y329916D01*
Y332868D02*
X208824Y333360D01*
Y334344D01*
X209316Y334836D01*
X211284D01*
X211776Y334344D01*
Y333360D01*
X211284Y332868D01*
X209316D01*
X230116Y329824D02*
X229624Y329332D01*
Y328348D01*
X230116Y327856D01*
X232084D01*
X232576Y328348D01*
Y329332D01*
X232084Y329824D01*
X232576Y332776D02*
Y330808D01*
X230608Y332776D01*
X230116D01*
X229624Y332284D01*
Y331300D01*
X230116Y330808D01*
X232576Y333760D02*
Y334744D01*
Y334252D01*
X229624D01*
X230116Y333760D01*
X237476Y338410D02*
X234524D01*
Y339886D01*
X235016Y340378D01*
X236000D01*
X236492Y339886D01*
Y338410D01*
Y339394D02*
X237476Y340378D01*
Y341362D02*
Y342346D01*
Y341854D01*
X234524D01*
X235016Y341362D01*
Y343822D02*
X234524Y344314D01*
Y345298D01*
X235016Y345790D01*
X235508D01*
X236000Y345298D01*
X236492Y345790D01*
X236984D01*
X237476Y345298D01*
Y344314D01*
X236984Y343822D01*
X236492D01*
X236000Y344314D01*
X235508Y343822D01*
X235016D01*
X236000Y344314D02*
Y345298D01*
X238976Y328364D02*
X236024D01*
Y329840D01*
X236516Y330332D01*
X237500D01*
X237992Y329840D01*
Y328364D01*
Y329348D02*
X238976Y330332D01*
Y333284D02*
Y331316D01*
X237008Y333284D01*
X236516D01*
X236024Y332792D01*
Y331808D01*
X236516Y331316D01*
X238976Y336236D02*
Y334268D01*
X237008Y336236D01*
X236516D01*
X236024Y335744D01*
Y334760D01*
X236516Y334268D01*
X240176Y315564D02*
X237224D01*
Y317040D01*
X237716Y317532D01*
X238700D01*
X239192Y317040D01*
Y315564D01*
Y316548D02*
X240176Y317532D01*
Y320484D02*
Y318516D01*
X238208Y320484D01*
X237716D01*
X237224Y319992D01*
Y319008D01*
X237716Y318516D01*
X237224Y323436D02*
X237716Y322452D01*
X238700Y321468D01*
X239684D01*
X240176Y321960D01*
Y322944D01*
X239684Y323436D01*
X239192D01*
X238700Y322944D01*
Y321468D01*
X256676Y312864D02*
X253724D01*
Y314340D01*
X254216Y314832D01*
X255200D01*
X255692Y314340D01*
Y312864D01*
Y313848D02*
X256676Y314832D01*
Y317784D02*
Y315816D01*
X254708Y317784D01*
X254216D01*
X253724Y317292D01*
Y316308D01*
X254216Y315816D01*
Y318768D02*
X253724Y319260D01*
Y320244D01*
X254216Y320736D01*
X254708D01*
X255200Y320244D01*
X255692Y320736D01*
X256184D01*
X256676Y320244D01*
Y319260D01*
X256184Y318768D01*
X255692D01*
X255200Y319260D01*
X254708Y318768D01*
X254216D01*
X255200Y319260D02*
Y320244D01*
X288532Y236184D02*
X288040Y236676D01*
X287056D01*
X286564Y236184D01*
Y234216D01*
X287056Y233724D01*
X288040D01*
X288532Y234216D01*
X289516Y236184D02*
X290008Y236676D01*
X290992D01*
X291484Y236184D01*
Y235692D01*
X290992Y235200D01*
X290500D01*
X290992D01*
X291484Y234708D01*
Y234216D01*
X290992Y233724D01*
X290008D01*
X289516Y234216D01*
X292468Y236184D02*
X292960Y236676D01*
X293944D01*
X294436Y236184D01*
Y234216D01*
X293944Y233724D01*
X292960D01*
X292468Y234216D01*
Y236184D01*
X385064Y265424D02*
Y268376D01*
X386540D01*
X387032Y267884D01*
Y266900D01*
X386540Y266408D01*
X385064D01*
X386048D02*
X387032Y265424D01*
X389492D02*
Y268376D01*
X388016Y266900D01*
X389984D01*
X390968Y267884D02*
X391460Y268376D01*
X392444D01*
X392936Y267884D01*
Y265916D01*
X392444Y265424D01*
X391460D01*
X390968Y265916D01*
Y267884D01*
X390864Y281776D02*
Y278824D01*
X392340D01*
X392832Y279316D01*
Y281284D01*
X392340Y281776D01*
X390864D01*
X395784Y281284D02*
X395292Y281776D01*
X394308D01*
X393816Y281284D01*
Y280792D01*
X394308Y280300D01*
X395292D01*
X395784Y279808D01*
Y279316D01*
X395292Y278824D01*
X394308D01*
X393816Y279316D01*
X398736Y278824D02*
X396768D01*
X398736Y280792D01*
Y281284D01*
X398244Y281776D01*
X397260D01*
X396768Y281284D01*
X330564Y290924D02*
Y293876D01*
X332040D01*
X332532Y293384D01*
Y292400D01*
X332040Y291908D01*
X330564D01*
X331548D02*
X332532Y290924D01*
X333516Y293384D02*
X334008Y293876D01*
X334992D01*
X335484Y293384D01*
Y292892D01*
X334992Y292400D01*
X334500D01*
X334992D01*
X335484Y291908D01*
Y291416D01*
X334992Y290924D01*
X334008D01*
X333516Y291416D01*
X336468Y293384D02*
X336960Y293876D01*
X337944D01*
X338436Y293384D01*
Y292892D01*
X337944Y292400D01*
X338436Y291908D01*
Y291416D01*
X337944Y290924D01*
X336960D01*
X336468Y291416D01*
Y291908D01*
X336960Y292400D01*
X336468Y292892D01*
Y293384D01*
X336960Y292400D02*
X337944D01*
X335808Y351476D02*
X334824D01*
X335316D01*
Y349016D01*
X334824Y348524D01*
X334332D01*
X333840Y349016D01*
X338760Y348524D02*
X336792D01*
X338760Y350492D01*
Y350984D01*
X338268Y351476D01*
X337284D01*
X336792Y350984D01*
X351864Y369424D02*
Y372376D01*
X353340D01*
X353832Y371884D01*
Y370900D01*
X353340Y370408D01*
X351864D01*
X352848D02*
X353832Y369424D01*
X356292D02*
Y372376D01*
X354816Y370900D01*
X356784D01*
X357768Y372376D02*
X359736D01*
Y371884D01*
X357768Y369916D01*
Y369424D01*
X362640Y392876D02*
Y389924D01*
X364116D01*
X364608Y390416D01*
Y392384D01*
X364116Y392876D01*
X362640D01*
X367068Y389924D02*
Y392876D01*
X365592Y391400D01*
X367560D01*
X336340Y408476D02*
Y405524D01*
X337816D01*
X338308Y406016D01*
Y407984D01*
X337816Y408476D01*
X336340D01*
X341260Y405524D02*
X339292D01*
X341260Y407492D01*
Y407984D01*
X340768Y408476D01*
X339784D01*
X339292Y407984D01*
X321564Y412324D02*
Y415276D01*
X323040D01*
X323532Y414784D01*
Y413800D01*
X323040Y413308D01*
X321564D01*
X322548D02*
X323532Y412324D01*
X325992D02*
Y415276D01*
X324516Y413800D01*
X326484D01*
X328944Y412324D02*
Y415276D01*
X327468Y413800D01*
X329436D01*
X344340Y424824D02*
Y427776D01*
X345816D01*
X346308Y427284D01*
Y426300D01*
X345816Y425808D01*
X344340D01*
X345324D02*
X346308Y424824D01*
X348768D02*
Y427776D01*
X347292Y426300D01*
X349260D01*
X368808Y401876D02*
X367824D01*
X368316D01*
Y399416D01*
X367824Y398924D01*
X367332D01*
X366840Y399416D01*
X371760Y401876D02*
X369792D01*
Y400400D01*
X370776Y400892D01*
X371268D01*
X371760Y400400D01*
Y399416D01*
X371268Y398924D01*
X370284D01*
X369792Y399416D01*
X360900Y418176D02*
X359916D01*
X360408D01*
Y415716D01*
X359916Y415224D01*
X359424D01*
X358932Y415716D01*
X361884Y415224D02*
X362868D01*
X362376D01*
Y418176D01*
X361884Y417684D01*
X339532Y494476D02*
Y491524D01*
X341008D01*
X341500Y492016D01*
Y493984D01*
X341008Y494476D01*
X339532D01*
X342484Y491524D02*
X343468D01*
X342976D01*
Y494476D01*
X342484Y493984D01*
X335286Y481693D02*
X334794Y482185D01*
X333810D01*
X333318Y481693D01*
Y479725D01*
X333810Y479233D01*
X334794D01*
X335286Y479725D01*
X336270Y479233D02*
X337254D01*
X336762D01*
Y482185D01*
X336270Y481693D01*
X338730Y479725D02*
X339222Y479233D01*
X340206D01*
X340698Y479725D01*
Y481693D01*
X340206Y482185D01*
X339222D01*
X338730Y481693D01*
Y481201D01*
X339222Y480709D01*
X340698D01*
X336424Y464984D02*
X335932Y465476D01*
X334948D01*
X334456Y464984D01*
Y464492D01*
X334948Y464000D01*
X335932D01*
X336424Y463508D01*
Y463016D01*
X335932Y462524D01*
X334948D01*
X334456Y463016D01*
X337408Y465476D02*
Y462524D01*
X338392Y463508D01*
X339376Y462524D01*
Y465476D01*
X340360Y462524D02*
X341344D01*
X340852D01*
Y465476D01*
X340360Y464984D01*
X320608Y493376D02*
X319624D01*
X320116D01*
Y490916D01*
X319624Y490424D01*
X319132D01*
X318640Y490916D01*
X323068Y490424D02*
Y493376D01*
X321592Y491900D01*
X323560D01*
X248364Y452424D02*
Y455376D01*
X249840D01*
X250332Y454884D01*
Y453900D01*
X249840Y453408D01*
X248364D01*
X249348D02*
X250332Y452424D01*
X252792D02*
Y455376D01*
X251316Y453900D01*
X253284D01*
X254268Y454884D02*
X254760Y455376D01*
X255744D01*
X256236Y454884D01*
Y454392D01*
X255744Y453900D01*
X255252D01*
X255744D01*
X256236Y453408D01*
Y452916D01*
X255744Y452424D01*
X254760D01*
X254268Y452916D01*
X248164Y464024D02*
Y466976D01*
X249640D01*
X250132Y466484D01*
Y465500D01*
X249640Y465008D01*
X248164D01*
X249148D02*
X250132Y464024D01*
X252592D02*
Y466976D01*
X251116Y465500D01*
X253084D01*
X256036Y464024D02*
X254068D01*
X256036Y465992D01*
Y466484D01*
X255544Y466976D01*
X254560D01*
X254068Y466484D01*
X248364Y475224D02*
Y478176D01*
X249840D01*
X250332Y477684D01*
Y476700D01*
X249840Y476208D01*
X248364D01*
X249348D02*
X250332Y475224D01*
X252792D02*
Y478176D01*
X251316Y476700D01*
X253284D01*
X256236Y478176D02*
X255252Y477684D01*
X254268Y476700D01*
Y475716D01*
X254760Y475224D01*
X255744D01*
X256236Y475716D01*
Y476208D01*
X255744Y476700D01*
X254268D01*
X248564Y487824D02*
Y490776D01*
X250040D01*
X250532Y490284D01*
Y489300D01*
X250040Y488808D01*
X248564D01*
X249548D02*
X250532Y487824D01*
X252992D02*
Y490776D01*
X251516Y489300D01*
X253484D01*
X256436Y490776D02*
X254468D01*
Y489300D01*
X255452Y489792D01*
X255944D01*
X256436Y489300D01*
Y488316D01*
X255944Y487824D01*
X254960D01*
X254468Y488316D01*
X174232Y453784D02*
X173740Y454276D01*
X172756D01*
X172264Y453784D01*
Y451816D01*
X172756Y451324D01*
X173740D01*
X174232Y451816D01*
Y452800D01*
X173248D01*
X175216Y451324D02*
Y454276D01*
X177184Y451324D01*
Y454276D01*
X178168D02*
Y451324D01*
X179644D01*
X180136Y451816D01*
Y453784D01*
X179644Y454276D01*
X178168D01*
X118898Y497441D02*
X118406Y497933D01*
X117422D01*
X116930Y497441D01*
Y495473D01*
X117422Y494981D01*
X118406D01*
X118898Y495473D01*
X119882Y494981D02*
X120865D01*
X120373D01*
Y497933D01*
X119882Y497441D01*
X330164Y312924D02*
Y315876D01*
X331640D01*
X332132Y315384D01*
Y314400D01*
X331640Y313908D01*
X330164D01*
X331148D02*
X332132Y312924D01*
X333116Y315384D02*
X333608Y315876D01*
X334592D01*
X335084Y315384D01*
Y314892D01*
X334592Y314400D01*
X334100D01*
X334592D01*
X335084Y313908D01*
Y313416D01*
X334592Y312924D01*
X333608D01*
X333116Y313416D01*
X336068D02*
X336560Y312924D01*
X337544D01*
X338036Y313416D01*
Y315384D01*
X337544Y315876D01*
X336560D01*
X336068Y315384D01*
Y314892D01*
X336560Y314400D01*
X338036D01*
X310132Y278084D02*
X309640Y278576D01*
X308656D01*
X308164Y278084D01*
Y276116D01*
X308656Y275624D01*
X309640D01*
X310132Y276116D01*
X313084Y275624D02*
X311116D01*
X313084Y277592D01*
Y278084D01*
X312592Y278576D01*
X311608D01*
X311116Y278084D01*
X314068Y276116D02*
X314560Y275624D01*
X315544D01*
X316036Y276116D01*
Y278084D01*
X315544Y278576D01*
X314560D01*
X314068Y278084D01*
Y277592D01*
X314560Y277100D01*
X316036D01*
X310532Y271684D02*
X310040Y272176D01*
X309056D01*
X308564Y271684D01*
Y269716D01*
X309056Y269224D01*
X310040D01*
X310532Y269716D01*
X313484Y269224D02*
X311516D01*
X313484Y271192D01*
Y271684D01*
X312992Y272176D01*
X312008D01*
X311516Y271684D01*
X314468D02*
X314960Y272176D01*
X315944D01*
X316436Y271684D01*
Y271192D01*
X315944Y270700D01*
X316436Y270208D01*
Y269716D01*
X315944Y269224D01*
X314960D01*
X314468Y269716D01*
Y270208D01*
X314960Y270700D01*
X314468Y271192D01*
Y271684D01*
X314960Y270700D02*
X315944D01*
X172210Y424924D02*
X173194D01*
X172702D01*
Y427876D01*
X172210Y427384D01*
X176638Y424924D02*
X174670D01*
X176638Y426892D01*
Y427384D01*
X176146Y427876D01*
X175162D01*
X174670Y427384D01*
X177622Y427876D02*
Y425908D01*
X178606Y424924D01*
X179590Y425908D01*
Y427876D01*
X170834Y479184D02*
X171326Y479676D01*
X172310D01*
X172802Y479184D01*
Y478692D01*
X172310Y478200D01*
X171818D01*
X172310D01*
X172802Y477708D01*
Y477216D01*
X172310Y476724D01*
X171326D01*
X170834Y477216D01*
X173786Y476724D02*
Y477216D01*
X174278D01*
Y476724D01*
X173786D01*
X176246Y479184D02*
X176738Y479676D01*
X177722D01*
X178214Y479184D01*
Y478692D01*
X177722Y478200D01*
X177230D01*
X177722D01*
X178214Y477708D01*
Y477216D01*
X177722Y476724D01*
X176738D01*
X176246Y477216D01*
X179198Y479676D02*
Y477708D01*
X180182Y476724D01*
X181166Y477708D01*
Y479676D01*
X337164Y369324D02*
Y372276D01*
X338640D01*
X339132Y371784D01*
Y370800D01*
X338640Y370308D01*
X337164D01*
X338148D02*
X339132Y369324D01*
X341592D02*
Y372276D01*
X340116Y370800D01*
X342084D01*
X343068Y371784D02*
X343560Y372276D01*
X344544D01*
X345036Y371784D01*
Y371292D01*
X344544Y370800D01*
X345036Y370308D01*
Y369816D01*
X344544Y369324D01*
X343560D01*
X343068Y369816D01*
Y370308D01*
X343560Y370800D01*
X343068Y371292D01*
Y371784D01*
X343560Y370800D02*
X344544D01*
X310232Y266084D02*
X309740Y266576D01*
X308756D01*
X308264Y266084D01*
Y264116D01*
X308756Y263624D01*
X309740D01*
X310232Y264116D01*
X313184Y263624D02*
X311216D01*
X313184Y265592D01*
Y266084D01*
X312692Y266576D01*
X311708D01*
X311216Y266084D01*
X314168Y266576D02*
X316136D01*
Y266084D01*
X314168Y264116D01*
Y263624D01*
X319378Y396584D02*
X318886Y397076D01*
X317902D01*
X317410Y396584D01*
Y394616D01*
X317902Y394124D01*
X318886D01*
X319378Y394616D01*
X320362Y394124D02*
X321346D01*
X320854D01*
Y397076D01*
X320362Y396584D01*
X324790Y397076D02*
X323806Y396584D01*
X322822Y395600D01*
Y394616D01*
X323314Y394124D01*
X324298D01*
X324790Y394616D01*
Y395108D01*
X324298Y395600D01*
X322822D01*
X328708Y396184D02*
X328216Y396676D01*
X327232D01*
X326740Y396184D01*
Y394216D01*
X327232Y393724D01*
X328216D01*
X328708Y394216D01*
X331660Y396676D02*
X329692D01*
Y395200D01*
X330676Y395692D01*
X331168D01*
X331660Y395200D01*
Y394216D01*
X331168Y393724D01*
X330184D01*
X329692Y394216D01*
D17*
X182299Y273897D02*
X180299D01*
X181299D01*
Y268899D01*
X180299Y267899D01*
X179300D01*
X178300Y268899D01*
X184298Y271898D02*
Y268899D01*
X185298Y267899D01*
X188297D01*
Y271898D01*
X190296Y267899D02*
X193295D01*
X194295Y268899D01*
X193295Y269899D01*
X191296D01*
X190296Y270898D01*
X191296Y271898D01*
X194295D01*
X197294Y272898D02*
Y271898D01*
X196294D01*
X198293D01*
X197294D01*
Y268899D01*
X198293Y267899D01*
X201293D02*
X203292D01*
X202292D01*
Y271898D01*
X201293D01*
X206291Y267899D02*
Y271898D01*
X209290D01*
X210290Y270898D01*
Y267899D01*
X218287Y273897D02*
Y269899D01*
X220286Y267899D01*
X222286Y269899D01*
Y273897D01*
X224285Y271898D02*
Y268899D01*
X225285Y267899D01*
X228284D01*
Y271898D01*
X231283Y267899D02*
X233282D01*
X234282Y268899D01*
Y270898D01*
X233282Y271898D01*
X231283D01*
X230283Y270898D01*
Y268899D01*
X231283Y267899D01*
X236281D02*
Y271898D01*
X239280D01*
X240280Y270898D01*
Y267899D01*
X244279Y265900D02*
X245278D01*
X246278Y266900D01*
Y271898D01*
X243279D01*
X242279Y270898D01*
Y268899D01*
X243279Y267899D01*
X246278D01*
X204899Y277100D02*
X200900D01*
X204899Y281098D01*
Y282098D01*
X203899Y283098D01*
X201900D01*
X200900Y282098D01*
X206898D02*
X207898Y283098D01*
X209897D01*
X210897Y282098D01*
Y278099D01*
X209897Y277100D01*
X207898D01*
X206898Y278099D01*
Y282098D01*
X216895Y277100D02*
X212896D01*
X216895Y281098D01*
Y282098D01*
X215895Y283098D01*
X213896D01*
X212896Y282098D01*
X221893Y277100D02*
Y283098D01*
X218894Y280099D01*
X222893D01*
X224892Y276100D02*
X228891D01*
X230890Y283098D02*
X234889D01*
X232890D01*
Y277100D01*
X240887Y282098D02*
X239887Y283098D01*
X237888D01*
X236888Y282098D01*
Y278099D01*
X237888Y277100D01*
X239887D01*
X240887Y278099D01*
X242886Y283098D02*
Y278099D01*
X243886Y277100D01*
X245885D01*
X246885Y278099D01*
Y283098D01*
M02*
