G04*
G04 #@! TF.GenerationSoftware,Altium Limited,Altium Designer,23.5.1 (21)*
G04*
G04 Layer_Color=128*
%FSLAX25Y25*%
%MOIN*%
G70*
G04*
G04 #@! TF.SameCoordinates,80D67788-F2EE-4A8B-BDA7-D5AA6EA99E9C*
G04*
G04*
G04 #@! TF.FilePolarity,Positive*
G04*
G01*
G75*
%ADD19R,0.03937X0.02953*%
%ADD20R,0.02985X0.03197*%
%ADD23R,0.03543X0.03937*%
%ADD25R,0.03937X0.03543*%
%ADD40R,0.02165X0.01772*%
%ADD41R,0.04724X0.04724*%
%ADD42R,0.04134X0.03543*%
%ADD119R,0.02953X0.03937*%
%ADD120R,0.06496X0.02992*%
%ADD121R,0.01181X0.05807*%
%ADD122R,0.05807X0.01181*%
%ADD123R,0.06528X0.04156*%
%ADD124R,0.05906X0.03937*%
G04:AMPARAMS|DCode=125|XSize=25.59mil|YSize=64.96mil|CornerRadius=1.92mil|HoleSize=0mil|Usage=FLASHONLY|Rotation=270.000|XOffset=0mil|YOffset=0mil|HoleType=Round|Shape=RoundedRectangle|*
%AMROUNDEDRECTD125*
21,1,0.02559,0.06112,0,0,270.0*
21,1,0.02175,0.06496,0,0,270.0*
1,1,0.00384,-0.03056,-0.01088*
1,1,0.00384,-0.03056,0.01088*
1,1,0.00384,0.03056,0.01088*
1,1,0.00384,0.03056,-0.01088*
%
%ADD125ROUNDEDRECTD125*%
G04:AMPARAMS|DCode=126|XSize=65.17mil|YSize=23.72mil|CornerRadius=11.86mil|HoleSize=0mil|Usage=FLASHONLY|Rotation=180.000|XOffset=0mil|YOffset=0mil|HoleType=Round|Shape=RoundedRectangle|*
%AMROUNDEDRECTD126*
21,1,0.06517,0.00000,0,0,180.0*
21,1,0.04145,0.02372,0,0,180.0*
1,1,0.02372,-0.02072,0.00000*
1,1,0.02372,0.02072,0.00000*
1,1,0.02372,0.02072,0.00000*
1,1,0.02372,-0.02072,0.00000*
%
%ADD126ROUNDEDRECTD126*%
%ADD127R,0.06517X0.02372*%
%ADD128R,0.05709X0.05118*%
G04:AMPARAMS|DCode=130|XSize=108.27mil|YSize=39.37mil|CornerRadius=1.97mil|HoleSize=0mil|Usage=FLASHONLY|Rotation=0.000|XOffset=0mil|YOffset=0mil|HoleType=Round|Shape=RoundedRectangle|*
%AMROUNDEDRECTD130*
21,1,0.10827,0.03543,0,0,0.0*
21,1,0.10433,0.03937,0,0,0.0*
1,1,0.00394,0.05217,-0.01772*
1,1,0.00394,-0.05217,-0.01772*
1,1,0.00394,-0.05217,0.01772*
1,1,0.00394,0.05217,0.01772*
%
%ADD130ROUNDEDRECTD130*%
%ADD131R,0.03740X0.05512*%
%ADD132R,0.03150X0.03543*%
%ADD133R,0.04331X0.05118*%
G36*
X227635Y482549D02*
X227691Y482493D01*
X227720Y482421D01*
Y482382D01*
Y478327D01*
Y478288D01*
X227691Y478215D01*
X227635Y478160D01*
X227563Y478130D01*
X224020D01*
X223948Y478160D01*
X223892Y478215D01*
X223862Y478288D01*
Y478327D01*
Y482382D01*
Y482421D01*
X223892Y482493D01*
X223948Y482549D01*
X224020Y482579D01*
X227563D01*
X227635Y482549D01*
D02*
G37*
G36*
X222989D02*
X223045Y482493D01*
X223075Y482421D01*
Y482382D01*
Y478327D01*
Y478288D01*
X223045Y478215D01*
X222989Y478160D01*
X222917Y478130D01*
X219374D01*
X219302Y478160D01*
X219247Y478215D01*
X219216Y478288D01*
Y478327D01*
Y482382D01*
Y482421D01*
X219247Y482493D01*
X219302Y482549D01*
X219374Y482579D01*
X222917D01*
X222989Y482549D01*
D02*
G37*
G36*
X218344D02*
X218399Y482493D01*
X218429Y482421D01*
Y482382D01*
Y478327D01*
Y478288D01*
X218399Y478215D01*
X218344Y478160D01*
X218271Y478130D01*
X214728D01*
X214656Y478160D01*
X214601Y478215D01*
X214571Y478288D01*
Y478327D01*
Y482382D01*
Y482421D01*
X214601Y482493D01*
X214656Y482549D01*
X214728Y482579D01*
X218271D01*
X218344Y482549D01*
D02*
G37*
G36*
X213698D02*
X213754Y482493D01*
X213784Y482421D01*
Y482382D01*
Y478327D01*
Y478288D01*
X213754Y478215D01*
X213698Y478160D01*
X213626Y478130D01*
X210083D01*
X210011Y478160D01*
X209955Y478215D01*
X209925Y478288D01*
Y478327D01*
Y482382D01*
Y482421D01*
X209955Y482493D01*
X210011Y482549D01*
X210083Y482579D01*
X213626D01*
X213698Y482549D01*
D02*
G37*
G36*
X209052D02*
X209108Y482493D01*
X209138Y482421D01*
Y482382D01*
Y478327D01*
Y478288D01*
X209108Y478215D01*
X209052Y478160D01*
X208980Y478130D01*
X205437D01*
X205365Y478160D01*
X205310Y478215D01*
X205279Y478288D01*
Y478327D01*
Y482382D01*
Y482421D01*
X205310Y482493D01*
X205365Y482549D01*
X205437Y482579D01*
X208980D01*
X209052Y482549D01*
D02*
G37*
G36*
X227635Y477313D02*
X227691Y477257D01*
X227720Y477185D01*
Y477146D01*
Y473091D01*
Y473051D01*
X227691Y472979D01*
X227635Y472924D01*
X227563Y472894D01*
X224020D01*
X223948Y472924D01*
X223892Y472979D01*
X223862Y473051D01*
Y473091D01*
Y477146D01*
Y477185D01*
X223892Y477257D01*
X223948Y477313D01*
X224020Y477343D01*
X227563D01*
X227635Y477313D01*
D02*
G37*
G36*
X222989D02*
X223045Y477257D01*
X223075Y477185D01*
Y477146D01*
Y473091D01*
Y473051D01*
X223045Y472979D01*
X222989Y472924D01*
X222917Y472894D01*
X219374D01*
X219302Y472924D01*
X219247Y472979D01*
X219216Y473051D01*
Y473091D01*
Y477146D01*
Y477185D01*
X219247Y477257D01*
X219302Y477313D01*
X219374Y477343D01*
X222917D01*
X222989Y477313D01*
D02*
G37*
G36*
X218344D02*
X218399Y477257D01*
X218429Y477185D01*
Y477146D01*
Y473091D01*
Y473051D01*
X218399Y472979D01*
X218344Y472924D01*
X218271Y472894D01*
X214728D01*
X214656Y472924D01*
X214601Y472979D01*
X214571Y473051D01*
Y473091D01*
Y477146D01*
Y477185D01*
X214601Y477257D01*
X214656Y477313D01*
X214728Y477343D01*
X218271D01*
X218344Y477313D01*
D02*
G37*
G36*
X213698D02*
X213754Y477257D01*
X213784Y477185D01*
Y477146D01*
Y473091D01*
Y473051D01*
X213754Y472979D01*
X213698Y472924D01*
X213626Y472894D01*
X210083D01*
X210011Y472924D01*
X209955Y472979D01*
X209925Y473051D01*
Y473091D01*
Y477146D01*
Y477185D01*
X209955Y477257D01*
X210011Y477313D01*
X210083Y477343D01*
X213626D01*
X213698Y477313D01*
D02*
G37*
G36*
X209052D02*
X209108Y477257D01*
X209138Y477185D01*
Y477146D01*
Y473091D01*
Y473051D01*
X209108Y472979D01*
X209052Y472924D01*
X208980Y472894D01*
X205437D01*
X205365Y472924D01*
X205310Y472979D01*
X205279Y473051D01*
Y473091D01*
Y477146D01*
Y477185D01*
X205310Y477257D01*
X205365Y477313D01*
X205437Y477343D01*
X208980D01*
X209052Y477313D01*
D02*
G37*
G36*
X227635Y472076D02*
X227691Y472021D01*
X227720Y471949D01*
Y471910D01*
Y467854D01*
Y467815D01*
X227691Y467743D01*
X227635Y467687D01*
X227563Y467658D01*
X224020D01*
X223948Y467687D01*
X223892Y467743D01*
X223862Y467815D01*
Y467854D01*
Y471910D01*
Y471949D01*
X223892Y472021D01*
X223948Y472076D01*
X224020Y472106D01*
X227563D01*
X227635Y472076D01*
D02*
G37*
G36*
X222989D02*
X223045Y472021D01*
X223075Y471949D01*
Y471910D01*
Y467854D01*
Y467815D01*
X223045Y467743D01*
X222989Y467687D01*
X222917Y467658D01*
X219374D01*
X219302Y467687D01*
X219247Y467743D01*
X219216Y467815D01*
Y467854D01*
Y471910D01*
Y471949D01*
X219247Y472021D01*
X219302Y472076D01*
X219374Y472106D01*
X222917D01*
X222989Y472076D01*
D02*
G37*
G36*
X218344D02*
X218399Y472021D01*
X218429Y471949D01*
Y471910D01*
Y467854D01*
Y467815D01*
X218399Y467743D01*
X218344Y467687D01*
X218271Y467658D01*
X214728D01*
X214656Y467687D01*
X214601Y467743D01*
X214571Y467815D01*
Y467854D01*
Y471910D01*
Y471949D01*
X214601Y472021D01*
X214656Y472076D01*
X214728Y472106D01*
X218271D01*
X218344Y472076D01*
D02*
G37*
G36*
X213698D02*
X213754Y472021D01*
X213784Y471949D01*
Y471910D01*
Y467854D01*
Y467815D01*
X213754Y467743D01*
X213698Y467687D01*
X213626Y467658D01*
X210083D01*
X210011Y467687D01*
X209955Y467743D01*
X209925Y467815D01*
Y467854D01*
Y471910D01*
Y471949D01*
X209955Y472021D01*
X210011Y472076D01*
X210083Y472106D01*
X213626D01*
X213698Y472076D01*
D02*
G37*
G36*
X209052D02*
X209108Y472021D01*
X209138Y471949D01*
Y471910D01*
Y467854D01*
Y467815D01*
X209108Y467743D01*
X209052Y467687D01*
X208980Y467658D01*
X205437D01*
X205365Y467687D01*
X205310Y467743D01*
X205279Y467815D01*
Y467854D01*
Y471910D01*
Y471949D01*
X205310Y472021D01*
X205365Y472076D01*
X205437Y472106D01*
X208980D01*
X209052Y472076D01*
D02*
G37*
G36*
X227635Y466840D02*
X227691Y466785D01*
X227720Y466712D01*
Y466673D01*
Y462618D01*
Y462579D01*
X227691Y462507D01*
X227635Y462451D01*
X227563Y462421D01*
X224020D01*
X223948Y462451D01*
X223892Y462507D01*
X223862Y462579D01*
Y462618D01*
Y466673D01*
Y466712D01*
X223892Y466785D01*
X223948Y466840D01*
X224020Y466870D01*
X227563D01*
X227635Y466840D01*
D02*
G37*
G36*
X222989D02*
X223045Y466785D01*
X223075Y466712D01*
Y466673D01*
Y462618D01*
Y462579D01*
X223045Y462507D01*
X222989Y462451D01*
X222917Y462421D01*
X219374D01*
X219302Y462451D01*
X219247Y462507D01*
X219216Y462579D01*
Y462618D01*
Y466673D01*
Y466712D01*
X219247Y466785D01*
X219302Y466840D01*
X219374Y466870D01*
X222917D01*
X222989Y466840D01*
D02*
G37*
G36*
X218344D02*
X218399Y466785D01*
X218429Y466712D01*
Y466673D01*
Y462618D01*
Y462579D01*
X218399Y462507D01*
X218344Y462451D01*
X218271Y462421D01*
X214728D01*
X214656Y462451D01*
X214601Y462507D01*
X214571Y462579D01*
Y462618D01*
Y466673D01*
Y466712D01*
X214601Y466785D01*
X214656Y466840D01*
X214728Y466870D01*
X218271D01*
X218344Y466840D01*
D02*
G37*
G36*
X213698D02*
X213754Y466785D01*
X213784Y466712D01*
Y466673D01*
Y462618D01*
Y462579D01*
X213754Y462507D01*
X213698Y462451D01*
X213626Y462421D01*
X210083D01*
X210011Y462451D01*
X209955Y462507D01*
X209925Y462579D01*
Y462618D01*
Y466673D01*
Y466712D01*
X209955Y466785D01*
X210011Y466840D01*
X210083Y466870D01*
X213626D01*
X213698Y466840D01*
D02*
G37*
G36*
X209052D02*
X209108Y466785D01*
X209138Y466712D01*
Y466673D01*
Y462618D01*
Y462579D01*
X209108Y462507D01*
X209052Y462451D01*
X208980Y462421D01*
X205437D01*
X205365Y462451D01*
X205310Y462507D01*
X205279Y462579D01*
Y462618D01*
Y466673D01*
Y466712D01*
X205310Y466785D01*
X205365Y466840D01*
X205437Y466870D01*
X208980D01*
X209052Y466840D01*
D02*
G37*
D19*
X264600Y360647D02*
D03*
Y366553D02*
D03*
D20*
X234032Y342600D02*
D03*
X238968D02*
D03*
X238332Y331300D02*
D03*
X243268D02*
D03*
D23*
X237900Y337000D02*
D03*
X243215D02*
D03*
X328643Y267300D02*
D03*
X333958D02*
D03*
X327542Y242600D02*
D03*
X332857D02*
D03*
X238142Y325800D02*
D03*
X243458D02*
D03*
X229743Y258500D02*
D03*
X235057D02*
D03*
X323458Y267100D02*
D03*
X318143D02*
D03*
X322358Y242700D02*
D03*
X317042D02*
D03*
D25*
X262600Y347158D02*
D03*
Y341843D02*
D03*
X180900Y476358D02*
D03*
Y471042D02*
D03*
X263500Y310457D02*
D03*
Y305142D02*
D03*
D40*
X215276Y490300D02*
D03*
X212324D02*
D03*
D41*
X190366Y490200D02*
D03*
X198634D02*
D03*
D42*
X332800Y344357D02*
D03*
Y339042D02*
D03*
D119*
X332953Y248900D02*
D03*
X327047D02*
D03*
X325547Y236800D02*
D03*
X331453D02*
D03*
X327947Y260900D02*
D03*
X333853D02*
D03*
X328347Y273300D02*
D03*
X334253D02*
D03*
D120*
X340248Y237300D02*
D03*
X373752D02*
D03*
X340248Y242300D02*
D03*
Y247300D02*
D03*
Y252300D02*
D03*
Y257300D02*
D03*
Y262300D02*
D03*
Y267300D02*
D03*
Y272300D02*
D03*
X373752Y242300D02*
D03*
Y247300D02*
D03*
Y252300D02*
D03*
Y257300D02*
D03*
Y262300D02*
D03*
Y267300D02*
D03*
Y272300D02*
D03*
D121*
X287127Y276485D02*
D03*
X285158D02*
D03*
X283190D02*
D03*
X281221D02*
D03*
X279253D02*
D03*
X277284D02*
D03*
X275316D02*
D03*
X273347D02*
D03*
X271379D02*
D03*
X269410D02*
D03*
X267442D02*
D03*
X265473D02*
D03*
Y243115D02*
D03*
X267442D02*
D03*
X269410D02*
D03*
X271379D02*
D03*
X273347D02*
D03*
X275316D02*
D03*
X277284D02*
D03*
X279253D02*
D03*
X281221D02*
D03*
X283190D02*
D03*
X285158D02*
D03*
X287127D02*
D03*
D122*
X259615Y270627D02*
D03*
Y268658D02*
D03*
Y266690D02*
D03*
Y264721D02*
D03*
Y262753D02*
D03*
Y260784D02*
D03*
Y258816D02*
D03*
Y256847D02*
D03*
Y254879D02*
D03*
Y252910D02*
D03*
Y250942D02*
D03*
Y248973D02*
D03*
X292985D02*
D03*
Y250942D02*
D03*
Y252910D02*
D03*
Y254879D02*
D03*
Y256847D02*
D03*
Y258816D02*
D03*
Y260784D02*
D03*
Y262753D02*
D03*
Y264721D02*
D03*
Y266690D02*
D03*
Y268658D02*
D03*
Y270627D02*
D03*
D123*
X255000Y326177D02*
D03*
Y336423D02*
D03*
D124*
X233900Y350301D02*
D03*
Y362899D02*
D03*
D125*
X161378Y404000D02*
D03*
Y409000D02*
D03*
Y414000D02*
D03*
Y419000D02*
D03*
X183622Y404000D02*
D03*
Y409000D02*
D03*
Y414000D02*
D03*
Y419000D02*
D03*
X228622D02*
D03*
Y414000D02*
D03*
Y409000D02*
D03*
Y404000D02*
D03*
X206378Y419000D02*
D03*
Y414000D02*
D03*
Y409000D02*
D03*
Y404000D02*
D03*
D126*
X208159Y391500D02*
D03*
X215841Y387760D02*
D03*
X161660Y391000D02*
D03*
X169341Y387260D02*
D03*
D127*
X215841Y395240D02*
D03*
X169341Y394740D02*
D03*
D128*
X149500Y415600D02*
D03*
Y409301D02*
D03*
X196200Y408650D02*
D03*
Y414950D02*
D03*
D130*
X190122Y481516D02*
D03*
Y463484D02*
D03*
D131*
X198742Y453200D02*
D03*
X191458D02*
D03*
D132*
X231447Y266300D02*
D03*
X237353D02*
D03*
D133*
X249648Y258166D02*
D03*
Y266434D02*
D03*
X243152D02*
D03*
Y258166D02*
D03*
M02*
